<svg xmlns="http://www.w3.org/2000/svg" width="168.333" height="87.833" viewBox="0 0 168.333 87.833">
  <g id="Group_383" data-name="Group 383" transform="translate(-348.601 -43.662)">
    <g id="Group_382" data-name="Group 382">
      <path id="Path_1559" data-name="Path 1559" d="M496.187,112.732l0-.015-.535-.8.438-.192.667,1,.079.567-4.423.617-.089-.642Z"/>
      <path id="Path_1560" data-name="Path 1560" d="M361.694,114.4l0,.015.32.9-.472.077-.4-1.135.064-.568,4.438.5-.073.644Z"/>
      <path id="Path_1561" data-name="Path 1561" d="M362.4,124.1c1.518.01,2.352.641,2.345,1.74-.006.968-.828,1.619-2.3,1.624-1.5-.009-2.318-.732-2.311-1.739C360.132,124.684,360.974,124.1,362.4,124.1Zm.051,2.693c1.161.008,1.823-.385,1.827-.995.005-.686-.714-1.019-1.855-1.026-1.1-.008-1.823.3-1.827.994C360.588,126.358,361.231,126.789,362.447,126.8Z"/>
      <path id="Path_1562" data-name="Path 1562" d="M495.259,124.1c1.519.01,2.352.641,2.345,1.74-.006.968-.828,1.619-2.3,1.624-1.5-.009-2.318-.732-2.311-1.739C492.995,124.684,493.837,124.1,495.259,124.1Zm.051,2.693c1.161.008,1.823-.385,1.827-.995.005-.686-.714-1.019-1.855-1.026-1.1-.008-1.823.3-1.827.994C493.451,126.358,494.094,126.789,495.31,126.8Z"/>
      <path id="Path_1563" data-name="Path 1563" d="M363.7,110.188c1.516.078,2.321.746,2.264,1.843-.05.967-.9,1.58-2.376,1.519-1.495-.077-2.282-.835-2.23-1.841C361.41,110.666,362.278,110.115,363.7,110.188Zm-.07,2.692c1.159.06,1.838-.3,1.87-.911.035-.686-.668-1.051-1.807-1.11-1.1-.056-1.835.219-1.871.912C361.79,112.358,362.413,112.818,363.628,112.88Z"/>
      <path id="Path_1564" data-name="Path 1564" d="M417.607,64.2l-.015,0-.794.537L416.6,64.3l1-.671.567-.081.634,4.42-.642.093Z"/>
      <path id="Path_1565" data-name="Path 1565" d="M422.237,65.11c.216,1.5-.284,2.421-1.372,2.577-.958.138-1.724-.578-1.949-2.038-.212-1.483.38-2.4,1.377-2.544C421.327,62.957,422.035,63.7,422.237,65.11Zm-2.655.45c.165,1.149.651,1.746,1.255,1.659.68-.1.9-.858.74-1.987-.156-1.088-.568-1.758-1.255-1.659C419.74,63.656,419.409,64.356,419.582,65.56Z"/>
      <path id="Path_1566" data-name="Path 1566" d="M425.818,64.6c.215,1.5-.285,2.422-1.372,2.578-.959.137-1.725-.579-1.949-2.039-.213-1.482.38-2.4,1.376-2.543C424.908,62.443,425.616,63.189,425.818,64.6Zm-2.656.451c.165,1.149.651,1.745,1.255,1.659.68-.1.9-.858.74-1.987-.156-1.088-.568-1.758-1.255-1.66C423.32,63.143,422.99,63.843,423.162,65.047Z"/>
      <path id="Path_1567" data-name="Path 1567" d="M441.481,56.392h-.015l-.9.335-.086-.47,1.128-.418.569.055-.422,4.445-.646-.061Z"/>
      <path id="Path_1568" data-name="Path 1568" d="M445.768,58.363c-.144,1.512-.846,2.287-1.939,2.183-.965-.092-1.54-.968-1.416-2.44.142-1.491.934-2.244,1.936-2.148C445.389,56.057,445.9,56.947,445.768,58.363Zm-2.687-.186c-.11,1.156.222,1.85.83,1.908.683.064,1.078-.623,1.186-1.758.1-1.094-.139-1.842-.83-1.908C443.682,56.363,443.2,56.966,443.081,58.177Z"/>
      <path id="Path_1569" data-name="Path 1569" d="M449.369,58.705c-.144,1.512-.846,2.287-1.939,2.183-.965-.091-1.541-.967-1.416-2.439.142-1.491.934-2.244,1.936-2.149C448.99,56.4,449.5,57.29,449.369,58.705Zm-2.687-.186c-.11,1.156.222,1.85.83,1.908.683.065,1.078-.622,1.186-1.758.1-1.094-.139-1.842-.83-1.908C447.283,56.706,446.8,57.308,446.682,58.519Z"/>
      <path id="Path_1570" data-name="Path 1570" d="M407.38,67.223l-.015,0-.7.652-.258-.4.884-.815.548-.167,1.3,4.273-.62.189Z"/>
      <path id="Path_1571" data-name="Path 1571" d="M409.726,66.509l-.015,0-.7.652-.258-.4.885-.815.547-.166,1.3,4.272-.621.189Z"/>
      <path id="Path_1572" data-name="Path 1572" d="M415.555,66.363c.442,1.453.087,2.437-.964,2.757-.927.281-1.792-.31-2.237-1.719-.435-1.432.011-2.43.974-2.723C414.328,64.374,415.141,65,415.555,66.363Zm-2.556.85c.338,1.111.909,1.626,1.493,1.449.657-.2.761-.986.429-2.077-.32-1.051-.829-1.651-1.493-1.449C412.865,65.307,412.645,66.049,413,67.213Z"/>
      <path id="Path_1573" data-name="Path 1573" d="M453.7,58.519l-.014-.005-.953.1.033-.477,1.2-.127.539.192L453,62.413l-.611-.219Z"/>
      <path id="Path_1574" data-name="Path 1574" d="M456.011,59.345,456,59.339l-.953.1.033-.477,1.2-.127.539.192-1.5,4.206-.611-.218Z"/>
      <path id="Path_1575" data-name="Path 1575" d="M460.779,62.7c-.511,1.43-1.382,2.009-2.416,1.639-.912-.326-1.255-1.316-.772-2.713.5-1.41,1.456-1.945,2.4-1.606C460.98,60.372,461.258,61.362,460.779,62.7Zm-2.558-.841c-.391,1.093-.24,1.848.335,2.053.647.231,1.2-.338,1.582-1.412.37-1.035.318-1.82-.335-2.053C459.249,60.25,458.63,60.715,458.221,61.86Z"/>
      <path id="Path_1576" data-name="Path 1576" d="M428.521,62.431a3.713,3.713,0,0,0,.655-.025,2.369,2.369,0,0,0,1.253-.522,2.294,2.294,0,0,0,.792-1.436h-.027a1.843,1.843,0,0,1-1.41.581,1.649,1.649,0,0,1-1.77-1.652,1.949,1.949,0,0,1,2.046-1.917c1.226,0,1.982.9,1.982,2.274a3.231,3.231,0,0,1-1.032,2.531,3.155,3.155,0,0,1-1.742.723,4.262,4.262,0,0,1-.747.041Zm.3-3.1a1.088,1.088,0,0,0,1.152,1.145,1.381,1.381,0,0,0,1.18-.564.444.444,0,0,0,.073-.265c0-.922-.377-1.627-1.225-1.627A1.2,1.2,0,0,0,428.816,59.327Z"/>
      <path id="Path_1577" data-name="Path 1577" d="M436.885,60.192c0,1.834-.755,2.847-2.082,2.847-1.17,0-1.963-.988-1.982-2.773,0-1.809.867-2.805,2.083-2.805C436.167,57.461,436.885,58.474,436.885,60.192Zm-3.252.083c0,1.4.479,2.2,1.216,2.2.829,0,1.226-.871,1.226-2.249,0-1.328-.378-2.2-1.217-2.2C434.148,58.025,433.633,58.805,433.633,60.275Z"/>
      <path id="Path_1578" data-name="Path 1578" d="M439.661,66.041a1.3,1.3,0,0,1,1.125-1.064l-.005-.021a1.114,1.114,0,0,1-.654-1.093c.088-.7.806-1.1,1.669-.989.954.12,1.363.718,1.293,1.27a1.14,1.14,0,0,1-.939.935l0,.02a1.266,1.266,0,0,1,.848,1.27c-.1.77-.9,1.2-1.834,1.078C440.132,67.318,439.58,66.689,439.661,66.041Zm2.653.305c.067-.539-.316-.85-.961-1.1-.594.078-.947.38-1,.8-.079.448.25.89.878.969C441.829,67.088,442.257,66.8,442.314,66.346ZM440.76,63.9c-.055.443.285.728.836.935a.909.909,0,0,0,.85-.71.734.734,0,0,0-.742-.827A.757.757,0,0,0,440.76,63.9Z"/>
      <path id="Path_1579" data-name="Path 1579" d="M446.941,65.7c-.189,1.506-.914,2.26-2,2.123-.961-.12-1.511-1.013-1.342-2.48.186-1.486,1-2.215,2-2.09C446.631,63.384,447.117,64.29,446.941,65.7Zm-2.681-.267c-.144,1.152.167,1.856.773,1.932.681.085,1.1-.59,1.238-1.721.137-1.091-.084-1.846-.772-1.932C444.916,63.64,444.412,64.227,444.26,65.434Z"/>
      <path id="Path_1580" data-name="Path 1580" d="M368.157,129.716v.015l.421.862-.46.13-.525-1.082v-.572l4.466-.009v.648Z"/>
      <path id="Path_1581" data-name="Path 1581" d="M370.912,128.429a1.3,1.3,0,0,1-1.2-.982l-.02.008a1.115,1.115,0,0,1-1,.788c-.707,0-1.19-.662-1.191-1.531,0-.961.54-1.443,1.1-1.444a1.14,1.14,0,0,1,1.046.814h.02a1.268,1.268,0,0,1,1.153-1c.776,0,1.3.738,1.3,1.684C372.12,127.8,371.564,128.428,370.912,128.429Zm-.033-2.67c-.543,0-.8.421-.974,1.093.153.58.5.892.923.891.454.022.851-.361.85-.994C371.677,126.147,371.339,125.758,370.879,125.759Zm-2.229,1.85c.446,0,.686-.374.822-.947-.131-.427-.407-.754-.812-.753a.733.733,0,0,0-.726.84C367.935,127.306,368.265,127.61,368.65,127.609Z"/>
      <path id="Path_1582" data-name="Path 1582" d="M369.654,121.251c1.519,0,2.358.621,2.36,1.719,0,.969-.814,1.627-2.291,1.645-1.5,0-2.324-.713-2.326-1.719C367.395,121.851,368.232,121.254,369.654,121.251Zm.075,2.692c1.161,0,1.819-.4,1.818-1.01,0-.687-.723-1.013-1.864-1.011-1.1,0-1.82.316-1.818,1.011C367.866,123.52,368.512,123.946,369.729,123.943Z"/>
      <path id="Path_1583" data-name="Path 1583" d="M504.586,121.751v-.015l-.417-.863.461-.129.519,1.085,0,.572-4.466-.013,0-.649Z"/>
      <path id="Path_1584" data-name="Path 1584" d="M501.824,123.025a1.3,1.3,0,0,1,1.193.987l.02-.007a1.115,1.115,0,0,1,1.006-.783c.707,0,1.186.667,1.184,1.537,0,.961-.547,1.44-1.1,1.438a1.141,1.141,0,0,1-1.042-.819h-.02a1.266,1.266,0,0,1-1.158,1c-.776,0-1.3-.744-1.293-1.689C500.613,123.646,501.172,123.023,501.824,123.025Zm.02,2.669c.543,0,.8-.417.979-1.088-.15-.58-.492-.894-.918-.9-.454-.024-.853.356-.855.989C501.048,125.3,501.383,125.693,501.844,125.694Zm2.238-1.839c-.446,0-.688.372-.827.943.129.428.4.757.808.758a.734.734,0,0,0,.731-.837C504.8,124.163,504.467,123.857,504.082,123.855Z"/>
      <path id="Path_1585" data-name="Path 1585" d="M503.046,130.209c-1.519-.005-2.355-.633-2.352-1.731,0-.969.823-1.623,2.3-1.633,1.5,0,2.32.724,2.317,1.73C505.308,129.62,504.468,130.213,503.046,130.209Zm-.061-2.693c-1.161,0-1.822.391-1.824,1,0,.687.719,1.017,1.859,1.02,1.1,0,1.822-.307,1.824-1C504.846,127.949,504.2,127.52,502.985,127.516Z"/>
      <path id="Path_1586" data-name="Path 1586" d="M417.12,59.649a1.3,1.3,0,0,1,.8-1.323l-.01-.019a1.114,1.114,0,0,1-.92-.881c-.1-.7.487-1.272,1.348-1.4.951-.137,1.5.332,1.583.883a1.141,1.141,0,0,1-.659,1.15l0,.02a1.265,1.265,0,0,1,1.153,1c.111.769-.547,1.391-1.484,1.525C417.911,60.757,417.213,60.295,417.12,59.649Zm2.638-.407c-.077-.537-.529-.736-1.218-.81-.553.232-.813.616-.753,1.038a.877.877,0,0,0,1.1.7C419.487,60.086,419.824,59.7,419.758,59.242Zm-2.145-1.948c.064.443.468.627,1.054.682a.91.91,0,0,0,.632-.91.734.734,0,0,0-.934-.6C417.814,56.544,417.559,56.914,417.613,57.294Z"/>
      <path id="Path_1587" data-name="Path 1587" d="M424.05,57.4c.216,1.5-.284,2.422-1.371,2.578-.959.138-1.725-.578-1.95-2.038-.213-1.483.379-2.4,1.376-2.544C423.139,55.244,423.848,55.989,424.05,57.4Zm-2.655.451c.165,1.149.651,1.746,1.255,1.659.68-.1.9-.858.74-1.987-.157-1.088-.569-1.758-1.256-1.659C421.552,55.944,421.222,56.644,421.395,57.848Z"/>
      <path id="Path_1588" data-name="Path 1588" d="M454.508,66.123l-.123.379-3.309,3.2-.661-.215,3.266-3.093,0-.013-2.307-.749.155-.477Z"/>
      <path id="Path_1589" data-name="Path 1589" d="M457.1,69.245c-.469,1.445-1.322,2.049-2.367,1.709-.921-.3-1.293-1.279-.852-2.689.463-1.424,1.4-1.987,2.357-1.676C457.228,66.912,457.535,67.893,457.1,69.245Zm-2.582-.766c-.359,1.105-.185,1.855.395,2.043.653.212,1.188-.373,1.54-1.458.34-1.045.265-1.828-.4-2.042C455.495,66.84,454.889,67.323,454.514,68.479Z"/>
      <path id="Path_1590" data-name="Path 1590" d="M368.4,118.26l0,.015.235.929-.477.033-.291-1.167.117-.56,4.372.91-.132.634Z"/>
      <path id="Path_1591" data-name="Path 1591" d="M368.785,113.641l.391.081,3.542,2.942-.141.679-3.43-2.91-.013,0-.494,2.375-.492-.1Z"/>
      <path id="Path_1592" data-name="Path 1592" d="M371.609,110.729c1.486.309,2.179,1.092,1.956,2.167-.2.948-1.132,1.424-2.581,1.139-1.466-.305-2.127-1.175-1.922-2.161C369.274,110.851,370.216,110.439,371.609,110.729Zm-.481,2.65c1.136.236,1.863-.018,1.987-.615.14-.673-.5-1.141-1.616-1.373-1.076-.224-1.846-.064-1.988.615C369.392,112.581,369.937,113.131,371.128,113.379Z"/>
      <path id="Path_1593" data-name="Path 1593" d="M503.242,110.263l0-.015-.532-.8.438-.191.665,1,.078.567-4.425.608-.088-.643Z"/>
      <path id="Path_1594" data-name="Path 1594" d="M504.431,114.743l-.395.054-4.323-1.585-.094-.688,4.206,1.594.014,0-.33-2.4.5-.069Z"/>
      <path id="Path_1595" data-name="Path 1595" d="M502.746,118.432c-1.5.207-2.42-.3-2.569-1.387-.132-.96.589-1.721,2.05-1.937,1.484-.2,2.4.395,2.536,1.392C504.9,117.536,504.155,118.239,502.746,118.432Zm-.434-2.658c-1.15.158-1.75.641-1.667,1.245.093.681.853.907,1.982.752,1.09-.149,1.762-.557,1.668-1.245C504.215,115.944,503.517,115.609,502.312,115.774Z"/>
      <path id="Path_1596" data-name="Path 1596" d="M408.463,58.75l.149.369-.476,4.58-.643.261.513-4.469L408,59.478l-2.248.909-.188-.465Z"/>
      <path id="Path_1597" data-name="Path 1597" d="M412.453,59.478c.57,1.407.3,2.419-.714,2.831-.9.363-1.813-.149-2.381-1.513-.562-1.388-.206-2.421.727-2.8C411.054,57.6,411.92,58.159,412.453,59.478Zm-2.47,1.073c.435,1.076,1.05,1.539,1.616,1.31.637-.257.67-1.049.242-2.106-.412-1.019-.972-1.571-1.616-1.311C409.681,58.665,409.527,59.423,409.983,60.551Z"/>
      <path id="Path_1598" data-name="Path 1598" d="M464.012,70.609a2.726,2.726,0,0,0-.439-.247,1.912,1.912,0,0,0-2.307.412l.019.012a1.542,1.542,0,0,1,1.287.209,1.4,1.4,0,0,1,.486,2.02,1.569,1.569,0,0,1-2.235.442,1.718,1.718,0,0,1-.457-2.548,2.66,2.66,0,0,1,1.789-1.247,2.839,2.839,0,0,1,1.693.3,3.47,3.47,0,0,1,.43.233Zm-1.545,2.07a.951.951,0,0,0-.312-1.412,1.121,1.121,0,0,0-1.106-.053.468.468,0,0,0-.208.185,1.127,1.127,0,0,0,.233,1.664A.971.971,0,0,0,462.467,72.679Z"/>
      <path id="Path_1599" data-name="Path 1599" d="M466.631,74.347c-.816,1.281-1.794,1.651-2.72,1.061-.817-.52-.931-1.563-.15-2.817.805-1.263,1.853-1.573,2.7-1.032C467.344,72.121,467.395,73.148,466.631,74.347Zm-2.307-1.389c-.624.979-.644,1.749-.13,2.077.579.369,1.243-.064,1.856-1.025.591-.927.715-1.7.13-2.077C465.684,71.617,464.977,71.932,464.324,72.958Z"/>
      <path id="Path_1600" data-name="Path 1600" d="M370.676,107.589l-.005.014.1.954-.477-.038-.115-1.2.2-.537,4.19,1.546-.225.608Z"/>
      <path id="Path_1601" data-name="Path 1601" d="M371.894,103.653a2.658,2.658,0,0,0-.148.481,1.913,1.913,0,0,0,.892,2.167l.008-.021a1.542,1.542,0,0,1-.069-1.3,1.4,1.4,0,0,1,1.871-.9,1.57,1.57,0,0,1,.906,2.09,1.718,1.718,0,0,1-2.393.988,2.662,2.662,0,0,1-1.6-1.484,2.83,2.83,0,0,1-.069-1.717,3.543,3.543,0,0,1,.136-.47Zm2.351,1.07a.952.952,0,0,0-1.314.605,1.122,1.122,0,0,0,.183,1.092.476.476,0,0,0,.225.164,1.128,1.128,0,0,0,1.577-.581A.971.971,0,0,0,374.245,104.723Z"/>
      <path id="Path_1602" data-name="Path 1602" d="M374.991,100.3c1.425.525,1.994,1.4,1.614,2.433-.335.908-1.329,1.241-2.72.744-1.4-.518-1.931-1.476-1.582-2.421C372.664,100.076,373.657,99.808,374.991,100.3Zm-.867,2.55c1.089.4,1.845.258,2.056-.315.238-.644-.326-1.2-1.395-1.6-1.032-.381-1.817-.337-2.057.314C372.524,101.8,372.983,102.429,374.124,102.85Z"/>
      <path id="Path_1603" data-name="Path 1603" d="M499.273,98.254l0-.014-.661-.694.4-.264.826.874.174.545-4.256,1.355-.2-.618Z"/>
      <path id="Path_1604" data-name="Path 1604" d="M500.731,102.108a2.708,2.708,0,0,0-.18-.471,1.911,1.911,0,0,0-2.035-1.161l.007.022a1.541,1.541,0,0,1,.855.985,1.4,1.4,0,0,1-.922,1.862,1.57,1.57,0,0,1-2-1.093A1.718,1.718,0,0,1,497.739,100a2.658,2.658,0,0,1,2.172.189,2.832,2.832,0,0,1,1.11,1.312,3.6,3.6,0,0,1,.181.454Zm-2.513.6a.951.951,0,0,0,.665-1.284,1.12,1.12,0,0,0-.815-.749.478.478,0,0,0-.279.008c-.7.238-1.1.759-.886,1.428A.97.97,0,0,0,498.218,102.708Z"/>
      <path id="Path_1605" data-name="Path 1605" d="M500.347,106.656c-1.447.461-2.435.119-2.768-.927-.294-.923.286-1.8,1.689-2.259,1.427-.454,2.43-.021,2.736.938C502.321,105.4,501.7,106.225,500.347,106.656Zm-.882-2.544c-1.106.352-1.615.93-1.429,1.511.208.655.995.748,2.081.4,1.048-.333,1.641-.85,1.43-1.511C501.369,103.954,500.624,103.743,499.465,104.112Z"/>
      <path id="Path_1606" data-name="Path 1606" d="M397.347,63.868a2.667,2.667,0,0,0-.415.286,1.91,1.91,0,0,0-.642,2.253l.019-.011a1.541,1.541,0,0,1,.753-1.065,1.394,1.394,0,0,1,2.028.451,1.568,1.568,0,0,1-.584,2.2,1.718,1.718,0,0,1-2.49-.707,2.661,2.661,0,0,1-.335-2.155,2.838,2.838,0,0,1,1.009-1.391,3.627,3.627,0,0,1,.4-.284Zm1.182,2.3a.952.952,0,0,0-1.406-.34,1.119,1.119,0,0,0-.533.971.471.471,0,0,0,.074.268,1.128,1.128,0,0,0,1.6.521A.971.971,0,0,0,398.529,66.165Z"/>
      <path id="Path_1607" data-name="Path 1607" d="M401.855,63.155c.793,1.3.7,2.337-.241,2.91-.826.506-1.812.151-2.6-1.1-.782-1.278-.6-2.355.259-2.881C400.168,61.538,401.113,61.942,401.855,63.155Zm-2.261,1.464c.606.991,1.289,1.346,1.809,1.028.586-.358.489-1.145-.106-2.118-.573-.937-1.217-1.39-1.809-1.028C398.987,62.808,398.96,63.582,399.594,64.619Z"/>
      <path id="Path_1608" data-name="Path 1608" d="M473.482,76.95l-1.525-1.119-.833.813a2.752,2.752,0,0,1,.343.217,2.288,2.288,0,0,1,.719.825,1.258,1.258,0,0,1-.107,1.345,1.655,1.655,0,0,1-2.391.138,2.639,2.639,0,0,1-.833-.952l.407-.272a2.413,2.413,0,0,0,.709.826,1.054,1.054,0,0,0,1.52-.086c.335-.47.234-1.055-.565-1.641a5.78,5.78,0,0,0-.582-.368l1.526-1.539,1.913,1.4Z"/>
      <path id="Path_1609" data-name="Path 1609" d="M475.591,80.559c-.9,1.224-1.9,1.53-2.784.88-.781-.573-.827-1.62.035-2.82.886-1.208,1.951-1.448,2.763-.853C476.448,78.384,476.432,79.412,475.591,80.559Zm-2.212-1.537c-.687.936-.757,1.7-.265,2.063.554.406,1.245.019,1.919-.9.65-.886.825-1.653.265-2.064C474.825,77.773,474.1,78.041,473.379,79.022Z"/>
      <path id="Path_1610" data-name="Path 1610" d="M374.782,96.96l-.008.012-.128.95-.455-.146.164-1.192.317-.476,3.719,2.472-.359.54Z"/>
      <path id="Path_1611" data-name="Path 1611" d="M377.09,93.415l-1.047,1.576.849.794a2.96,2.96,0,0,1,.2-.352,2.28,2.28,0,0,1,.792-.756,1.254,1.254,0,0,1,1.348.044,1.655,1.655,0,0,1,.248,2.382,2.644,2.644,0,0,1-.913.877l-.29-.4a2.415,2.415,0,0,0,.793-.746,1.054,1.054,0,0,0-.157-1.514c-.484-.314-1.064-.186-1.613.64a5.678,5.678,0,0,0-.34.6l-1.608-1.454,1.314-1.975Z"/>
      <path id="Path_1612" data-name="Path 1612" d="M380.6,91.143c1.265.84,1.616,1.825,1.008,2.74-.536.807-1.58.9-2.819.095-1.247-.829-1.536-1.883-.979-2.721C378.386,90.387,379.413,90.355,380.6,91.143Zm-1.433,2.28c.967.643,1.735.678,2.073.17.381-.572-.039-1.245-.988-1.876-.916-.609-1.69-.748-2.074-.17C377.85,92.036,378.151,92.75,379.164,93.423Z"/>
      <path id="Path_1613" data-name="Path 1613" d="M492.4,86.619l-.008-.013-.818-.5.317-.358,1.024.63.309.481-3.759,2.411-.35-.546Z"/>
      <path id="Path_1614" data-name="Path 1614" d="M494.721,90.157,493.7,88.564l-1.068.459a2.945,2.945,0,0,1,.241.326,2.277,2.277,0,0,1,.374,1.028,1.256,1.256,0,0,1-.583,1.217,1.654,1.654,0,0,1-2.28-.731,2.644,2.644,0,0,1-.436-1.188l.478-.107a2.411,2.411,0,0,0,.364,1.025,1.055,1.055,0,0,0,1.45.466c.481-.318.6-.9.063-1.734a5.776,5.776,0,0,0-.411-.552l1.977-.888,1.281,2Z"/>
      <path id="Path_1615" data-name="Path 1615" d="M495.391,94.282c-1.278.819-2.321.745-2.914-.179-.523-.816-.189-1.809,1.046-2.62,1.261-.808,2.342-.65,2.886.2C496.973,92.561,496.588,93.514,495.391,94.282Zm-1.511-2.23c-.978.627-1.319,1.317-.989,1.831.37.578,1.155.464,2.115-.151.925-.594,1.364-1.247.989-1.831C495.678,91.407,494.9,91.4,493.88,92.052Z"/>
      <path id="Path_1616" data-name="Path 1616" d="M387.54,69.682l-1.4,1.267.627.98a2.774,2.774,0,0,1,.282-.291A2.275,2.275,0,0,1,388,71.1a1.257,1.257,0,0,1,1.3.377,1.655,1.655,0,0,1-.35,2.369,2.642,2.642,0,0,1-1.1.624l-.183-.455a2.419,2.419,0,0,0,.953-.526,1.055,1.055,0,0,0,.224-1.506c-.392-.423-.986-.444-1.722.22a5.593,5.593,0,0,0-.478.5l-1.2-1.807L387.2,69.3Z"/>
      <path id="Path_1617" data-name="Path 1617" d="M391.5,68.35c1.016,1.128,1.113,2.169.3,2.9-.72.649-1.754.481-2.755-.606-1-1.113-1.022-2.205-.274-2.879C389.546,67.069,390.549,67.294,391.5,68.35ZM389.548,70.2c.777.862,1.513,1.086,1.966.678.51-.46.271-1.215-.492-2.062-.736-.817-1.452-1.144-1.967-.679C388.618,68.535,388.733,69.3,389.548,70.2Z"/>
      <path id="Path_1618" data-name="Path 1618" d="M477.722,86.091l.927-.788-1.491-1.755.3-.258,3.606-.16.469.552-2.116,1.8.45.529-.361.307-.45-.529-.927.787ZM479.01,85l1.136-.966q.269-.227.55-.436l-.015-.018c-.3.053-.524.085-.77.114l-1.942.058-.011.009Z"/>
      <path id="Path_1619" data-name="Path 1619" d="M482.766,88.483c-1.157.983-2.2,1.049-2.912.212-.627-.738-.429-1.768.687-2.736,1.141-.969,2.234-.957,2.886-.19C484.1,86.566,483.85,87.562,482.766,88.483Zm-1.8-2.008c-.885.752-1.131,1.481-.735,1.946.444.524,1.206.307,2.075-.432.838-.712,1.186-1.417.736-1.946C482.666,85.6,481.9,85.688,480.97,86.475Z"/>
      <path id="Path_1620" data-name="Path 1620" d="M380.714,87.983l-.011.011-.3.912-.422-.226.374-1.143.4-.412,3.219,3.1-.449.467Z"/>
      <path id="Path_1621" data-name="Path 1621" d="M385.806,88.04l-.877-.844-1.6,1.661-.287-.276-.522-3.571.5-.523,2,1.925.482-.5.341.329-.481.5.876.843Zm-1.219-1.172-1.074-1.033c-.169-.163-.332-.33-.489-.5l-.016.017c.082.291.136.512.19.754l.253,1.926.01.01Z"/>
      <path id="Path_1622" data-name="Path 1622" d="M387.679,82.781c1.094,1.053,1.265,2.085.5,2.876-.671.7-1.715.605-2.791-.408-1.079-1.039-1.176-2.127-.478-2.853C385.637,81.643,386.654,81.795,387.679,82.781Zm-1.817,1.988c.837.805,1.587.977,2.01.537.476-.5.183-1.231-.639-2.022-.792-.762-1.529-1.037-2.01-.537C384.816,83.171,384.985,83.926,385.862,84.769Z"/>
      <path id="Path_1623" data-name="Path 1623" d="M485.5,77.78l-.009-.012-.868-.407.276-.391,1.087.515.36.445-3.475,2.806-.407-.5Z"/>
      <path id="Path_1624" data-name="Path 1624" d="M484.8,82.824l.946-.764L484.3,80.268l.31-.25,3.608-.071.455.564-2.159,1.744.436.54-.369.3-.436-.54-.946.764Zm1.315-1.061,1.16-.937c.182-.147.368-.288.56-.423l-.015-.018c-.3.046-.525.072-.772.094l-1.943.011-.011.009Z"/>
      <path id="Path_1625" data-name="Path 1625" d="M489.787,85.341c-1.182.954-2.227.994-2.917.14-.608-.754-.384-1.778.755-2.718,1.165-.941,2.257-.9,2.89-.118C491.171,83.458,490.893,84.448,489.787,85.341Zm-1.745-2.051c-.9.729-1.168,1.452-.784,1.927.431.534,1.2.336,2.086-.381.855-.69,1.22-1.387.784-1.927C489.758,82.452,488.988,82.526,488.042,83.29Z"/>
      <path id="Path_1626" data-name="Path 1626" d="M380.433,81.652l-.907-.811-1.535,1.717-.3-.266-.65-3.55.483-.54,2.068,1.851.463-.517.353.315-.462.518.906.811Zm-1.26-1.127-1.111-.994q-.261-.234-.507-.485l-.015.017c.093.288.155.507.217.747l.323,1.916.01.01Z"/>
      <path id="Path_1627" data-name="Path 1627" d="M382.115,76.329c1.132,1.012,1.339,2.037.607,2.856-.646.722-1.693.666-2.8-.308-1.116-1-1.252-2.082-.581-2.833C380.033,75.265,381.055,75.381,382.115,76.329Zm-1.744,2.053c.865.774,1.621.918,2.028.463.458-.512.139-1.237-.711-2-.819-.733-1.566-.981-2.028-.464C379.268,76.822,379.465,77.571,380.371,78.382Z"/>
      <path id="Path_1628" data-name="Path 1628" d="M483.718,92.979a2.42,2.42,0,0,0,.367,1.073c.473.721,1.033.673,1.339.463.518-.349.4-1.019.044-1.562l-.2-.312.379-.249.2.313c.267.408.8.8,1.238.51.3-.2.425-.58.086-1.1a1.948,1.948,0,0,0-.791-.667l.272-.388a2.539,2.539,0,0,1,1,.895c.536.817.342,1.473-.112,1.771a1.135,1.135,0,0,1-1.381-.189l-.012.008a1.21,1.21,0,0,1-.352,1.554c-.6.392-1.459.218-2.112-.777a2.732,2.732,0,0,1-.454-1.243Z"/>
      <path id="Path_1629" data-name="Path 1629" d="M488.763,97.75c-1.27.833-2.314.77-2.916-.148-.532-.81-.208-1.807,1.019-2.63,1.252-.822,2.335-.675,2.887.167C490.326,96.013,489.952,96.97,488.763,97.75Zm-1.535-2.213c-.971.637-1.3,1.33-.97,1.84.377.574,1.16.453,2.113-.173.92-.6,1.351-1.26.971-1.84C489.019,94.872,488.245,94.87,487.228,95.537Z"/>
      <path id="Path_1630" data-name="Path 1630" d="M388.605,79.7l-.012.009-.413.866-.388-.279.521-1.084.447-.357,2.785,3.491-.507.4Z"/>
      <path id="Path_1631" data-name="Path 1631" d="M391.741,81.275a2.421,2.421,0,0,0,1.034-.465c.674-.537.574-1.09.337-1.376-.4-.483-1.052-.3-1.559.1l-.292.233-.283-.354.292-.233c.382-.3.724-.867.394-1.281-.223-.279-.617-.369-1.1.016a1.958,1.958,0,0,0-.591.85l-.411-.235a2.541,2.541,0,0,1,.8-1.077c.763-.609,1.435-.476,1.773-.052a1.133,1.133,0,0,1-.06,1.392l.009.011a1.213,1.213,0,0,1,1.58.207c.446.559.352,1.433-.578,2.175a2.727,2.727,0,0,1-1.2.567Z"/>
      <path id="Path_1632" data-name="Path 1632" d="M396.024,75.81c.947,1.187.981,2.232.122,2.917-.757.6-1.78.375-2.713-.771-.934-1.17-.888-2.262-.1-2.89C394.149,74.414,395.137,74.7,396.024,75.81Zm-2.062,1.733c.724.908,1.446,1.176,1.923.795.536-.428.343-1.2-.368-2.088-.686-.859-1.38-1.228-1.923-.795C393.135,75.821,393.2,76.592,393.962,77.543Z"/>
      <path id="Path_1633" data-name="Path 1633" d="M475.991,69.626l-.012-.01-.934-.216.188-.439,1.171.274.445.36-2.806,3.474-.505-.408Z"/>
      <path id="Path_1634" data-name="Path 1634" d="M475.129,73.028a2.438,2.438,0,0,0,.678.91c.67.541,1.189.324,1.416.031.387-.491.069-1.093-.436-1.5l-.29-.235.285-.353.29.235c.38.307,1,.519,1.336.107.224-.277.227-.682-.254-1.07a1.951,1.951,0,0,0-.956-.393l.139-.452a2.543,2.543,0,0,1,1.225.547c.759.614.775,1.3.434,1.72a1.134,1.134,0,0,1-1.372.243l-.009.01a1.212,1.212,0,0,1,.139,1.588c-.449.556-1.322.654-2.248-.094a2.75,2.75,0,0,1-.813-1.045Z"/>
      <path id="Path_1635" data-name="Path 1635" d="M481.391,76.029c-.954,1.181-1.967,1.44-2.822.75-.753-.609-.75-1.657.167-2.816.941-1.165,2.017-1.356,2.8-.723C482.349,73.9,482.285,74.923,481.391,76.029Zm-2.138-1.639c-.729.9-.835,1.666-.361,2.049.534.432,1.243.077,1.96-.81.69-.855.9-1.613.361-2.049C480.756,73.21,480.018,73.444,479.253,74.39Z"/>
      <path id="Path_1636" data-name="Path 1636" d="M372.275,92.057a2.421,2.421,0,0,0,.772-.831c.411-.757.1-1.228-.226-1.4-.553-.292-1.087.13-1.4.7l-.178.328-.4-.216.178-.328c.233-.429.329-1.081-.136-1.333-.314-.171-.712-.1-1.007.443a1.956,1.956,0,0,0-.213,1.012l-.471-.055a2.545,2.545,0,0,1,.317-1.3c.466-.858,1.136-1,1.613-.739a1.134,1.134,0,0,1,.487,1.306l.012.007a1.212,1.212,0,0,1,1.536-.425c.628.341.883,1.183.315,2.228a2.73,2.73,0,0,1-.881.989Z"/>
      <path id="Path_1637" data-name="Path 1637" d="M374.092,85.355c1.334.725,1.772,1.675,1.248,2.64-.462.851-1.494,1.038-2.8.346-1.316-.714-1.7-1.738-1.218-2.623C371.821,84.8,372.842,84.677,374.092,85.355Zm-1.224,2.4c1.02.554,1.789.52,2.08-.017.328-.6-.15-1.235-1.152-1.78-.966-.524-1.75-.594-2.081.016C371.435,86.491,371.8,87.174,372.868,87.755Z"/>
      <path id="Path_1638" data-name="Path 1638" d="M488.648,102l.352-.117.6.354c1.429.86,2.157,1.222,2.8,1.017a.84.84,0,0,0,.519-1.208,1.8,1.8,0,0,0-.69-.881l.337-.337a2.326,2.326,0,0,1,.872,1.19,1.333,1.333,0,0,1-.754,1.85c-.783.259-1.625-.161-2.814-.867l-.438-.273-.013,0,.7,2.114-.476.158Z"/>
      <path id="Path_1639" data-name="Path 1639" d="M492.975,107.759c-1.441.478-2.434.148-2.78-.894-.3-.92.265-1.8,1.662-2.279,1.422-.472,2.43-.051,2.747.9C494.933,106.483,494.325,107.311,492.975,107.759Zm-.913-2.534c-1.1.366-1.6.95-1.411,1.529.216.652,1,.736,2.086.377,1.044-.346,1.63-.87,1.412-1.529C493.964,105.044,493.216,104.842,492.062,105.225Z"/>
      <path id="Path_1640" data-name="Path 1640" d="M367.39,104.526l-.351-.121-.264-.647c-.614-1.551-.973-2.28-1.608-2.506-.428-.148-.9-.053-1.145.646a1.8,1.8,0,0,0,.014,1.119l-.472.063a2.327,2.327,0,0,1,.028-1.475,1.332,1.332,0,0,1,1.722-1.012c.78.268,1.194,1.113,1.711,2.4l.183.482.013,0,.725-2.106.474.163Z"/>
      <path id="Path_1641" data-name="Path 1641" d="M367.441,97.327c1.436.494,2.025,1.359,1.667,2.4-.315.916-1.3,1.27-2.7.8-1.416-.488-1.962-1.434-1.635-2.386C365.111,97.154,366.1,96.864,367.441,97.327Zm-.811,2.568c1.1.378,1.85.218,2.049-.359.224-.649-.352-1.194-1.43-1.565-1.039-.358-1.823-.3-2.049.359C365.008,98.885,365.48,99.5,366.63,99.895Z"/>
      <path id="Path_1642" data-name="Path 1642" d="M397.225,72.931l-.014.008-.546.787-.339-.338.689-.985.5-.28,2.184,3.895-.565.317Z"/>
      <path id="Path_1643" data-name="Path 1643" d="M400.232,75.665l-.182-.324.234-.659c.573-1.566.79-2.349.468-2.94a.841.841,0,0,0-1.285-.28,1.792,1.792,0,0,0-.734.845l-.394-.267a2.32,2.32,0,0,1,1-1.083,1.332,1.332,0,0,1,1.959.39c.4.72.151,1.626-.317,2.928l-.185.481.007.012,1.943-1.089.245.437Z"/>
      <path id="Path_1644" data-name="Path 1644" d="M405.061,70.325c.743,1.325.607,2.361-.351,2.9-.845.474-1.817.081-2.553-1.2-.732-1.307-.51-2.377.368-2.869C403.436,68.645,404.365,69.085,405.061,70.325ZM402.746,71.7c.568,1.013,1.237,1.394,1.769,1.1.6-.336.532-1.126-.026-2.12-.538-.959-1.163-1.436-1.769-1.1C402.208,69.869,402.151,70.641,402.746,71.7Z"/>
      <path id="Path_1645" data-name="Path 1645" d="M465.64,63.359l-.013-.007-.957-.056.111-.465,1.2.074.5.279-2.181,3.9-.566-.317Z"/>
      <path id="Path_1646" data-name="Path 1646" d="M464.879,67.351l.181-.324.684-.144c1.635-.329,2.416-.553,2.752-1.137a.841.841,0,0,0-.432-1.242,1.794,1.794,0,0,0-1.1-.185l.022-.476a2.327,2.327,0,0,1,1.446.29,1.333,1.333,0,0,1,.691,1.875c-.4.719-1.308.977-2.662,1.258l-.508.094-.006.012,1.943,1.088-.245.437Z"/>
      <path id="Path_1647" data-name="Path 1647" d="M471.954,68.681c-.741,1.325-1.7,1.751-2.655,1.215-.845-.473-1.018-1.507-.31-2.8.731-1.307,1.76-1.676,2.638-1.184C472.539,66.418,472.649,67.44,471.954,68.681Zm-2.383-1.255c-.567,1.013-.543,1.783-.01,2.081.6.335,1.237-.134,1.794-1.129.537-.96.617-1.742.011-2.081C470.853,66.01,470.165,66.365,469.571,67.426Z"/>
      <path id="Path_1648" data-name="Path 1648" d="M495.227,117.451c-1.5.21-2.42-.294-2.572-1.382-.134-.959.585-1.722,2.046-1.941,1.483-.207,2.4.389,2.538,1.386C497.384,116.549,496.636,117.254,495.227,117.451Zm-.44-2.657c-1.15.16-1.748.644-1.664,1.249.1.68.855.9,1.984.747,1.089-.152,1.76-.561,1.664-1.249C496.69,114.959,495.992,114.626,494.787,114.794Z"/>
      <g id="Group_380" data-name="Group 380">
        <g id="Group_361" data-name="Group 361">
          <path id="Path_1649" data-name="Path 1649" d="M348.768,126.344q0-.342,0-.683l9.893.08c0,.2,0,.4,0,.6Z"/>
          <path id="Path_1650" data-name="Path 1650" d="M348.783,124.518c0-.225.009-.451.014-.675l5.461.162q-.008.315-.013.632Z"/>
          <path id="Path_1651" data-name="Path 1651" d="M348.83,122.713c.007-.223.016-.446.025-.668l5.457.28q-.012.311-.023.624Z"/>
          <path id="Path_1652" data-name="Path 1652" d="M348.906,120.928q.018-.33.037-.66l5.451.4q-.018.307-.034.617Z"/>
          <path id="Path_1653" data-name="Path 1653" d="M349.013,119.164q.023-.327.047-.652l5.444.508q-.022.3-.044.611Z"/>
          <path id="Path_1654" data-name="Path 1654" d="M349.149,117.42q.029-.322.059-.645l8.126.93c-.018.193-.035.388-.052.582Z"/>
          <path id="Path_1655" data-name="Path 1655" d="M349.315,115.7q.033-.319.069-.638l5.423.734q-.033.3-.065.6Z"/>
          <path id="Path_1656" data-name="Path 1656" d="M349.51,113.993c.026-.21.052-.42.08-.629l5.409.843-.075.589Z"/>
          <path id="Path_1657" data-name="Path 1657" d="M349.733,112.31c.03-.207.06-.415.091-.622l5.394.953q-.043.29-.085.581Z"/>
          <path id="Path_1658" data-name="Path 1658" d="M349.985,110.648q.05-.308.1-.615l5.377,1.06q-.048.286-.094.575Z"/>
        </g>
        <g id="Group_362" data-name="Group 362">
          <path id="Path_1659" data-name="Path 1659" d="M350.261,109.025c.037-.2.074-.406.111-.607l9.7,2.109c-.033.178-.066.357-.1.536Z"/>
          <path id="Path_1660" data-name="Path 1660" d="M350.568,107.4c.04-.2.081-.4.122-.6l5.338,1.27q-.059.279-.114.56Z"/>
          <path id="Path_1661" data-name="Path 1661" d="M350.9,105.8q.064-.3.131-.592l5.316,1.373q-.063.276-.123.554Z"/>
          <path id="Path_1662" data-name="Path 1662" d="M351.264,104.22q.069-.292.141-.584l5.292,1.475q-.067.273-.133.546Z"/>
          <path id="Path_1663" data-name="Path 1663" d="M351.652,102.659c.049-.193.1-.385.151-.577l5.266,1.577q-.072.269-.142.539Z"/>
          <path id="Path_1664" data-name="Path 1664" d="M352.066,101.119c.053-.191.106-.38.161-.569l7.833,2.506q-.074.256-.145.514Z"/>
          <path id="Path_1665" data-name="Path 1665" d="M352.506,99.6q.084-.282.17-.562l5.209,1.775c-.053.174-.107.349-.159.525Z"/>
          <path id="Path_1666" data-name="Path 1666" d="M352.971,98.1l.18-.554,5.178,1.871-.168.518Z"/>
          <path id="Path_1667" data-name="Path 1667" d="M353.462,96.62l.189-.547L358.8,98.04c-.059.17-.119.34-.177.511Z"/>
          <path id="Path_1668" data-name="Path 1668" d="M353.978,95.161c.065-.18.132-.36.2-.539l5.112,2.061c-.063.168-.124.335-.186.5Z"/>
        </g>
        <g id="Group_363" data-name="Group 363">
          <path id="Path_1669" data-name="Path 1669" d="M354.512,93.739q.1-.267.207-.532l9.193,3.9-.183.468Z"/>
          <path id="Path_1670" data-name="Path 1670" d="M355.076,92.32c.071-.175.144-.349.216-.523l5.039,2.244q-.1.245-.2.49Z"/>
          <path id="Path_1671" data-name="Path 1671" d="M355.664,90.922q.111-.258.225-.516l5,2.335c-.07.161-.141.321-.21.483Z"/>
          <path id="Path_1672" data-name="Path 1672" d="M356.275,89.545l.234-.509,4.96,2.424-.219.476Z"/>
          <path id="Path_1673" data-name="Path 1673" d="M356.91,88.187q.12-.25.242-.5L362.07,90.2q-.114.234-.226.468Q359.377,89.427,356.91,88.187Z"/>
          <path id="Path_1674" data-name="Path 1674" d="M357.567,86.85q.125-.248.251-.493l7.29,3.886q-.114.222-.226.445Z"/>
          <path id="Path_1675" data-name="Path 1675" d="M358.247,85.534q.129-.243.259-.486l4.83,2.684c-.081.15-.162.3-.242.454Z"/>
          <path id="Path_1676" data-name="Path 1676" d="M358.949,84.238l.267-.478L364,86.527c-.083.148-.167.3-.25.447Z"/>
          <path id="Path_1677" data-name="Path 1677" d="M359.673,82.962q.137-.235.275-.47l4.737,2.849c-.087.146-.172.293-.258.44Z"/>
          <path id="Path_1678" data-name="Path 1678" d="M360.418,81.707q.141-.232.283-.463l4.688,2.93q-.134.216-.265.433Z"/>
        </g>
        <g id="Group_364" data-name="Group 364">
          <path id="Path_1679" data-name="Path 1679" d="M361.176,80.486c.1-.153.193-.3.29-.456l8.4,5.45q-.129.2-.257.4Z"/>
          <path id="Path_1680" data-name="Path 1680" d="M361.962,79.271q.148-.225.3-.448l4.586,3.088-.279.418Z"/>
          <path id="Path_1681" data-name="Path 1681" d="M362.77,78.076q.152-.22.306-.44l4.533,3.165-.286.411Q365.046,79.645,362.77,78.076Z"/>
          <path id="Path_1682" data-name="Path 1682" d="M363.6,76.9c.1-.144.208-.289.313-.432l4.479,3.24-.293.4Z"/>
          <path id="Path_1683" data-name="Path 1683" d="M364.444,75.748q.159-.213.32-.424l4.424,3.315-.3.4Z"/>
          <path id="Path_1684" data-name="Path 1684" d="M365.31,74.615c.109-.139.218-.279.328-.417l6.53,5.067q-.148.188-.3.376Z"/>
          <path id="Path_1685" data-name="Path 1685" d="M366.2,73.5q.166-.206.335-.409l4.309,3.46q-.157.19-.313.383Z"/>
          <path id="Path_1686" data-name="Path 1686" d="M367.1,72.41q.171-.2.342-.4l4.25,3.53q-.16.188-.32.376Z"/>
          <path id="Path_1687" data-name="Path 1687" d="M368.022,71.337c.115-.132.232-.263.348-.394l4.189,3.6q-.163.183-.325.368Z"/>
          <path id="Path_1688" data-name="Path 1688" d="M368.962,70.285q.177-.194.355-.386l4.128,3.667q-.166.18-.332.362Z"/>
        </g>
        <g id="Group_365" data-name="Group 365">
          <path id="Path_1689" data-name="Path 1689" d="M369.909,69.266q.18-.19.361-.38l7.364,6.762q-.16.167-.319.334Z"/>
          <path id="Path_1690" data-name="Path 1690" d="M370.884,68.254q.183-.186.368-.371l4,3.8c-.115.116-.23.231-.344.348Z"/>
          <path id="Path_1691" data-name="Path 1691" d="M371.876,67.263l.374-.364,3.937,3.863-.35.34Z"/>
          <path id="Path_1692" data-name="Path 1692" d="M372.884,66.293l.381-.357q1.935,1.964,3.871,3.925l-.356.334Z"/>
          <path id="Path_1693" data-name="Path 1693" d="M373.909,65.343c.129-.117.257-.233.387-.349l3.8,3.986q-.182.162-.361.326Z"/>
          <path id="Path_1694" data-name="Path 1694" d="M374.95,64.413l.392-.341,5.588,6.05c-.119.1-.237.205-.354.309Z"/>
          <path id="Path_1695" data-name="Path 1695" d="M376.006,63.5l.4-.334q1.835,2.052,3.667,4.105-.186.154-.371.312Z"/>
          <path id="Path_1696" data-name="Path 1696" d="M377.078,62.615c.134-.11.269-.218.4-.327q1.8,2.082,3.6,4.162l-.377.305Z"/>
          <path id="Path_1697" data-name="Path 1697" d="M378.165,61.746l.408-.319,3.527,4.218-.383.3Z"/>
          <path id="Path_1698" data-name="Path 1698" d="M379.266,60.9c.137-.1.275-.208.414-.311l3.454,4.272-.387.291Q381.007,63.023,379.266,60.9Z"/>
        </g>
        <g id="Group_366" data-name="Group 366">
          <path id="Path_1699" data-name="Path 1699" d="M380.368,60.079q.208-.153.419-.3l6.126,7.833-.37.268Q383.456,63.977,380.368,60.079Z"/>
          <path id="Path_1700" data-name="Path 1700" d="M381.5,59.271q.211-.148.424-.3l3.309,4.378c-.133.091-.265.184-.4.276Z"/>
          <path id="Path_1701" data-name="Path 1701" d="M382.639,58.484l.43-.289,3.234,4.428-.4.27Z"/>
          <path id="Path_1702" data-name="Path 1702" d="M383.8,57.717l.434-.281,3.159,4.477q-.2.131-.406.263Q385.388,59.947,383.8,57.717Z"/>
          <path id="Path_1703" data-name="Path 1703" d="M384.963,56.97l.439-.273q1.54,2.264,3.082,4.525l-.41.256Z"/>
          <path id="Path_1704" data-name="Path 1704" d="M386.144,56.244l.443-.266q2.248,3.418,4.495,6.838-.2.118-.4.239Z"/>
          <path id="Path_1705" data-name="Path 1705" d="M387.337,55.538l.448-.258,2.927,4.618c-.139.079-.279.16-.418.241Q388.815,57.838,387.337,55.538Z"/>
          <path id="Path_1706" data-name="Path 1706" d="M388.542,54.853l.452-.251q1.424,2.331,2.849,4.662-.211.115-.423.234Q389.981,57.175,388.542,54.853Z"/>
          <path id="Path_1707" data-name="Path 1707" d="M389.758,54.187l.456-.242,2.77,4.7-.427.227Z"/>
          <path id="Path_1708" data-name="Path 1708" d="M390.985,53.543l.46-.236q1.346,2.373,2.69,4.746l-.43.22Q392.345,55.907,390.985,53.543Z"/>
        </g>
        <g id="Group_367" data-name="Group 367">
          <path id="Path_1709" data-name="Path 1709" d="M392.209,52.925l.464-.227q2.364,4.332,4.727,8.666c-.137.066-.273.133-.409.2Z"/>
          <path id="Path_1710" data-name="Path 1710" d="M393.457,52.321l.468-.22,2.529,4.824-.438.206Z"/>
          <path id="Path_1711" data-name="Path 1711" d="M394.716,51.737l.471-.212q1.224,2.43,2.447,4.861l-.441.2Q395.954,54.161,394.716,51.737Z"/>
          <path id="Path_1712" data-name="Path 1712" d="M395.983,51.174l.476-.2,2.364,4.9-.445.192Q397.181,53.616,395.983,51.174Z"/>
          <path id="Path_1713" data-name="Path 1713" d="M397.261,50.631c.159-.067.319-.132.478-.2q1.141,2.466,2.281,4.933l-.447.184Q398.417,53.09,397.261,50.631Z"/>
          <path id="Path_1714" data-name="Path 1714" d="M398.547,50.108l.482-.19q1.643,3.714,3.286,7.426l-.435.171Z"/>
          <path id="Path_1715" data-name="Path 1715" d="M399.842,49.606c.162-.062.323-.122.485-.182q1.058,2.5,2.113,5l-.453.171Z"/>
          <path id="Path_1716" data-name="Path 1716" d="M401.146,49.124l.488-.175,2.028,5.029c-.152.054-.3.108-.456.163Q402.176,51.633,401.146,49.124Z"/>
          <path id="Path_1717" data-name="Path 1717" d="M402.457,48.662l.491-.167,1.943,5.058-.459.156Q403.445,51.186,402.457,48.662Z"/>
          <path id="Path_1718" data-name="Path 1718" d="M403.777,48.221q.246-.081.493-.159l1.857,5.086-.462.149Z"/>
        </g>
        <g id="Group_368" data-name="Group 368">
          <path id="Path_1719" data-name="Path 1719" d="M405.088,47.805l.5-.152,3.208,9.26-.438.134Q406.721,52.425,405.088,47.805Z"/>
          <path id="Path_1720" data-name="Path 1720" d="M406.421,47.4q.249-.073.5-.144.841,2.57,1.684,5.138l-.466.135Q407.28,49.968,406.421,47.4Z"/>
          <path id="Path_1721" data-name="Path 1721" d="M407.761,47.024l.5-.137q.8,2.582,1.6,5.163l-.468.127Q408.575,49.6,407.761,47.024Z"/>
          <path id="Path_1722" data-name="Path 1722" d="M409.107,46.664c.168-.044.335-.087.5-.129l1.51,5.185-.471.121Z"/>
          <path id="Path_1723" data-name="Path 1723" d="M410.459,46.324l.5-.121,1.422,5.207-.472.113Z"/>
          <path id="Path_1724" data-name="Path 1724" d="M411.817,46.005l.507-.114q1,3.909,1.994,7.818c-.153.033-.3.068-.458.1Z"/>
          <path id="Path_1725" data-name="Path 1725" d="M413.179,45.706l.51-.106q.623,2.624,1.244,5.246l-.476.1Z"/>
          <path id="Path_1726" data-name="Path 1726" d="M414.547,45.428c.17-.034.341-.066.511-.1q.577,2.633,1.156,5.264l-.478.092Q415.142,48.057,414.547,45.428Z"/>
          <path id="Path_1727" data-name="Path 1727" d="M415.92,45.17l.512-.091q.534,2.64,1.067,5.28l-.48.085Q416.47,47.807,415.92,45.17Z"/>
          <path id="Path_1728" data-name="Path 1728" d="M417.3,44.932l.514-.083q.489,2.647.977,5.3l-.481.078Q417.8,47.577,417.3,44.932Z"/>
        </g>
        <g id="Group_369" data-name="Group 369">
          <path id="Path_1729" data-name="Path 1729" d="M418.661,44.717l.515-.076,1.608,9.614-.454.067Q419.495,49.52,418.661,44.717Z"/>
          <path id="Path_1730" data-name="Path 1730" d="M420.044,44.52l.517-.068.8,5.321c-.161.02-.322.042-.483.063Q420.46,47.178,420.044,44.52Z"/>
          <path id="Path_1731" data-name="Path 1731" d="M421.432,44.343c.172-.021.345-.041.517-.06l.708,5.331-.484.057Z"/>
          <path id="Path_1732" data-name="Path 1732" d="M422.821,44.187l.519-.053q.309,2.67.617,5.341l-.485.05Z"/>
          <path id="Path_1733" data-name="Path 1733" d="M424.213,44.051l.52-.046.527,5.35-.486.043Z"/>
          <path id="Path_1734" data-name="Path 1734" d="M425.608,43.935l.52-.038q.327,4.007.653,8.011l-.47.034Q425.96,47.938,425.608,43.935Z"/>
          <path id="Path_1735" data-name="Path 1735" d="M427,43.84c.174-.011.347-.021.521-.03q.173,2.68.346,5.362l-.488.029Q427.194,46.521,427,43.84Z"/>
          <path id="Path_1736" data-name="Path 1736" d="M428.4,43.765l.521-.023.255,5.367-.488.022Z"/>
          <path id="Path_1737" data-name="Path 1737" d="M429.8,43.71l.522-.015q.083,2.685.164,5.37L430,49.08Z"/>
          <path id="Path_1738" data-name="Path 1738" d="M431.2,43.676l.522-.007q.036,2.685.073,5.372l-.488.007Q431.253,46.361,431.2,43.676Z"/>
        </g>
        <g id="Group_370" data-name="Group 370">
          <path id="Path_1739" data-name="Path 1739" d="M432.584,43.663h.522q-.016,4.865-.031,9.729h-.46Q432.6,48.527,432.584,43.663Z"/>
          <path id="Path_1740" data-name="Path 1740" d="M433.984,43.669l.522.008-.108,5.371-.488-.007Q433.946,46.354,433.984,43.669Z"/>
          <path id="Path_1741" data-name="Path 1741" d="M435.384,43.7l.521.015q-.1,2.685-.2,5.369l-.487-.014Z"/>
          <path id="Path_1742" data-name="Path 1742" d="M436.782,43.743l.522.023q-.145,2.682-.29,5.365l-.487-.021Z"/>
          <path id="Path_1743" data-name="Path 1743" d="M438.181,43.81l.52.031q-.189,2.68-.38,5.36l-.487-.028Q438.007,46.493,438.181,43.81Z"/>
          <path id="Path_1744" data-name="Path 1744" d="M439.577,43.9l.521.038-.7,8.008-.47-.035Z"/>
          <path id="Path_1745" data-name="Path 1745" d="M440.972,44.007c.174.014.347.03.52.045q-.281,2.675-.562,5.347-.243-.022-.486-.042Z"/>
          <path id="Path_1746" data-name="Path 1746" d="M442.365,44.135l.519.053q-.326,2.67-.652,5.339l-.485-.05Z"/>
          <path id="Path_1747" data-name="Path 1747" d="M443.756,44.284l.518.061q-.372,2.664-.743,5.328l-.484-.057Q443.4,46.951,443.756,44.284Z"/>
          <path id="Path_1748" data-name="Path 1748" d="M445.144,44.454l.517.068q-.417,2.658-.833,5.316c-.161-.021-.322-.043-.483-.063Q444.745,47.114,445.144,44.454Z"/>
        </g>
        <g id="Group_371" data-name="Group 371">
          <path id="Path_1749" data-name="Path 1749" d="M446.513,44.641l.516.076q-.834,4.8-1.669,9.6l-.455-.067Z"/>
          <path id="Path_1750" data-name="Path 1750" d="M447.895,44.851c.172.028.343.055.514.084L447.4,50.224l-.481-.078Z"/>
          <path id="Path_1751" data-name="Path 1751" d="M449.273,45.082c.171.029.342.06.513.091l-1.1,5.274c-.16-.029-.319-.058-.479-.085Z"/>
          <path id="Path_1752" data-name="Path 1752" d="M450.647,45.332c.17.033.341.065.511.1q-.6,2.628-1.19,5.257l-.478-.092Q450.069,47.963,450.647,45.332Z"/>
          <path id="Path_1753" data-name="Path 1753" d="M452.016,45.6l.51.106q-.641,2.621-1.279,5.24l-.476-.1Z"/>
          <path id="Path_1754" data-name="Path 1754" d="M453.381,45.9c.169.037.339.075.508.114q-1.023,3.9-2.045,7.805l-.458-.1Z"/>
          <path id="Path_1755" data-name="Path 1755" d="M454.741,46.206l.505.122q-.728,2.6-1.456,5.2l-.472-.114Q454.029,48.811,454.741,46.206Z"/>
          <path id="Path_1756" data-name="Path 1756" d="M456.1,46.539c.168.042.335.085.5.129q-.771,2.588-1.543,5.177l-.471-.121Q455.34,49.132,456.1,46.539Z"/>
          <path id="Path_1757" data-name="Path 1757" d="M457.443,46.891l.5.137q-.814,2.577-1.631,5.153l-.468-.127Q456.644,49.472,457.443,46.891Z"/>
          <path id="Path_1758" data-name="Path 1758" d="M458.785,47.264l.5.144q-.859,2.565-1.718,5.129L457.1,52.4Q457.943,49.834,458.785,47.264Z"/>
        </g>
        <g id="Group_372" data-name="Group 372">
          <path id="Path_1759" data-name="Path 1759" d="M460.106,47.653l.5.152q-1.633,4.62-3.266,9.242l-.438-.134Z"/>
          <path id="Path_1760" data-name="Path 1760" d="M461.435,48.066l.493.16L460.039,53.3l-.462-.149Q460.506,50.61,461.435,48.066Z"/>
          <path id="Path_1761" data-name="Path 1761" d="M462.756,48.5l.491.167q-.987,2.524-1.975,5.047l-.459-.156Q461.785,51.029,462.756,48.5Z"/>
          <path id="Path_1762" data-name="Path 1762" d="M464.071,48.954l.487.175q-1.029,2.508-2.06,5.017l-.456-.163Z"/>
          <path id="Path_1763" data-name="Path 1763" d="M465.377,49.429l.485.182L463.717,54.6l-.454-.17Z"/>
          <path id="Path_1764" data-name="Path 1764" d="M466.675,49.924l.482.19-3.334,7.407q-.217-.087-.435-.171Q465.032,53.636,466.675,49.924Z"/>
          <path id="Path_1765" data-name="Path 1765" d="M467.965,50.439c.159.066.319.131.478.2l-2.313,4.919-.447-.185Q466.823,52.905,467.965,50.439Z"/>
          <path id="Path_1766" data-name="Path 1766" d="M469.246,50.975l.475.205q-1.2,2.442-2.4,4.884l-.445-.192Q468.064,53.424,469.246,50.975Z"/>
          <path id="Path_1767" data-name="Path 1767" d="M470.517,51.531c.157.071.315.141.472.213q-1.241,2.424-2.479,4.847l-.441-.2Z"/>
          <path id="Path_1768" data-name="Path 1768" d="M471.779,52.108l.468.22q-1.281,2.4-2.56,4.809l-.438-.206Z"/>
        </g>
        <g id="Group_373" data-name="Group 373">
          <path id="Path_1769" data-name="Path 1769" d="M473.017,52.7l.464.227-4.782,8.64q-.2-.1-.41-.2Z"/>
          <path id="Path_1770" data-name="Path 1770" d="M474.258,53.315q.231.117.461.235L472,58.28l-.43-.22Q472.913,55.687,474.258,53.315Z"/>
          <path id="Path_1771" data-name="Path 1771" d="M475.49,53.952l.456.243-2.8,4.688-.426-.227Q474.1,56.3,475.49,53.952Z"/>
          <path id="Path_1772" data-name="Path 1772" d="M476.71,54.61l.452.25-2.88,4.645q-.21-.119-.422-.234Z"/>
          <path id="Path_1773" data-name="Path 1773" d="M477.919,55.288l.447.258-2.957,4.6-.419-.241Q476.454,57.6,477.919,55.288Z"/>
          <path id="Path_1774" data-name="Path 1774" d="M479.116,55.987q.222.132.443.265l-4.539,6.811q-.2-.122-.4-.24Q476.868,59.4,479.116,55.987Z"/>
          <path id="Path_1775" data-name="Path 1775" d="M480.3,56.705l.439.274q-1.557,2.253-3.112,4.507l-.41-.256Z"/>
          <path id="Path_1776" data-name="Path 1776" d="M481.474,57.445q.217.139.434.28l-3.188,4.459q-.2-.132-.406-.263Z"/>
          <path id="Path_1777" data-name="Path 1777" d="M482.634,58.2q.216.144.429.289L479.8,62.9l-.4-.269Z"/>
          <path id="Path_1778" data-name="Path 1778" d="M483.782,58.984l.424.3-3.337,4.358-.4-.277Z"/>
        </g>
        <g id="Group_374" data-name="Group 374">
          <path id="Path_1779" data-name="Path 1779" d="M484.9,59.776q.21.15.42.3l-6.176,7.8-.369-.268Z"/>
          <path id="Path_1780" data-name="Path 1780" d="M486.023,60.6l.414.311-3.482,4.252-.388-.291Z"/>
          <path id="Path_1781" data-name="Path 1781" d="M487.129,61.437l.409.319-3.554,4.2-.382-.3Z"/>
          <path id="Path_1782" data-name="Path 1782" d="M488.22,62.3c.135.109.27.217.4.327L485,66.765l-.377-.305Z"/>
          <path id="Path_1783" data-name="Path 1783" d="M489.3,63.18l.4.334L486,67.6l-.372-.312Z"/>
          <path id="Path_1784" data-name="Path 1784" d="M490.359,64.082q.2.169.392.342l-5.626,6.016-.354-.308Q487.566,67.106,490.359,64.082Z"/>
          <path id="Path_1785" data-name="Path 1785" d="M491.406,65l.386.35q-1.915,1.98-3.83,3.962l-.361-.326Z"/>
          <path id="Path_1786" data-name="Path 1786" d="M492.436,65.947l.381.357-3.9,3.9c-.118-.112-.237-.223-.355-.333Z"/>
          <path id="Path_1787" data-name="Path 1787" d="M493.451,66.911c.125.12.25.242.374.364l-3.962,3.838-.35-.341Z"/>
          <path id="Path_1788" data-name="Path 1788" d="M494.449,67.894l.368.372L490.79,72.04q-.171-.176-.344-.348Z"/>
        </g>
        <g id="Group_375" data-name="Group 375">
          <path id="Path_1789" data-name="Path 1789" d="M495.419,68.886q.182.189.362.38l-7.406,6.716c-.106-.112-.213-.223-.319-.334Z"/>
          <path id="Path_1790" data-name="Path 1790" d="M496.383,69.911q.179.192.355.387l-4.151,3.641q-.165-.182-.332-.362Z"/>
          <path id="Path_1791" data-name="Path 1791" d="M497.33,70.955q.176.2.349.395l-4.213,3.573c-.108-.124-.217-.246-.326-.369Z"/>
          <path id="Path_1792" data-name="Path 1792" d="M498.259,72.02l.342.4-4.273,3.5q-.159-.189-.319-.377Z"/>
          <path id="Path_1793" data-name="Path 1793" d="M499.17,73.105q.168.2.334.41l-4.331,3.432-.313-.383Z"/>
          <path id="Path_1794" data-name="Path 1794" d="M500.062,74.211q.165.207.328.417l-6.564,5.025q-.147-.189-.295-.377Z"/>
          <path id="Path_1795" data-name="Path 1795" d="M500.935,75.337c.107.141.214.282.321.425l-4.445,3.286-.3-.4Z"/>
          <path id="Path_1796" data-name="Path 1796" d="M501.789,76.483q.158.216.313.433l-4.5,3.211q-.145-.2-.293-.4Z"/>
          <path id="Path_1797" data-name="Path 1797" d="M502.623,77.65q.155.219.306.44l-4.553,3.135-.286-.411Z"/>
          <path id="Path_1798" data-name="Path 1798" d="M503.438,78.837q.15.224.3.448l-4.606,3.057q-.138-.21-.279-.418Z"/>
        </g>
        <g id="Group_376" data-name="Group 376">
          <path id="Path_1799" data-name="Path 1799" d="M504.223,80.03c.1.152.194.3.291.456l-8.434,5.4q-.127-.2-.256-.4Z"/>
          <path id="Path_1800" data-name="Path 1800" d="M505,81.258q.143.231.283.463l-4.706,2.9c-.088-.144-.176-.289-.265-.432Z"/>
          <path id="Path_1801" data-name="Path 1801" d="M505.75,82.506c.092.157.184.313.275.471l-4.755,2.817q-.127-.22-.257-.439Z"/>
          <path id="Path_1802" data-name="Path 1802" d="M506.481,83.774c.09.159.179.319.268.478l-4.8,2.735q-.124-.224-.25-.447Z"/>
          <path id="Path_1803" data-name="Path 1803" d="M507.191,85.063q.131.243.259.486L502.6,88.2l-.242-.454Z"/>
          <path id="Path_1804" data-name="Path 1804" d="M507.879,86.372q.126.246.251.494L500.815,90.7q-.113-.224-.227-.446Q504.235,88.315,507.879,86.372Z"/>
          <path id="Path_1805" data-name="Path 1805" d="M508.545,87.7q.121.249.242.5l-4.934,2.478q-.112-.235-.227-.468Z"/>
          <path id="Path_1806" data-name="Path 1806" d="M509.188,89.052q.117.253.233.508l-4.975,2.39c-.073-.159-.145-.317-.219-.475Z"/>
          <path id="Path_1807" data-name="Path 1807" d="M509.808,90.422l.225.516-5.016,2.3q-.1-.243-.21-.483Z"/>
          <path id="Path_1808" data-name="Path 1808" d="M510.4,91.813q.109.261.216.523l-5.053,2.21q-.1-.246-.2-.49Z"/>
        </g>
        <g id="Group_377" data-name="Group 377">
          <path id="Path_1809" data-name="Path 1809" d="M510.97,93.207q.105.266.208.532l-9.218,3.836q-.09-.234-.183-.468Z"/>
          <path id="Path_1810" data-name="Path 1810" d="M511.519,94.639q.1.269.2.538L506.593,97.2q-.091-.252-.186-.5Z"/>
          <path id="Path_1811" data-name="Path 1811" d="M512.044,96.09q.1.273.189.547l-5.158,1.93-.177-.511Z"/>
          <path id="Path_1812" data-name="Path 1812" d="M512.544,97.562l.18.554-5.191,1.834q-.082-.259-.168-.518Z"/>
          <path id="Path_1813" data-name="Path 1813" d="M513.018,99.054q.087.28.171.562l-5.22,1.737q-.08-.264-.16-.525Z"/>
          <path id="Path_1814" data-name="Path 1814" d="M513.468,100.567q.081.283.161.569l-7.85,2.45q-.072-.258-.145-.514Z"/>
          <path id="Path_1815" data-name="Path 1815" d="M513.891,102.1c.051.192.1.384.151.577l-5.275,1.538c-.047-.181-.094-.36-.142-.54Z"/>
          <path id="Path_1816" data-name="Path 1816" d="M514.289,103.654c.047.194.095.389.141.584l-5.3,1.436c-.043-.182-.088-.364-.132-.546Z"/>
          <path id="Path_1817" data-name="Path 1817" d="M514.66,105.227c.044.2.088.4.131.592l-5.325,1.334c-.04-.185-.081-.369-.122-.554Z"/>
          <path id="Path_1818" data-name="Path 1818" d="M515,106.822q.061.3.121.6l-5.346,1.23c-.037-.188-.075-.374-.114-.561Z"/>
        </g>
        <g id="Group_378" data-name="Group 378">
          <path id="Path_1819" data-name="Path 1819" d="M515.317,108.418c.038.2.075.4.111.607l-9.718,2.038c-.032-.179-.064-.358-.1-.536Z"/>
          <path id="Path_1820" data-name="Path 1820" d="M515.607,110.052q.051.308.1.615l-5.384,1.019q-.047-.288-.1-.575Z"/>
          <path id="Path_1821" data-name="Path 1821" d="M515.869,111.708c.03.207.061.414.09.622l-5.4.91q-.042-.291-.085-.581Z"/>
          <path id="Path_1822" data-name="Path 1822" d="M516.1,113.383c.028.209.054.419.08.63l-5.415.8q-.036-.3-.074-.589Z"/>
          <path id="Path_1823" data-name="Path 1823" d="M516.307,115.079q.036.318.07.637l-5.428.691c-.021-.2-.042-.4-.065-.6Z"/>
          <path id="Path_1824" data-name="Path 1824" d="M516.484,116.795q.03.323.058.645l-8.133.865q-.025-.291-.052-.582Z"/>
          <path id="Path_1825" data-name="Path 1825" d="M516.631,118.531q.024.326.047.653l-5.447.465q-.021-.306-.044-.61Z"/>
          <path id="Path_1826" data-name="Path 1826" d="M516.748,120.288q.02.33.036.661l-5.454.35c-.01-.206-.022-.412-.034-.617Z"/>
          <path id="Path_1827" data-name="Path 1827" d="M516.836,122.066q.013.333.025.668l-5.459.234c-.008-.208-.015-.416-.024-.624Z"/>
          <path id="Path_1828" data-name="Path 1828" d="M516.893,123.864c.005.224.01.45.013.675l-5.462.117q0-.316-.012-.631Z"/>
        </g>
        <g id="Group_379" data-name="Group 379">
          <path id="Path_1829" data-name="Path 1829" d="M516.919,125.661q0,.34,0,.683h-9.894c0-.2,0-.4,0-.6Z"/>
        </g>
      </g>
      <g id="Group_381" data-name="Group 381">
        <path id="Path_1830" data-name="Path 1830" d="M486.423,121.272c-.013-.144-.024-.289-.038-.432l-1.726.2c.012.139.025.279.036.419Z"/>
        <path id="Path_1831" data-name="Path 1831" d="M445.073,75.08l.318.073q.193-.765.388-1.53c-.108-.028-.218-.053-.327-.08Q445.263,74.311,445.073,75.08Z"/>
        <path id="Path_1832" data-name="Path 1832" d="M448.9,77.378l.3.1q.436-1.273.872-2.549c-.106-.037-.211-.075-.317-.111Q449.333,76.1,448.9,77.378Z"/>
        <path id="Path_1833" data-name="Path 1833" d="M485.61,115.656c-.027-.134-.052-.269-.08-.4l-2.778.624c.023.128.046.256.068.385Z"/>
        <path id="Path_1834" data-name="Path 1834" d="M427.65,73.809l.326-.024-.135-1.717c-.113.009-.224.02-.337.03Q427.578,72.953,427.65,73.809Z"/>
        <path id="Path_1835" data-name="Path 1835" d="M432.021,71.9l.009,2.947h.32l.009-2.945-.24,0Z"/>
        <path id="Path_1836" data-name="Path 1836" d="M423.81,75.47q-.232-1.433-.464-2.864l-.333.055q.24,1.429.481,2.857Z"/>
        <path id="Path_1837" data-name="Path 1837" d="M482.868,110.892l1.428-.461c-.038-.125-.075-.251-.114-.376l-1.415.468C482.8,110.646,482.835,110.769,482.868,110.892Z"/>
        <path id="Path_1838" data-name="Path 1838" d="M440.57,75.47l.316.048q.239-1.417.476-2.834l-.332-.055Q440.8,74.049,440.57,75.47Z"/>
        <path id="Path_1839" data-name="Path 1839" d="M436.413,73.785l.327.025.144-1.7c-.112-.01-.224-.021-.336-.03Z"/>
        <path id="Path_1840" data-name="Path 1840" d="M454.255,76.573c-.1-.045-.2-.089-.306-.133q-.269.625-.536,1.252l.3.123Z"/>
        <path id="Path_1841" data-name="Path 1841" d="M458.264,78.551l-.294-.159-1.152,2.182.285.145Z"/>
        <path id="Path_1842" data-name="Path 1842" d="M482.552,105.571c-.048-.117-.094-.234-.143-.349l-2.322,1.018c.043.112.085.224.127.336Z"/>
        <path id="Path_1843" data-name="Path 1843" d="M465.733,83.462c-.088-.069-.177-.135-.266-.2l-1.362,1.8c.086.063.172.127.257.192Z"/>
        <path id="Path_1844" data-name="Path 1844" d="M469.16,86.38c-.082-.076-.163-.154-.246-.229q-.322.358-.644.719l.246.222Z"/>
        <path id="Path_1845" data-name="Path 1845" d="M462.1,80.857c-.093-.061-.186-.123-.28-.183l-.6.948.278.172Z"/>
        <path id="Path_1846" data-name="Path 1846" d="M478.027,96.924c-.064-.1-.13-.2-.2-.3q-.941.632-1.882,1.262c.06.1.12.192.179.289Z"/>
        <path id="Path_1847" data-name="Path 1847" d="M480.449,101.082c-.056-.108-.112-.215-.17-.322l-1.018.561c.053.106.105.213.157.32Z"/>
        <path id="Path_1848" data-name="Path 1848" d="M475.323,93.105c-.07-.091-.14-.183-.211-.274l-.755.606c.069.089.137.18.206.27Z"/>
        <path id="Path_1849" data-name="Path 1849" d="M472.359,89.586c-.077-.083-.155-.165-.232-.249l-1.574,1.494.221.24Z"/>
        <path id="Path_1850" data-name="Path 1850" d="M400.017,85.251c.086-.065.171-.129.257-.192L398.86,83.19c-.088.068-.178.135-.266.2Z"/>
        <path id="Path_1851" data-name="Path 1851" d="M384.292,106.24l-2.442-1.071c-.049.116-.1.234-.143.35l2.458,1.057C384.207,106.464,384.249,106.352,384.292,106.24Z"/>
        <path id="Path_1852" data-name="Path 1852" d="M381.627,115.876l-2.912-.654c-.028.135-.054.27-.081.4l2.925.634C381.582,116.132,381.6,116,381.627,115.876Z"/>
        <path id="Path_1853" data-name="Path 1853" d="M379.722,121.03l-1.866-.22c-.014.144-.025.289-.038.433l1.867.205C379.7,121.309,379.709,121.169,379.722,121.03Z"/>
        <path id="Path_1854" data-name="Path 1854" d="M381.514,110.881c.034-.124.067-.247.1-.369l-1.541-.51c-.04.125-.078.251-.116.376Z"/>
        <path id="Path_1855" data-name="Path 1855" d="M419.316,75.077l-.387-1.569-.327.079.4,1.564Z"/>
        <path id="Path_1856" data-name="Path 1856" d="M483.734,126.8c0,.144,0,.288,0,.433h2.911c0-.153,0-.305.006-.458Z"/>
        <path id="Path_1857" data-name="Path 1857" d="M380.645,126.8l-3.059-.026.006.459h3.052C380.644,127.089,380.644,126.945,380.645,126.8Z"/>
        <path id="Path_1858" data-name="Path 1858" d="M393.826,90.831l-1.648-1.565c-.078.084-.156.166-.233.25l1.66,1.555Z"/>
        <path id="Path_1859" data-name="Path 1859" d="M407.276,80.719l.285-.145-1.183-2.24c-.1.052-.2.1-.295.157Q406.68,79.6,407.276,80.719Z"/>
        <path id="Path_1860" data-name="Path 1860" d="M402.893,81.789c.092-.058.185-.115.278-.172l-.645-1.014c-.094.06-.186.122-.28.183Z"/>
        <path id="Path_1861" data-name="Path 1861" d="M415.476,77.378q-.437-1.3-.874-2.609c-.106.036-.211.075-.317.112q.444,1.3.887,2.593Z"/>
        <path id="Path_1862" data-name="Path 1862" d="M410.674,77.811l.3-.123-.558-1.3-.307.134Z"/>
        <path id="Path_1863" data-name="Path 1863" d="M384.966,101.631c.052-.107.1-.214.157-.32L384,100.69l-.171.322Z"/>
        <path id="Path_1864" data-name="Path 1864" d="M388.251,98.18c.059-.1.118-.193.178-.289l-1.98-1.327c-.065.1-.131.2-.2.3Z"/>
        <path id="Path_1865" data-name="Path 1865" d="M395.871,87.085l.245-.222-.707-.791-.247.229Z"/>
        <path id="Path_1866" data-name="Path 1866" d="M389.823,93.7c.068-.091.137-.181.206-.271l-.843-.675c-.071.09-.14.183-.211.274Z"/>
      </g>
    </g>
    <path id="Path_1867" data-name="Path 1867" d="M433.144,127.337a1.487,1.487,0,1,0,1.487,1.487A1.486,1.486,0,0,0,433.144,127.337Z" fill="none"/>
    <path id="Path_1868" data-name="Path 1868" d="M516.907,124.894c.167-48.977-37.677-81.2-84.152-81.2s-83.823,32.14-84.153,81.2c-.005.767.008,1.532.033,2.294,0,.009-.005.017-.005.026v4.281H432.7v-.28h.817v.28h83.412v-5.9C516.913,125.344,516.906,125.1,516.907,124.894Zm-86.286,4.237h-7.6v-.818h7.6Zm2.523,1.18a1.487,1.487,0,1,1,1.487-1.487A1.486,1.486,0,0,1,433.144,130.311Zm-.439-4.082v-7.6h.817v7.6Zm10.5,2.9h-7.6v-.818h7.6Zm40.082-1.894c0,.015,0,.053-.007.076-.009.1-.026.26-.054.469h-38.6a11.522,11.522,0,0,0-22.984,0h-40.3c-.011-.075-.017-.132-.025-.2-.019-.157-.034-.29-.037-.348-.037-.734-.06-1.471-.06-2.214,0-28.466,21.58-49.9,50.9-49.9,29.468,0,51.231,21.672,51.231,49.774C483.355,125.68,483.331,126.46,483.291,127.237Z" fill="#bde6f4" opacity="0.6"/>
    <rect id="Rectangle_201" data-name="Rectangle 201" width="0.817" height="8.212" transform="translate(432.705 118.627)"/>
    <rect id="Rectangle_202" data-name="Rectangle 202" width="0.817" height="0.802" transform="translate(432.705 130.693)"/>
    <rect id="Rectangle_203" data-name="Rectangle 203" width="7.602" height="0.817" transform="translate(423.019 128.313)"/>
    <rect id="Rectangle_204" data-name="Rectangle 204" width="7.602" height="0.817" transform="translate(435.607 128.313)"/>
  </g>
</svg>
