<svg xmlns="http://www.w3.org/2000/svg" viewBox="0 0 261.5 139.36"><defs><style>.cls-1,.cls-2{fill:none;stroke:#00aeef;}.cls-1{stroke-width:0.7px;}.cls-2{stroke-width:0.43px;}.cls-3,.cls-30{font-size:7.8px;}.cls-10,.cls-12,.cls-14,.cls-16,.cls-18,.cls-20,.cls-22,.cls-24,.cls-26,.cls-28,.cls-3,.cls-30,.cls-32,.cls-34,.cls-36,.cls-37,.cls-4,.cls-6,.cls-8{fill:#00aeef;font-family:Kartika-Bold, Kartika;font-weight:700;}.cls-32,.cls-4{font-size:7.8px;}.cls-5{letter-spacing:-0.15em;}.cls-18,.cls-6{font-size:7.8px;}.cls-7{letter-spacing:-0.12em;}.cls-28,.cls-8{font-size:7.79px;}.cls-9{letter-spacing:-0.12em;}.cls-10{font-size:7.8px;letter-spacing:-0.12em;}.cls-11{letter-spacing:0em;}.cls-12{font-size:7.8px;}.cls-13{letter-spacing:-0.12em;}.cls-14{font-size:7.79px;letter-spacing:-0.12em;}.cls-15{letter-spacing:0em;}.cls-16,.cls-24{font-size:7.79px;}.cls-17{letter-spacing:-0.12em;}.cls-18{letter-spacing:-0.2em;}.cls-19{letter-spacing:-0.15em;}.cls-20,.cls-26{font-size:7.79px;}.cls-20{letter-spacing:-0.2em;}.cls-21{letter-spacing:-0.15em;}.cls-22{font-size:7.79px;letter-spacing:-0.2em;}.cls-23{letter-spacing:-0.15em;}.cls-24{letter-spacing:-0.2em;}.cls-25{letter-spacing:-0.15em;}.cls-27{letter-spacing:-0.12em;}.cls-28{letter-spacing:-0.2em;}.cls-29{letter-spacing:-0.15em;}.cls-30{letter-spacing:-0.2em;}.cls-31{letter-spacing:-0.15em;}.cls-32{letter-spacing:-0.12em;}.cls-33{letter-spacing:0em;}.cls-34{font-size:7.8px;}.cls-35{letter-spacing:-0.15em;}.cls-36,.cls-37{font-size:7.8px;}.cls-37{letter-spacing:-0.2em;}.cls-38{letter-spacing:-0.15em;}</style></defs><title>Asset 1f</title><g id="Layer_2" data-name="Layer 2"><g id="レイヤー_1" data-name="レイヤー 1"><path class="cls-1" d="M260.91,138.71c.16-2.64.24-5.29.24-8a130.4,130.4,0,0,0-260.79,0q0,4.17.26,8.27H260.88Z"/><line class="cls-2" x1="0.39" y1="130.79" x2="18.15" y2="130.79"/><line class="cls-2" x1="34.03" y1="130.73" x2="227.28" y2="130.79"/><line class="cls-2" x1="242.4" y1="130.79" x2="261.17" y2="130.79"/><line class="cls-2" x1="130.31" y1="102.31" x2="130.31" y2="130.73"/><line class="cls-2" x1="130.31" y1="102.31" x2="130.31" y2="29.1"/><line class="cls-2" x1="130.31" y1="21.89" x2="130.31" y2="0.39"/><line class="cls-2" x1="132.42" y1="10.29" x2="132.59" y2="0.41"/><line class="cls-2" x1="134.52" y1="10.29" x2="134.86" y2="0.47"/><line class="cls-2" x1="136.62" y1="10.48" x2="137.14" y2="0.57"/><line class="cls-2" x1="138.72" y1="10.54" x2="139.41" y2="0.71"/><line class="cls-2" x1="140.44" y1="14.97" x2="141.67" y2="0.89"/><line class="cls-2" x1="142.91" y1="10.86" x2="143.94" y2="1.11"/><line class="cls-2" x1="144.99" y1="11.23" x2="146.2" y2="1.37"/><line class="cls-2" x1="147.08" y1="11.43" x2="148.46" y2="1.66"/><line class="cls-2" x1="149.15" y1="11.8" x2="150.71" y2="2"/><line class="cls-2" x1="135.22" y1="102.9" x2="147.06" y2="35.75"/><line class="cls-2" x1="149.78" y1="20.23" x2="152.95" y2="2.38"/><line class="cls-2" x1="153.31" y1="12.43" x2="155.19" y2="2.79"/><line class="cls-2" x1="155.37" y1="12.86" x2="157.42" y2="3.24"/><line class="cls-2" x1="157.43" y1="13.28" x2="159.64" y2="3.74"/><line class="cls-2" x1="159.49" y1="13.73" x2="161.85" y2="4.27"/><line class="cls-2" x1="160.41" y1="18.43" x2="164.05" y2="4.84"/><line class="cls-2" x1="163.55" y1="14.86" x2="166.24" y2="5.45"/><line class="cls-2" x1="165.55" y1="15.48" x2="168.43" y2="6.09"/><line class="cls-2" x1="167.56" y1="16.11" x2="170.6" y2="6.78"/><line class="cls-2" x1="169.56" y1="16.76" x2="172.75" y2="7.5"/><line class="cls-2" x1="139.96" y1="104.23" x2="163.3" y2="40.11"/><line class="cls-2" x1="168.71" y1="25.25" x2="174.9" y2="8.26"/><line class="cls-2" x1="173.51" y1="18.22" x2="177.03" y2="9.06"/><line class="cls-2" x1="175.46" y1="19" x2="179.15" y2="9.89"/><line class="cls-2" x1="177.41" y1="19.79" x2="181.25" y2="10.76"/><line class="cls-2" x1="179.34" y1="20.63" x2="183.33" y2="11.67"/><line class="cls-2" x1="179.43" y1="25.42" x2="185.4" y2="12.61"/><line class="cls-2" x1="183.14" y1="22.44" x2="187.46" y2="13.59"/><line class="cls-2" x1="185.06" y1="23.3" x2="189.49" y2="14.61"/><line class="cls-2" x1="186.89" y1="24.34" x2="191.51" y2="15.66"/><line class="cls-2" x1="188.75" y1="25.33" x2="193.51" y2="16.74"/><line class="cls-2" x1="144.52" y1="106.13" x2="178.53" y2="47.23"/><line class="cls-2" x1="186.37" y1="33.65" x2="195.49" y2="17.86"/><line class="cls-2" x1="192.36" y1="27.49" x2="197.45" y2="19.02"/><line class="cls-2" x1="194.18" y1="28.55" x2="199.39" y2="20.21"/><line class="cls-2" x1="195.92" y1="29.73" x2="201.31" y2="21.43"/><line class="cls-2" x1="197.7" y1="30.84" x2="203.21" y2="22.69"/><line class="cls-2" x1="196.95" y1="35.59" x2="205.08" y2="23.98"/><line class="cls-2" x1="201.11" y1="33.3" x2="206.93" y2="25.3"/><line class="cls-2" x1="202.8" y1="34.57" x2="208.76" y2="26.65"/><line class="cls-2" x1="204.46" y1="35.85" x2="210.57" y2="28.04"/><line class="cls-2" x1="206.12" y1="37.14" x2="212.35" y2="29.45"/><line class="cls-2" x1="148.52" y1="109.04" x2="192.3" y2="56.87"/><line class="cls-2" x1="202.41" y1="44.83" x2="214.1" y2="30.9"/><line class="cls-2" x1="209.37" y1="39.81" x2="215.83" y2="32.38"/><line class="cls-2" x1="211" y1="41.14" x2="217.54" y2="33.89"/><line class="cls-2" x1="212.46" y1="42.66" x2="219.21" y2="35.42"/><line class="cls-2" x1="214.01" y1="44.08" x2="220.86" y2="36.99"/><line class="cls-2" x1="212.47" y1="48.6" x2="222.49" y2="38.58"/><line class="cls-2" x1="216.99" y1="47.06" x2="224.08" y2="40.21"/><line class="cls-2" x1="218.44" y1="48.57" x2="225.65" y2="41.86"/><line class="cls-2" x1="219.83" y1="50.16" x2="227.18" y2="43.54"/><line class="cls-2" x1="221.32" y1="51.64" x2="228.69" y2="45.24"/><line class="cls-2" x1="152.09" y1="112.46" x2="204.18" y2="68.77"/><line class="cls-2" x1="216.14" y1="58.73" x2="230.17" y2="46.97"/><line class="cls-2" x1="224" y1="54.89" x2="231.61" y2="48.73"/><line class="cls-2" x1="225.28" y1="56.56" x2="233.03" y2="50.51"/><line class="cls-2" x1="226.58" y1="58.21" x2="234.41" y2="52.31"/><line class="cls-2" x1="227.83" y1="59.9" x2="235.77" y2="54.14"/><line class="cls-2" x1="225.52" y1="64.09" x2="237.09" y2="55.99"/><line class="cls-2" x1="230.24" y1="63.35" x2="238.38" y2="57.87"/><line class="cls-2" x1="231.36" y1="65.13" x2="239.63" y2="59.77"/><line class="cls-2" x1="232.43" y1="66.95" x2="240.85" y2="61.69"/><line class="cls-2" x1="233.58" y1="68.71" x2="242.04" y2="63.63"/><line class="cls-2" x1="154.84" y1="116.57" x2="213.82" y2="82.54"/><line class="cls-2" x1="227.3" y1="74.76" x2="243.2" y2="65.59"/><line class="cls-2" x1="235.74" y1="72.32" x2="244.32" y2="67.57"/><line class="cls-2" x1="236.77" y1="74.15" x2="245.4" y2="69.57"/><line class="cls-2" x1="237.74" y1="76.02" x2="246.45" y2="71.58"/><line class="cls-2" x1="238.61" y1="77.94" x2="247.47" y2="73.62"/><line class="cls-2" x1="235.67" y1="81.63" x2="248.45" y2="75.68"/><line class="cls-2" x1="240.41" y1="81.74" x2="249.39" y2="77.75"/><line class="cls-2" x1="241.22" y1="83.68" x2="250.29" y2="79.83"/><line class="cls-2" x1="242.04" y1="85.62" x2="251.16" y2="81.93"/><line class="cls-2" x1="242.85" y1="87.56" x2="252" y2="84.05"/><line class="cls-2" x1="156.97" y1="121.03" x2="220.96" y2="97.76"/><line class="cls-2" x1="235.57" y1="92.45" x2="252.79" y2="86.18"/><line class="cls-2" x1="244.29" y1="91.51" x2="253.55" y2="88.33"/><line class="cls-2" x1="244.98" y1="93.5" x2="254.28" y2="90.48"/><line class="cls-2" x1="245.62" y1="95.51" x2="254.96" y2="92.65"/><line class="cls-2" x1="246.17" y1="97.54" x2="255.6" y2="94.84"/><line class="cls-2" x1="242.6" y1="100.67" x2="256.21" y2="97.03"/><line class="cls-2" x1="247.34" y1="101.58" x2="256.78" y2="99.23"/><line class="cls-2" x1="247.73" y1="103.65" x2="257.31" y2="101.44"/><line class="cls-2" x1="248.28" y1="105.69" x2="257.8" y2="103.67"/><line class="cls-2" x1="248.61" y1="107.77" x2="258.26" y2="105.9"/><line class="cls-2" x1="158.12" y1="125.83" x2="225.29" y2="114.01"/><line class="cls-2" x1="240.67" y1="111.3" x2="258.67" y2="108.13"/><line class="cls-2" x1="249.34" y1="111.91" x2="259.04" y2="110.38"/><line class="cls-2" x1="249.6" y1="114" x2="259.38" y2="112.63"/><line class="cls-2" x1="249.91" y1="116.08" x2="259.68" y2="114.88"/><line class="cls-2" x1="250.23" y1="118.16" x2="259.93" y2="117.14"/><line class="cls-2" x1="246.16" y1="120.63" x2="260.15" y2="119.41"/><line class="cls-2" x1="250.53" y1="122.36" x2="260.33" y2="121.68"/><line class="cls-2" x1="250.66" y1="124.46" x2="260.47" y2="123.95"/><line class="cls-2" x1="250.66" y1="126.56" x2="260.56" y2="126.22"/><line class="cls-2" x1="250.78" y1="128.66" x2="260.62" y2="128.49"/><line class="cls-2" x1="128.21" y1="10.29" x2="128.04" y2="0.41"/><line class="cls-2" x1="126.11" y1="10.35" x2="125.76" y2="0.47"/><line class="cls-2" x1="124.01" y1="10.47" x2="123.49" y2="0.57"/><line class="cls-2" x1="121.91" y1="10.53" x2="121.22" y2="0.71"/><line class="cls-2" x1="120.18" y1="14.98" x2="118.95" y2="0.89"/><line class="cls-2" x1="117.72" y1="10.91" x2="116.69" y2="1.11"/><line class="cls-2" x1="115.63" y1="11.16" x2="114.43" y2="1.37"/><line class="cls-2" x1="113.54" y1="11.4" x2="112.17" y2="1.66"/><line class="cls-2" x1="111.46" y1="11.73" x2="109.92" y2="2"/><line class="cls-2" x1="125.39" y1="102.81" x2="113.58" y2="35.84"/><line class="cls-2" x1="110.83" y1="20.24" x2="107.68" y2="2.38"/><line class="cls-2" x1="107.32" y1="12.48" x2="105.44" y2="2.79"/><line class="cls-2" x1="105.25" y1="12.83" x2="103.21" y2="3.24"/><line class="cls-2" x1="103.21" y1="13.34" x2="100.99" y2="3.74"/><line class="cls-2" x1="101.15" y1="13.79" x2="98.78" y2="4.27"/><line class="cls-2" x1="100.24" y1="18.52" x2="96.57" y2="4.84"/><line class="cls-2" x1="97.09" y1="14.9" x2="94.38" y2="5.45"/><line class="cls-2" x1="95.05" y1="15.41" x2="92.2" y2="6.09"/><line class="cls-2" x1="93.06" y1="16.09" x2="90.03" y2="6.78"/><line class="cls-2" x1="91.06" y1="16.76" x2="87.87" y2="7.5"/><line class="cls-2" x1="120.64" y1="104.16" x2="97.32" y2="40.09"/><line class="cls-2" x1="91.96" y1="25.38" x2="85.73" y2="8.26"/><line class="cls-2" x1="87.15" y1="18.31" x2="83.6" y2="9.06"/><line class="cls-2" x1="85.18" y1="19.05" x2="81.48" y2="9.89"/><line class="cls-2" x1="83.22" y1="19.81" x2="79.38" y2="10.76"/><line class="cls-2" x1="81.31" y1="20.68" x2="77.29" y2="11.67"/><line class="cls-2" x1="81.19" y1="25.4" x2="75.22" y2="12.61"/><line class="cls-2" x1="77.51" y1="22.49" x2="73.17" y2="13.59"/><line class="cls-2" x1="75.63" y1="23.43" x2="71.13" y2="14.61"/><line class="cls-2" x1="73.73" y1="24.34" x2="69.12" y2="15.66"/><line class="cls-2" x1="71.89" y1="25.36" x2="67.12" y2="16.74"/><line class="cls-2" x1="116.16" y1="106.21" x2="82.05" y2="47.16"/><line class="cls-2" x1="74.36" y1="33.84" x2="65.14" y2="17.86"/><line class="cls-2" x1="68.31" y1="27.56" x2="63.18" y2="19.02"/><line class="cls-2" x1="66.5" y1="28.62" x2="61.24" y2="20.21"/><line class="cls-2" x1="64.73" y1="29.76" x2="59.32" y2="21.43"/><line class="cls-2" x1="62.96" y1="30.9" x2="57.42" y2="22.69"/><line class="cls-2" x1="63.65" y1="35.54" x2="55.55" y2="23.98"/><line class="cls-2" x1="59.51" y1="33.3" x2="53.69" y2="25.3"/><line class="cls-2" x1="57.82" y1="34.55" x2="51.86" y2="26.65"/><line class="cls-2" x1="56.19" y1="35.88" x2="50.06" y2="28.04"/><line class="cls-2" x1="54.5" y1="37.14" x2="48.28" y2="29.45"/><line class="cls-2" x1="112.16" y1="109.09" x2="68.23" y2="56.76"/><line class="cls-2" x1="58.36" y1="45" x2="46.52" y2="30.9"/><line class="cls-2" x1="51.29" y1="39.84" x2="44.79" y2="32.38"/><line class="cls-2" x1="49.71" y1="41.23" x2="43.09" y2="33.89"/><line class="cls-2" x1="48.16" y1="42.66" x2="41.41" y2="35.42"/><line class="cls-2" x1="46.64" y1="44.11" x2="39.76" y2="36.99"/><line class="cls-2" x1="48.16" y1="48.6" x2="38.14" y2="38.58"/><line class="cls-2" x1="43.67" y1="47.09" x2="36.55" y2="40.21"/><line class="cls-2" x1="42.15" y1="48.54" x2="34.98" y2="41.86"/><line class="cls-2" x1="40.8" y1="50.15" x2="33.44" y2="43.54"/><line class="cls-2" x1="39.4" y1="51.73" x2="31.94" y2="45.24"/><line class="cls-2" x1="108.68" y1="112.58" x2="56.33" y2="68.67"/><line class="cls-2" x1="44.54" y1="58.78" x2="30.46" y2="46.97"/><line class="cls-2" x1="36.73" y1="54.97" x2="29.01" y2="48.73"/><line class="cls-2" x1="35.3" y1="56.53" x2="27.6" y2="50.51"/><line class="cls-2" x1="34.15" y1="58.29" x2="26.21" y2="52.31"/><line class="cls-2" x1="32.87" y1="59.96" x2="24.86" y2="54.14"/><line class="cls-2" x1="35.11" y1="64.1" x2="23.54" y2="55.99"/><line class="cls-2" x1="30.53" y1="63.45" x2="22.25" y2="57.87"/><line class="cls-2" x1="29.3" y1="65.16" x2="21" y2="59.77"/><line class="cls-2" x1="28.2" y1="66.95" x2="19.77" y2="61.68"/><line class="cls-2" x1="27.02" y1="68.69" x2="18.58" y2="63.63"/><line class="cls-2" x1="105.84" y1="116.6" x2="46.76" y2="82.51"/><line class="cls-2" x1="32.96" y1="74.54" x2="17.43" y2="65.59"/><line class="cls-2" x1="25.03" y1="72.4" x2="16.31" y2="67.57"/><line class="cls-2" x1="24.02" y1="74.24" x2="15.23" y2="69.57"/><line class="cls-2" x1="22.96" y1="76.06" x2="14.18" y2="71.58"/><line class="cls-2" x1="22.04" y1="77.95" x2="13.16" y2="73.62"/><line class="cls-2" x1="24.98" y1="81.64" x2="12.18" y2="75.67"/><line class="cls-2" x1="20.26" y1="81.76" x2="11.24" y2="77.74"/><line class="cls-2" x1="19.38" y1="83.67" x2="10.33" y2="79.83"/><line class="cls-2" x1="18.59" y1="85.62" x2="9.46" y2="81.93"/><line class="cls-2" x1="17.85" y1="87.59" x2="8.63" y2="84.05"/><line class="cls-2" x1="103.75" y1="121.06" x2="39.65" y2="97.73"/><line class="cls-2" x1="25.04" y1="92.44" x2="7.83" y2="86.18"/><line class="cls-2" x1="16.35" y1="91.52" x2="7.07" y2="88.33"/><line class="cls-2" x1="15.76" y1="93.54" x2="6.35" y2="90.48"/><line class="cls-2" x1="15.12" y1="95.54" x2="5.67" y2="92.65"/><line class="cls-2" x1="14.51" y1="97.55" x2="5.02" y2="94.84"/><line class="cls-2" x1="18.03" y1="100.67" x2="4.42" y2="97.03"/><line class="cls-2" x1="13.46" y1="101.63" x2="3.85" y2="99.23"/><line class="cls-2" x1="12.97" y1="103.67" x2="3.32" y2="101.44"/><line class="cls-2" x1="12.52" y1="105.72" x2="2.82" y2="103.67"/><line class="cls-2" x1="12.03" y1="107.77" x2="2.37" y2="105.89"/><line class="cls-2" x1="102.46" y1="125.82" x2="35.4" y2="113.98"/><line class="cls-2" x1="19.92" y1="111.29" x2="1.96" y2="108.13"/><line class="cls-2" x1="11.27" y1="111.91" x2="1.58" y2="110.38"/><line class="cls-2" x1="11.03" y1="114" x2="1.25" y2="112.63"/><line class="cls-2" x1="10.59" y1="116.06" x2="0.95" y2="114.88"/><line class="cls-2" x1="10.52" y1="118.17" x2="0.69" y2="117.14"/><line class="cls-2" x1="14.46" y1="120.63" x2="0.48" y2="119.41"/><line class="cls-2" x1="10.15" y1="122.36" x2="0.3" y2="121.68"/><line class="cls-2" x1="9.9" y1="124.45" x2="0.16" y2="123.95"/><line class="cls-2" x1="9.9" y1="126.56" x2="0.06" y2="126.22"/><line class="cls-2" x1="9.84" y1="128.66" y2="128.49"/><path class="cls-2" d="M158.66,130.73a28.35,28.35,0,1,0-56.69,0"/><path class="cls-2" d="M222.44,130.73a92.13,92.13,0,1,0-184.25,0"/><path class="cls-2" d="M246.53,130.73a116.22,116.22,0,0,0-232.44,0"/><path class="cls-2" d="M250.79,130.73a120.48,120.48,0,1,0-240.95,0"/><text class="cls-3" transform="translate(24.94 132.97) rotate(-90.51)">0</text><text class="cls-4" transform="translate(25.67 116.44) rotate(-80.11)"><tspan class="cls-5">1</tspan><tspan x="3.32" y="0">0</tspan></text><text class="cls-6" transform="matrix(0.34, -0.94, 0.94, 0.34, 30.01, 97.93)"><tspan class="cls-7">2</tspan><tspan x="3.55" y="0">0</tspan></text><text class="cls-8" transform="translate(36.87 81.2) rotate(-59.64)"><tspan class="cls-9">3</tspan><tspan x="3.55" y="0">0</tspan></text><text class="cls-6" transform="matrix(0.64, -0.77, 0.77, 0.64, 46.97, 65.97)"><tspan class="cls-7">4</tspan><tspan x="3.55" y="0">0</tspan></text><text class="cls-10" transform="translate(59.23 52.68) rotate(-40.24)">5<tspan class="cls-11" x="3.55" y="0">0</tspan></text><text class="cls-6" transform="matrix(0.87, -0.5, 0.5, 0.87, 73.99, 41.41)"><tspan class="cls-7">6</tspan><tspan x="3.55" y="0">0</tspan></text><text class="cls-12" transform="translate(90.6 33.01) rotate(-20.34)"><tspan class="cls-13">7</tspan><tspan x="3.55" y="0">0</tspan></text><text class="cls-14" transform="matrix(0.98, -0.17, 0.17, 0.98, 108.07, 27.67)">8<tspan class="cls-15" x="3.55" y="0">0</tspan></text><text class="cls-16" transform="translate(126.3 28.67) rotate(-1)"><tspan class="cls-17">9</tspan><tspan x="3.55" y="0">0</tspan></text><text class="cls-18" transform="translate(108.12 36.05) rotate(-10.19)">1<tspan class="cls-19" x="2.93" y="0">00</tspan></text><text class="cls-6" transform="translate(143.23 34.4) rotate(9.84)"><tspan class="cls-7">8</tspan><tspan x="3.55" y="0">0</tspan></text><text class="cls-20" transform="translate(143.25 25.92) rotate(10.04)">1<tspan class="cls-21" x="2.93" y="0">00</tspan></text><text class="cls-18" transform="translate(91.94 41.34) rotate(-20.08)">1<tspan class="cls-19" x="2.93" y="0">10</tspan></text><text class="cls-6" transform="translate(159.88 38.09) rotate(20.21)"><tspan class="cls-7">7</tspan><tspan x="3.55" y="0">0</tspan></text><text class="cls-22" transform="matrix(0.94, 0.34, -0.34, 0.94, 161.35, 29.67)">1<tspan class="cls-23" x="2.93" y="0">10</tspan></text><text class="cls-20" transform="translate(77.02 49.12) rotate(-29.68)">1<tspan class="cls-21" x="2.93" y="0">20</tspan></text><text class="cls-6" transform="matrix(0.86, 0.5, -0.5, 0.86, 175.51, 44.55)"><tspan class="cls-7">6</tspan><tspan x="3.55" y="0">0</tspan></text><text class="cls-24" transform="translate(178.46 36.7) rotate(30.23)">1<tspan class="cls-25" x="2.93" y="0">20</tspan></text><text class="cls-18" transform="matrix(0.77, -0.64, 0.64, 0.77, 63.52, 59.65)">1<tspan class="cls-19" x="2.93" y="0">30</tspan></text><text class="cls-26" transform="matrix(0.76, 0.65, -0.65, 0.76, 189.85, 53.8)"><tspan class="cls-27">5</tspan><tspan x="3.55" y="0">0</tspan></text><text class="cls-18" transform="translate(193.99 46.29) rotate(40.74)">1<tspan class="cls-19" x="2.93" y="0">30</tspan></text><text class="cls-18" transform="matrix(0.64, -0.76, 0.76, 0.64, 52.28, 72.41)">1<tspan class="cls-19" x="2.93" y="0">40</tspan></text><text class="cls-6" transform="matrix(0.64, 0.76, -0.76, 0.64, 202.13, 65.21)"><tspan class="cls-7">4</tspan><tspan x="3.55" y="0">0</tspan></text><text class="cls-18" transform="matrix(0.67, 0.75, -0.75, 0.67, 207.33, 58.85)">1<tspan class="cls-19" x="2.93" y="0">40</tspan></text><text class="cls-28" transform="translate(43.44 86.73) rotate(-59.64)">1<tspan class="cls-29" x="2.93" y="0">50</tspan></text><text class="cls-6" transform="matrix(0.49, 0.87, -0.87, 0.49, 212.49, 78.63)"><tspan class="cls-7">3</tspan><tspan x="3.55" y="0">0</tspan></text><text class="cls-18" transform="matrix(0.51, 0.86, -0.86, 0.51, 218.9, 73.3)">1<tspan class="cls-19" x="2.93" y="0">50</tspan></text><text class="cls-30" transform="translate(37.16 102.45) rotate(-69.86)">1<tspan class="cls-31" x="2.93" y="0">60</tspan></text><text class="cls-32" transform="translate(220.14 93.72) rotate(70.35)">2<tspan class="cls-33" x="3.55" y="0">0</tspan></text><text class="cls-22" transform="translate(227.7 89.65) rotate(70.16)">1<tspan class="cls-23" x="2.93" y="0">60</tspan></text><text class="cls-18" transform="translate(33.63 119.02) rotate(-80.37)">1<tspan class="cls-19" x="2.93" y="0">70</tspan></text><text class="cls-34" transform="matrix(0.16, 0.99, -0.99, 0.16, 225.27, 110.13)"><tspan class="cls-35">1</tspan><tspan x="3.32" y="0">0</tspan></text><text class="cls-18" transform="matrix(0.17, 0.99, -0.99, 0.17, 233.37, 107.19)">1<tspan class="cls-19" x="2.93" y="0">70</tspan></text><text class="cls-18" transform="translate(33.18 136.15) rotate(-90.26)">1<tspan class="cls-19" x="2.93" y="0">80</tspan></text><text class="cls-36" transform="translate(227.32 128.55) rotate(90.99)">0</text><text class="cls-37" transform="translate(235.71 125.45) rotate(90.99)">1<tspan class="cls-38" x="2.93" y="0">80</tspan></text></g></g></svg>