<svg xmlns="http://www.w3.org/2000/svg" width="32" height="28.922" viewBox="0 0 32 28.922"><g transform="translate(-574 -126.443)"><path d="M0,0H22.5V17.724H0Z" transform="translate(574.692 149.79) rotate(-74.008)" fill="#fff"/><path d="M591.857,155.288l-17.633-5.054a.309.309,0,0,1-.212-.382l6.369-22.222a.309.309,0,0,1,.382-.212l17.633,5.053a.31.31,0,0,1,.212.383l-6.369,22.222a.309.309,0,0,1-.382.212Zm-17.166-5.563,17.039,4.883,6.2-21.628L580.89,128.1l-6.2,21.628Z" transform="translate(0 0.064)" fill="#6c6c6c"/><path d="M583.5,135.907a4.83,4.83,0,0,1,4.3-.623,3.368,3.368,0,0,1,2.568,4.275c-.708,2.468-3.007,3.545-6.531,5.274l-1.411.651-.009.031,6.1,1.748-.32,1.117-8.144-2.334.243-.85,1.69-.791c4.17-2.02,6.352-3.045,6.938-5.089a2.288,2.288,0,0,0-1.674-2.946,4.1,4.1,0,0,0-3.353.655Z" transform="translate(0.403 0.573)" fill="#575757"/><path d="M0,0H17.724V22.5H0Z" transform="translate(587.657 127.061)" fill="#fdfdfd"/><path d="M604.876,150.177H586.533a.309.309,0,0,1-.309-.308V126.752a.31.31,0,0,1,.309-.309h18.342a.31.31,0,0,1,.309.309v23.117a.309.309,0,0,1-.309.308Zm-18.033-.618h17.724v-22.5H586.843v22.5Z" transform="translate(0.815 0)" fill="#6c6c6c"/><path d="M595.259,132.931h-.049l-2.5,1.373-.413-1.059,3.159-1.753h1.19v12.7h-1.39Z" transform="translate(1.22 0.337)" fill="#575757"/></g></svg>