<svg xmlns="http://www.w3.org/2000/svg" width="22" height="33.981" viewBox="0 0 22 33.981"><g transform="translate(-502.288 -187)"><rect width="2.718" height="32.572" rx="0.864" transform="translate(502.992 187.704)" fill="#c3996b"/><rect width="2.718" height="32.572" rx="0.864" transform="translate(520.865 187.704)" fill="#c3996b"/><path d="M522.6,187h-.761a1.686,1.686,0,0,0-1.683,1.683v2.478h-4.049v-1.147a.352.352,0,1,0-.7,0v1.147h-1.625v-1.147a.352.352,0,0,0-.7,0v1.147h-1.34v-1.147a.352.352,0,1,0-.7,0v1.147H509.41v-1.147a.352.352,0,1,0-.7,0v1.147h-2.29v-2.478A1.686,1.686,0,0,0,504.732,187h-.761a1.686,1.686,0,0,0-1.683,1.683V219.3a1.686,1.686,0,0,0,1.683,1.683h.761a1.686,1.686,0,0,0,1.683-1.683v-3.567h3.24v.762a.352.352,0,1,0,.7,0v-.762h1.625v.762a.352.352,0,1,0,.7,0v-.762h5.427v.762a.352.352,0,1,0,.7,0v-.762h1.339V219.3a1.686,1.686,0,0,0,1.683,1.683h.761a1.686,1.686,0,0,0,1.683-1.683V188.683A1.686,1.686,0,0,0,522.6,187Zm-16.894,32.3a.98.98,0,0,1-.979.979h-.761a.98.98,0,0,1-.979-.979V188.683a.98.98,0,0,1,.979-.979h.761a.98.98,0,0,1,.979.979Zm14.45-4.271h-1.339v-.911a.352.352,0,0,0-.7,0v.911H512.69v-.911a.352.352,0,0,0-.7,0v.911H510.36v-.911a.352.352,0,1,0-.7,0v.911h-3.24v-5.261h7.994v.708a.352.352,0,1,0,.7,0v-.708h1.625v.708a.352.352,0,1,0,.7,0v-.708h1.34v.708a.352.352,0,0,0,.7,0v-.708h.674Zm0-5.966h-.674V208.1a.352.352,0,1,0-.7,0v.965h-1.34V208.1a.352.352,0,1,0-.7,0v.965h-1.625V208.1a.352.352,0,1,0-.7,0v.965h-7.994V203.8h1.814v.71a.352.352,0,1,0,.7,0v-.71h1.625v.71a.352.352,0,1,0,.7,0v-.71h1.34v.71a.352.352,0,1,0,.7,0v-.71h3.146v.71a.352.352,0,1,0,.7,0v-.71h1.624v.71a.352.352,0,1,0,.7,0v-.71h.674Zm0-5.966h-.674v-.963a.352.352,0,1,0-.7,0v.963h-1.624v-.963a.352.352,0,1,0-.7,0v.963h-3.146v-.963a.352.352,0,1,0-.7,0v.963h-1.34v-.963a.352.352,0,1,0-.7,0v.963h-1.625v-.963a.352.352,0,1,0-.7,0v.963h-1.814v-5.261h5.142v.665a.352.352,0,0,0,.7,0v-.665h1.624v.665a.352.352,0,0,0,.7,0v-.665h1.34v.665a.352.352,0,0,0,.7,0v-.665h1.624v.665a.352.352,0,0,0,.7,0v-.665h1.2Zm0-5.966h-1.2V196.12a.352.352,0,1,0-.7,0v1.008h-1.624V196.12a.352.352,0,1,0-.7,0v1.008h-1.34V196.12a.352.352,0,1,0-.7,0v1.008h-1.624V196.12a.352.352,0,1,0-.7,0v1.008h-5.142v-5.262h2.29v.526a.352.352,0,1,0,.7,0v-.526h1.624v.526a.352.352,0,1,0,.7,0v-.526h1.34v.526a.352.352,0,1,0,.7,0v-.526h1.625v.526a.352.352,0,1,0,.7,0v-.526h4.049Zm3.423,22.169a.98.98,0,0,1-.979.979h-.761a.98.98,0,0,1-.979-.979V188.683a.98.98,0,0,1,.979-.979h.761a.98.98,0,0,1,.979.979Z" transform="translate(0)" fill="#6c6c6c"/></g></svg>