<svg xmlns="http://www.w3.org/2000/svg" width="600" height="204.805" viewBox="0 0 600 204.805">
  <g id="Group_455" data-name="Group 455" transform="translate(-1281.216 -5445.624)">
    <rect id="Rectangle_209" data-name="Rectangle 209" width="2.086" height="122.152" transform="translate(1833.652 5514.77)" fill="#b68b62"/>
    <g id="Group_393" data-name="Group 393" transform="translate(1814.597 5558.546)">
      <g id="Group_389" data-name="Group 389">
        <path id="Path_1917" data-name="Path 1917" d="M2297.406,5661.637h-40.2c2.562-5.426,10.589-9.386,20.1-9.386S2294.844,5656.211,2297.406,5661.637Z" transform="translate(-2257.21 -5652.251)" fill="#fbe4cd" fill-rule="evenodd"/>
        <path id="Path_1918" data-name="Path 1918" d="M2297.406,5669.426h-40.2c2.562,5.426,10.589,9.387,20.1,9.387S2294.844,5674.852,2297.406,5669.426Z" transform="translate(-2257.21 -5660.04)" fill="#f5d1ae" fill-rule="evenodd"/>
      </g>
      <g id="Group_390" data-name="Group 390" transform="translate(0 18.773)">
        <path id="Path_1919" data-name="Path 1919" d="M2297.406,5695.987h-40.2c2.562-5.426,10.589-9.386,20.1-9.386S2294.844,5690.561,2297.406,5695.987Z" transform="translate(-2257.21 -5686.601)" fill="#fbe4cd" fill-rule="evenodd"/>
        <path id="Path_1920" data-name="Path 1920" d="M2297.406,5703.776h-40.2c2.562,5.426,10.589,9.386,20.1,9.386S2294.844,5709.2,2297.406,5703.776Z" transform="translate(-2257.21 -5694.39)" fill="#f5d1ae" fill-rule="evenodd"/>
      </g>
      <g id="Group_391" data-name="Group 391" transform="translate(0 37.545)">
        <path id="Path_1921" data-name="Path 1921" d="M2297.406,5730.337h-40.2c2.562-5.426,10.589-9.386,20.1-9.386S2294.844,5724.911,2297.406,5730.337Z" transform="translate(-2257.21 -5720.951)" fill="#fbe4cd" fill-rule="evenodd"/>
        <path id="Path_1922" data-name="Path 1922" d="M2297.406,5738.125h-40.2c2.562,5.426,10.589,9.386,20.1,9.386S2294.844,5743.551,2297.406,5738.125Z" transform="translate(-2257.21 -5728.739)" fill="#f5d1ae" fill-rule="evenodd"/>
      </g>
      <g id="Group_392" data-name="Group 392" transform="translate(0 56.317)">
        <path id="Path_1923" data-name="Path 1923" d="M2297.406,5764.687h-40.2c2.562-5.426,10.589-9.386,20.1-9.386S2294.844,5759.261,2297.406,5764.687Z" transform="translate(-2257.21 -5755.301)" fill="#fbe4cd" fill-rule="evenodd"/>
        <path id="Path_1924" data-name="Path 1924" d="M2297.406,5772.476h-40.2c2.562,5.426,10.589,9.386,20.1,9.386S2294.844,5777.9,2297.406,5772.476Z" transform="translate(-2257.21 -5763.09)" fill="#f5d1ae" fill-rule="evenodd"/>
      </g>
    </g>
    <rect id="Rectangle_210" data-name="Rectangle 210" width="2.085" height="122.152" transform="translate(1782.939 5514.77)" fill="#b68b62"/>
    <g id="Group_398" data-name="Group 398" transform="translate(1763.883 5558.546)">
      <g id="Group_394" data-name="Group 394">
        <path id="Path_1925" data-name="Path 1925" d="M2204.609,5661.637h-40.2c2.562-5.426,10.59-9.386,20.1-9.386S2202.047,5656.211,2204.609,5661.637Z" transform="translate(-2164.412 -5652.251)" fill="#fbe4cd" fill-rule="evenodd"/>
        <path id="Path_1926" data-name="Path 1926" d="M2204.609,5669.426h-40.2c2.562,5.426,10.59,9.387,20.1,9.387S2202.047,5674.852,2204.609,5669.426Z" transform="translate(-2164.412 -5660.04)" fill="#f5d1ae" fill-rule="evenodd"/>
      </g>
      <g id="Group_395" data-name="Group 395" transform="translate(0 18.773)">
        <path id="Path_1927" data-name="Path 1927" d="M2204.609,5695.987h-40.2c2.562-5.426,10.59-9.386,20.1-9.386S2202.047,5690.561,2204.609,5695.987Z" transform="translate(-2164.412 -5686.601)" fill="#fbe4cd" fill-rule="evenodd"/>
        <path id="Path_1928" data-name="Path 1928" d="M2204.609,5703.776h-40.2c2.562,5.426,10.59,9.386,20.1,9.386S2202.047,5709.2,2204.609,5703.776Z" transform="translate(-2164.412 -5694.39)" fill="#f5d1ae" fill-rule="evenodd"/>
      </g>
      <g id="Group_396" data-name="Group 396" transform="translate(0 37.545)">
        <path id="Path_1929" data-name="Path 1929" d="M2204.609,5730.337h-40.2c2.562-5.426,10.59-9.386,20.1-9.386S2202.047,5724.911,2204.609,5730.337Z" transform="translate(-2164.412 -5720.951)" fill="#fbe4cd" fill-rule="evenodd"/>
        <path id="Path_1930" data-name="Path 1930" d="M2204.609,5738.125h-40.2c2.562,5.426,10.59,9.386,20.1,9.386S2202.047,5743.551,2204.609,5738.125Z" transform="translate(-2164.412 -5728.739)" fill="#f5d1ae" fill-rule="evenodd"/>
      </g>
      <g id="Group_397" data-name="Group 397" transform="translate(0 56.317)">
        <path id="Path_1931" data-name="Path 1931" d="M2204.609,5764.687h-40.2c2.562-5.426,10.59-9.386,20.1-9.386S2202.047,5759.261,2204.609,5764.687Z" transform="translate(-2164.412 -5755.301)" fill="#fbe4cd" fill-rule="evenodd"/>
        <path id="Path_1932" data-name="Path 1932" d="M2204.609,5772.476h-40.2c2.562,5.426,10.59,9.386,20.1,9.386S2202.047,5777.9,2204.609,5772.476Z" transform="translate(-2164.412 -5763.09)" fill="#f5d1ae" fill-rule="evenodd"/>
      </g>
    </g>
    <rect id="Rectangle_211" data-name="Rectangle 211" width="2.086" height="122.152" transform="translate(1732.225 5514.77)" fill="#b68b62"/>
    <g id="Group_403" data-name="Group 403" transform="translate(1713.17 5558.546)">
      <g id="Group_399" data-name="Group 399">
        <path id="Path_1933" data-name="Path 1933" d="M2111.811,5661.637h-40.2c2.562-5.426,10.59-9.386,20.1-9.386S2109.249,5656.211,2111.811,5661.637Z" transform="translate(-2071.615 -5652.251)" fill="#fbe4cd" fill-rule="evenodd"/>
        <path id="Path_1934" data-name="Path 1934" d="M2111.811,5669.426h-40.2c2.562,5.426,10.59,9.387,20.1,9.387S2109.249,5674.852,2111.811,5669.426Z" transform="translate(-2071.615 -5660.04)" fill="#f5d1ae" fill-rule="evenodd"/>
      </g>
      <g id="Group_400" data-name="Group 400" transform="translate(0 18.773)">
        <path id="Path_1935" data-name="Path 1935" d="M2111.811,5695.987h-40.2c2.562-5.426,10.59-9.386,20.1-9.386S2109.249,5690.561,2111.811,5695.987Z" transform="translate(-2071.615 -5686.601)" fill="#fbe4cd" fill-rule="evenodd"/>
        <path id="Path_1936" data-name="Path 1936" d="M2111.811,5703.776h-40.2c2.562,5.426,10.59,9.386,20.1,9.386S2109.249,5709.2,2111.811,5703.776Z" transform="translate(-2071.615 -5694.39)" fill="#f5d1ae" fill-rule="evenodd"/>
      </g>
      <g id="Group_401" data-name="Group 401" transform="translate(0 37.545)">
        <path id="Path_1937" data-name="Path 1937" d="M2111.811,5730.337h-40.2c2.562-5.426,10.59-9.386,20.1-9.386S2109.249,5724.911,2111.811,5730.337Z" transform="translate(-2071.615 -5720.951)" fill="#fbe4cd" fill-rule="evenodd"/>
        <path id="Path_1938" data-name="Path 1938" d="M2111.811,5738.125h-40.2c2.562,5.426,10.59,9.386,20.1,9.386S2109.249,5743.551,2111.811,5738.125Z" transform="translate(-2071.615 -5728.739)" fill="#f5d1ae" fill-rule="evenodd"/>
      </g>
      <g id="Group_402" data-name="Group 402" transform="translate(0 56.317)">
        <path id="Path_1939" data-name="Path 1939" d="M2111.811,5764.687h-40.2c2.562-5.426,10.59-9.386,20.1-9.386S2109.249,5759.261,2111.811,5764.687Z" transform="translate(-2071.615 -5755.301)" fill="#fbe4cd" fill-rule="evenodd"/>
        <path id="Path_1940" data-name="Path 1940" d="M2111.811,5772.476h-40.2c2.562,5.426,10.59,9.386,20.1,9.386S2109.249,5777.9,2111.811,5772.476Z" transform="translate(-2071.615 -5763.09)" fill="#f5d1ae" fill-rule="evenodd"/>
      </g>
    </g>
    <rect id="Rectangle_212" data-name="Rectangle 212" width="2.086" height="122.152" transform="translate(1681.511 5514.77)" fill="#b68b62"/>
    <g id="Group_408" data-name="Group 408" transform="translate(1662.456 5558.546)">
      <g id="Group_404" data-name="Group 404">
        <path id="Path_1941" data-name="Path 1941" d="M2019.014,5661.637h-40.2c2.562-5.426,10.59-9.386,20.1-9.386S2016.452,5656.211,2019.014,5661.637Z" transform="translate(-1978.818 -5652.251)" fill="#fbe4cd" fill-rule="evenodd"/>
        <path id="Path_1942" data-name="Path 1942" d="M2019.014,5669.426h-40.2c2.562,5.426,10.59,9.387,20.1,9.387S2016.452,5674.852,2019.014,5669.426Z" transform="translate(-1978.818 -5660.04)" fill="#f5d1ae" fill-rule="evenodd"/>
      </g>
      <g id="Group_405" data-name="Group 405" transform="translate(0 18.773)">
        <path id="Path_1943" data-name="Path 1943" d="M2019.014,5695.987h-40.2c2.562-5.426,10.59-9.386,20.1-9.386S2016.452,5690.561,2019.014,5695.987Z" transform="translate(-1978.818 -5686.601)" fill="#fbe4cd" fill-rule="evenodd"/>
        <path id="Path_1944" data-name="Path 1944" d="M2019.014,5703.776h-40.2c2.562,5.426,10.59,9.386,20.1,9.386S2016.452,5709.2,2019.014,5703.776Z" transform="translate(-1978.818 -5694.39)" fill="#f5d1ae" fill-rule="evenodd"/>
      </g>
      <g id="Group_406" data-name="Group 406" transform="translate(0 37.545)">
        <path id="Path_1945" data-name="Path 1945" d="M2019.014,5730.337h-40.2c2.562-5.426,10.59-9.386,20.1-9.386S2016.452,5724.911,2019.014,5730.337Z" transform="translate(-1978.818 -5720.951)" fill="#fbe4cd" fill-rule="evenodd"/>
        <path id="Path_1946" data-name="Path 1946" d="M2019.014,5738.125h-40.2c2.562,5.426,10.59,9.386,20.1,9.386S2016.452,5743.551,2019.014,5738.125Z" transform="translate(-1978.818 -5728.739)" fill="#f5d1ae" fill-rule="evenodd"/>
      </g>
      <g id="Group_407" data-name="Group 407" transform="translate(0 56.317)">
        <path id="Path_1947" data-name="Path 1947" d="M2019.014,5764.687h-40.2c2.562-5.426,10.59-9.386,20.1-9.386S2016.452,5759.261,2019.014,5764.687Z" transform="translate(-1978.818 -5755.301)" fill="#fbe4cd" fill-rule="evenodd"/>
        <path id="Path_1948" data-name="Path 1948" d="M2019.014,5772.476h-40.2c2.562,5.426,10.59,9.386,20.1,9.386S2016.452,5777.9,2019.014,5772.476Z" transform="translate(-1978.818 -5763.09)" fill="#f5d1ae" fill-rule="evenodd"/>
      </g>
    </g>
    <rect id="Rectangle_213" data-name="Rectangle 213" width="2.086" height="122.152" transform="translate(1630.798 5514.77)" fill="#b68b62"/>
    <g id="Group_413" data-name="Group 413" transform="translate(1611.742 5558.546)">
      <g id="Group_409" data-name="Group 409">
        <path id="Path_1949" data-name="Path 1949" d="M1926.217,5661.637h-40.2c2.562-5.426,10.59-9.386,20.1-9.386S1923.655,5656.211,1926.217,5661.637Z" transform="translate(-1886.021 -5652.251)" fill="#fbe4cd" fill-rule="evenodd"/>
        <path id="Path_1950" data-name="Path 1950" d="M1926.217,5669.426h-40.2c2.562,5.426,10.59,9.387,20.1,9.387S1923.655,5674.852,1926.217,5669.426Z" transform="translate(-1886.021 -5660.04)" fill="#f5d1ae" fill-rule="evenodd"/>
      </g>
      <g id="Group_410" data-name="Group 410" transform="translate(0 18.773)">
        <path id="Path_1951" data-name="Path 1951" d="M1926.217,5695.987h-40.2c2.562-5.426,10.59-9.386,20.1-9.386S1923.655,5690.561,1926.217,5695.987Z" transform="translate(-1886.021 -5686.601)" fill="#fbe4cd" fill-rule="evenodd"/>
        <path id="Path_1952" data-name="Path 1952" d="M1926.217,5703.776h-40.2c2.562,5.426,10.59,9.386,20.1,9.386S1923.655,5709.2,1926.217,5703.776Z" transform="translate(-1886.021 -5694.39)" fill="#f5d1ae" fill-rule="evenodd"/>
      </g>
      <g id="Group_411" data-name="Group 411" transform="translate(0 37.545)">
        <path id="Path_1953" data-name="Path 1953" d="M1926.217,5730.337h-40.2c2.562-5.426,10.59-9.386,20.1-9.386S1923.655,5724.911,1926.217,5730.337Z" transform="translate(-1886.021 -5720.951)" fill="#fbe4cd" fill-rule="evenodd"/>
        <path id="Path_1954" data-name="Path 1954" d="M1926.217,5738.125h-40.2c2.562,5.426,10.59,9.386,20.1,9.386S1923.655,5743.551,1926.217,5738.125Z" transform="translate(-1886.021 -5728.739)" fill="#f5d1ae" fill-rule="evenodd"/>
      </g>
      <g id="Group_412" data-name="Group 412" transform="translate(0 56.317)">
        <path id="Path_1955" data-name="Path 1955" d="M1926.217,5764.687h-40.2c2.562-5.426,10.59-9.386,20.1-9.386S1923.655,5759.261,1926.217,5764.687Z" transform="translate(-1886.021 -5755.301)" fill="#fbe4cd" fill-rule="evenodd"/>
        <path id="Path_1956" data-name="Path 1956" d="M1926.217,5772.476h-40.2c2.562,5.426,10.59,9.386,20.1,9.386S1923.655,5777.9,1926.217,5772.476Z" transform="translate(-1886.021 -5763.09)" fill="#f5d1ae" fill-rule="evenodd"/>
      </g>
    </g>
    <rect id="Rectangle_214" data-name="Rectangle 214" width="2.085" height="122.152" transform="translate(1580.084 5514.77)" fill="#b68b62"/>
    <g id="Group_418" data-name="Group 418" transform="translate(1561.029 5558.546)">
      <g id="Group_414" data-name="Group 414">
        <path id="Path_1957" data-name="Path 1957" d="M1833.42,5661.637h-40.2c2.562-5.426,10.59-9.386,20.1-9.386S1830.858,5656.211,1833.42,5661.637Z" transform="translate(-1793.224 -5652.251)" fill="#fbe4cd" fill-rule="evenodd"/>
        <path id="Path_1958" data-name="Path 1958" d="M1833.42,5669.426h-40.2c2.562,5.426,10.59,9.387,20.1,9.387S1830.858,5674.852,1833.42,5669.426Z" transform="translate(-1793.224 -5660.04)" fill="#f5d1ae" fill-rule="evenodd"/>
      </g>
      <g id="Group_415" data-name="Group 415" transform="translate(0 18.773)">
        <path id="Path_1959" data-name="Path 1959" d="M1833.42,5695.987h-40.2c2.562-5.426,10.59-9.386,20.1-9.386S1830.858,5690.561,1833.42,5695.987Z" transform="translate(-1793.224 -5686.601)" fill="#fbe4cd" fill-rule="evenodd"/>
        <path id="Path_1960" data-name="Path 1960" d="M1833.42,5703.776h-40.2c2.562,5.426,10.59,9.386,20.1,9.386S1830.858,5709.2,1833.42,5703.776Z" transform="translate(-1793.224 -5694.39)" fill="#f5d1ae" fill-rule="evenodd"/>
      </g>
      <g id="Group_416" data-name="Group 416" transform="translate(0 37.545)">
        <path id="Path_1961" data-name="Path 1961" d="M1833.42,5730.337h-40.2c2.562-5.426,10.59-9.386,20.1-9.386S1830.858,5724.911,1833.42,5730.337Z" transform="translate(-1793.224 -5720.951)" fill="#fbe4cd" fill-rule="evenodd"/>
        <path id="Path_1962" data-name="Path 1962" d="M1833.42,5738.125h-40.2c2.562,5.426,10.59,9.386,20.1,9.386S1830.858,5743.551,1833.42,5738.125Z" transform="translate(-1793.224 -5728.739)" fill="#f5d1ae" fill-rule="evenodd"/>
      </g>
      <g id="Group_417" data-name="Group 417" transform="translate(0 56.317)">
        <path id="Path_1963" data-name="Path 1963" d="M1833.42,5764.687h-40.2c2.562-5.426,10.59-9.386,20.1-9.386S1830.858,5759.261,1833.42,5764.687Z" transform="translate(-1793.224 -5755.301)" fill="#fbe4cd" fill-rule="evenodd"/>
        <path id="Path_1964" data-name="Path 1964" d="M1833.42,5772.476h-40.2c2.562,5.426,10.59,9.386,20.1,9.386S1830.858,5777.9,1833.42,5772.476Z" transform="translate(-1793.224 -5763.09)" fill="#f5d1ae" fill-rule="evenodd"/>
      </g>
    </g>
    <rect id="Rectangle_215" data-name="Rectangle 215" width="2.086" height="122.152" transform="translate(1529.37 5514.77)" fill="#b68b62"/>
    <g id="Group_423" data-name="Group 423" transform="translate(1510.315 5558.546)">
      <g id="Group_419" data-name="Group 419">
        <path id="Path_1965" data-name="Path 1965" d="M1740.623,5661.637h-40.2c2.562-5.426,10.589-9.386,20.1-9.386S1738.061,5656.211,1740.623,5661.637Z" transform="translate(-1700.427 -5652.251)" fill="#fbe4cd" fill-rule="evenodd"/>
        <path id="Path_1966" data-name="Path 1966" d="M1740.623,5669.426h-40.2c2.562,5.426,10.589,9.387,20.1,9.387S1738.061,5674.852,1740.623,5669.426Z" transform="translate(-1700.427 -5660.04)" fill="#f5d1ae" fill-rule="evenodd"/>
      </g>
      <g id="Group_420" data-name="Group 420" transform="translate(0 18.773)">
        <path id="Path_1967" data-name="Path 1967" d="M1740.623,5695.987h-40.2c2.562-5.426,10.589-9.386,20.1-9.386S1738.061,5690.561,1740.623,5695.987Z" transform="translate(-1700.427 -5686.601)" fill="#fbe4cd" fill-rule="evenodd"/>
        <path id="Path_1968" data-name="Path 1968" d="M1740.623,5703.776h-40.2c2.562,5.426,10.589,9.386,20.1,9.386S1738.061,5709.2,1740.623,5703.776Z" transform="translate(-1700.427 -5694.39)" fill="#f5d1ae" fill-rule="evenodd"/>
      </g>
      <g id="Group_421" data-name="Group 421" transform="translate(0 37.545)">
        <path id="Path_1969" data-name="Path 1969" d="M1740.623,5730.337h-40.2c2.562-5.426,10.589-9.386,20.1-9.386S1738.061,5724.911,1740.623,5730.337Z" transform="translate(-1700.427 -5720.951)" fill="#fbe4cd" fill-rule="evenodd"/>
        <path id="Path_1970" data-name="Path 1970" d="M1740.623,5738.125h-40.2c2.562,5.426,10.589,9.386,20.1,9.386S1738.061,5743.551,1740.623,5738.125Z" transform="translate(-1700.427 -5728.739)" fill="#f5d1ae" fill-rule="evenodd"/>
      </g>
      <g id="Group_422" data-name="Group 422" transform="translate(0 56.317)">
        <path id="Path_1971" data-name="Path 1971" d="M1740.623,5764.687h-40.2c2.562-5.426,10.589-9.386,20.1-9.386S1738.061,5759.261,1740.623,5764.687Z" transform="translate(-1700.427 -5755.301)" fill="#fbe4cd" fill-rule="evenodd"/>
        <path id="Path_1972" data-name="Path 1972" d="M1740.623,5772.476h-40.2c2.562,5.426,10.589,9.386,20.1,9.386S1738.061,5777.9,1740.623,5772.476Z" transform="translate(-1700.427 -5763.09)" fill="#f5d1ae" fill-rule="evenodd"/>
      </g>
    </g>
    <rect id="Rectangle_216" data-name="Rectangle 216" width="2.086" height="122.152" transform="translate(1478.657 5514.77)" fill="#b68b62"/>
    <g id="Group_428" data-name="Group 428" transform="translate(1459.602 5558.546)">
      <g id="Group_424" data-name="Group 424">
        <path id="Path_1973" data-name="Path 1973" d="M1647.826,5661.637h-40.2c2.562-5.426,10.59-9.386,20.1-9.386S1645.264,5656.211,1647.826,5661.637Z" transform="translate(-1607.63 -5652.251)" fill="#fbe4cd" fill-rule="evenodd"/>
        <path id="Path_1974" data-name="Path 1974" d="M1647.826,5669.426h-40.2c2.562,5.426,10.59,9.387,20.1,9.387S1645.264,5674.852,1647.826,5669.426Z" transform="translate(-1607.63 -5660.04)" fill="#f5d1ae" fill-rule="evenodd"/>
      </g>
      <g id="Group_425" data-name="Group 425" transform="translate(0 18.773)">
        <path id="Path_1975" data-name="Path 1975" d="M1647.826,5695.987h-40.2c2.562-5.426,10.59-9.386,20.1-9.386S1645.264,5690.561,1647.826,5695.987Z" transform="translate(-1607.63 -5686.601)" fill="#fbe4cd" fill-rule="evenodd"/>
        <path id="Path_1976" data-name="Path 1976" d="M1647.826,5703.776h-40.2c2.562,5.426,10.59,9.386,20.1,9.386S1645.264,5709.2,1647.826,5703.776Z" transform="translate(-1607.63 -5694.39)" fill="#f5d1ae" fill-rule="evenodd"/>
      </g>
      <g id="Group_426" data-name="Group 426" transform="translate(0 37.545)">
        <path id="Path_1977" data-name="Path 1977" d="M1647.826,5730.337h-40.2c2.562-5.426,10.59-9.386,20.1-9.386S1645.264,5724.911,1647.826,5730.337Z" transform="translate(-1607.63 -5720.951)" fill="#fbe4cd" fill-rule="evenodd"/>
        <path id="Path_1978" data-name="Path 1978" d="M1647.826,5738.125h-40.2c2.562,5.426,10.59,9.386,20.1,9.386S1645.264,5743.551,1647.826,5738.125Z" transform="translate(-1607.63 -5728.739)" fill="#f5d1ae" fill-rule="evenodd"/>
      </g>
      <g id="Group_427" data-name="Group 427" transform="translate(0 56.317)">
        <path id="Path_1979" data-name="Path 1979" d="M1647.826,5764.687h-40.2c2.562-5.426,10.59-9.386,20.1-9.386S1645.264,5759.261,1647.826,5764.687Z" transform="translate(-1607.63 -5755.301)" fill="#fbe4cd" fill-rule="evenodd"/>
        <path id="Path_1980" data-name="Path 1980" d="M1647.826,5772.476h-40.2c2.562,5.426,10.59,9.386,20.1,9.386S1645.264,5777.9,1647.826,5772.476Z" transform="translate(-1607.63 -5763.09)" fill="#f5d1ae" fill-rule="evenodd"/>
      </g>
    </g>
    <rect id="Rectangle_217" data-name="Rectangle 217" width="2.086" height="122.152" transform="translate(1427.943 5514.77)" fill="#b68b62"/>
    <g id="Group_433" data-name="Group 433" transform="translate(1408.888 5558.546)">
      <g id="Group_429" data-name="Group 429">
        <path id="Path_1981" data-name="Path 1981" d="M1555.029,5661.637h-40.2c2.562-5.426,10.59-9.386,20.1-9.386S1552.467,5656.211,1555.029,5661.637Z" transform="translate(-1514.833 -5652.251)" fill="#fbe4cd" fill-rule="evenodd"/>
        <path id="Path_1982" data-name="Path 1982" d="M1555.029,5669.426h-40.2c2.562,5.426,10.59,9.387,20.1,9.387S1552.467,5674.852,1555.029,5669.426Z" transform="translate(-1514.833 -5660.04)" fill="#f5d1ae" fill-rule="evenodd"/>
      </g>
      <g id="Group_430" data-name="Group 430" transform="translate(0 18.773)">
        <path id="Path_1983" data-name="Path 1983" d="M1555.029,5695.987h-40.2c2.562-5.426,10.59-9.386,20.1-9.386S1552.467,5690.561,1555.029,5695.987Z" transform="translate(-1514.833 -5686.601)" fill="#fbe4cd" fill-rule="evenodd"/>
        <path id="Path_1984" data-name="Path 1984" d="M1555.029,5703.776h-40.2c2.562,5.426,10.59,9.386,20.1,9.386S1552.467,5709.2,1555.029,5703.776Z" transform="translate(-1514.833 -5694.39)" fill="#f5d1ae" fill-rule="evenodd"/>
      </g>
      <g id="Group_431" data-name="Group 431" transform="translate(0 37.545)">
        <path id="Path_1985" data-name="Path 1985" d="M1555.029,5730.337h-40.2c2.562-5.426,10.59-9.386,20.1-9.386S1552.467,5724.911,1555.029,5730.337Z" transform="translate(-1514.833 -5720.951)" fill="#fbe4cd" fill-rule="evenodd"/>
        <path id="Path_1986" data-name="Path 1986" d="M1555.029,5738.125h-40.2c2.562,5.426,10.59,9.386,20.1,9.386S1552.467,5743.551,1555.029,5738.125Z" transform="translate(-1514.833 -5728.739)" fill="#f5d1ae" fill-rule="evenodd"/>
      </g>
      <g id="Group_432" data-name="Group 432" transform="translate(0 56.317)">
        <path id="Path_1987" data-name="Path 1987" d="M1555.029,5764.687h-40.2c2.562-5.426,10.59-9.386,20.1-9.386S1552.467,5759.261,1555.029,5764.687Z" transform="translate(-1514.833 -5755.301)" fill="#fbe4cd" fill-rule="evenodd"/>
        <path id="Path_1988" data-name="Path 1988" d="M1555.029,5772.476h-40.2c2.562,5.426,10.59,9.386,20.1,9.386S1552.467,5777.9,1555.029,5772.476Z" transform="translate(-1514.833 -5763.09)" fill="#f5d1ae" fill-rule="evenodd"/>
      </g>
    </g>
    <rect id="Rectangle_218" data-name="Rectangle 218" width="2.085" height="122.152" transform="translate(1377.229 5514.77)" fill="#b68b62"/>
    <g id="Group_438" data-name="Group 438" transform="translate(1358.174 5558.546)">
      <g id="Group_434" data-name="Group 434" transform="translate(0)">
        <path id="Path_1989" data-name="Path 1989" d="M1462.231,5661.637h-40.2c2.562-5.426,10.59-9.386,20.1-9.386S1459.669,5656.211,1462.231,5661.637Z" transform="translate(-1422.035 -5652.251)" fill="#fbe4cd" fill-rule="evenodd"/>
        <path id="Path_1990" data-name="Path 1990" d="M1462.231,5669.426h-40.2c2.562,5.426,10.59,9.387,20.1,9.387S1459.669,5674.852,1462.231,5669.426Z" transform="translate(-1422.035 -5660.04)" fill="#f5d1ae" fill-rule="evenodd"/>
      </g>
      <g id="Group_435" data-name="Group 435" transform="translate(0 18.773)">
        <path id="Path_1991" data-name="Path 1991" d="M1462.231,5695.987h-40.2c2.562-5.426,10.59-9.386,20.1-9.386S1459.669,5690.561,1462.231,5695.987Z" transform="translate(-1422.035 -5686.601)" fill="#fbe4cd" fill-rule="evenodd"/>
        <path id="Path_1992" data-name="Path 1992" d="M1462.231,5703.776h-40.2c2.562,5.426,10.59,9.386,20.1,9.386S1459.669,5709.2,1462.231,5703.776Z" transform="translate(-1422.035 -5694.39)" fill="#f5d1ae" fill-rule="evenodd"/>
      </g>
      <g id="Group_436" data-name="Group 436" transform="translate(0 37.545)">
        <path id="Path_1993" data-name="Path 1993" d="M1462.231,5730.337h-40.2c2.562-5.426,10.59-9.386,20.1-9.386S1459.669,5724.911,1462.231,5730.337Z" transform="translate(-1422.035 -5720.951)" fill="#fbe4cd" fill-rule="evenodd"/>
        <path id="Path_1994" data-name="Path 1994" d="M1462.231,5738.125h-40.2c2.562,5.426,10.59,9.386,20.1,9.386S1459.669,5743.551,1462.231,5738.125Z" transform="translate(-1422.035 -5728.739)" fill="#f5d1ae" fill-rule="evenodd"/>
      </g>
      <g id="Group_437" data-name="Group 437" transform="translate(0 56.317)">
        <path id="Path_1995" data-name="Path 1995" d="M1462.231,5764.687h-40.2c2.562-5.426,10.59-9.386,20.1-9.386S1459.669,5759.261,1462.231,5764.687Z" transform="translate(-1422.035 -5755.301)" fill="#fbe4cd" fill-rule="evenodd"/>
        <path id="Path_1996" data-name="Path 1996" d="M1462.231,5772.476h-40.2c2.562,5.426,10.59,9.386,20.1,9.386S1459.669,5777.9,1462.231,5772.476Z" transform="translate(-1422.035 -5763.09)" fill="#f5d1ae" fill-rule="evenodd"/>
      </g>
    </g>
    <rect id="Rectangle_219" data-name="Rectangle 219" width="2.086" height="122.152" transform="translate(1326.516 5514.77)" fill="#b68b62"/>
    <g id="Group_443" data-name="Group 443" transform="translate(1307.461 5558.546)">
      <g id="Group_439" data-name="Group 439">
        <path id="Path_1997" data-name="Path 1997" d="M1369.435,5661.637h-40.2c2.562-5.426,10.589-9.386,20.1-9.386S1366.873,5656.211,1369.435,5661.637Z" transform="translate(-1329.239 -5652.251)" fill="#fbe4cd" fill-rule="evenodd"/>
        <path id="Path_1998" data-name="Path 1998" d="M1369.435,5669.426h-40.2c2.562,5.426,10.589,9.387,20.1,9.387S1366.873,5674.852,1369.435,5669.426Z" transform="translate(-1329.239 -5660.04)" fill="#f5d1ae" fill-rule="evenodd"/>
      </g>
      <g id="Group_440" data-name="Group 440" transform="translate(0 18.773)">
        <path id="Path_1999" data-name="Path 1999" d="M1369.435,5695.987h-40.2c2.562-5.426,10.589-9.386,20.1-9.386S1366.873,5690.561,1369.435,5695.987Z" transform="translate(-1329.239 -5686.601)" fill="#fbe4cd" fill-rule="evenodd"/>
        <path id="Path_2000" data-name="Path 2000" d="M1369.435,5703.776h-40.2c2.562,5.426,10.589,9.386,20.1,9.386S1366.873,5709.2,1369.435,5703.776Z" transform="translate(-1329.239 -5694.39)" fill="#f5d1ae" fill-rule="evenodd"/>
      </g>
      <g id="Group_441" data-name="Group 441" transform="translate(0 37.545)">
        <path id="Path_2001" data-name="Path 2001" d="M1369.435,5730.337h-40.2c2.562-5.426,10.589-9.386,20.1-9.386S1366.873,5724.911,1369.435,5730.337Z" transform="translate(-1329.239 -5720.951)" fill="#fbe4cd" fill-rule="evenodd"/>
        <path id="Path_2002" data-name="Path 2002" d="M1369.435,5738.125h-40.2c2.562,5.426,10.589,9.386,20.1,9.386S1366.873,5743.551,1369.435,5738.125Z" transform="translate(-1329.239 -5728.739)" fill="#f5d1ae" fill-rule="evenodd"/>
      </g>
      <g id="Group_442" data-name="Group 442" transform="translate(0 56.317)">
        <path id="Path_2003" data-name="Path 2003" d="M1369.435,5764.687h-40.2c2.562-5.426,10.589-9.386,20.1-9.386S1366.873,5759.261,1369.435,5764.687Z" transform="translate(-1329.239 -5755.301)" fill="#fbe4cd" fill-rule="evenodd"/>
        <path id="Path_2004" data-name="Path 2004" d="M1369.435,5772.476h-40.2c2.562,5.426,10.589,9.386,20.1,9.386S1366.873,5777.9,1369.435,5772.476Z" transform="translate(-1329.239 -5763.09)" fill="#f5d1ae" fill-rule="evenodd"/>
      </g>
    </g>
    <rect id="Rectangle_220" data-name="Rectangle 220" width="2.086" height="42.136" transform="translate(1833.652 5459.129)" fill="#b68b62"/>
    <rect id="Rectangle_221" data-name="Rectangle 221" width="2.085" height="42.136" transform="translate(1782.939 5459.129)" fill="#b68b62"/>
    <rect id="Rectangle_222" data-name="Rectangle 222" width="2.086" height="42.136" transform="translate(1732.225 5459.129)" fill="#b68b62"/>
    <rect id="Rectangle_223" data-name="Rectangle 223" width="2.086" height="42.136" transform="translate(1681.511 5459.129)" fill="#b68b62"/>
    <rect id="Rectangle_224" data-name="Rectangle 224" width="2.086" height="42.136" transform="translate(1630.798 5459.129)" fill="#b68b62"/>
    <rect id="Rectangle_225" data-name="Rectangle 225" width="2.085" height="42.136" transform="translate(1580.084 5459.129)" fill="#b68b62"/>
    <rect id="Rectangle_226" data-name="Rectangle 226" width="2.086" height="42.136" transform="translate(1529.37 5459.129)" fill="#b68b62"/>
    <rect id="Rectangle_227" data-name="Rectangle 227" width="2.086" height="42.136" transform="translate(1478.657 5459.129)" fill="#b68b62"/>
    <rect id="Rectangle_228" data-name="Rectangle 228" width="2.086" height="42.136" transform="translate(1427.943 5459.129)" fill="#b68b62"/>
    <rect id="Rectangle_229" data-name="Rectangle 229" width="2.085" height="42.136" transform="translate(1377.229 5459.129)" fill="#b68b62"/>
    <rect id="Rectangle_230" data-name="Rectangle 230" width="2.086" height="42.136" transform="translate(1326.516 5459.129)" fill="#b68b62"/>
    <g id="Group_444" data-name="Group 444" transform="translate(1814.597 5479.207)">
      <path id="Path_2005" data-name="Path 2005" d="M2297.406,5516.46h-40.2c2.562-5.426,10.589-9.386,20.1-9.386S2294.844,5511.034,2297.406,5516.46Z" transform="translate(-2257.21 -5507.074)" fill="#fbe4cd" fill-rule="evenodd"/>
      <path id="Path_2006" data-name="Path 2006" d="M2297.406,5524.249h-40.2c2.562,5.426,10.589,9.387,20.1,9.387S2294.844,5529.674,2297.406,5524.249Z" transform="translate(-2257.21 -5514.862)" fill="#f5d1ae" fill-rule="evenodd"/>
    </g>
    <g id="Group_445" data-name="Group 445" transform="translate(1763.883 5479.207)">
      <path id="Path_2007" data-name="Path 2007" d="M2204.609,5516.46h-40.2c2.562-5.426,10.59-9.386,20.1-9.386S2202.047,5511.034,2204.609,5516.46Z" transform="translate(-2164.412 -5507.074)" fill="#fbe4cd" fill-rule="evenodd"/>
      <path id="Path_2008" data-name="Path 2008" d="M2204.609,5524.249h-40.2c2.562,5.426,10.59,9.387,20.1,9.387S2202.047,5529.674,2204.609,5524.249Z" transform="translate(-2164.412 -5514.862)" fill="#f5d1ae" fill-rule="evenodd"/>
    </g>
    <g id="Group_446" data-name="Group 446" transform="translate(1713.17 5479.207)">
      <path id="Path_2009" data-name="Path 2009" d="M2111.811,5516.46h-40.2c2.562-5.426,10.59-9.386,20.1-9.386S2109.249,5511.034,2111.811,5516.46Z" transform="translate(-2071.615 -5507.074)" fill="#fbe4cd" fill-rule="evenodd"/>
      <path id="Path_2010" data-name="Path 2010" d="M2111.811,5524.249h-40.2c2.562,5.426,10.59,9.387,20.1,9.387S2109.249,5529.674,2111.811,5524.249Z" transform="translate(-2071.615 -5514.862)" fill="#f5d1ae" fill-rule="evenodd"/>
    </g>
    <g id="Group_447" data-name="Group 447" transform="translate(1662.456 5479.207)">
      <path id="Path_2011" data-name="Path 2011" d="M2019.014,5516.46h-40.2c2.562-5.426,10.59-9.386,20.1-9.386S2016.452,5511.034,2019.014,5516.46Z" transform="translate(-1978.818 -5507.074)" fill="#fbe4cd" fill-rule="evenodd"/>
      <path id="Path_2012" data-name="Path 2012" d="M2019.014,5524.249h-40.2c2.562,5.426,10.59,9.387,20.1,9.387S2016.452,5529.674,2019.014,5524.249Z" transform="translate(-1978.818 -5514.862)" fill="#f5d1ae" fill-rule="evenodd"/>
    </g>
    <g id="Group_448" data-name="Group 448" transform="translate(1611.742 5479.207)">
      <path id="Path_2013" data-name="Path 2013" d="M1926.217,5516.46h-40.2c2.562-5.426,10.59-9.386,20.1-9.386S1923.655,5511.034,1926.217,5516.46Z" transform="translate(-1886.021 -5507.074)" fill="#fbe4cd" fill-rule="evenodd"/>
      <path id="Path_2014" data-name="Path 2014" d="M1926.217,5524.249h-40.2c2.562,5.426,10.59,9.387,20.1,9.387S1923.655,5529.674,1926.217,5524.249Z" transform="translate(-1886.021 -5514.862)" fill="#f5d1ae" fill-rule="evenodd"/>
    </g>
    <g id="Group_449" data-name="Group 449" transform="translate(1561.029 5479.207)">
      <path id="Path_2015" data-name="Path 2015" d="M1833.42,5516.46h-40.2c2.562-5.426,10.59-9.386,20.1-9.386S1830.858,5511.034,1833.42,5516.46Z" transform="translate(-1793.224 -5507.074)" fill="#fbe4cd" fill-rule="evenodd"/>
      <path id="Path_2016" data-name="Path 2016" d="M1833.42,5524.249h-40.2c2.562,5.426,10.59,9.387,20.1,9.387S1830.858,5529.674,1833.42,5524.249Z" transform="translate(-1793.224 -5514.862)" fill="#f5d1ae" fill-rule="evenodd"/>
    </g>
    <g id="Group_450" data-name="Group 450" transform="translate(1510.315 5479.207)">
      <path id="Path_2017" data-name="Path 2017" d="M1740.623,5516.46h-40.2c2.562-5.426,10.589-9.386,20.1-9.386S1738.061,5511.034,1740.623,5516.46Z" transform="translate(-1700.427 -5507.074)" fill="#fbe4cd" fill-rule="evenodd"/>
      <path id="Path_2018" data-name="Path 2018" d="M1740.623,5524.249h-40.2c2.562,5.426,10.589,9.387,20.1,9.387S1738.061,5529.674,1740.623,5524.249Z" transform="translate(-1700.427 -5514.862)" fill="#f5d1ae" fill-rule="evenodd"/>
    </g>
    <g id="Group_451" data-name="Group 451" transform="translate(1459.602 5479.207)">
      <path id="Path_2019" data-name="Path 2019" d="M1647.826,5516.46h-40.2c2.562-5.426,10.59-9.386,20.1-9.386S1645.264,5511.034,1647.826,5516.46Z" transform="translate(-1607.63 -5507.074)" fill="#fbe4cd" fill-rule="evenodd"/>
      <path id="Path_2020" data-name="Path 2020" d="M1647.826,5524.249h-40.2c2.562,5.426,10.59,9.387,20.1,9.387S1645.264,5529.674,1647.826,5524.249Z" transform="translate(-1607.63 -5514.862)" fill="#f5d1ae" fill-rule="evenodd"/>
    </g>
    <g id="Group_452" data-name="Group 452" transform="translate(1408.888 5479.207)">
      <path id="Path_2021" data-name="Path 2021" d="M1555.029,5516.46h-40.2c2.562-5.426,10.59-9.386,20.1-9.386S1552.467,5511.034,1555.029,5516.46Z" transform="translate(-1514.833 -5507.074)" fill="#fbe4cd" fill-rule="evenodd"/>
      <path id="Path_2022" data-name="Path 2022" d="M1555.029,5524.249h-40.2c2.562,5.426,10.59,9.387,20.1,9.387S1552.467,5529.674,1555.029,5524.249Z" transform="translate(-1514.833 -5514.862)" fill="#f5d1ae" fill-rule="evenodd"/>
    </g>
    <g id="Group_453" data-name="Group 453" transform="translate(1358.174 5479.207)">
      <path id="Path_2023" data-name="Path 2023" d="M1462.231,5516.46h-40.2c2.562-5.426,10.59-9.386,20.1-9.386S1459.669,5511.034,1462.231,5516.46Z" transform="translate(-1422.035 -5507.074)" fill="#fbe4cd" fill-rule="evenodd"/>
      <path id="Path_2024" data-name="Path 2024" d="M1462.231,5524.249h-40.2c2.562,5.426,10.59,9.387,20.1,9.387S1459.669,5529.674,1462.231,5524.249Z" transform="translate(-1422.035 -5514.862)" fill="#f5d1ae" fill-rule="evenodd"/>
    </g>
    <g id="Group_454" data-name="Group 454" transform="translate(1307.461 5479.207)">
      <path id="Path_2025" data-name="Path 2025" d="M1369.435,5516.46h-40.2c2.562-5.426,10.589-9.386,20.1-9.386S1366.873,5511.034,1369.435,5516.46Z" transform="translate(-1329.239 -5507.074)" fill="#fbe4cd" fill-rule="evenodd"/>
      <path id="Path_2026" data-name="Path 2026" d="M1369.435,5524.249h-40.2c2.562,5.426,10.589,9.387,20.1,9.387S1366.873,5529.674,1369.435,5524.249Z" transform="translate(-1329.239 -5514.862)" fill="#f5d1ae" fill-rule="evenodd"/>
    </g>
    <rect id="Rectangle_231" data-name="Rectangle 231" width="0.017" height="13.505" transform="translate(1867.694 5501.265)" fill="none"/>
    <rect id="Rectangle_232" data-name="Rectangle 232" width="572.972" height="122.152" transform="translate(1294.722 5514.77)" fill="none"/>
    <rect id="Rectangle_233" data-name="Rectangle 233" width="0.017" height="42.136" transform="translate(1867.694 5459.129)" fill="none"/>
    <rect id="Rectangle_234" data-name="Rectangle 234" width="0.017" height="122.152" transform="translate(1867.694 5514.77)" fill="none"/>
    <rect id="Rectangle_235" data-name="Rectangle 235" width="572.972" height="42.136" transform="translate(1294.722 5459.129)" fill="none"/>
    <rect id="Rectangle_236" data-name="Rectangle 236" width="572.972" height="13.505" transform="translate(1294.722 5501.265)" fill="#633"/>
    <path id="Path_2027" data-name="Path 2027" d="M1878.9,5459.129h.017v-13.506H1305.929v13.506Z" transform="translate(-11.207 0)" fill="#633"/>
    <path id="Path_2028" data-name="Path 2028" d="M1878.9,5795.663H1305.929v13.506h572.989v-13.506Z" transform="translate(-11.207 -158.741)" fill="#633"/>
    <path id="Path_2029" data-name="Path 2029" d="M2354.5,5470.336v42.136h-.105v13.5h.105v122.152h13.4V5470.336Z" transform="translate(-486.687 -11.207)" fill="#633"/>
    <rect id="Rectangle_237" data-name="Rectangle 237" width="0.106" height="42.136" transform="translate(1867.711 5459.129)" fill="#633"/>
    <rect id="Rectangle_238" data-name="Rectangle 238" width="0.106" height="122.152" transform="translate(1867.711 5514.77)" fill="#633"/>
    <path id="Path_2030" data-name="Path 2030" d="M2354.5,5459.129h13.4v-13.506H2354.4v13.506Z" transform="translate(-486.687 0)" fill="#633"/>
    <path id="Path_2031" data-name="Path 2031" d="M2354.4,5795.663v13.506H2367.9v-13.506H2354.4Z" transform="translate(-486.687 -158.741)" fill="#633"/>
    <path id="Path_2032" data-name="Path 2032" d="M1294.438,5525.977h.251v-13.5h-.251v-42.136h-13.221v177.793h13.221Z" transform="translate(0 -11.207)" fill="#633"/>
    <rect id="Rectangle_239" data-name="Rectangle 239" width="0.033" height="122.152" transform="translate(1294.688 5514.77)" fill="#633"/>
    <rect id="Rectangle_240" data-name="Rectangle 240" width="0.251" height="42.136" transform="translate(1294.438 5459.129)" fill="#633"/>
    <rect id="Rectangle_241" data-name="Rectangle 241" width="0.033" height="42.136" transform="translate(1294.688 5459.129)" fill="#633"/>
    <rect id="Rectangle_242" data-name="Rectangle 242" width="0.251" height="122.152" transform="translate(1294.438 5514.77)" fill="#633"/>
    <rect id="Rectangle_243" data-name="Rectangle 243" width="0.033" height="13.505" transform="translate(1294.688 5501.265)" fill="#633"/>
    <path id="Path_2033" data-name="Path 2033" d="M1294.688,5459.129h.033v-13.506h-13.505v13.506h13.472Z" transform="translate(0 0)" fill="#633"/>
    <path id="Path_2034" data-name="Path 2034" d="M1294.688,5795.663h-13.472v13.506h13.505v-13.506Z" transform="translate(0 -158.741)" fill="#633"/>
  </g>
</svg>
