<svg xmlns="http://www.w3.org/2000/svg" xmlns:xlink="http://www.w3.org/1999/xlink" width="500" height="751.425">
  <defs>
    <linearGradient id="b" x1=".5" x2=".5" y2="1" gradientUnits="objectBoundingBox">
      <stop offset="0" stop-color="#01141a"/>
      <stop offset=".995" stop-color="#011c24"/>
    </linearGradient>
    <linearGradient id="a" x1=".5" y1="-4.597" x2=".5" y2="3.84" gradientUnits="objectBoundingBox">
      <stop offset="0" stop-color="#01151a"/>
      <stop offset=".995" stop-color="#010c0f"/>
    </linearGradient>
    <linearGradient id="c" x1=".5" y1="1" x2=".5" gradientUnits="objectBoundingBox">
      <stop offset="0" stop-color="#2b2d2e"/>
      <stop offset=".11" stop-color="#424648"/>
      <stop offset=".281" stop-color="#60666a"/>
      <stop offset=".454" stop-color="#778085"/>
      <stop offset=".63" stop-color="#889298"/>
      <stop offset=".81" stop-color="#929da4"/>
      <stop offset="1" stop-color="#96a1a8"/>
    </linearGradient>
    <linearGradient id="d" x1=".5" y1="-5.762" x2=".5" y2="2.675" xlink:href="#a"/>
    <linearGradient id="e" x1=".5" y1="-6.928" x2=".5" y2="1.509" xlink:href="#a"/>
    <linearGradient id="f" x1=".5" y1="1" x2=".5" gradientUnits="objectBoundingBox">
      <stop offset="0" stop-color="#1d2123"/>
      <stop offset=".048" stop-color="#272c2f"/>
      <stop offset=".172" stop-color="#3c4348"/>
      <stop offset=".31" stop-color="#4d565c"/>
      <stop offset=".467" stop-color="#59636a"/>
      <stop offset=".661" stop-color="#5f6a72"/>
      <stop offset="1" stop-color="#626d75"/>
    </linearGradient>
    <linearGradient id="g" x1=".5" y1="-3.445" x2=".5" y2="4.991" xlink:href="#a"/>
    <linearGradient id="h" x1=".5" y1="-2.294" x2=".5" y2="6.143" xlink:href="#a"/>
    <linearGradient id="i" x1=".5" y1="1" x2=".5" gradientUnits="objectBoundingBox">
      <stop offset="0" stop-color="#910009"/>
      <stop offset=".091" stop-color="#a60b14"/>
      <stop offset=".253" stop-color="#c61d26"/>
      <stop offset=".422" stop-color="#df2b34"/>
      <stop offset=".597" stop-color="#f1353e"/>
      <stop offset=".783" stop-color="#fb3b44"/>
      <stop offset="1" stop-color="#ff3d46"/>
    </linearGradient>
    <linearGradient id="j" x1=".5" y1="-2.661" x2=".5" y2="1.235" xlink:href="#a"/>
    <linearGradient id="k" x1=".5" x2=".5" y2="1" gradientUnits="objectBoundingBox">
      <stop offset="0" stop-color="#ff8c4d"/>
      <stop offset=".178" stop-color="#fb894b"/>
      <stop offset=".346" stop-color="#ef8245"/>
      <stop offset=".511" stop-color="#dc763d"/>
      <stop offset=".674" stop-color="#c16530"/>
      <stop offset=".835" stop-color="#9f4f20"/>
      <stop offset=".993" stop-color="#75340d"/>
      <stop offset="1" stop-color="#73330c"/>
    </linearGradient>
  </defs>
  <g data-name="Group 483" transform="translate(-411.226 -6300.709)">
    <path data-name="Rectangle 300" d="M469.758 6300.709h382.936a58.532 58.532 0 0 1 58.532 58.532v634.362a58.531 58.531 0 0 1-58.531 58.531H469.757a58.531 58.531 0 0 1-58.531-58.531v-634.362a58.532 58.532 0 0 1 58.532-58.532z" fill="#01151a"/>
    <path data-name="Rectangle 301" d="M469.855 6309.003h382.739a50.338 50.338 0 0 1 50.338 50.338v634.162a50.337 50.337 0 0 1-50.337 50.337H469.856a50.337 50.337 0 0 1-50.337-50.337v-634.164a50.336 50.336 0 0 1 50.336-50.336z" fill="#939598"/>
    <path data-name="Rectangle 302" transform="translate(455.855 6355.211)" fill="url(#b)" d="M0 0h410.741v109.005H0z"/>
    <path data-name="Rectangle 303" fill="#acbf8a" d="M461.779 6361.135h398.894v97.157H461.779z"/>
    <path data-name="Rectangle 304" d="M16.705 0h55.058a16.705 16.705 0 0 1 16.705 16.705v55.061a16.7 16.7 0 0 1-16.7 16.7H16.7A16.7 16.7 0 0 1 0 71.765v-55.06A16.705 16.705 0 0 1 16.705 0z" transform="translate(453.485 6710.151)" fill="url(#a)"/>
    <path data-name="Rectangle 305" d="M14.363 0h55a14.363 14.363 0 0 1 14.365 14.363v55.006A14.361 14.361 0 0 1 69.367 83.73h-55A14.363 14.363 0 0 1 0 69.367v-55A14.363 14.363 0 0 1 14.363 0z" transform="translate(455.855 6712.521)" fill="url(#c)"/>
    <path data-name="Rectangle 306" d="M470.261 6716.076h54.917a10.852 10.852 0 0 1 10.851 10.852v54.917a10.852 10.852 0 0 1-10.851 10.851H470.26a10.85 10.85 0 0 1-10.85-10.849v-54.92a10.851 10.851 0 0 1 10.851-10.851z" fill="#81878a"/>
    <path data-name="Rectangle 307" d="M16.705 0h55.059a16.7 16.7 0 0 1 16.7 16.7v55.065a16.7 16.7 0 0 1-16.7 16.7H16.7A16.7 16.7 0 0 1 0 71.764V16.705A16.705 16.705 0 0 1 16.705 0z" transform="translate(453.485 6813.232)" fill="url(#d)"/>
    <rect data-name="Rectangle 308" width="83.728" height="83.73" rx="14.363" transform="translate(455.855 6815.602)" fill="url(#c)"/>
    <path data-name="Rectangle 309" d="M470.262 6819.156h54.916a10.852 10.852 0 0 1 10.851 10.852v54.918a10.852 10.852 0 0 1-10.851 10.851H470.26a10.85 10.85 0 0 1-10.85-10.849v-54.92a10.852 10.852 0 0 1 10.852-10.852z" fill="#81878a"/>
    <path data-name="Rectangle 310" d="M16.705 0h55.058a16.705 16.705 0 0 1 16.705 16.705v55.061a16.7 16.7 0 0 1-16.7 16.7H16.7A16.7 16.7 0 0 1 0 71.766V16.705A16.705 16.705 0 0 1 16.705 0z" transform="translate(453.485 6916.312)" fill="url(#e)"/>
    <path data-name="Rectangle 311" d="M14.363 0h55a14.363 14.363 0 0 1 14.365 14.363v55a14.361 14.361 0 0 1-14.361 14.366H14.361A14.361 14.361 0 0 1 0 69.368v-55A14.363 14.363 0 0 1 14.363 0z" transform="translate(455.855 6918.683)" fill="url(#c)"/>
    <path data-name="Rectangle 312" d="M470.26 6922.237h54.918a10.852 10.852 0 0 1 10.851 10.852v54.917a10.852 10.852 0 0 1-10.851 10.851H470.26a10.85 10.85 0 0 1-10.85-10.849v-54.921a10.85 10.85 0 0 1 10.85-10.85z" fill="#81878a"/>
    <path data-name="Rectangle 313" d="M16.7 0h55.062a16.705 16.705 0 0 1 16.706 16.705v55.061a16.7 16.7 0 0 1-16.7 16.7H16.7A16.7 16.7 0 0 1 0 71.765V16.7A16.7 16.7 0 0 1 16.7 0z" transform="translate(561.305 6710.151)" fill="url(#a)"/>
    <path data-name="Rectangle 314" d="M14.363 0h55a14.363 14.363 0 0 1 14.366 14.363v55A14.362 14.362 0 0 1 69.367 83.73h-55A14.362 14.362 0 0 1 0 69.368v-55A14.363 14.363 0 0 1 14.363 0z" transform="translate(563.675 6712.521)" fill="url(#c)"/>
    <path data-name="Rectangle 315" d="M578.08 6716.076h54.918a10.851 10.851 0 0 1 10.851 10.851v54.918a10.852 10.852 0 0 1-10.851 10.851H578.08a10.851 10.851 0 0 1-10.851-10.85v-54.919a10.851 10.851 0 0 1 10.851-10.851z" fill="#81878a"/>
    <path data-name="Rectangle 316" d="M16.7 0h55.063a16.7 16.7 0 0 1 16.7 16.7v55.065a16.7 16.7 0 0 1-16.7 16.7H16.7A16.7 16.7 0 0 1 0 71.764V16.7A16.7 16.7 0 0 1 16.7 0z" transform="translate(561.305 6813.232)" fill="url(#d)"/>
    <path data-name="Rectangle 317" d="M14.363 0h55a14.363 14.363 0 0 1 14.366 14.363v55A14.362 14.362 0 0 1 69.367 83.73h-55A14.362 14.362 0 0 1 0 69.368v-55A14.363 14.363 0 0 1 14.363 0z" transform="translate(563.675 6815.602)" fill="url(#c)"/>
    <path data-name="Rectangle 318" d="M578.081 6819.156h54.917a10.851 10.851 0 0 1 10.851 10.851v54.919a10.852 10.852 0 0 1-10.851 10.851H578.08a10.851 10.851 0 0 1-10.851-10.85v-54.919a10.852 10.852 0 0 1 10.852-10.852z" fill="#81878a"/>
    <path data-name="Rectangle 319" d="M16.7 0h55.062a16.705 16.705 0 0 1 16.706 16.705v55.061a16.7 16.7 0 0 1-16.7 16.7H16.7A16.7 16.7 0 0 1 0 71.766V16.7A16.7 16.7 0 0 1 16.7 0z" transform="translate(561.305 6916.312)" fill="url(#e)"/>
    <path data-name="Rectangle 320" d="M14.361 0h55a14.363 14.363 0 0 1 14.368 14.363v55a14.363 14.363 0 0 1-14.363 14.366h-55A14.361 14.361 0 0 1 0 69.368V14.361A14.361 14.361 0 0 1 14.361 0z" transform="translate(563.675 6918.683)" fill="url(#c)"/>
    <path data-name="Rectangle 321" d="M578.079 6922.237h54.919a10.851 10.851 0 0 1 10.851 10.851v54.918a10.852 10.852 0 0 1-10.851 10.851H578.08a10.851 10.851 0 0 1-10.851-10.85v-54.92a10.85 10.85 0 0 1 10.85-10.85z" fill="#81878a"/>
    <path data-name="Rectangle 322" d="M16.7 0h55.063a16.705 16.705 0 0 1 16.705 16.705v55.06a16.7 16.7 0 0 1-16.7 16.7H16.7A16.7 16.7 0 0 1 0 71.765V16.7A16.7 16.7 0 0 1 16.7 0z" transform="translate(669.124 6710.151)" fill="url(#a)"/>
    <rect data-name="Rectangle 323" width="83.73" height="83.73" rx="14.363" transform="translate(671.493 6712.521)" fill="url(#c)"/>
    <path data-name="Rectangle 324" d="M685.899 6716.076h54.919a10.851 10.851 0 0 1 10.851 10.851v54.918a10.852 10.852 0 0 1-10.851 10.851H685.9a10.852 10.852 0 0 1-10.852-10.851v-54.918a10.851 10.851 0 0 1 10.851-10.851z" fill="#81878a"/>
    <rect data-name="Rectangle 325" width="88.468" height="88.468" rx="16.704" transform="translate(669.124 6813.232)" fill="url(#d)"/>
    <rect data-name="Rectangle 326" width="83.73" height="83.73" rx="14.363" transform="translate(671.493 6815.602)" fill="url(#c)"/>
    <path data-name="Rectangle 327" d="M685.9 6819.156h54.918a10.851 10.851 0 0 1 10.851 10.851v54.919a10.852 10.852 0 0 1-10.851 10.851H685.9a10.852 10.852 0 0 1-10.852-10.851v-54.918a10.852 10.852 0 0 1 10.852-10.852z" fill="#81878a"/>
    <rect data-name="Rectangle 328" width="88.468" height="88.469" rx="16.704" transform="translate(669.124 6916.312)" fill="url(#e)"/>
    <path data-name="Rectangle 329" d="M14.363 0h55A14.363 14.363 0 0 1 83.73 14.363v55a14.363 14.363 0 0 1-14.363 14.366H14.361A14.361 14.361 0 0 1 0 69.368v-55A14.363 14.363 0 0 1 14.363 0z" transform="translate(671.493 6918.683)" fill="url(#c)"/>
    <path data-name="Rectangle 330" d="M685.898 6922.237h54.92a10.851 10.851 0 0 1 10.851 10.851v54.918a10.852 10.852 0 0 1-10.851 10.851H685.9a10.852 10.852 0 0 1-10.852-10.851v-54.919a10.85 10.85 0 0 1 10.85-10.85z" fill="#81878a"/>
    <path data-name="Rectangle 331" d="M16.7 0h55.06a16.705 16.705 0 0 1 16.709 16.705v55.059a16.705 16.705 0 0 1-16.705 16.705H16.7A16.7 16.7 0 0 1 0 71.765V16.7A16.7 16.7 0 0 1 16.7 0z" transform="translate(776.944 6710.151)" fill="url(#a)"/>
    <path data-name="Rectangle 332" d="M14.362 0h55a14.363 14.363 0 0 1 14.367 14.363v55A14.362 14.362 0 0 1 69.367 83.73h-55A14.363 14.363 0 0 1 0 69.367v-55A14.362 14.362 0 0 1 14.362 0z" transform="translate(779.314 6712.521)" fill="url(#f)"/>
    <rect data-name="Rectangle 333" width="76.62" height="76.62" rx="10.851" transform="translate(782.868 6716.076)" fill="#464c51"/>
    <path data-name="Rectangle 334" d="M16.705 0h55.058a16.705 16.705 0 0 1 16.705 16.705v55.058a16.7 16.7 0 0 1-16.7 16.7H16.7A16.7 16.7 0 0 1 0 71.764V16.705A16.705 16.705 0 0 1 16.705 0z" transform="translate(453.485 6608.256)" fill="url(#g)"/>
    <path data-name="Rectangle 335" d="M14.363 0h55a14.363 14.363 0 0 1 14.365 14.363v55a14.361 14.361 0 0 1-14.361 14.366h-55A14.363 14.363 0 0 1 0 69.366v-55A14.363 14.363 0 0 1 14.363 0z" transform="translate(455.855 6610.626)" fill="url(#c)"/>
    <path data-name="Rectangle 336" d="M470.26 6614.181h54.918a10.852 10.852 0 0 1 10.851 10.852v54.917a10.851 10.851 0 0 1-10.851 10.851H470.26a10.85 10.85 0 0 1-10.85-10.849v-54.921a10.85 10.85 0 0 1 10.85-10.85z" fill="#81878a"/>
    <path data-name="Rectangle 337" d="M16.7 0h55.063a16.7 16.7 0 0 1 16.7 16.7v55.06a16.7 16.7 0 0 1-16.7 16.7H16.7A16.7 16.7 0 0 1 0 71.764V16.7A16.7 16.7 0 0 1 16.7 0z" transform="translate(561.305 6608.256)" fill="url(#g)"/>
    <rect data-name="Rectangle 338" width="83.729" height="83.729" rx="14.363" transform="translate(563.675 6610.626)" fill="url(#c)"/>
    <rect data-name="Rectangle 339" width="76.62" height="76.62" rx="10.851" transform="translate(567.229 6614.181)" fill="#81878a"/>
    <path data-name="Rectangle 340" d="M16.7 0h55.063a16.7 16.7 0 0 1 16.7 16.7v55.063a16.7 16.7 0 0 1-16.7 16.7H16.7A16.7 16.7 0 0 1 0 71.764V16.7A16.7 16.7 0 0 1 16.7 0z" transform="translate(669.124 6608.256)" fill="url(#g)"/>
    <rect data-name="Rectangle 341" width="83.73" height="83.729" rx="14.363" transform="translate(671.493 6610.626)" fill="url(#c)"/>
    <path data-name="Rectangle 342" d="M685.899 6614.181h54.919a10.851 10.851 0 0 1 10.851 10.851v54.918a10.851 10.851 0 0 1-10.851 10.851H685.9a10.852 10.852 0 0 1-10.852-10.851v-54.918a10.851 10.851 0 0 1 10.851-10.851z" fill="#81878a"/>
    <path data-name="Rectangle 343" d="M16.7 0h55.06a16.7 16.7 0 0 1 16.7 16.7v55.064a16.7 16.7 0 0 1-16.7 16.7H16.7A16.7 16.7 0 0 1 0 71.764V16.7A16.7 16.7 0 0 1 16.7 0z" transform="translate(776.944 6608.256)" fill="url(#g)"/>
    <path data-name="Rectangle 344" d="M14.362 0h55a14.363 14.363 0 0 1 14.367 14.363v55a14.362 14.362 0 0 1-14.362 14.366h-55A14.363 14.363 0 0 1 0 69.366v-55A14.362 14.362 0 0 1 14.362 0z" transform="translate(779.314 6610.626)" fill="url(#f)"/>
    <rect data-name="Rectangle 345" width="76.62" height="76.62" rx="10.851" transform="translate(782.868 6614.181)" fill="#464c51"/>
    <path data-name="Rectangle 346" d="M16.705 0h55.059a16.7 16.7 0 0 1 16.7 16.7v55.065a16.7 16.7 0 0 1-16.7 16.7H16.7A16.7 16.7 0 0 1 0 71.764V16.705A16.705 16.705 0 0 1 16.705 0z" transform="translate(453.485 6506.361)" fill="url(#h)"/>
    <path data-name="Rectangle 347" d="M14.363 0h55a14.363 14.363 0 0 1 14.365 14.363v55.006A14.361 14.361 0 0 1 69.367 83.73h-55A14.363 14.363 0 0 1 0 69.367v-55A14.363 14.363 0 0 1 14.363 0z" transform="translate(455.855 6508.73)" fill="url(#i)"/>
    <path data-name="Rectangle 348" d="M470.262 6512.285h54.916a10.852 10.852 0 0 1 10.851 10.852v54.918a10.851 10.851 0 0 1-10.851 10.851H470.26a10.85 10.85 0 0 1-10.85-10.849v-54.92a10.852 10.852 0 0 1 10.852-10.852z" fill="#de0009"/>
    <path data-name="Rectangle 349" d="M16.7 0h55.063a16.7 16.7 0 0 1 16.7 16.7v55.065a16.7 16.7 0 0 1-16.7 16.7H16.7A16.7 16.7 0 0 1 0 71.764V16.7A16.7 16.7 0 0 1 16.7 0z" transform="translate(561.305 6506.361)" fill="url(#h)"/>
    <path data-name="Rectangle 350" d="M14.363 0h55a14.363 14.363 0 0 1 14.366 14.363v55A14.362 14.362 0 0 1 69.367 83.73h-55A14.363 14.363 0 0 1 0 69.367v-55A14.363 14.363 0 0 1 14.363 0z" transform="translate(563.675 6508.73)" fill="url(#i)"/>
    <path data-name="Rectangle 351" d="M578.081 6512.285h54.917a10.851 10.851 0 0 1 10.851 10.851v54.919a10.851 10.851 0 0 1-10.851 10.851H578.08a10.851 10.851 0 0 1-10.851-10.85v-54.919a10.852 10.852 0 0 1 10.852-10.852z" fill="#de0009"/>
    <rect data-name="Rectangle 352" width="88.468" height="88.468" rx="16.704" transform="translate(669.124 6506.361)" fill="url(#h)"/>
    <rect data-name="Rectangle 353" width="83.73" height="83.73" rx="14.363" transform="translate(671.493 6508.73)" fill="url(#f)"/>
    <path data-name="Rectangle 354" d="M685.9 6512.285h54.918a10.852 10.852 0 0 1 10.851 10.852v54.918a10.851 10.851 0 0 1-10.851 10.851h-54.919a10.851 10.851 0 0 1-10.851-10.851v-54.918a10.852 10.852 0 0 1 10.852-10.852z" fill="#464c51"/>
    <rect data-name="Rectangle 355" width="88.469" height="88.468" rx="16.704" transform="translate(776.944 6506.361)" fill="url(#h)"/>
    <path data-name="Rectangle 356" d="M14.362 0h55a14.363 14.363 0 0 1 14.367 14.363v55A14.362 14.362 0 0 1 69.367 83.73h-55A14.363 14.363 0 0 1 0 69.367v-55A14.362 14.362 0 0 1 14.362 0z" transform="translate(779.314 6508.73)" fill="url(#f)"/>
    <path data-name="Rectangle 357" d="M793.72 6512.285h54.918a10.851 10.851 0 0 1 10.85 10.851v54.92a10.851 10.851 0 0 1-10.85 10.85h-54.919a10.851 10.851 0 0 1-10.851-10.85v-54.919a10.852 10.852 0 0 1 10.852-10.852z" fill="#464c51"/>
    <path data-name="Rectangle 358" d="M16.7 0h55.065a16.7 16.7 0 0 1 16.7 16.7v158.145a16.7 16.7 0 0 1-16.7 16.7H16.7A16.7 16.7 0 0 1 0 174.846V16.7A16.7 16.7 0 0 1 16.7 0z" transform="translate(776.944 6813.232)" fill="url(#j)"/>
    <path data-name="Rectangle 359" d="M14.361 0h55a14.363 14.363 0 0 1 14.368 14.363v158.084a14.363 14.363 0 0 1-14.363 14.363h-55A14.361 14.361 0 0 1 0 172.449V14.361A14.361 14.361 0 0 1 14.361 0z" transform="translate(779.314 6815.602)" fill="url(#k)"/>
    <path data-name="Rectangle 360" d="M793.72 6819.156h54.918a10.851 10.851 0 0 1 10.85 10.851v158a10.85 10.85 0 0 1-10.85 10.85h-54.919a10.851 10.851 0 0 1-10.851-10.85v-158a10.852 10.852 0 0 1 10.852-10.851z" fill="#ed651c"/>
    <path data-name="Path 2059" d="M506.063 6880.113H500.5v-35.442a32.961 32.961 0 0 1-11.124 6.7v-5.37a31.541 31.541 0 0 0 12.441-11.166l4.246-.012v45.29z" fill="#fff"/>
    <path data-name="Path 2060" d="M617.621 6874.481v5.347h-29.944c-.36-11.711 15.526-18.106 21.568-26.343 10.26-13.985-14.689-20.734-14.8-5.453q-2.857-.3-5.715-.588c.6-6.578 4.524-11.7 11.232-12.83 6.682-1.118 14.439 1.083 16.9 8.042 5.241 14.817-15.3 21.773-21.459 31.825z" fill="#fff"/>
    <path data-name="Path 2061" d="M698.578 6867.456l5.561-.74c.818 4.033 2.838 8.012 7.278 8.768a9.379 9.379 0 0 0 9.951-4.972c4.235-8.457-4.064-14.586-11.821-12.542l.617-4.883c4.1.457 9.284-1.554 10.023-6.044a7.18 7.18 0 0 0-7.3-8.541c-4.833 0-7.52 3.739-8.188 8.16-.732.5-4.593-.818-5.564-.99a13.911 13.911 0 0 1 18.861-10.848c9 3.291 11.152 15.745 1.78 20.057 11.321 2.61 10.36 17.633 1.838 23.019-9.136 5.768-21.948.607-23.036-10.444z" fill="#fff"/>
    <path data-name="Path 2062" d="M501.703 6776.901v-10.846h-19.654v-5.1l20.673-29.359h4.542v29.359h6.118v5.1h-6.118v9.152c.003 2.966-2.972 1.694-5.561 1.694zm0-15.944v-20.427q-7.091 10.211-14.182 20.427z" fill="#fff"/>
    <path data-name="Path 2063" d="M587.677 6764.544l5.839-.493c.88 5.762 5.684 10.151 11.731 8.076 5.478-1.885 7.4-8.3 6.268-13.528a9.6 9.6 0 0 0-12.727-6.766c-1.937.671-4.087 3.951-5.715 3.74q-2.2-.292-4.407-.576l4.388-23.27h22.527v5.315h-18.077l-2.441 12.176c12.705-8.856 26.822 4.767 21.478 18.317-5.396 13.688-27.354 12.519-28.864-2.991z" fill="#fff"/>
    <path data-name="Path 2064" d="M727.75 6742.351l-5.529.434c-1.265-5.581-6.969-9.613-12.329-5.656-4.972 3.626-5.666 10.413-5.717 16.07 7.9-12.028 24.381-4.313 24.381 8.649 0 13.513-16.215 21.222-25.524 10.368-6.705-7.812-5.811-24.375-1.394-33.069 5.815-11.443 24.33-10.656 26.112 3.204zm-22.71 19.53c0 13.494 17.831 13.955 17.831.308-.001-12.721-17.832-13.13-17.832-.308z" fill="#fff"/>
    <path data-name="Path 2065" d="M483.061 6635.336v-5.346h29.32v4.328c-6.78 7.212-11.641 16.769-14.6 26.146a61.1 61.1 0 0 0-2.67 14.241c-.78.65-4.62 0-5.717 0 .244-13.908 6.745-29 15.853-39.368z" fill="#fff"/>
    <path data-name="Path 2066" d="M599.25 6650.162c-13-4.757-5.348-20.921 6.211-20.921 11.434 0 19.468 16.037 6.489 20.921 6.413 2.091 9.65 8.244 8.194 14.785-1.516 6.823-7.957 10.553-14.59 10.553-6.123 0-12.081-3.106-14.17-9.148-2.354-6.808.669-14.312 7.865-16.19zm-2.9 11.495c0 11.94 18.448 12.122 18.448.186-.007-11.881-18.455-12.171-18.455-.186zm1.792-20.92c0 9.334 14.769 9.637 14.769.309-.007-9.224-14.776-9.528-14.776-.309z" fill="#fff"/>
    <path data-name="Path 2067" d="M697.224 6662.986l5.347-.5c1.033 5.728 6.487 9.352 12 6 5.178-3.15 6.27-10.837 6.041-16.348-7.8 12.422-24.226 3.8-24.226-8.868 0-12.727 14.819-20.791 24.571-11.106 7.471 7.422 6.751 24.045 2.756 32.967-5.37 12.002-24.628 12.49-26.489-2.145zM720 6642.993c0-12.536-16.546-13.63-17.816-1.094-1.387 13.675 17.816 14.888 17.816 1.094z" fill="#fff"/>
    <path data-name="Path 2068" d="M482.949 6960.562c0-9.791 2.411-23.144 14.771-23.144 12.385 0 14.771 13.375 14.771 23.144 0 9.8-2.416 23.116-14.771 23.116-12.42 0-14.771-13.291-14.771-23.116zm5.716 0c0 5.951-.1 17.1 7.811 18.438 9.093 1.542 10.139-10.383 10.278-16.474.14-6.25.728-18.976-7.835-20.4-9.828-1.64-10.259 12.099-10.259 18.436z" fill="#fff"/>
    <path data-name="Path 2069" d="M803.577 6757.519v-6.48h34.88v6.48z" fill="#fff"/>
    <path data-name="Path 2070" d="M699.492 6978.881v-5.153h27.733v5.153z" fill="#fff"/>
    <path data-name="Path 2071" d="M838.346 6904.047h-34.659v-6.014h34.647zm0 15.932h-34.659v-6.014h34.659z" fill="#fff"/>
    <path data-name="Path 2072" d="M818.135 6669.718v-14.392h-14.286v-6.019h14.286v-14.285h6.087v14.285h14.283v6.017h-14.283v14.392z" fill="#fff"/>
    <path data-name="Path 2073" d="M710.939 6967.471v-11.443H699.58v-4.782h11.359v-11.359h4.84v11.359h11.358v4.782h-11.358v11.443z" fill="#fff"/>
    <path data-name="Path 2074" d="M699.475 6560.709l10.179-10.177-10.1-10.1 4.254-4.255 10.1 10.1 10.1-10.1 4.3 4.3-10.1 10.1 10.1 10.1-4.253 4.254-10.1-10.1-10.175 10.178z" fill="#fff"/>
    <g data-name="Group 480" fill="#fff">
      <path data-name="Path 2075" d="M803.577 6553.836v-6.48h34.88v6.48z"/>
      <path data-name="Path 2076" d="M817.346 6568.284v-7.339h7.341v7.339z"/>
      <path data-name="Path 2077" d="M817.346 6540.245v-7.339h7.341v7.339z"/>
    </g>
    <path data-name="Path 2078" d="M845.564 6446.627v-7.339h7.34v7.339z" fill="#a4b582"/>
    <path data-name="Path 2079" d="M601.869 6964.217v-7.338h7.341v7.338z" fill="#fff"/>
    <g data-name="Group 481" fill="#fff">
      <path data-name="Path 2080" d="M492.469 6565.023l-2.638-6.861h-13.014l-2.492 6.861h-5l11.234-28.845h5.525l11.549 28.845zm-4.086-10.591l-5.143-13.854-5.044 13.845z"/>
      <path data-name="Path 2081" d="M514.56 6565.531a12.24 12.24 0 0 1-9.395-3.9c-2.446-2.6-3.686-6.223-3.686-10.772 0-4.826 1.248-8.612 3.709-11.249a12.593 12.593 0 0 1 9.743-3.956 11.807 11.807 0 0 1 8.535 3.089 10.358 10.358 0 0 1 2.511 4.043l.2.533-4.691 1.119-.156-.419a6.833 6.833 0 0 0-2.152-3 7.084 7.084 0 0 0-4.554-1.51 7.552 7.552 0 0 0-5.961 2.646c-1.518 1.749-2.256 4.448-2.256 8.252 0 4.023.727 6.834 2.221 8.6a7.371 7.371 0 0 0 5.873 2.669 6.792 6.792 0 0 0 4.631-1.715 8.767 8.767 0 0 0 2.4-4.019l.153-.483 4.591 1.456-.167.489a12.005 12.005 0 0 1-3.933 5.865 12.3 12.3 0 0 1-7.616 2.262z"/>
    </g>
    <g data-name="Group 482">
      <path data-name="Path 2082" d="M607.514 6567.578a13.926 13.926 0 0 1-10.689-4.435c-2.783-2.954-4.2-7.074-4.2-12.245 0-5.482 1.421-9.784 4.221-12.784a14.328 14.328 0 0 1 11.085-4.5 13.442 13.442 0 0 1 9.715 3.52 11.955 11.955 0 0 1 2.923 4.773l.189.53-5.48 1.309-.153-.427a7.681 7.681 0 0 0-2.45-3.48 7.921 7.921 0 0 0-5.094-1.687 8.455 8.455 0 0 0-6.676 2.96c-1.7 1.961-2.53 5-2.53 9.274 0 4.528.815 7.69 2.491 9.667a8.246 8.246 0 0 0 6.575 2.989 7.6 7.6 0 0 0 5.179-1.917 9.936 9.936 0 0 0 2.735-4.651l.15-.489 5.364 1.7-.161.488a13.753 13.753 0 0 1-4.531 6.83 14 14 0 0 1-8.663 2.575z" fill="#fff"/>
    </g>
    <path data-name="Path 2083" d="M503.66 6405.974h-19.17a3.767 3.767 0 0 0 0 7.478h19.171a3.767 3.767 0 0 0 0-7.478z" fill="#a4b582"/>
    <path data-name="Path 2084" d="M508.034 6382.621v20.943a3.333 3.333 0 1 0 6.616 0v-28.419z" fill="#a4b582"/>
    <path data-name="Path 2085" d="M508.034 6436.807v-20.944a3.333 3.333 0 1 1 6.616 0v28.421z" fill="#a4b582"/>
    <path data-name="Path 2086" d="M480.115 6382.621v20.943a3.333 3.333 0 1 1-6.616 0v-28.419z" fill="#a4b582"/>
    <path data-name="Path 2087" d="M480.115 6436.807v-20.944a3.333 3.333 0 1 0-6.616 0v28.421z" fill="#a4b582"/>
    <path data-name="Path 2088" d="M475.58 6372.733l6.615 7.477h23.707l6.614-7.477z" fill="#a4b582"/>
    <path data-name="Path 2089" d="M475.58 6446.694l6.616-7.475h23.706l6.616 7.475z" fill="#a4b582"/>
    <path data-name="Path 2090" d="M557.798 6405.974h-19.17a3.767 3.767 0 0 0 0 7.478h19.171a3.767 3.767 0 0 0 0-7.478z" fill="#a4b582"/>
    <path data-name="Path 2091" d="M562.172 6382.621v20.943a3.333 3.333 0 1 0 6.616 0v-28.419z" fill="#a4b582"/>
    <path data-name="Path 2092" d="M562.172 6436.807v-20.944a3.333 3.333 0 1 1 6.616 0v28.421z" fill="#a4b582"/>
    <path data-name="Path 2093" d="M534.252 6382.621v20.943a3.333 3.333 0 1 1-6.616 0v-28.419z" fill="#a4b582"/>
    <path data-name="Path 2094" d="M534.252 6436.807v-20.944a3.333 3.333 0 1 0-6.616 0v28.421z" fill="#a4b582"/>
    <path data-name="Path 2095" d="M529.72 6372.733l6.616 7.477h23.7l6.615-7.477z" fill="#a4b582"/>
    <path data-name="Path 2096" d="M529.72 6446.694l6.617-7.475h23.7l6.616 7.475z" fill="#a4b582"/>
    <path data-name="Path 2097" d="M611.936 6405.974h-19.171a3.767 3.767 0 0 0 0 7.478h19.171a3.767 3.767 0 0 0 0-7.478z" fill="#a4b582"/>
    <path data-name="Path 2098" d="M616.309 6382.621v20.943a3.333 3.333 0 1 0 6.616 0v-28.419z" fill="#a4b582"/>
    <path data-name="Path 2099" d="M616.309 6436.807v-20.944a3.333 3.333 0 1 1 6.616 0v28.421z" fill="#a4b582"/>
    <path data-name="Path 2100" d="M588.391 6382.621v20.943a3.333 3.333 0 1 1-6.616 0v-28.419z" fill="#a4b582"/>
    <path data-name="Path 2101" d="M588.391 6436.807v-20.944a3.333 3.333 0 1 0-6.616 0v28.421z" fill="#a4b582"/>
    <path data-name="Path 2102" d="M583.854 6372.733l6.616 7.477h23.706l6.614-7.477z" fill="#a4b582"/>
    <path data-name="Path 2103" d="M583.854 6446.694l6.616-7.475h23.706l6.615 7.475z" fill="#a4b582"/>
    <path data-name="Path 2104" d="M666.073 6405.974h-19.171a3.767 3.767 0 0 0 0 7.478h19.172a3.767 3.767 0 0 0 0-7.478z" fill="#a4b582"/>
    <path data-name="Path 2105" d="M670.447 6382.621v20.943a3.332 3.332 0 1 0 6.615 0v-28.419z" fill="#a4b582"/>
    <path data-name="Path 2106" d="M670.447 6436.807v-20.944a3.332 3.332 0 1 1 6.615 0v28.421z" fill="#a4b582"/>
    <path data-name="Path 2107" d="M642.527 6382.621v20.943a3.333 3.333 0 1 1-6.616 0v-28.419z" fill="#a4b582"/>
    <path data-name="Path 2108" d="M642.527 6436.807v-20.944a3.333 3.333 0 1 0-6.616 0v28.421z" fill="#a4b582"/>
    <path data-name="Path 2109" d="M637.992 6372.733l6.615 7.477h23.711l6.615-7.477z" fill="#a4b582"/>
    <path data-name="Path 2110" d="M637.992 6446.694l6.617-7.475h23.7l6.616 7.475z" fill="#a4b582"/>
    <path data-name="Path 2111" d="M720.209 6405.974h-19.17a3.767 3.767 0 0 0 0 7.478h19.17a3.767 3.767 0 0 0 0-7.478z" fill="#a4b582"/>
    <path data-name="Path 2112" d="M724.584 6382.621v20.943a3.332 3.332 0 1 0 6.614 0v-28.419z" fill="#a4b582"/>
    <path data-name="Path 2113" d="M724.584 6436.807v-20.944a3.332 3.332 0 1 1 6.614 0v28.421z" fill="#a4b582"/>
    <path data-name="Path 2114" d="M696.664 6382.621v20.943a3.334 3.334 0 1 1-6.618 0v-28.419z" fill="#a4b582"/>
    <path data-name="Path 2115" d="M696.664 6436.807v-20.944a3.334 3.334 0 1 0-6.618 0v28.421z" fill="#a4b582"/>
    <path data-name="Path 2116" d="M692.128 6372.733l6.616 7.477h23.706l6.615-7.477z" fill="#a4b582"/>
    <path data-name="Path 2117" d="M692.128 6446.694l6.618-7.475h23.7l6.616 7.475z" fill="#a4b582"/>
    <path data-name="Path 2118" d="M774.345 6405.974h-19.17a3.767 3.767 0 0 0 0 7.478h19.17a3.767 3.767 0 0 0 0-7.478z" fill="#a4b582"/>
    <path data-name="Path 2119" d="M778.721 6382.621v20.943a3.332 3.332 0 1 0 6.615 0v-28.419z" fill="#a4b582"/>
    <path data-name="Path 2120" d="M778.721 6436.807v-20.944a3.332 3.332 0 1 1 6.615 0v28.421z" fill="#a4b582"/>
    <path data-name="Path 2121" d="M750.802 6382.621v20.943a3.334 3.334 0 1 1-6.618 0v-28.419z" fill="#a4b582"/>
    <path data-name="Path 2122" d="M750.802 6436.807v-20.944a3.334 3.334 0 1 0-6.618 0v28.421z" fill="#a4b582"/>
    <path data-name="Path 2123" d="M746.266 6372.733l6.615 7.477h23.707l6.613-7.477z" fill="#a4b582"/>
    <path data-name="Path 2124" d="M746.266 6446.694l6.617-7.475h23.705l6.614 7.475z" fill="#a4b582"/>
    <path data-name="Path 2125" d="M828.483 6405.974h-19.17a3.767 3.767 0 0 0 0 7.478h19.171a3.767 3.767 0 0 0 0-7.478z" fill="#a4b582"/>
    <path data-name="Path 2126" d="M832.853 6382.621v20.943a3.333 3.333 0 1 0 6.616 0v-28.419z" fill="#a4b582"/>
    <path data-name="Path 2127" d="M832.853 6436.807v-20.944a3.333 3.333 0 1 1 6.616 0v28.421z" fill="#a4b582"/>
    <path data-name="Path 2128" d="M804.939 6382.621v20.943a3.333 3.333 0 1 1-6.616 0v-28.419z" fill="#a4b582"/>
    <path data-name="Path 2129" d="M804.939 6436.807v-20.944a3.333 3.333 0 1 0-6.616 0v28.421z" fill="#a4b582"/>
    <path data-name="Path 2130" d="M800.403 6372.733l6.614 7.477h23.707l6.614-7.477z" fill="#a4b582"/>
    <path data-name="Path 2131" d="M800.403 6446.694l6.617-7.475h23.7l6.616 7.475z" fill="#a4b582"/>
  </g>
</svg>