<svg xmlns="http://www.w3.org/2000/svg" xmlns:xlink="http://www.w3.org/1999/xlink" width="90" height="90" viewBox="0 0 90 90"><defs><clipPath id="a"><path d="M168.212,172.381c.135-.546.273-1.276.383-1.91-2.567.021-9.1.08-12.047.107l-.17,5.468A5.372,5.372,0,0,1,160.9,174h4.74A5.192,5.192,0,0,0,168.212,172.381Zm-10.461,19.544c-1.511,0-2.377.96-2.377,2.634a7.812,7.812,0,0,0,1.792,4.51,3.892,3.892,0,0,1-.183-.949l-.07-1.188,1.08-.351a2.475,2.475,0,0,0,1.493-2.342C159.486,192.5,158.715,191.989,157.751,191.925ZM179.791,169.5c-5.069,0-6.875,8-6.875,15.485s1.806,15.485,6.875,15.485,6.876-8,6.876-15.485S184.86,169.5,179.791,169.5Zm17.349,0c-5.069,0-6.875,8-6.875,15.485s1.806,15.485,6.875,15.485,6.875-8,6.875-15.485S202.209,169.5,197.14,169.5Zm-33.86,9.64q.1.088.2.186c1.336,1.343,1.479,3.524,1.47,5.048v13.947l-.013.1a3.981,3.981,0,0,1-.745,1.787c2.711-1.158,4.548-3.665,4.548-5.9V184.279A5.854,5.854,0,0,0,163.279,179.14Z" transform="translate(-155.374 -169.5)" fill="none"/></clipPath></defs><g transform="translate(-130.037 -135.398)"><g transform="translate(894.037 142.398)"><path d="M-719-5.134A43.183,43.183,0,0,0-762.135,38,43.182,43.182,0,0,0-719,81.134,43.183,43.183,0,0,0-675.865,38,43.184,43.184,0,0,0-719-5.134Zm32.729,30.651a.932.932,0,0,1-1.219-.505A34.036,34.036,0,0,0-719,3.912,34.127,34.127,0,0,0-753.088,38,34.126,34.126,0,0,0-719,72.087a34.036,34.036,0,0,0,31.51-21.1.933.933,0,0,1,1.219-.5.933.933,0,0,1,.5,1.219A35.9,35.9,0,0,1-719,73.953,35.993,35.993,0,0,1-754.953,38,35.994,35.994,0,0,1-719,2.046,35.9,35.9,0,0,1-685.767,24.3.933.933,0,0,1-686.271,25.517Z" fill="#ebd05e"/><path d="M-719-7a45.051,45.051,0,0,0-45,45,45.051,45.051,0,0,0,45,45,45.051,45.051,0,0,0,45-45A45.051,45.051,0,0,0-719-7Zm0,88.134A43.182,43.182,0,0,1-762.135,38,43.183,43.183,0,0,1-719-5.134,43.184,43.184,0,0,1-675.865,38,43.183,43.183,0,0,1-719,81.134Z" fill="#6c6c6c"/><path d="M-719,2.046A35.994,35.994,0,0,0-754.953,38,35.993,35.993,0,0,0-719,73.953,35.9,35.9,0,0,0-685.767,51.7a.933.933,0,0,0-.5-1.219.933.933,0,0,0-1.219.5A34.036,34.036,0,0,1-719,72.087,34.126,34.126,0,0,1-753.088,38,34.127,34.127,0,0,1-719,3.912a34.036,34.036,0,0,1,31.51,21.1.932.932,0,0,0,1.219.505.933.933,0,0,0,.5-1.219A35.9,35.9,0,0,0-719,2.046Z" fill="#a08514"/></g><g transform="translate(149.374 163.5)"><g transform="translate(1.542 1.542)"><g clip-path="url(#a)"><g transform="translate(-2.634 -0.9)"><g transform="translate(0 0.257)"><rect width="55.259" height="0.257" fill="#d4b47c"/><rect width="55.259" height="0.257" transform="translate(0 0.514)" fill="#d4b47c"/><rect width="55.259" height="0.257" transform="translate(0 1.028)" fill="#d4b47c"/><rect width="55.259" height="0.257" transform="translate(0 1.542)" fill="#d4b47c"/><rect width="55.259" height="0.257" transform="translate(0 2.056)" fill="#d4b47c"/><rect width="55.259" height="0.257" transform="translate(0 2.57)" fill="#d4b47c"/><rect width="55.259" height="0.257" transform="translate(0 3.084)" fill="#d4b47c"/><rect width="55.259" height="0.257" transform="translate(0 3.598)" fill="#d4b47c"/><rect width="55.259" height="0.257" transform="translate(0 4.112)" fill="#d4b47c"/><rect width="55.259" height="0.257" transform="translate(0 4.626)" fill="#d4b47c"/><rect width="55.259" height="0.257" transform="translate(0 5.14)" fill="#d4b47c"/><rect width="55.259" height="0.257" transform="translate(0 5.654)" fill="#d4b47c"/><rect width="55.259" height="0.257" transform="translate(0 6.168)" fill="#d4b47c"/><rect width="55.259" height="0.257" transform="translate(0 6.682)" fill="#d4b47c"/><rect width="55.259" height="0.257" transform="translate(0 7.197)" fill="#d4b47c"/><rect width="55.259" height="0.257" transform="translate(0 7.711)" fill="#d4b47c"/><rect width="55.259" height="0.257" transform="translate(0 8.225)" fill="#d4b47c"/><rect width="55.259" height="0.257" transform="translate(0 8.739)" fill="#d4b47c"/><rect width="55.259" height="0.257" transform="translate(0 9.253)" fill="#d4b47c"/><rect width="55.259" height="0.257" transform="translate(0 9.767)" fill="#d4b47c"/><rect width="55.259" height="0.257" transform="translate(0 10.281)" fill="#d4b47c"/><rect width="55.259" height="0.257" transform="translate(0 10.795)" fill="#d4b47c"/><rect width="55.259" height="0.257" transform="translate(0 11.309)" fill="#d4b47c"/><rect width="55.259" height="0.257" transform="translate(0 11.823)" fill="#d4b47c"/><rect width="55.259" height="0.257" transform="translate(0 12.337)" fill="#d4b47c"/><rect width="55.259" height="0.257" transform="translate(0 12.851)" fill="#d4b47c"/><rect width="55.259" height="0.257" transform="translate(0 13.365)" fill="#d4b47c"/><rect width="55.259" height="0.257" transform="translate(0 13.879)" fill="#d4b47c"/><rect width="55.259" height="0.257" transform="translate(0 14.393)" fill="#d4b47c"/><rect width="55.259" height="0.257" transform="translate(0 14.907)" fill="#d4b47c"/><rect width="55.259" height="0.257" transform="translate(0 15.421)" fill="#d4b47c"/><rect width="55.259" height="0.257" transform="translate(0 15.935)" fill="#d4b47c"/><rect width="55.259" height="0.257" transform="translate(0 16.449)" fill="#d4b47c"/><rect width="55.259" height="0.257" transform="translate(0 16.963)" fill="#d4b47c"/><rect width="55.259" height="0.257" transform="translate(0 17.477)" fill="#d4b47c"/><rect width="55.259" height="0.257" transform="translate(0 17.991)" fill="#d4b47c"/><rect width="55.259" height="0.257" transform="translate(0 18.505)" fill="#d4b47c"/><rect width="55.259" height="0.257" transform="translate(0 19.019)" fill="#d4b47c"/><rect width="55.259" height="0.257" transform="translate(0 19.533)" fill="#d4b47c"/><rect width="55.259" height="0.257" transform="translate(0 20.047)" fill="#d4b47c"/><rect width="55.259" height="0.257" transform="translate(0 20.562)" fill="#d4b47c"/><rect width="55.259" height="0.257" transform="translate(0 21.076)" fill="#d4b47c"/><rect width="55.259" height="0.257" transform="translate(0 21.59)" fill="#d4b47c"/><rect width="55.259" height="0.257" transform="translate(0 22.104)" fill="#d4b47c"/><rect width="55.259" height="0.257" transform="translate(0 22.618)" fill="#d4b47c"/><rect width="55.259" height="0.257" transform="translate(0 23.132)" fill="#d4b47c"/><rect width="55.259" height="0.257" transform="translate(0 23.646)" fill="#d4b47c"/><rect width="55.259" height="0.257" transform="translate(0 24.16)" fill="#d4b47c"/><rect width="55.259" height="0.257" transform="translate(0 24.674)" fill="#d4b47c"/><rect width="55.259" height="0.257" transform="translate(0 25.188)" fill="#d4b47c"/><rect width="55.259" height="0.257" transform="translate(0 25.702)" fill="#d4b47c"/><rect width="55.259" height="0.257" transform="translate(0 26.216)" fill="#d4b47c"/><rect width="55.259" height="0.257" transform="translate(0 26.73)" fill="#d4b47c"/><rect width="55.259" height="0.257" transform="translate(0 27.244)" fill="#d4b47c"/><rect width="55.259" height="0.257" transform="translate(0 27.758)" fill="#d4b47c"/><rect width="55.259" height="0.257" transform="translate(0 28.272)" fill="#d4b47c"/><rect width="55.259" height="0.257" transform="translate(0 28.786)" fill="#d4b47c"/><rect width="55.259" height="0.257" transform="translate(0 29.3)" fill="#d4b47c"/><rect width="55.259" height="0.257" transform="translate(0 29.814)" fill="#d4b47c"/><rect width="55.259" height="0.257" transform="translate(0 30.328)" fill="#d4b47c"/><rect width="55.259" height="0.257" transform="translate(0 30.842)" fill="#d4b47c"/><rect width="55.259" height="0.257" transform="translate(0 31.356)" fill="#d4b47c"/><rect width="55.259" height="0.257" transform="translate(0 31.87)" fill="#d4b47c"/><rect width="55.259" height="0.257" transform="translate(0 32.384)" fill="#d4b47c"/><rect width="55.259" height="0.257" transform="translate(0 32.898)" fill="#d4b47c"/><rect width="55.259" height="0.257" transform="translate(0 33.412)" fill="#d4b47c"/></g><rect width="55.259" height="0.257" fill="#947104"/><rect width="55.259" height="0.257" transform="translate(0 0.514)" fill="#947104"/><rect width="55.259" height="0.257" transform="translate(0 1.028)" fill="#947104"/><rect width="55.259" height="0.257" transform="translate(0 1.542)" fill="#947104"/><rect width="55.259" height="0.257" transform="translate(0 2.056)" fill="#947104"/><rect width="55.259" height="0.257" transform="translate(0 2.57)" fill="#947104"/><rect width="55.259" height="0.257" transform="translate(0 3.084)" fill="#947104"/><rect width="55.259" height="0.257" transform="translate(0 3.598)" fill="#947104"/><rect width="55.259" height="0.257" transform="translate(0 4.112)" fill="#947104"/><rect width="55.259" height="0.257" transform="translate(0 4.626)" fill="#947104"/><rect width="55.259" height="0.257" transform="translate(0 5.14)" fill="#947104"/><rect width="55.259" height="0.257" transform="translate(0 5.654)" fill="#947104"/><rect width="55.259" height="0.257" transform="translate(0 6.168)" fill="#947104"/><rect width="55.259" height="0.257" transform="translate(0 6.682)" fill="#947104"/><rect width="55.259" height="0.257" transform="translate(0 7.197)" fill="#947104"/><rect width="55.259" height="0.257" transform="translate(0 7.711)" fill="#947104"/><rect width="55.259" height="0.257" transform="translate(0 8.225)" fill="#947104"/><rect width="55.259" height="0.257" transform="translate(0 8.739)" fill="#947104"/><rect width="55.259" height="0.257" transform="translate(0 9.253)" fill="#947104"/><rect width="55.259" height="0.257" transform="translate(0 9.767)" fill="#947104"/><rect width="55.259" height="0.257" transform="translate(0 10.281)" fill="#947104"/><rect width="55.259" height="0.257" transform="translate(0 10.795)" fill="#947104"/><rect width="55.259" height="0.257" transform="translate(0 11.309)" fill="#947104"/><rect width="55.259" height="0.257" transform="translate(0 11.823)" fill="#947104"/><rect width="55.259" height="0.257" transform="translate(0 12.337)" fill="#947104"/><rect width="55.259" height="0.257" transform="translate(0 12.851)" fill="#947104"/><rect width="55.259" height="0.257" transform="translate(0 13.365)" fill="#947104"/><rect width="55.259" height="0.257" transform="translate(0 13.879)" fill="#947104"/><rect width="55.259" height="0.257" transform="translate(0 14.393)" fill="#947104"/><rect width="55.259" height="0.257" transform="translate(0 14.907)" fill="#947104"/><rect width="55.259" height="0.257" transform="translate(0 15.421)" fill="#947104"/><rect width="55.259" height="0.257" transform="translate(0 15.935)" fill="#947104"/><rect width="55.259" height="0.257" transform="translate(0 16.449)" fill="#947104"/><rect width="55.259" height="0.257" transform="translate(0 16.963)" fill="#947104"/><rect width="55.259" height="0.257" transform="translate(0 17.477)" fill="#947104"/><rect width="55.259" height="0.257" transform="translate(0 17.991)" fill="#947104"/><rect width="55.259" height="0.257" transform="translate(0 18.505)" fill="#947104"/><rect width="55.259" height="0.257" transform="translate(0 19.019)" fill="#947104"/><rect width="55.259" height="0.257" transform="translate(0 19.533)" fill="#947104"/><rect width="55.259" height="0.257" transform="translate(0 20.047)" fill="#947104"/><rect width="55.259" height="0.257" transform="translate(0 20.562)" fill="#947104"/><rect width="55.259" height="0.257" transform="translate(0 21.076)" fill="#947104"/><rect width="55.259" height="0.257" transform="translate(0 21.59)" fill="#947104"/><rect width="55.259" height="0.257" transform="translate(0 22.104)" fill="#947104"/><rect width="55.259" height="0.257" transform="translate(0 22.618)" fill="#947104"/><rect width="55.259" height="0.257" transform="translate(0 23.132)" fill="#947104"/><rect width="55.259" height="0.257" transform="translate(0 23.646)" fill="#947104"/><rect width="55.259" height="0.257" transform="translate(0 24.16)" fill="#947104"/><rect width="55.259" height="0.257" transform="translate(0 24.674)" fill="#947104"/><rect width="55.259" height="0.257" transform="translate(0 25.188)" fill="#947104"/><rect width="55.259" height="0.257" transform="translate(0 25.702)" fill="#947104"/><rect width="55.259" height="0.257" transform="translate(0 26.216)" fill="#947104"/><rect width="55.259" height="0.257" transform="translate(0 26.73)" fill="#947104"/><rect width="55.259" height="0.257" transform="translate(0 27.244)" fill="#947104"/><rect width="55.259" height="0.257" transform="translate(0 27.758)" fill="#947104"/><rect width="55.259" height="0.257" transform="translate(0 28.272)" fill="#947104"/><rect width="55.259" height="0.257" transform="translate(0 28.786)" fill="#947104"/><rect width="55.259" height="0.257" transform="translate(0 29.3)" fill="#947104"/><rect width="55.259" height="0.257" transform="translate(0 29.814)" fill="#947104"/><rect width="55.259" height="0.257" transform="translate(0 30.328)" fill="#947104"/><rect width="55.259" height="0.257" transform="translate(0 30.842)" fill="#947104"/><rect width="55.259" height="0.257" transform="translate(0 31.356)" fill="#947104"/><rect width="55.259" height="0.257" transform="translate(0 31.87)" fill="#947104"/><rect width="55.259" height="0.257" transform="translate(0 32.384)" fill="#947104"/><rect width="55.259" height="0.257" transform="translate(0 32.898)" fill="#947104"/><rect width="55.259" height="0.257" transform="translate(0 33.412)" fill="#947104"/></g></g></g><g transform="translate(0 0.257)"><path d="M226.041,166.042c5.069,0,6.876,8,6.876,15.485s-1.806,15.485-6.876,15.485-6.875-8-6.875-15.485,1.806-15.485,6.875-15.485m0-1.542c-5.847,0-8.417,7.623-8.417,17.028s2.57,17.027,8.417,17.027,8.418-7.623,8.418-17.027-2.57-17.028-8.418-17.028Z" transform="translate(-200.082 -164.5)" fill="#544000"/><path d="M293.542,166.042c5.069,0,6.875,8,6.875,15.485s-1.806,15.485-6.875,15.485-6.875-8-6.875-15.485,1.806-15.485,6.875-15.485m0-1.542c-5.847,0-8.417,7.623-8.417,17.028s2.57,17.027,8.417,17.027,8.417-7.623,8.417-17.027-2.57-17.028-8.417-17.028Z" transform="translate(-250.234 -164.5)" fill="#544000"/><path d="M164.137,169.8c-.11.634-.247,1.363-.383,1.91a5.192,5.192,0,0,1-2.573,1.617h-4.74a5.372,5.372,0,0,0-4.522,2.049l.17-5.468c2.947-.027,9.48-.087,12.047-.107m-5.316,8.668a5.854,5.854,0,0,1,5.46,5.139v10.024c0,2.239-1.837,4.746-4.548,5.9a3.981,3.981,0,0,0,.745-1.787l.013-.1V183.7c.009-1.524-.134-3.705-1.47-5.048q-.1-.1-.2-.186m-5.528,12.785c.964.064,1.735.578,1.735,2.313a2.475,2.475,0,0,1-1.493,2.342l-1.08.351.07,1.188a3.892,3.892,0,0,0,.183.949,7.811,7.811,0,0,1-1.792-4.51c0-1.674.867-2.634,2.377-2.634m11.887-23c-.643,0-14.586.129-14.586.129l-.514,16.513h2.12l.45-3.341a4.729,4.729,0,0,1,3.855-2.377c2.57,0,2.442,3.855,2.442,4.626V197.55a2.381,2.381,0,0,1-2.506,1.992,2.316,2.316,0,0,1-2.377-2.185,4.035,4.035,0,0,0,2.506-3.791c0-2.249-.964-3.855-3.277-3.855s-3.92,1.606-3.92,4.177,2.056,7.839,7.2,7.839,9.253-4.177,9.253-8.1V183.607a7.4,7.4,0,0,0-7.132-6.683c-4.369,0-6.168,2.442-6.168,2.442s.193-1.478.321-2.313,1.157-2.185,3.6-2.185H161.2c1.028,0,3.727-1.478,4.048-2.763s.643-3.47.643-3.47-.064-.386-.707-.386Z" transform="translate(-149.374 -167.286)" fill="#544000"/></g><path d="M226.041,165.042c5.069,0,6.876,8,6.876,15.485s-1.806,15.485-6.876,15.485-6.875-8-6.875-15.485,1.806-15.485,6.875-15.485m0-1.542c-5.847,0-8.417,7.623-8.417,17.027s2.57,17.028,8.417,17.028,8.418-7.623,8.418-17.028-2.57-17.027-8.418-17.027Z" transform="translate(-200.082 -163.5)" fill="#a08514"/><path d="M293.542,165.042c5.069,0,6.875,8,6.875,15.485s-1.806,15.485-6.875,15.485-6.875-8-6.875-15.485,1.806-15.485,6.875-15.485m0-1.542c-5.847,0-8.417,7.623-8.417,17.027s2.57,17.028,8.417,17.028,8.417-7.623,8.417-17.028-2.57-17.027-8.417-17.027Z" transform="translate(-250.234 -163.5)" fill="#a08514"/><path d="M164.137,168.8c-.11.634-.247,1.363-.383,1.91a5.192,5.192,0,0,1-2.573,1.617h-4.74a5.372,5.372,0,0,0-4.522,2.049l.17-5.468c2.947-.027,9.48-.087,12.047-.107m-5.316,8.668a5.854,5.854,0,0,1,5.46,5.139v10.024c0,2.239-1.837,4.746-4.548,5.9a3.981,3.981,0,0,0,.745-1.787l.013-.1V182.7c.009-1.524-.134-3.705-1.47-5.048q-.1-.1-.2-.186m-5.528,12.785c.964.064,1.735.578,1.735,2.313a2.475,2.475,0,0,1-1.493,2.342l-1.08.351.07,1.188a3.892,3.892,0,0,0,.183.949,7.811,7.811,0,0,1-1.792-4.51c0-1.674.867-2.634,2.377-2.634m11.887-23c-.643,0-14.586.129-14.586.129l-.514,16.513h2.12l.45-3.341a4.729,4.729,0,0,1,3.855-2.377c2.57,0,2.442,3.855,2.442,4.626V196.55a2.381,2.381,0,0,1-2.506,1.992,2.316,2.316,0,0,1-2.377-2.185,4.035,4.035,0,0,0,2.506-3.791c0-2.249-.964-3.855-3.277-3.855s-3.92,1.606-3.92,4.177,2.056,7.839,7.2,7.839,9.253-4.177,9.253-8.1V182.607a7.4,7.4,0,0,0-7.132-6.683c-4.369,0-6.168,2.442-6.168,2.442s.193-1.478.321-2.313,1.157-2.185,3.6-2.185H161.2c1.028,0,3.727-1.478,4.048-2.763s.643-3.47.643-3.47-.064-.386-.707-.386Z" transform="translate(-149.374 -166.286)" fill="#a08514"/></g></g></svg>