<svg xmlns="http://www.w3.org/2000/svg" width="90" height="90" viewBox="0 0 90 90">
  <g id="Group_192" data-name="Group 192" transform="translate(764 7)">
    <path id="Path_705" data-name="Path 705" d="M-719-5.134A43.183,43.183,0,0,0-762.135,38,43.182,43.182,0,0,0-719,81.134,43.183,43.183,0,0,0-675.865,38,43.184,43.184,0,0,0-719-5.134Zm32.729,30.651a.932.932,0,0,1-1.219-.505A34.036,34.036,0,0,0-719,3.912,34.127,34.127,0,0,0-753.088,38,34.126,34.126,0,0,0-719,72.087a34.036,34.036,0,0,0,31.51-21.1.933.933,0,0,1,1.219-.5.933.933,0,0,1,.5,1.219A35.9,35.9,0,0,1-719,73.953,35.993,35.993,0,0,1-754.953,38,35.994,35.994,0,0,1-719,2.046,35.9,35.9,0,0,1-685.767,24.3.933.933,0,0,1-686.271,25.517Z" fill="#dedede"/>
    <path id="Path_706" data-name="Path 706" d="M-719-7a45.051,45.051,0,0,0-45,45,45.051,45.051,0,0,0,45,45,45.051,45.051,0,0,0,45-45A45.051,45.051,0,0,0-719-7Zm0,88.134A43.182,43.182,0,0,1-762.135,38,43.183,43.183,0,0,1-719-5.134,43.184,43.184,0,0,1-675.865,38,43.183,43.183,0,0,1-719,81.134Z" fill="#6c6c6c"/>
    <path id="Path_707" data-name="Path 707" d="M-719,2.046A35.994,35.994,0,0,0-754.953,38,35.993,35.993,0,0,0-719,73.953,35.9,35.9,0,0,0-685.767,51.7a.933.933,0,0,0-.5-1.219.933.933,0,0,0-1.219.5A34.036,34.036,0,0,1-719,72.087,34.126,34.126,0,0,1-753.088,38,34.127,34.127,0,0,1-719,3.912a34.036,34.036,0,0,1,31.51,21.1.932.932,0,0,0,1.219.505.933.933,0,0,0,.5-1.219A35.9,35.9,0,0,0-719,2.046Z" fill="#6c6c6c"/>
    <g id="Group_191" data-name="Group 191">
      <path id="Path_708" data-name="Path 708" d="M-740.6,26.676V24.713l7.985-3.8V50.24l1.963-.916v1.7l-9.032,4.451V53.643l1.964-1.178V25.59Z" fill="#6c6c6c"/>
      <path id="Path_709" data-name="Path 709" d="M-723.451,56s-4.844-1.833-4.844-8.379V24.844L-718.87,20s4.189,2.88,4.189,9.949V51.942Zm4.189-10.473c0-2.618-.132-8.247-.132-13.745s-1.177-7.724-2.355-7.724-1.7,1.964-1.7,3.666.131,14.006.131,18.2,1.44,5.891,2.225,5.891C-719.131,51.811-719.262,48.145-719.262,45.527Z" fill="#6c6c6c"/>
      <path id="Path_710" data-name="Path 710" d="M-706.171,56s-4.844-1.833-4.844-8.379V24.844L-701.589,20s4.189,2.88,4.189,9.949V51.942Zm4.189-10.473c0-2.618-.131-8.247-.131-13.745s-1.179-7.724-2.357-7.724-1.7,1.964-1.7,3.666.131,14.006.131,18.2,1.439,5.891,2.225,5.891C-701.852,51.811-701.982,48.145-701.982,45.527Z" fill="#6c6c6c"/>
    </g>
  </g>
</svg>
