<svg xmlns="http://www.w3.org/2000/svg" width="90" height="90" viewBox="0 0 90 90">
  <g id="Group_188" data-name="Group 188" transform="translate(-156 7)">
    <path id="Path_693" data-name="Path 693" d="M201-5.134A43.134,43.134,0,1,0,244.135,38,43.183,43.183,0,0,0,201-5.134Zm32.729,30.651a.932.932,0,0,1-1.219-.505,34.087,34.087,0,1,0,0,25.976.933.933,0,1,1,1.723.714,35.954,35.954,0,1,1,0-27.4A.933.933,0,0,1,233.729,25.517Z" fill="#f2f2f2"/>
    <path id="Path_694" data-name="Path 694" d="M201-7a45,45,0,1,0,45,45A45.051,45.051,0,0,0,201-7Zm0,88.134A43.134,43.134,0,1,1,244.135,38,43.182,43.182,0,0,1,201,81.134Z" fill="#6c6c6c"/>
    <path id="Path_695" data-name="Path 695" d="M201,2.046A35.954,35.954,0,1,0,234.233,51.7a.933.933,0,1,0-1.723-.714,34.088,34.088,0,1,1,0-25.976.933.933,0,1,0,1.723-.714A35.9,35.9,0,0,0,201,2.046Z" fill="#6c6c6c"/>
    <path id="Path_696" data-name="Path 696" d="M192.177,22.683S195,21.694,196.13,20h9.882V48.235c0,1.836.847,4.094,3.811,4.094V56H192.317V52.611a3.914,3.914,0,0,0,3.672-4.235V25.788l-3.812.706Z" fill="#6c6c6c"/>
  </g>
</svg>
