<svg xmlns="http://www.w3.org/2000/svg" width="91.829" height="90" viewBox="0 0 91.829 90">
  <g id="Group_185" data-name="Group 185" transform="translate(-546.892 -151.615)">
    <g id="Group_184" data-name="Group 184">
      <path id="Path_683" data-name="Path 683" d="M574.184,173.315a19.608,19.608,0,0,1,9.5,8.243,19.7,19.7,0,0,1,21.58,1.68,17.749,17.749,0,0,0,4.517-11.868c0-.3-.008-.609-.023-.91,0-.043-.007-.085-.01-.128-.015-.262-.033-.524-.059-.783l0-.02a17.88,17.88,0,0,0-16.747-15.981l-.1-.007q-.453-.022-.912-.023a17.749,17.749,0,0,0-9.909,3.01c-.021.015-.044.028-.066.043-.046.031-.091.066-.137.1a17.846,17.846,0,0,0-7.74,14.7c0,.087,0,.173,0,.259C574.09,172.191,574.123,172.755,574.184,173.315Z" fill="#95efe7"/>
      <path id="Path_684" data-name="Path 684" d="M575.292,207.2a19.723,19.723,0,0,1,6.772-24.639,17.852,17.852,0,0,0-32.385,3.5l0,0A17.849,17.849,0,0,0,575.292,207.2Z" fill="#95efe7"/>
      <path id="Path_685" data-name="Path 685" d="M595.588,218.471a19.676,19.676,0,0,1-19.408-9.59,19.649,19.649,0,0,1-12.375,2.24c-.061.081-.125.159-.184.241a17.872,17.872,0,0,0,3.95,24.936h0a17.849,17.849,0,0,0,28.016-17.828Z" fill="#95efe7"/>
      <path id="Path_686" data-name="Path 686" d="M575.346,198.865A17.853,17.853,0,1,0,593.2,181.013,17.873,17.873,0,0,0,575.346,198.865Z" fill="#95efe7"/>
      <path id="Path_687" data-name="Path 687" d="M623.6,208.362a19.569,19.569,0,0,1-12.532-1.09,19.826,19.826,0,0,1-13.606,10.88,19.73,19.73,0,0,1-1.694,12.457c.058.082.113.166.172.248a17.853,17.853,0,0,0,24.935,3.949l0,0a17.868,17.868,0,0,0,2.722-26.441Z" fill="#95efe7"/>
      <path id="Path_688" data-name="Path 688" d="M635.935,183.649v0a17.852,17.852,0,0,0-22.495-11.461,18.165,18.165,0,0,0-1.817.7,19.608,19.608,0,0,1-4.909,11.589,19.717,19.717,0,0,1,5.087,21.043,17.851,17.851,0,0,0,24.135-21.868Z" fill="#95efe7"/>
    </g>
    <path id="Path_689" data-name="Path 689" d="M637.744,183.055a19.755,19.755,0,0,0-24.893-12.681c-.4.128-.791.272-1.18.426,0-.146,0-.292-.011-.437,0-.048-.008-.1-.011-.143-.016-.289-.037-.577-.066-.864l0-.036a19.753,19.753,0,0,0-18.532-17.672l-.108-.008c-.335-.017-.67-.025-1.008-.025h0a19.635,19.635,0,0,0-10.945,3.319l-.092.059c-.068.046-.133.1-.2.143a19.744,19.744,0,0,0-8.518,16.234h0c0,.084,0,.168.005.251q.006.5.037,1a19.753,19.753,0,0,0-11.664,37.74c.4.13.8.243,1.206.346a19.749,19.749,0,0,0,4.694,27.128h0a19.61,19.61,0,0,0,11.568,3.776,19.994,19.994,0,0,0,3.133-.248,19.628,19.628,0,0,0,12.892-7.9c.247-.34.478-.688.7-1.041a19.606,19.606,0,0,0,12.547,7.449,19.979,19.979,0,0,0,3.132.248,19.611,19.611,0,0,0,11.567-3.775l0,0a19.756,19.756,0,0,0,4.371-27.594c-.245-.338-.5-.669-.77-.991a19.744,19.744,0,0,0,12.145-24.7Zm-55.926-26.387c.046-.031.091-.066.137-.1.022-.015.045-.028.066-.043a17.749,17.749,0,0,1,9.909-3.01q.459,0,.912.023l.1.007a17.88,17.88,0,0,1,16.747,15.981l0,.02c.026.259.044.521.059.783,0,.043.008.085.01.128.015.3.023.6.023.91a17.749,17.749,0,0,1-4.517,11.868,19.7,19.7,0,0,0-21.58-1.68,19.608,19.608,0,0,0-9.5-8.243c-.061-.56-.094-1.124-.1-1.686,0-.086,0-.172,0-.259A17.846,17.846,0,0,1,581.818,156.668Zm29.234,42.2A17.853,17.853,0,1,1,593.2,181.013,17.873,17.873,0,0,1,611.052,198.865Zm-49.912,9.688a17.853,17.853,0,0,1-11.463-22.491l0,0a17.853,17.853,0,0,1,32.385-3.5,19.723,19.723,0,0,0-6.772,24.639A17.827,17.827,0,0,1,561.14,208.553Zm31.366,23.8a17.852,17.852,0,0,1-24.934,3.951h0a17.872,17.872,0,0,1-3.95-24.936c.059-.082.123-.16.184-.241a19.649,19.649,0,0,0,12.375-2.24,19.676,19.676,0,0,0,19.408,9.59A17.825,17.825,0,0,1,592.506,232.348Zm35.512-9.192a17.732,17.732,0,0,1-7.136,11.647l0,0a17.853,17.853,0,0,1-24.935-3.949c-.059-.082-.114-.166-.172-.248a19.73,19.73,0,0,0,1.694-12.457,19.826,19.826,0,0,0,13.606-10.88,19.569,19.569,0,0,0,12.532,1.09,17.888,17.888,0,0,1,4.414,14.794Zm6.845-25.89a17.854,17.854,0,0,1-23.063,8.251,19.717,19.717,0,0,0-5.087-21.043,19.608,19.608,0,0,0,4.909-11.589,18.165,18.165,0,0,1,1.817-.7,17.852,17.852,0,0,1,22.495,11.461v0A17.731,17.731,0,0,1,634.863,197.266Z" fill="#6c6c6c"/>
  </g>
</svg>
