<svg xmlns="http://www.w3.org/2000/svg" width="24.231" height="25.756" viewBox="0 0 24.231 25.756"><g transform="translate(-573.464 327.992)"><path d="M597.694-322.392c-.018-3.141-5.332-5.6-12.115-5.6s-12.1,2.459-12.114,5.6h0v5.676a.263.263,0,0,0,.078.187c2.633,2.574,7.38,3.862,12.1,3.862s9.43-1.289,11.973-3.865a.263.263,0,0,0,.076-.184v-5.66h0v-.015Zm-12.115-5.071c6.388,0,11.586,2.282,11.586,5.087s-5.2,5.085-11.586,5.085-11.585-2.281-11.585-5.085S579.19-327.462,585.579-327.462Zm11.591,9.526v1.111c-2.317,2.284-6.586,3.639-11.469,3.639h-.113c-4.824-.021-9.254-1.414-11.6-3.642v-3.88c1.5,2.31,6.055,3.948,11.59,3.948s10.092-1.638,11.591-3.948Z" fill="#6c6c6c"/><g transform="translate(573.989 -327.462)"><path d="M585.666-317.2c6.388,0,11.586-2.281,11.586-5.085s-5.2-5.087-11.586-5.087-11.585,2.282-11.585,5.087S579.278-317.2,585.666-317.2Z" transform="translate(-574.076 327.375)" fill="#f4d3b3"/><path d="M585.665-315.559c-5.535,0-10.091-1.638-11.59-3.948v3.88c2.346,2.228,6.776,3.621,11.6,3.642h.113c4.883,0,9.151-1.356,11.469-3.639v-3.882C595.758-317.2,591.2-315.559,585.665-315.559Z" transform="translate(-574.075 326.262)" fill="#f4d3b3"/></g><path d="M593.055-304.437a22.965,22.965,0,0,1-7.322,1.136,23.336,23.336,0,0,1-7.362-1.136,13.094,13.094,0,0,1-4.3-2.321v3.467c2.346,2.228,6.776,3.621,11.6,3.642h.112c4.883,0,9.151-1.356,11.469-3.64v-3.457A12.535,12.535,0,0,1,593.055-304.437Z" transform="translate(-0.086 -3.004)" fill="#f4a8b2"/><path d="M593.055-310.22a22.964,22.964,0,0,1-7.322,1.136,23.335,23.335,0,0,1-7.362-1.136,13.094,13.094,0,0,1-4.3-2.321v3.467c2.346,2.228,6.776,3.621,11.6,3.642h.112c4.883,0,9.151-1.356,11.469-3.64v-3.457A12.534,12.534,0,0,1,593.055-310.22Z" transform="translate(-0.086 -2.186)" fill="#abd4ef"/><path d="M585.647-305.082c-4.725,0-9.471-1.288-12.1-3.862a.265.265,0,0,1-.078-.187v-3.456a.262.262,0,0,1,.262-.262.263.263,0,0,1,.263.262v3.344c2.346,2.228,6.776,3.621,11.6,3.642h.112c4.883,0,9.151-1.355,11.469-3.639v-3.347a.262.262,0,0,1,.262-.262.263.263,0,0,1,.263.262v3.456a.263.263,0,0,1-.076.184c-2.542,2.576-7.246,3.865-11.973,3.865Z" transform="translate(0 -2.142)" fill="#6c6c6c"/><path d="M585.647-299.271c-4.725,0-9.471-1.287-12.1-3.862a.263.263,0,0,1-.078-.187v-3.455a.261.261,0,0,1,.262-.262.262.262,0,0,1,.263.262v3.343c2.346,2.229,6.776,3.622,11.6,3.642h.112c4.883,0,9.151-1.356,11.469-3.639v-3.347a.262.262,0,0,1,.262-.262.262.262,0,0,1,.263.262v3.455a.263.263,0,0,1-.076.184c-2.542,2.576-7.246,3.865-11.973,3.865Z" transform="translate(0 -2.964)" fill="#6c6c6c"/></g></svg>