<svg xmlns="http://www.w3.org/2000/svg" width="279.393" height="162.193" viewBox="0 0 279.393 162.193">
  <g id="Group_360" data-name="Group 360" transform="translate(-32.701 -27.553)">
    <g id="Group_341" data-name="Group 341" opacity="0.6">
      <path id="Path_1399" data-name="Path 1399" d="M303.98,27.553H38.453A5.836,5.836,0,0,0,32.7,33.438V183.189c.04,6.539,2.993,7.469,5.752,5.885,65.5-37.6,197.787-112.8,271.278-155.636C312.48,31.836,315,27.553,303.98,27.553ZM181.307,66.135c-32.106,18.947-83.046,47.55-111.754,64.03-1.209.694-3.034.286-3.051-2.58l.387-63.56c0-1.419,1.665-2.58,3.052-2.58l107.421-.188C184.31,60.93,184.822,64.061,181.307,66.135Z" fill="#bde6f4" opacity="0.73"/>
    </g>
    <g id="Group_359" data-name="Group 359">
      <g id="Group_342" data-name="Group 342" transform="translate(0 -2)">
        <path id="Path_1400" data-name="Path 1400" d="M44.626,41.663c0,1.921-.791,2.981-2.181,2.981-1.225,0-2.056-1.034-2.075-2.9,0-1.9.907-2.938,2.181-2.938C43.873,38.8,44.626,39.864,44.626,41.663Zm-3.406.087c0,1.469.5,2.3,1.273,2.3.869,0,1.284-.912,1.284-2.355,0-1.391-.4-2.3-1.274-2.3C41.76,39.394,41.22,40.211,41.22,41.75Z"/>
        <path id="Path_1401" data-name="Path 1401" d="M59.695,39.611h-.019l-1.091.531-.164-.583,1.371-.66h.724v5.65h-.821Z"/>
        <path id="Path_1402" data-name="Path 1402" d="M75.921,44.549V44.08l.666-.583c1.6-1.373,2.326-2.1,2.336-2.955,0-.574-.309-1.1-1.245-1.1a2.264,2.264,0,0,0-1.332.478l-.27-.539a2.942,2.942,0,0,1,1.776-.574,1.685,1.685,0,0,1,1.92,1.643c0,1.043-.839,1.886-2.162,3.034l-.5.417v.017h2.818v.635Z"/>
        <path id="Path_1403" data-name="Path 1403" d="M93.7,43.671a3.079,3.079,0,0,0,1.39.356c1.091,0,1.428-.626,1.419-1.1-.01-.791-.8-1.13-1.622-1.13h-.472v-.574h.472c.618,0,1.4-.286,1.4-.956,0-.452-.319-.852-1.1-.852a2.474,2.474,0,0,0-1.255.374l-.222-.556a3.212,3.212,0,0,1,1.641-.435c1.235,0,1.8.661,1.8,1.347a1.435,1.435,0,0,1-1.159,1.33V41.5a1.532,1.532,0,0,1,1.4,1.451c0,.9-.782,1.695-2.287,1.695a3.466,3.466,0,0,1-1.631-.382Z"/>
        <path id="Path_1404" data-name="Path 1404" d="M113.275,44.549V43.01h-2.914v-.5l2.8-3.607h.916v3.512h.878v.6h-.878v1.539Zm0-2.138V40.524c0-.295.01-.591.029-.886h-.029c-.193.33-.347.573-.521.834l-1.534,1.921v.018Z"/>
        <path id="Path_1405" data-name="Path 1405" d="M132.709,39.542h-2.393l-.241,1.452a3.594,3.594,0,0,1,.511-.035,2.891,2.891,0,0,1,1.351.3,1.59,1.59,0,0,1,.9,1.452,2.094,2.094,0,0,1-2.336,1.929,3.335,3.335,0,0,1-1.563-.347l.212-.583a3.053,3.053,0,0,0,1.342.313,1.334,1.334,0,0,0,1.486-1.225c-.01-.73-.55-1.252-1.8-1.252a7.183,7.183,0,0,0-.868.061l.4-2.712h3Z"/>
        <path id="Path_1406" data-name="Path 1406" d="M149.818,39.438a3.355,3.355,0,0,0-.637.035A2.418,2.418,0,0,0,147,41.48h.029a1.948,1.948,0,0,1,1.515-.652,1.765,1.765,0,0,1,1.891,1.826,1.985,1.985,0,0,1-2.084,1.99,2.174,2.174,0,0,1-2.22-2.408,3.364,3.364,0,0,1,1.062-2.546,3.588,3.588,0,0,1,2.007-.835,4.469,4.469,0,0,1,.618-.043Zm-.241,3.259a1.2,1.2,0,0,0-1.293-1.295,1.417,1.417,0,0,0-1.216.695.594.594,0,0,0-.1.339c.019.931.492,1.617,1.38,1.617A1.228,1.228,0,0,0,149.577,42.7Z"/>
        <path id="Path_1407" data-name="Path 1407" d="M168.748,38.9v.5l-2.731,5.146h-.879l2.722-5v-.018h-3.069V38.9Z"/>
        <path id="Path_1408" data-name="Path 1408" d="M181.421,43.114a1.641,1.641,0,0,1,1.244-1.512l-.009-.026a1.409,1.409,0,0,1-.994-1.269c0-.9.839-1.5,1.939-1.5,1.217,0,1.824.687,1.824,1.391a1.442,1.442,0,0,1-1.032,1.321v.026A1.6,1.6,0,0,1,185.657,43c0,.982-.936,1.642-2.133,1.642C182.212,44.644,181.421,43.94,181.421,43.114Zm3.377-.034c0-.687-.531-1.017-1.38-1.235-.734.192-1.129.626-1.129,1.165-.029.574.454,1.078,1.255,1.078C184.306,44.088,184.8,43.662,184.8,43.08Zm-2.335-2.825c0,.565.473.869,1.2,1.043.541-.165.956-.513.956-1.026a.929.929,0,0,0-1.062-.921C182.849,39.351,182.463,39.768,182.463,40.255Z"/>
        <path id="Path_1409" data-name="Path 1409" d="M200.386,43.979a3.971,3.971,0,0,0,.685-.026,2.489,2.489,0,0,0,1.313-.547,2.408,2.408,0,0,0,.83-1.5h-.029a1.931,1.931,0,0,1-1.477.608,1.726,1.726,0,0,1-1.853-1.73A2.041,2.041,0,0,1,202,38.772c1.283,0,2.075.939,2.075,2.382a3.385,3.385,0,0,1-1.081,2.651,3.305,3.305,0,0,1-1.824.757,4.4,4.4,0,0,1-.782.043Zm.309-3.251a1.14,1.14,0,0,0,1.206,1.2,1.446,1.446,0,0,0,1.235-.591.464.464,0,0,0,.078-.278c0-.965-.4-1.7-1.284-1.7A1.259,1.259,0,0,0,200.7,40.728Z"/>
        <path id="Path_1410" data-name="Path 1410" d="M216.987,39.611h-.019l-1.091.531-.164-.583,1.37-.66h.724v5.65h-.82Z"/>
        <path id="Path_1411" data-name="Path 1411" d="M224.266,41.663c0,1.921-.792,2.981-2.181,2.981-1.226,0-2.056-1.034-2.075-2.9,0-1.9.907-2.938,2.181-2.938C223.513,38.8,224.266,39.864,224.266,41.663Zm-3.407.087c0,1.469.5,2.3,1.274,2.3.869,0,1.284-.912,1.284-2.355,0-1.391-.4-2.3-1.274-2.3C221.4,39.394,220.859,40.211,220.859,41.75Z"/>
        <path id="Path_1412" data-name="Path 1412" d="M234.921,39.611H234.9l-1.091.531-.163-.583,1.37-.66h.724v5.65h-.821Z"/>
        <path id="Path_1413" data-name="Path 1413" d="M239.875,39.611h-.02l-1.09.531-.165-.583,1.371-.66h.724v5.65h-.82Z"/>
        <path id="Path_1414" data-name="Path 1414" d="M254.006,39.611h-.019l-1.091.531-.164-.583,1.37-.66h.724v5.65h-.82Z"/>
        <path id="Path_1415" data-name="Path 1415" d="M257.116,44.549V44.08l.666-.583c1.6-1.373,2.326-2.1,2.335-2.955,0-.574-.309-1.1-1.245-1.1a2.264,2.264,0,0,0-1.332.478l-.27-.539a2.945,2.945,0,0,1,1.776-.574,1.685,1.685,0,0,1,1.92,1.643c0,1.043-.839,1.886-2.161,3.034l-.5.417v.017h2.818v.635Z"/>
        <path id="Path_1416" data-name="Path 1416" d="M272.192,39.611h-.019l-1.091.531-.164-.583,1.37-.66h.724v5.65h-.82Z"/>
        <path id="Path_1417" data-name="Path 1417" d="M275.505,43.671a3.07,3.07,0,0,0,1.389.356c1.091,0,1.428-.626,1.419-1.1-.01-.791-.8-1.13-1.621-1.13h-.473v-.574h.473c.617,0,1.4-.286,1.4-.956,0-.452-.319-.852-1.1-.852a2.474,2.474,0,0,0-1.255.374l-.222-.556a3.212,3.212,0,0,1,1.641-.435c1.235,0,1.8.661,1.8,1.347a1.434,1.434,0,0,1-1.158,1.33V41.5a1.532,1.532,0,0,1,1.4,1.451c0,.9-.782,1.695-2.287,1.695a3.469,3.469,0,0,1-1.631-.382Z"/>
      </g>
      <g id="Group_358" data-name="Group 358">
        <g id="Group_343" data-name="Group 343">
          <path id="Path_1418" data-name="Path 1418" d="M41.719,28.329h.667v7.564h-.667Z"/>
          <path id="Path_1419" data-name="Path 1419" d="M43.508,28.329h.666v4.177h-.666Z"/>
          <path id="Path_1420" data-name="Path 1420" d="M45.3,28.329h.667v4.177H45.3Z"/>
          <path id="Path_1421" data-name="Path 1421" d="M47.085,28.329h.666v4.177h-.666Z"/>
          <path id="Path_1422" data-name="Path 1422" d="M48.873,28.329h.667v4.177h-.667Z"/>
          <path id="Path_1423" data-name="Path 1423" d="M50.662,28.329h.667v6.246h-.667Z"/>
          <path id="Path_1424" data-name="Path 1424" d="M52.45,28.329h.667v4.177H52.45Z"/>
          <path id="Path_1425" data-name="Path 1425" d="M54.239,28.329h.667v4.177h-.667Z"/>
          <path id="Path_1426" data-name="Path 1426" d="M56.028,28.329h.666v4.177h-.666Z"/>
          <path id="Path_1427" data-name="Path 1427" d="M57.816,28.329h.667v4.177h-.667Z"/>
        </g>
        <g id="Group_344" data-name="Group 344">
          <path id="Path_1428" data-name="Path 1428" d="M59.584,28.329h.667v7.564h-.667Z"/>
          <path id="Path_1429" data-name="Path 1429" d="M61.373,28.329h.667v4.177h-.667Z"/>
          <path id="Path_1430" data-name="Path 1430" d="M63.162,28.329h.666v4.177h-.666Z"/>
          <path id="Path_1431" data-name="Path 1431" d="M64.95,28.329h.667v4.177H64.95Z"/>
          <path id="Path_1432" data-name="Path 1432" d="M66.739,28.329H67.4v4.177h-.666Z"/>
          <path id="Path_1433" data-name="Path 1433" d="M68.527,28.329h.667v6.246h-.667Z"/>
          <path id="Path_1434" data-name="Path 1434" d="M70.316,28.329h.666v4.177h-.666Z"/>
          <path id="Path_1435" data-name="Path 1435" d="M72.1,28.329h.667v4.177H72.1Z"/>
          <path id="Path_1436" data-name="Path 1436" d="M73.893,28.329h.667v4.177h-.667Z"/>
          <path id="Path_1437" data-name="Path 1437" d="M75.682,28.329h.666v4.177h-.666Z"/>
        </g>
        <g id="Group_345" data-name="Group 345">
          <path id="Path_1438" data-name="Path 1438" d="M77.45,28.329h.666v7.564H77.45Z"/>
          <path id="Path_1439" data-name="Path 1439" d="M79.238,28.329H79.9v4.177h-.667Z"/>
          <path id="Path_1440" data-name="Path 1440" d="M81.027,28.329h.667v4.177h-.667Z"/>
          <path id="Path_1441" data-name="Path 1441" d="M82.815,28.329h.667v4.177h-.667Z"/>
          <path id="Path_1442" data-name="Path 1442" d="M84.6,28.329h.667v4.177H84.6Z"/>
          <path id="Path_1443" data-name="Path 1443" d="M86.392,28.329h.667v6.246h-.667Z"/>
          <path id="Path_1444" data-name="Path 1444" d="M88.181,28.329h.667v4.177h-.667Z"/>
          <path id="Path_1445" data-name="Path 1445" d="M89.97,28.329h.666v4.177H89.97Z"/>
          <path id="Path_1446" data-name="Path 1446" d="M91.758,28.329h.667v4.177h-.667Z"/>
          <path id="Path_1447" data-name="Path 1447" d="M93.547,28.329h.667v4.177h-.667Z"/>
        </g>
        <g id="Group_346" data-name="Group 346">
          <path id="Path_1448" data-name="Path 1448" d="M95.315,28.329h.667v7.564h-.667Z"/>
          <path id="Path_1449" data-name="Path 1449" d="M97.1,28.329h.666v4.177H97.1Z"/>
          <path id="Path_1450" data-name="Path 1450" d="M98.892,28.329h.667v4.177h-.667Z"/>
          <path id="Path_1451" data-name="Path 1451" d="M100.68,28.329h.667v4.177h-.667Z"/>
          <path id="Path_1452" data-name="Path 1452" d="M102.469,28.329h.667v4.177h-.667Z"/>
          <path id="Path_1453" data-name="Path 1453" d="M104.258,28.329h.667v6.246h-.667Z"/>
          <path id="Path_1454" data-name="Path 1454" d="M106.046,28.329h.667v4.177h-.667Z"/>
          <path id="Path_1455" data-name="Path 1455" d="M107.835,28.329h.667v4.177h-.667Z"/>
          <path id="Path_1456" data-name="Path 1456" d="M109.623,28.329h.667v4.177h-.667Z"/>
          <path id="Path_1457" data-name="Path 1457" d="M111.412,28.329h.667v4.177h-.667Z"/>
        </g>
        <g id="Group_347" data-name="Group 347">
          <path id="Path_1458" data-name="Path 1458" d="M113.18,28.329h.667v7.564h-.667Z"/>
          <path id="Path_1459" data-name="Path 1459" d="M114.969,28.329h.666v4.177h-.666Z"/>
          <path id="Path_1460" data-name="Path 1460" d="M116.757,28.329h.667v4.177h-.667Z"/>
          <path id="Path_1461" data-name="Path 1461" d="M118.546,28.329h.666v4.177h-.666Z"/>
          <path id="Path_1462" data-name="Path 1462" d="M120.334,28.329H121v4.177h-.667Z"/>
          <path id="Path_1463" data-name="Path 1463" d="M122.123,28.329h.667v6.246h-.667Z"/>
          <path id="Path_1464" data-name="Path 1464" d="M123.911,28.329h.667v4.177h-.667Z"/>
          <path id="Path_1465" data-name="Path 1465" d="M125.7,28.329h.667v4.177H125.7Z"/>
          <path id="Path_1466" data-name="Path 1466" d="M127.489,28.329h.666v4.177h-.666Z"/>
          <path id="Path_1467" data-name="Path 1467" d="M129.277,28.329h.667v4.177h-.667Z"/>
        </g>
        <g id="Group_348" data-name="Group 348">
          <path id="Path_1468" data-name="Path 1468" d="M131.045,28.329h.667v7.564h-.667Z"/>
          <path id="Path_1469" data-name="Path 1469" d="M132.834,28.329h.667v4.177h-.667Z"/>
          <path id="Path_1470" data-name="Path 1470" d="M134.623,28.329h.666v4.177h-.666Z"/>
          <path id="Path_1471" data-name="Path 1471" d="M136.411,28.329h.667v4.177h-.667Z"/>
          <path id="Path_1472" data-name="Path 1472" d="M138.2,28.329h.666v4.177H138.2Z"/>
          <path id="Path_1473" data-name="Path 1473" d="M139.988,28.329h.667v6.246h-.667Z"/>
          <path id="Path_1474" data-name="Path 1474" d="M141.777,28.329h.666v4.177h-.666Z"/>
          <path id="Path_1475" data-name="Path 1475" d="M143.565,28.329h.667v4.177h-.667Z"/>
          <path id="Path_1476" data-name="Path 1476" d="M145.354,28.329h.667v4.177h-.667Z"/>
          <path id="Path_1477" data-name="Path 1477" d="M147.143,28.329h.666v4.177h-.666Z"/>
        </g>
        <g id="Group_349" data-name="Group 349">
          <path id="Path_1478" data-name="Path 1478" d="M148.911,28.329h.666v7.564h-.666Z"/>
          <path id="Path_1479" data-name="Path 1479" d="M150.7,28.329h.667v4.177H150.7Z"/>
          <path id="Path_1480" data-name="Path 1480" d="M152.488,28.329h.667v4.177h-.667Z"/>
          <path id="Path_1481" data-name="Path 1481" d="M154.276,28.329h.667v4.177h-.667Z"/>
          <path id="Path_1482" data-name="Path 1482" d="M156.065,28.329h.667v4.177h-.667Z"/>
          <path id="Path_1483" data-name="Path 1483" d="M157.854,28.329h.666v6.246h-.666Z"/>
          <path id="Path_1484" data-name="Path 1484" d="M159.642,28.329h.667v4.177h-.667Z"/>
          <path id="Path_1485" data-name="Path 1485" d="M161.431,28.329h.666v4.177h-.666Z"/>
          <path id="Path_1486" data-name="Path 1486" d="M163.219,28.329h.667v4.177h-.667Z"/>
          <path id="Path_1487" data-name="Path 1487" d="M165.008,28.329h.667v4.177h-.667Z"/>
        </g>
        <g id="Group_350" data-name="Group 350">
          <path id="Path_1488" data-name="Path 1488" d="M166.776,28.329h.667v7.564h-.667Z"/>
          <path id="Path_1489" data-name="Path 1489" d="M168.565,28.329h.666v4.177h-.666Z"/>
          <path id="Path_1490" data-name="Path 1490" d="M170.353,28.329h.667v4.177h-.667Z"/>
          <path id="Path_1491" data-name="Path 1491" d="M172.142,28.329h.666v4.177h-.666Z"/>
          <path id="Path_1492" data-name="Path 1492" d="M173.93,28.329h.667v4.177h-.667Z"/>
          <path id="Path_1493" data-name="Path 1493" d="M175.719,28.329h.667v6.246h-.667Z"/>
          <path id="Path_1494" data-name="Path 1494" d="M177.507,28.329h.667v4.177h-.667Z"/>
          <path id="Path_1495" data-name="Path 1495" d="M179.3,28.329h.667v4.177H179.3Z"/>
          <path id="Path_1496" data-name="Path 1496" d="M181.085,28.329h.666v4.177h-.666Z"/>
          <path id="Path_1497" data-name="Path 1497" d="M182.873,28.329h.667v4.177h-.667Z"/>
        </g>
        <g id="Group_351" data-name="Group 351">
          <path id="Path_1498" data-name="Path 1498" d="M184.641,28.329h.667v7.564h-.667Z"/>
          <path id="Path_1499" data-name="Path 1499" d="M186.43,28.329h.667v4.177h-.667Z"/>
          <path id="Path_1500" data-name="Path 1500" d="M188.218,28.329h.667v4.177h-.667Z"/>
          <path id="Path_1501" data-name="Path 1501" d="M190.007,28.329h.667v4.177h-.667Z"/>
          <path id="Path_1502" data-name="Path 1502" d="M191.795,28.329h.667v4.177h-.667Z"/>
          <path id="Path_1503" data-name="Path 1503" d="M193.584,28.329h.667v6.246h-.667Z"/>
          <path id="Path_1504" data-name="Path 1504" d="M195.372,28.329h.667v4.177h-.667Z"/>
          <path id="Path_1505" data-name="Path 1505" d="M197.161,28.329h.667v4.177h-.667Z"/>
          <path id="Path_1506" data-name="Path 1506" d="M198.95,28.329h.667v4.177h-.667Z"/>
          <path id="Path_1507" data-name="Path 1507" d="M200.738,28.329h.667v4.177h-.667Z"/>
        </g>
        <g id="Group_352" data-name="Group 352">
          <path id="Path_1508" data-name="Path 1508" d="M202.506,28.329h.667v7.564h-.667Z"/>
          <path id="Path_1509" data-name="Path 1509" d="M204.295,28.329h.667v4.177h-.667Z"/>
          <path id="Path_1510" data-name="Path 1510" d="M206.084,28.329h.666v4.177h-.666Z"/>
          <path id="Path_1511" data-name="Path 1511" d="M207.872,28.329h.667v4.177h-.667Z"/>
          <path id="Path_1512" data-name="Path 1512" d="M209.661,28.329h.667v4.177h-.667Z"/>
          <path id="Path_1513" data-name="Path 1513" d="M211.449,28.329h.667v6.246h-.667Z"/>
          <path id="Path_1514" data-name="Path 1514" d="M213.238,28.329h.667v4.177h-.667Z"/>
          <path id="Path_1515" data-name="Path 1515" d="M215.026,28.329h.667v4.177h-.667Z"/>
          <path id="Path_1516" data-name="Path 1516" d="M216.815,28.329h.667v4.177h-.667Z"/>
          <path id="Path_1517" data-name="Path 1517" d="M218.6,28.329h.666v4.177H218.6Z"/>
        </g>
        <g id="Group_353" data-name="Group 353">
          <path id="Path_1518" data-name="Path 1518" d="M220.372,28.329h.666v7.564h-.666Z"/>
          <path id="Path_1519" data-name="Path 1519" d="M222.16,28.329h.667v4.177h-.667Z"/>
          <path id="Path_1520" data-name="Path 1520" d="M223.949,28.329h.667v4.177h-.667Z"/>
          <path id="Path_1521" data-name="Path 1521" d="M225.737,28.329h.667v4.177h-.667Z"/>
          <path id="Path_1522" data-name="Path 1522" d="M227.526,28.329h.667v4.177h-.667Z"/>
          <path id="Path_1523" data-name="Path 1523" d="M229.315,28.329h.666v6.246h-.666Z"/>
          <path id="Path_1524" data-name="Path 1524" d="M231.1,28.329h.667v4.177H231.1Z"/>
          <path id="Path_1525" data-name="Path 1525" d="M232.892,28.329h.666v4.177h-.666Z"/>
          <path id="Path_1526" data-name="Path 1526" d="M234.68,28.329h.667v4.177h-.667Z"/>
          <path id="Path_1527" data-name="Path 1527" d="M236.469,28.329h.667v4.177h-.667Z"/>
        </g>
        <g id="Group_354" data-name="Group 354">
          <path id="Path_1528" data-name="Path 1528" d="M238.237,28.329h.667v7.564h-.667Z"/>
          <path id="Path_1529" data-name="Path 1529" d="M240.026,28.329h.666v4.177h-.666Z"/>
          <path id="Path_1530" data-name="Path 1530" d="M241.814,28.329h.667v4.177h-.667Z"/>
          <path id="Path_1531" data-name="Path 1531" d="M243.6,28.329h.666v4.177H243.6Z"/>
          <path id="Path_1532" data-name="Path 1532" d="M245.391,28.329h.667v4.177h-.667Z"/>
          <path id="Path_1533" data-name="Path 1533" d="M247.18,28.329h.667v6.246h-.667Z"/>
          <path id="Path_1534" data-name="Path 1534" d="M248.968,28.329h.667v4.177h-.667Z"/>
          <path id="Path_1535" data-name="Path 1535" d="M250.757,28.329h.667v4.177h-.667Z"/>
          <path id="Path_1536" data-name="Path 1536" d="M252.546,28.329h.666v4.177h-.666Z"/>
          <path id="Path_1537" data-name="Path 1537" d="M254.334,28.329H255v4.177h-.667Z"/>
        </g>
        <g id="Group_355" data-name="Group 355">
          <path id="Path_1538" data-name="Path 1538" d="M256.1,28.329h.667v7.564H256.1Z"/>
          <path id="Path_1539" data-name="Path 1539" d="M257.891,28.329h.667v4.177h-.667Z"/>
          <path id="Path_1540" data-name="Path 1540" d="M259.68,28.329h.666v4.177h-.666Z"/>
          <path id="Path_1541" data-name="Path 1541" d="M261.468,28.329h.667v4.177h-.667Z"/>
          <path id="Path_1542" data-name="Path 1542" d="M263.257,28.329h.666v4.177h-.666Z"/>
          <path id="Path_1543" data-name="Path 1543" d="M265.045,28.329h.667v6.246h-.667Z"/>
          <path id="Path_1544" data-name="Path 1544" d="M266.834,28.329h.666v4.177h-.666Z"/>
          <path id="Path_1545" data-name="Path 1545" d="M268.622,28.329h.667v4.177h-.667Z"/>
          <path id="Path_1546" data-name="Path 1546" d="M270.411,28.329h.667v4.177h-.667Z"/>
          <path id="Path_1547" data-name="Path 1547" d="M272.2,28.329h.666v4.177H272.2Z"/>
        </g>
        <g id="Group_356" data-name="Group 356">
          <path id="Path_1548" data-name="Path 1548" d="M273.968,28.329h.666v7.564h-.666Z"/>
          <path id="Path_1549" data-name="Path 1549" d="M275.756,28.329h.667v4.177h-.667Z"/>
          <path id="Path_1550" data-name="Path 1550" d="M277.545,28.329h.667v4.177h-.667Z"/>
          <path id="Path_1551" data-name="Path 1551" d="M279.333,28.329H280v4.177h-.667Z"/>
          <path id="Path_1552" data-name="Path 1552" d="M281.122,28.329h.667v4.177h-.667Z"/>
          <path id="Path_1553" data-name="Path 1553" d="M282.911,28.329h.666v6.246h-.666Z"/>
          <path id="Path_1554" data-name="Path 1554" d="M284.7,28.329h.667v4.177H284.7Z"/>
          <path id="Path_1555" data-name="Path 1555" d="M286.488,28.329h.666v4.177h-.666Z"/>
          <path id="Path_1556" data-name="Path 1556" d="M288.276,28.329h.667v4.177h-.667Z"/>
          <path id="Path_1557" data-name="Path 1557" d="M290.065,28.329h.667v4.177h-.667Z"/>
        </g>
        <g id="Group_357" data-name="Group 357">
          <path id="Path_1558" data-name="Path 1558" d="M291.833,28.329h.667v7.564h-.667Z"/>
        </g>
      </g>
    </g>
  </g>
</svg>
