<svg xmlns="http://www.w3.org/2000/svg" width="71.898" height="90" viewBox="0 0 71.898 90">
  <g id="Group_529" data-name="Group 529" transform="translate(-15 -5)">
    <g id="Group_200" data-name="Group 200" transform="translate(209.949 171)">
      <rect id="Rectangle_197" data-name="Rectangle 197" width="67.208" height="85.311" transform="translate(-192.604 -163.655)" fill="#fff"/>
      <path id="Path_722" data-name="Path 722" d="M-124.224-76h-69.552a1.173,1.173,0,0,1-1.173-1.172v-87.656A1.173,1.173,0,0,1-193.776-166h69.552a1.173,1.173,0,0,1,1.173,1.172v87.656A1.173,1.173,0,0,1-124.224-76Zm-68.38-2.344H-125.4v-85.311H-192.6v85.311Z" fill="#6c6c6c"/>
    </g>
    <g id="Group_204" data-name="Group 204" transform="translate(-71.986 -174.565)">
      <path id="Path_735" data-name="Path 735" d="M90.986,220.025V218.2a9.712,9.712,0,0,0,3.6-.841,4.146,4.146,0,0,0,1.524-2.789H98v18.9H95.452V220.025Z" fill="#6a6a6a"/>
      <path id="Path_736" data-name="Path 736" d="M134.082,217.6a13.577,13.577,0,0,1,1.272,6.427,15.477,15.477,0,0,1-1.153,6.4,5.644,5.644,0,0,1-5.46,3.631,5.466,5.466,0,0,1-5.088-2.968,13.591,13.591,0,0,1-1.391-6.652,16.433,16.433,0,0,1,.835-5.552q1.564-4.32,5.658-4.32A5.607,5.607,0,0,1,134.082,217.6Zm-2.4,12.642q1.1-1.643,1.1-6.122a15.1,15.1,0,0,0-.8-5.32,3.03,3.03,0,0,0-3.092-2.087,3.233,3.233,0,0,0-3.086,1.981,13.657,13.657,0,0,0-.976,5.837,14.315,14.315,0,0,0,.624,4.665q.955,2.69,3.265,2.69A3.4,3.4,0,0,0,131.682,230.241Z" transform="translate(-18.77)" fill="#6a6a6a"/>
      <path id="Path_737" data-name="Path 737" d="M180.569,217.6a13.576,13.576,0,0,1,1.272,6.427,15.477,15.477,0,0,1-1.153,6.4,5.644,5.644,0,0,1-5.46,3.631,5.467,5.467,0,0,1-5.089-2.968,13.591,13.591,0,0,1-1.391-6.652,16.433,16.433,0,0,1,.835-5.552q1.564-4.32,5.658-4.32A5.607,5.607,0,0,1,180.569,217.6Zm-2.4,12.642q1.1-1.643,1.1-6.122a15.11,15.11,0,0,0-.8-5.32,3.03,3.03,0,0,0-3.092-2.087,3.233,3.233,0,0,0-3.086,1.981,13.656,13.656,0,0,0-.976,5.837,14.3,14.3,0,0,0,.624,4.665q.955,2.69,3.265,2.69A3.4,3.4,0,0,0,178.169,230.241Z" transform="translate(-46.669)" fill="#6a6a6a"/>
      <path id="Path_738" data-name="Path 738" d="M227.056,217.6a13.577,13.577,0,0,1,1.272,6.427,15.476,15.476,0,0,1-1.153,6.4,5.644,5.644,0,0,1-5.46,3.631,5.467,5.467,0,0,1-5.089-2.968,13.591,13.591,0,0,1-1.391-6.652,16.433,16.433,0,0,1,.835-5.552q1.564-4.32,5.658-4.32A5.608,5.608,0,0,1,227.056,217.6Zm-2.4,12.642q1.1-1.643,1.1-6.122a15.1,15.1,0,0,0-.8-5.32,3.03,3.03,0,0,0-3.092-2.087,3.232,3.232,0,0,0-3.086,1.981,13.656,13.656,0,0,0-.976,5.837,14.315,14.315,0,0,0,.624,4.665q.955,2.69,3.265,2.69A3.4,3.4,0,0,0,224.656,230.241Z" transform="translate(-74.569)" fill="#6a6a6a"/>
      <path id="Path_739" data-name="Path 739" d="M90.986,220.025V218.2a9.712,9.712,0,0,0,3.6-.841,4.146,4.146,0,0,0,1.524-2.789H98v18.9H95.452V220.025Z" fill="#6a6a6a"/>
      <path id="Path_740" data-name="Path 740" d="M134.082,217.6a13.577,13.577,0,0,1,1.272,6.427,15.477,15.477,0,0,1-1.153,6.4,5.644,5.644,0,0,1-5.46,3.631,5.466,5.466,0,0,1-5.088-2.968,13.591,13.591,0,0,1-1.391-6.652,16.433,16.433,0,0,1,.835-5.552q1.564-4.32,5.658-4.32A5.607,5.607,0,0,1,134.082,217.6Zm-2.4,12.642q1.1-1.643,1.1-6.122a15.1,15.1,0,0,0-.8-5.32,3.03,3.03,0,0,0-3.092-2.087,3.233,3.233,0,0,0-3.086,1.981,13.657,13.657,0,0,0-.976,5.837,14.315,14.315,0,0,0,.624,4.665q.955,2.69,3.265,2.69A3.4,3.4,0,0,0,131.682,230.241Z" transform="translate(-18.77)" fill="#6a6a6a"/>
      <path id="Path_741" data-name="Path 741" d="M180.569,217.6a13.576,13.576,0,0,1,1.272,6.427,15.477,15.477,0,0,1-1.153,6.4,5.644,5.644,0,0,1-5.46,3.631,5.467,5.467,0,0,1-5.089-2.968,13.591,13.591,0,0,1-1.391-6.652,16.433,16.433,0,0,1,.835-5.552q1.564-4.32,5.658-4.32A5.607,5.607,0,0,1,180.569,217.6Zm-2.4,12.642q1.1-1.643,1.1-6.122a15.11,15.11,0,0,0-.8-5.32,3.03,3.03,0,0,0-3.092-2.087,3.233,3.233,0,0,0-3.086,1.981,13.656,13.656,0,0,0-.976,5.837,14.3,14.3,0,0,0,.624,4.665q.955,2.69,3.265,2.69A3.4,3.4,0,0,0,178.169,230.241Z" transform="translate(-46.669)" fill="#6a6a6a"/>
      <path id="Path_742" data-name="Path 742" d="M227.056,217.6a13.577,13.577,0,0,1,1.272,6.427,15.476,15.476,0,0,1-1.153,6.4,5.644,5.644,0,0,1-5.46,3.631,5.467,5.467,0,0,1-5.089-2.968,13.591,13.591,0,0,1-1.391-6.652,16.433,16.433,0,0,1,.835-5.552q1.564-4.32,5.658-4.32A5.608,5.608,0,0,1,227.056,217.6Zm-2.4,12.642q1.1-1.643,1.1-6.122a15.1,15.1,0,0,0-.8-5.32,3.03,3.03,0,0,0-3.092-2.087,3.232,3.232,0,0,0-3.086,1.981,13.656,13.656,0,0,0-.976,5.837,14.315,14.315,0,0,0,.624,4.665q.955,2.69,3.265,2.69A3.4,3.4,0,0,0,224.656,230.241Z" transform="translate(-74.569)" fill="#6a6a6a"/>
    </g>
  </g>
</svg>
