<svg xmlns="http://www.w3.org/2000/svg" width="71.898" height="90" viewBox="0 0 71.898 90">
  <g id="Group_526" data-name="Group 526" transform="translate(-15 -5)">
    <g id="Group_197" data-name="Group 197" transform="translate(209.949 171)">
      <rect id="Rectangle_194" data-name="Rectangle 194" width="67.208" height="85.311" transform="translate(-192.604 -163.655)" fill="#fff"/>
      <path id="Path_719" data-name="Path 719" d="M-124.224-76h-69.552a1.173,1.173,0,0,1-1.173-1.172v-87.656A1.173,1.173,0,0,1-193.776-166h69.552a1.173,1.173,0,0,1,1.173,1.172v87.656A1.173,1.173,0,0,1-124.224-76Zm-68.38-2.344H-125.4v-85.311H-192.6v85.311Z" fill="#6c6c6c"/>
    </g>
    <path id="Path_724" data-name="Path 724" d="M90.114,295.145v-4.573q6.462-.63,9.014-2.1t3.811-6.976h4.706v47.258h-6.363v-33.6Z" transform="translate(-51.114 -254.491)" fill="#6a6a6a"/>
  </g>
</svg>
