<svg xmlns="http://www.w3.org/2000/svg" width="30" height="30.058" viewBox="0 0 30 30.058">
  <g id="Group_509" data-name="Group 509" transform="translate(-185 -184.971)">
    <path id="Path_2141" data-name="Path 2141" d="M197.373,197.509l6.9,5.644,5.68-5.53-8.289-6.779Z" fill="#eaeaea"/>
    <g id="Group_510" data-name="Group 510">
      <path id="Path_2139" data-name="Path 2139" d="M193.258,210.993a3.87,3.87,0,0,1-.274-1.083c0-.01,0-.06-.022-.069a.356.356,0,0,0-.285.083,5.238,5.238,0,0,1-3.222.747h-.165a7.332,7.332,0,0,0-2.442.356c-.844.291-1.246.68-1.3,1.26-.052.53.228.949.967,1.448a5.536,5.536,0,0,0,2.882.755,8.063,8.063,0,0,0,2.693-.484,1.884,1.884,0,0,0,1.406-2.146A3.5,3.5,0,0,0,193.258,210.993Z" fill="#ffc60f"/>
      <path id="Path_2140" data-name="Path 2140" d="M194.831,205.818a.386.386,0,0,1,.035-.035l-.411-.336-1.483,1.814a.479.479,0,0,0,.067.674l1.879,1.537a.48.48,0,0,0,.675-.068l1.448-1.77-2.214-1.81Z" fill="#ffc60f"/>
      <path id="Path_2142" data-name="Path 2142" d="M193.565,203.421a.589.589,0,0,0,.117.746l4.8,3.924a.588.588,0,0,0,.755-.033l4.677-4.553-6.813-5.571Z" fill="#ffc60f"/>
      <path id="Path_2143" data-name="Path 2143" d="M201.939,190.419l8.377,6.851,2.972-2.894-9.1-7.445Z" fill="#ffc60f"/>
      <path id="Path_2144" data-name="Path 2144" d="M214.344,192.727l-8.751-7.156a.388.388,0,0,0-.591.093l-.543.843,9.192,7.518.719-.7a.39.39,0,0,0-.026-.6Z" fill="#ffc60f"/>
    </g>
    <path id="Path_2145" data-name="Path 2145" d="M194.866,205.783a.386.386,0,0,0-.035.035l0,.006,2.214,1.81.035-.043Z" fill="#716558"/>
    <path id="Path_2146" data-name="Path 2146" d="M197.429,207.952l.019.015,0,0a.363.363,0,0,0,.027-.041l-.014-.012Z" fill="#716558"/>
    <path id="Path_2147" data-name="Path 2147" d="M214.662,192.339l-8.751-7.157a.889.889,0,0,0-1.331.21l-11.438,17.757a1.1,1.1,0,0,0,.222,1.407l.7.573-1.483,1.814a.982.982,0,0,0,.138,1.381l1.88,1.537a.983.983,0,0,0,1.381-.139l1.447-1.77-.388-.318-1.448,1.77a.48.48,0,0,1-.675.068l-1.879-1.537a.479.479,0,0,1-.067-.674l1.483-1.814.411.336a.478.478,0,0,1,.639-.032l1.879,1.537a.478.478,0,0,1,.1.633l.684.559a1.1,1.1,0,0,0,1.422-.062l15.135-14.733a.89.89,0,0,0-.058-1.346Zm-15.427,15.719a.588.588,0,0,1-.755.033l-4.8-3.924a.589.589,0,0,1-.117-.746l3.534-5.487,6.813,5.571Zm5.039-4.9-6.9-5.644,4.292-6.665,8.289,6.779Zm6.042-5.882-8.377-6.852,2.246-3.487,9.1,7.445Zm4.054-3.946-.719.7-9.192-7.518.543-.843a.388.388,0,0,1,.591-.093l8.751,7.156a.39.39,0,0,1,.026.6Z" fill="#6c6c6c"/>
    <path id="Path_2148" data-name="Path 2148" d="M197.384,207.288l-1.879-1.537a.478.478,0,0,0-.639.032l2.21,1.808-.035.043.388.318.036-.043.014.012A.478.478,0,0,0,197.384,207.288Z" fill="#6c6c6c"/>
    <path id="Path_2149" data-name="Path 2149" d="M193.765,210.809a3.369,3.369,0,0,1-.242-.932.6.6,0,0,0-.328-.522.839.839,0,0,0-.829.128,4.7,4.7,0,0,1-2.9.649,8.072,8.072,0,0,0-2.79.384c-.383.132-1.547.534-1.664,1.718a2.156,2.156,0,0,0,1.2,1.947,6.179,6.179,0,0,0,3.163.847h.03a8.547,8.547,0,0,0,2.887-.524,2.424,2.424,0,0,0,1.74-2.693A3.919,3.919,0,0,0,193.765,210.809Zm-1.678,3.2a8.063,8.063,0,0,1-2.693.484,5.536,5.536,0,0,1-2.882-.755c-.739-.5-1.019-.918-.967-1.448.057-.58.459-.969,1.3-1.26a7.332,7.332,0,0,1,2.442-.356h.165a5.238,5.238,0,0,0,3.222-.747.356.356,0,0,1,.285-.083c.018.009.022.059.022.069a3.87,3.87,0,0,0,.274,1.083,3.5,3.5,0,0,1,.235.866A1.884,1.884,0,0,1,192.087,214.005Z" fill="#6c6c6c"/>
  </g>
</svg>
