<svg xmlns="http://www.w3.org/2000/svg" width="18.137" height="33.743" viewBox="0 0 18.137 33.743"><g transform="translate(-130.564 -190)"><path d="M139.652,198.789l.4-.276a.349.349,0,0,1,.471.069l.358.447.5-.326a.349.349,0,0,1,.321-.03l.076-.7v-.008l.007-.028a.21.21,0,0,1,.011-.044v-.008l.461-1.2-.068-.564-1.678-.241-.127.3a.343.343,0,0,1-.082.2l-.5,1.184a.379.379,0,0,1-.045.108l-.3.722Z" transform="translate(1.11 0.734)" fill="#e5dad2"/><path d="M138.306,191.517l-.578,2.527,1.336-.042Z" transform="translate(0.894 0.189)" fill="#abd4ef"/><path d="M141.645,193.175l-1,2.382,1.311.188Z" transform="translate(1.258 0.396)" fill="#f4a8b2"/><path d="M141.131,199.412a.35.35,0,0,1-.465-.074l-.353-.44-.463.319a.346.346,0,0,1-.451-.048l-1,7.2h.26c.82,0,1.589-.018,2.306-.048l.776-7.14-.094-.1Z" transform="translate(0.977 1.11)" fill="#a8a6a7"/><path d="M137.863,206.554l1.168-8.377v-.008l.007-.028a.313.313,0,0,1,.014-.043l0-.008.282-.673-.079-.06-.451.422a.35.35,0,0,1-.471.008l-.423-.373-.4.395a.353.353,0,0,1-.245.1h-.028a.345.345,0,0,1-.218-.1l0,6.49.244,2.244Z" transform="translate(0.805 0.918)" fill="#a8a6a7"/><path d="M142.768,198.135a.35.35,0,0,1,.474.054l.371.435.487-.341a.35.35,0,0,1,.454.046l.326.345.359-.309-.406-2.683-1.685-.189-.98,2.542.207.386Z" transform="translate(1.448 0.685)" fill="#e5dad2"/><path d="M144.2,192.75l-.929,2.412,1.317.148Z" transform="translate(1.585 0.343)"/><path d="M144.516,206l.763-7.029-.085.074a.35.35,0,0,1-.483-.025l-.349-.368-.5.35a.35.35,0,0,1-.467-.06l-.367-.429-.453.333a.346.346,0,0,1-.452-.035l-.818,7.52A32.025,32.025,0,0,0,144.516,206Z" transform="translate(1.34 1.062)" fill="#a8a6a7"/><path d="M137.65,197.064a.35.35,0,0,1,.476-.013l.43.378.434-.406a.348.348,0,0,1,.45-.024l.173.129.346-.824-.6-1.959-1.711.052-.607,2.656.26.353Z" transform="translate(0.809 0.542)" fill="#e5dad2"/><path d="M144.8,205.157a3.606,3.606,0,0,0,1.395-.48,3.4,3.4,0,0,0-1.292-.462Z" transform="translate(1.776 1.774)" fill="#dbdbdb"/><path d="M135.772,198.847l-.454-.333-.367.43a.348.348,0,0,1-.466.06l-.5-.351-.349.369a.35.35,0,0,1-.481.025l-.087-.075.776,7.138c.889.116,1.965.209,3.2.262l-.821-7.558a.346.346,0,0,1-.452.035Z" transform="translate(0.312 1.062)" fill="#a8a6a7"/><path d="M142.162,206.2h-.04c-1.26.061-2.286.065-2.581.065-.115,0-.34,0-.647,0h-.013l-.028,0c-.315,0-.709-.014-1.154-.029h-.042a.325.325,0,0,1-.066-.007,22.573,22.573,0,0,1-6.29-.878l2.171,14.216c.1.64,2.316,1.567,6.07,1.567,3.707,0,6.073-.952,6.073-1.606l0-.025a.239.239,0,0,1,0-.028l2.163-14.124a20.017,20.017,0,0,1-5.549.847A.379.379,0,0,1,142.162,206.2Z" transform="translate(0.092 1.915)" fill="#f7f7f7"/><path d="M133.226,204.089a4.887,4.887,0,0,0-2.011.6,5.458,5.458,0,0,0,2.144.617Z" transform="translate(0.081 1.758)" fill="#dbdbdb"/><path d="M133.691,198.33a.351.351,0,0,1,.454-.046l.487.342.371-.436a.35.35,0,0,1,.474-.054l.391.287.208-.386-.98-2.542-1.685.189-.407,2.683.359.309Z" transform="translate(0.305 0.685)" fill="#e5dad2"/><path d="M133.851,192.75l-.388,2.56,1.317-.148Z" transform="translate(0.362 0.343)" fill="#9cefc5"/><path d="M148.7,206.41c-.028-.487-.633-.838-1.946-1.123l.658-6.06h0v-.006a.338.338,0,0,0,0-.075v-.009l-1.128-7.454a.35.35,0,0,0-.673-.073l-1.7,4.42-.466-3.853a.349.349,0,0,0-.669-.093l-1.578,3.753-1.705-5.59a.349.349,0,0,0-.675.025l-1.677,7.322v0a.29.29,0,0,0-.006.044.274.274,0,0,0,0,.03h0v1.145l-.011-.109,0-.008-.006-.028c0-.015-.007-.029-.011-.044l0-.008-2.7-7.01a.35.35,0,0,0-.673.073l-1.129,7.454v.008a.358.358,0,0,0,0,.078v0h0l.643,5.922c-2.354.395-2.668.9-2.668,1.295a.456.456,0,0,0,.012.1l2.295,15.035c.217,1.417,3.566,2.16,6.762,2.16,3.327,0,6.694-.775,6.769-2.255l2.288-14.942c0-.016.006-.031.008-.048v0c0-.017,0-.034,0-.051v-.035Zm-2.913-13.317.388,2.56-1.317-.148Zm-1.189,3.086,1.685.189.407,2.683-.359.309-.326-.345a.35.35,0,0,0-.454-.046l-.488.341-.371-.435a.349.349,0,0,0-.472-.055l-.391.288-.208-.386Zm-1.134,3.695a.345.345,0,0,0,.452.035l.453-.333.367.43a.352.352,0,0,0,.467.06l.5-.351.349.368a.349.349,0,0,0,.483.025l.085-.074-.763,7.03a32.025,32.025,0,0,1-3.211.333Zm-1.524,7.557c-.716.03-1.485.048-2.306.048h-.26l1-7.2a.346.346,0,0,0,.451.048l.463-.319.353.44a.35.35,0,0,0,.465.074l.511-.335.094.1Zm.965-13.861.309,2.57-1.311-.188Zm-1.989,4.73.5-1.184a.352.352,0,0,0,.083-.2l.126-.3,1.678.241.069.564-.461,1.2,0,.008a.193.193,0,0,0-.011.044l-.007.028v.008l-.076.7a.349.349,0,0,0-.321.03l-.5.326-.359-.447a.349.349,0,0,0-.471-.069l-.4.276-.2-.393.3-.722A.352.352,0,0,0,140.915,198.3Zm-1.715-6.595.759,2.486-1.337.042Zm-.74,3.231,1.711-.052.6,1.959-.346.824-.173-.129a.348.348,0,0,0-.45.024l-.434.407-.429-.379a.352.352,0,0,0-.477.013l-.346.341-.26-.353Zm-.635,3.787a.347.347,0,0,0,.218.1h.027a.349.349,0,0,0,.245-.1l.4-.395.424.373a.349.349,0,0,0,.47-.008l.451-.422.08.06-.282.673,0,.008a.284.284,0,0,0-.014.044l-.007.027,0,.008-1.166,8.377c-.2,0-.406-.009-.6-.015l-.244-2.243Zm-.467,8.708c-1.237-.053-2.314-.146-3.2-.262l-.775-7.138.085.074a.349.349,0,0,0,.483-.025l.349-.368.5.351a.352.352,0,0,0,.467-.06l.367-.43.453.333a.345.345,0,0,0,.452-.035Zm-3.145-14.34.929,2.412-1.317.148Zm-.5,3.275,1.685-.189.98,2.542-.208.386-.391-.287a.35.35,0,0,0-.474.054l-.371.435-.487-.341a.351.351,0,0,0-.454.046l-.327.345-.358-.309Zm-.411,9.478.133,1.22a5.457,5.457,0,0,1-2.143-.617,4.887,4.887,0,0,1,2.011-.6Zm12.4,15.539a.22.22,0,0,0,0,.027l0,.026c0,.655-2.365,1.605-6.073,1.605-3.756,0-5.973-.926-6.07-1.566l-2.171-14.216a22.567,22.567,0,0,0,6.29.878.325.325,0,0,0,.066.007.217.217,0,0,0,.038,0h0c.445.016.839.024,1.153.029l.029,0,.013,0c.307,0,.532.006.647.006.3,0,1.32,0,2.581-.066h0a.224.224,0,0,0,.038,0,.3.3,0,0,0,.071-.008,19.977,19.977,0,0,0,5.548-.846Zm.864-14.456.1-.943a3.418,3.418,0,0,1,1.292.462,3.606,3.606,0,0,1-1.395.48Z" fill="#6c6c6c"/></g></svg>