<svg xmlns="http://www.w3.org/2000/svg" xmlns:xlink="http://www.w3.org/1999/xlink" viewBox="0 0 13.69 189.06"><defs><linearGradient id="a" x1="-103.56" y1="118.55" x2="-102.67" y2="118.55" gradientTransform="matrix(-11.3, -5.57, 4.48, -9.09, -1126.41, 785.2)" gradientUnits="userSpaceOnUse"><stop offset="0.04" stop-color="#dedede"/><stop offset="0.4" stop-color="#c6c6c6"/><stop offset="0.64" stop-color="#b4b4b4"/><stop offset="1" stop-color="#cdcdcd"/></linearGradient><linearGradient id="b" x1="-105.71" y1="123.95" x2="-104.71" y2="123.95" gradientTransform="matrix(-9.57, -4.72, 2.21, -4.49, -773.29, 460.94)" xlink:href="#a"/><linearGradient id="c" x1="-92.91" y1="113.14" x2="-91.9" y2="113.14" gradientTransform="translate(698.86 -1403.43) scale(13.57 13.71)" gradientUnits="userSpaceOnUse"><stop offset="0.04" stop-color="#bfbfb8"/><stop offset="0.4" stop-color="#aea8a8"/><stop offset="0.64" stop-color="#959595"/><stop offset="1" stop-color="#b5afa0"/></linearGradient></defs><title>rotate-point1</title><path d="M3.2,171.28l-2,18.11V175.45Z" transform="translate(0 -0.32)" style="fill:#b3b2b2"/><path d="M1.32,175.45v13.94l.21-1.87V175Z" transform="translate(0 -0.32)" style="fill:#b3b2b2;opacity:0.5;isolation:isolate"/><path d="M2.74,176.76l.61-5.48-2,4.17v1.31A2.85,2.85,0,0,0,2.74,176.76Z" transform="translate(0 -0.32)" style="fill:#b3b2b2;opacity:0.5;isolation:isolate"/><path d="M.62.33,11.7.41l.07,153.35c0,4.75-3.24,28.77-7.25,28.74l-2.95,0a.88.88,0,0,1-.86-.87Z" transform="translate(0 -0.32)" style="fill:#c6c6c6"/><path d="M11.7,6.34V.41L.62.32V6.25A23.54,23.54,0,0,1,11.7,6.34Z" transform="translate(0 -0.32)" style="opacity:0.20000000298023224;isolation:isolate;fill:url(#a)"/><path d="M.7,150.29a5.41,5.41,0,0,0,5.54,5c4.18,0,5.08-2.38,5.08-2.38Z" transform="translate(0 -0.32)" style="fill:url(#b)"/><ellipse cx="6.84" cy="147.69" rx="6.79" ry="6.85" transform="translate(-129.2 89.47) rotate(-64.29)" style="fill:url(#c)"/><path d="M4.35,147.64a2.47,2.47,0,0,1,2.49-2.44,2.52,2.52,0,0,1,2.5,2.5v0a2.46,2.46,0,0,1-2.5,2.44,2.51,2.51,0,0,1-2.49-2.5Z" transform="translate(0 -0.32)" style="fill:#c6c6c6"/><path d="M4.34,147.89a2.48,2.48,0,0,1,2.5-2.44h0a2.53,2.53,0,0,1,0,5.05,2.59,2.59,0,0,1-2.5-2.58Z" transform="translate(0 -0.32)" style="fill:#c6c6c6"/></svg>