<svg xmlns="http://www.w3.org/2000/svg" xmlns:xlink="http://www.w3.org/1999/xlink" viewBox="0 0 37.39 45.94"><defs><linearGradient id="a" x1="-96.34" y1="40.2" x2="-95.35" y2="40.2" gradientTransform="matrix(14.59, 0, 0, -8.52, 79.16, 346.66)" gradientUnits="userSpaceOnUse"><stop offset="0.05" stop-color="#244662"/><stop offset="1" stop-color="#2f5b7c"/></linearGradient><linearGradient id="b" x1="-99.38" y1="45.3" x2="-98.36" y2="45.3" gradientTransform="matrix(14.12, 0, 0, -1.03, 76.95, 47.34)" xlink:href="#a"/><linearGradient id="c" x1="-40.71" y1="39.64" x2="-39.71" y2="39.64" gradientTransform="matrix(37.32, 0, 0, -41.52, 181.6, 1671.23)" xlink:href="#a"/><linearGradient id="d" x1="-5.2" y1="20.23" x2="-5.18" y2="20.7" gradientTransform="matrix(37.32, 0, 0, -41.52, 181.67, 1671.24)" xlink:href="#a"/></defs><title>rotate-compass-ref</title><path d="M25.25,8.25l-13.33.27A.56.56,0,0,1,11.35,8l-.14-6.6c0-.31.25-.49.55-.57C17.87-.83,25.09.53,25.09.53a.56.56,0,0,1,.57.55l.14,6.6A.57.57,0,0,1,25.25,8.25Z" transform="translate(-0.01 0)" style="fill:url(#a)"/><path d="M13.43.46A33.48,33.48,0,0,1,17.67.13a53.48,53.48,0,0,1,7.79.53.58.58,0,0,0-.37-.13S17.87-.83,11.76.8a.76.76,0,0,0-.42.23A8.41,8.41,0,0,1,13.43.46Z" transform="translate(-0.01 0)" style="fill:url(#b)"/><path d="M1.11,8.32a45.23,45.23,0,0,1,35.06-.71,1.65,1.65,0,0,1,1.15,1.55L35.69,43.71a2,2,0,0,1-2.15,1.65l-28.09.57a2,2,0,0,1-2.22-1.57L0,9.93A1.67,1.67,0,0,1,1.11,8.32Z" transform="translate(-0.01 0)" style="fill:url(#c)"/><path d="M1.18,8.32a45.25,45.25,0,0,1,35.07-.71A1.65,1.65,0,0,1,37.4,9.16L35.77,43.71a2,2,0,0,1-2.15,1.65l-28.1.57A2,2,0,0,1,3.3,44.36L.09,9.93A1.67,1.67,0,0,1,1.18,8.32Z" transform="translate(-0.01 0)" style="fill:url(#d)"/></svg>