<svg id="Group_387" data-name="Group 387" xmlns="http://www.w3.org/2000/svg" xmlns:xlink="http://www.w3.org/1999/xlink" width="79.32" height="180.198" viewBox="0 0 79.32 180.198">
  <defs>
    <linearGradient id="linear-gradient" x1="-174.146" y1="-98.905" x2="-173.066" y2="-98.905" gradientUnits="objectBoundingBox">
      <stop offset="0.043" stop-color="#e0e0e0"/>
      <stop offset="0.4" stop-color="#c8c8c8"/>
      <stop offset="0.643" stop-color="#b6b6b6"/>
      <stop offset="1" stop-color="#cfcfcf"/>
    </linearGradient>
    <linearGradient id="linear-gradient-2" x1="-194.018" y1="-20.496" x2="-193.86" y2="-20.1" gradientUnits="objectBoundingBox">
      <stop offset="0" stop-color="#3c2718"/>
      <stop offset="0.976" stop-color="#22130a"/>
    </linearGradient>
    <linearGradient id="linear-gradient-3" x1="-1833.855" y1="-63.541" x2="-1832.382" y2="-62.353" xlink:href="#linear-gradient-2"/>
    <linearGradient id="linear-gradient-4" x1="-280.082" y1="-47.493" x2="-279.896" y2="-46.745" xlink:href="#linear-gradient-2"/>
    <linearGradient id="linear-gradient-5" x1="-220.771" y1="-67.736" x2="-220.771" y2="-69.423" gradientUnits="objectBoundingBox">
      <stop offset="0.043" stop-color="#939393"/>
      <stop offset="0.4" stop-color="#7c7c7c"/>
      <stop offset="0.643" stop-color="#696969"/>
      <stop offset="1" stop-color="#828282"/>
    </linearGradient>
    <linearGradient id="linear-gradient-6" x1="-224.396" y1="-115.453" x2="-224.396" y2="-118.353" xlink:href="#linear-gradient-5"/>
    <linearGradient id="linear-gradient-7" x1="-75.318" y1="-8.228" x2="-75.004" y2="-8.228" gradientUnits="objectBoundingBox">
      <stop offset="0.043" stop-color="#bfbfb8"/>
      <stop offset="0.404" stop-color="#aea8a8"/>
      <stop offset="0.643" stop-color="#959595"/>
      <stop offset="0.996" stop-color="#b5afa0"/>
    </linearGradient>
    <linearGradient id="linear-gradient-8" x1="-443.812" y1="-185.809" x2="-442.061" y2="-185.809" xlink:href="#linear-gradient-7"/>
    <linearGradient id="linear-gradient-9" x1="-113.801" y1="-10.985" x2="-112.605" y2="-10.985" gradientUnits="objectBoundingBox">
      <stop offset="0.043" stop-color="#dedede"/>
      <stop offset="0.4" stop-color="#c6c6c6"/>
      <stop offset="0.643" stop-color="#b4b4b4"/>
      <stop offset="1" stop-color="#cdcdcd"/>
    </linearGradient>
    <linearGradient id="linear-gradient-10" x1="-143.151" y1="-18.846" x2="-142.818" y2="-18.846" xlink:href="#linear-gradient-7"/>
    <linearGradient id="linear-gradient-11" x1="-27.82" y1="-2.542" x2="-28.459" y2="-2.542" xlink:href="#linear-gradient-9"/>
    <linearGradient id="linear-gradient-12" x1="-28.013" y1="-2.505" x2="-28.724" y2="-2.505" xlink:href="#linear-gradient-9"/>
    <linearGradient id="linear-gradient-13" x1="-115.515" y1="-38.255" x2="-116.902" y2="-38.255" xlink:href="#linear-gradient-9"/>
    <linearGradient id="linear-gradient-14" x1="-87.509" y1="-14.311" x2="-86.962" y2="-14.311" gradientUnits="objectBoundingBox">
      <stop offset="0.043" stop-color="#bfbfbf"/>
      <stop offset="0.4" stop-color="#a8a8a8"/>
      <stop offset="0.643" stop-color="#959595"/>
      <stop offset="1" stop-color="#afafaf"/>
    </linearGradient>
    <linearGradient id="linear-gradient-15" x1="-201.328" y1="-29.365" x2="-201.328" y2="-30.337" xlink:href="#linear-gradient-7"/>
    <linearGradient id="linear-gradient-16" x1="-444.123" y1="-164.175" x2="-444.123" y2="-169.63" xlink:href="#linear-gradient-7"/>
    <linearGradient id="linear-gradient-17" x1="-609.565" y1="-108.727" x2="-609.565" y2="-109.639" gradientUnits="objectBoundingBox">
      <stop offset="0.043" stop-color="#9f9f99"/>
      <stop offset="0.404" stop-color="#8e8888"/>
      <stop offset="0.643" stop-color="#767676"/>
      <stop offset="0.996" stop-color="#958f84"/>
    </linearGradient>
    <linearGradient id="linear-gradient-18" x1="-732.522" y1="-71.372" x2="-732.579" y2="-69.922" gradientUnits="objectBoundingBox">
      <stop offset="0" stop-color="#efefef"/>
      <stop offset="0.976" stop-color="#22130a"/>
      <stop offset="1" stop-color="#22130a"/>
    </linearGradient>
  </defs>
  <path id="Path_1891" data-name="Path 1891" d="M2410.349,4902.067a14.526,14.526,0,0,1-4.079,2.2,16.346,16.346,0,0,1-4.624,1.37,44.118,44.118,0,0,1,8.7-3.572Z" transform="translate(-2340.777 -4758.118)" fill="url(#linear-gradient)"/>
  <path id="Path_1892" data-name="Path 1892" d="M2437.193,4961.276l1.7,4.049a33.124,33.124,0,0,1,2.325,6.935c.165.977.68,4.928.372,5.043-.9.335-5.548-9.776-5.917-10.656l-1.7-4.049a1.719,1.719,0,0,1,.942-2.255h0A1.75,1.75,0,0,1,2437.193,4961.276Z" transform="translate(-2362.364 -4797.113)" fill="url(#linear-gradient-2)"/>
  <path id="Path_1893" data-name="Path 1893" d="M2455.137,4995.934a12.3,12.3,0,0,0,.1,2.455,4.188,4.188,0,0,0,.608,2.115h.01c.308-.115-.206-4.066-.372-5.042-.036-.214-.079-.431-.125-.648A5.057,5.057,0,0,0,2455.137,4995.934Z" transform="translate(-2376.627 -4820.313)" opacity="0.5" fill="url(#linear-gradient-3)"/>
  <path id="Path_1894" data-name="Path 1894" d="M2439.272,4966.352c-.177-.5-.316-.869-.382-1.027l-1.7-4.049a1.75,1.75,0,0,0-2.278-.933h0a1.719,1.719,0,0,0-.942,2.255l1.7,4.049c.066.158.24.507.485.971A6.169,6.169,0,0,0,2439.272,4966.352Z" transform="translate(-2362.364 -4797.113)" fill="url(#linear-gradient-4)"/>
  <path id="Path_1895" data-name="Path 1895" d="M2436.993,4969.476a8.5,8.5,0,0,1-3.041,1.177,1.476,1.476,0,0,1-1.364-.3l-1.925-2.086,6.755-2.773.132,2.822A1.458,1.458,0,0,1,2436.993,4969.476Z" transform="translate(-2360.234 -4800.656)" fill="url(#linear-gradient-5)"/>
  <path id="Path_1896" data-name="Path 1896" d="M2437.44,4965.955l-.022-.462-6.755,2.773.253.274A12.176,12.176,0,0,0,2437.44,4965.955Z" transform="translate(-2360.234 -4800.655)" fill="url(#linear-gradient-6)"/>
  <path id="Path_1897" data-name="Path 1897" d="M2379.91,4826.069l-3.162,1.3-16.756-39.983,3.162-1.3Z" transform="translate(-2312.849 -4680.363)" fill="url(#linear-gradient-7)"/>
  <path id="Path_1898" data-name="Path 1898" d="M2410.07,4906.843l.255.609,3.162-1.3-.263-.627A8.761,8.761,0,0,1,2410.07,4906.843Z" transform="translate(-2346.426 -4760.448)" opacity="0.5" fill="url(#linear-gradient-8)"/>
  <path id="Path_1899" data-name="Path 1899" d="M2379.727,4813l13.07,31.187.23-.094-13.074-31.2Z" transform="translate(-2326.081 -4698.336)" opacity="0.5" fill="url(#linear-gradient-9)"/>
  <path id="Path_1900" data-name="Path 1900" d="M2370.466,4803.535l-7.312-17.449-3.162,1.3,7.281,17.373A15.035,15.035,0,0,0,2370.466,4803.535Z" transform="translate(-2312.849 -4680.363)" opacity="0.5" fill="url(#linear-gradient-10)"/>
  <path id="Path_1901" data-name="Path 1901" d="M2277.573,4585.5a5.733,5.733,0,0,1-1.138.778,30.885,30.885,0,0,1-3.321,1.515l-9.695-22.432a.3.3,0,0,0-.551.221l8.949,22.735a28.426,28.426,0,0,1-3.265,1.2,6.55,6.55,0,0,1-1.4.263l-50.238-120.343,10.25-4.208Z" transform="translate(-2216.919 -4465.229)" fill="#c6c6c6"/>
  <path id="Path_1902" data-name="Path 1902" d="M2218.038,4476.6l-1.119.459,50.238,120.343a6.315,6.315,0,0,0,1.4-.263Z" transform="translate(-2216.919 -4472.856)" opacity="0.5" fill="url(#linear-gradient-11)"/>
  <path id="Path_1903" data-name="Path 1903" d="M2244.235,4465.742l50.515,120.54a6.446,6.446,0,0,0,1.138-.778l-50.4-120.274Z" transform="translate(-2235.234 -4465.229)" fill="url(#linear-gradient-12)"/>
  <path id="Path_1904" data-name="Path 1904" d="M2229.411,4470.579l-2.242-5.35-10.25,4.208,2.235,5.354A29.933,29.933,0,0,1,2229.411,4470.579Z" transform="translate(-2216.919 -4465.229)" opacity="0.2" fill="url(#linear-gradient-13)"/>
  <path id="Path_1905" data-name="Path 1905" d="M2418.967,4922.656a22.36,22.36,0,0,1-8.7,3.573l-8.62-20.57c5.982-1.546,8.7-3.573,8.7-3.573Z" transform="translate(-2340.777 -4758.141)" fill="url(#linear-gradient-14)"/>
  <path id="Path_1906" data-name="Path 1906" d="M2383.956,4787.082l3-1.229-4.44-10.594-3,1.229Z" transform="translate(-2325.94 -4673.103)" fill="url(#linear-gradient-15)"/>
  <path id="Path_1907" data-name="Path 1907" d="M2386.395,4784.526l-.378-.9-3,1.229.378.9Z" transform="translate(-2328.291 -4678.713)" opacity="0.5" fill="url(#linear-gradient-16)"/>
  <path id="Path_1908" data-name="Path 1908" d="M2350.113,4807.131l1.292-.531-1.168-2.789-1.293.531Z" transform="translate(-2305.442 -4692.248)" fill="url(#linear-gradient-17)"/>
  <path id="Path_1909" data-name="Path 1909" d="M2450.066,4984.346a2.876,2.876,0,0,1-.021.572.689.689,0,0,1-.063.24.238.238,0,0,1-.2.133c-.653-1.47-1.216-2.958-1.782-4.47a.115.115,0,0,1-.011-.062.122.122,0,0,1,.06-.069,3.759,3.759,0,0,0,.7-.483,18.355,18.355,0,0,1,.982,2.686A6.258,6.258,0,0,1,2450.066,4984.346Z" transform="translate(-2371.851 -4810.521)" fill="url(#linear-gradient-18)"/>
</svg>
