<svg xmlns="http://www.w3.org/2000/svg" width="36" height="36" viewBox="0 0 36 36"><g transform="translate(-50 -50)"><path d="M57.546,83.731l7.89,8.021,26.3-26.162-7.89-8.021Z" transform="translate(-6.64 -6.661)" fill="#bde6f4"/><path d="M77.475,50.112A.376.376,0,0,0,77.209,50h0a.376.376,0,0,0-.265.109L50.111,76.8a.376.376,0,0,0,0,.53l8.417,8.556A.376.376,0,0,0,58.79,86h0a.377.377,0,0,0,.265-.109L85.889,59.2a.375.375,0,0,0,0-.53ZM58.8,85.092l-7.89-8.021L77.2,50.908l7.89,8.021Z" transform="translate(0 0)" fill="#6a6a6a"/><path d="M123.1,309.528a.375.375,0,0,1-.268-.113l-2.192-2.238a.376.376,0,1,1,.537-.525l2.191,2.238a.376.376,0,0,1-.268.639Z" transform="translate(-62.065 -225.754)" fill="#6a6a6a"/><path d="M130.731,280.589a.375.375,0,0,1-.269-.113l-3.627-3.72a.376.376,0,0,1,.538-.525l3.627,3.72a.376.376,0,0,1-.269.638Z" transform="translate(-67.521 -198.984)" fill="#6a6a6a"/><path d="M156.708,274.061a.376.376,0,0,1-.274-.118l-2.283-2.423A.376.376,0,0,1,154.7,271l2.283,2.423a.376.376,0,0,1-.273.633Z" transform="translate(-91.563 -194.381)" fill="#6a6a6a"/><path d="M163.069,247.078a.374.374,0,0,1-.263-.108l-3.8-3.731a.376.376,0,1,1,.526-.536l3.8,3.731a.375.375,0,0,1-.263.644Z" transform="translate(-95.826 -169.485)" fill="#6a6a6a"/><path d="M190.432,240.7a.376.376,0,0,1-.271-.115l-2.294-2.387a.376.376,0,1,1,.542-.521l2.294,2.387a.376.376,0,0,1-.271.636Z" transform="translate(-121.231 -165.051)" fill="#6a6a6a"/><path d="M197.432,213.352a.374.374,0,0,1-.264-.109l-3.75-3.718a.376.376,0,0,1,.529-.534l3.75,3.718a.376.376,0,0,1-.264.643Z" transform="translate(-126.11 -139.817)" fill="#6a6a6a"/><path d="M225.114,207.625a.374.374,0,0,1-.26-.1l-2.293-2.193a.376.376,0,0,1,.519-.543l2.293,2.193a.376.376,0,0,1-.26.647Z" transform="translate(-151.752 -136.119)" fill="#6a6a6a"/><path d="M231.519,180.717a.374.374,0,0,1-.265-.109l-3.659-3.635a.376.376,0,0,1,.53-.533l3.658,3.635a.376.376,0,0,1-.265.642Z" transform="translate(-156.187 -111.171)" fill="#6a6a6a"/><path d="M258.37,174.335a.375.375,0,0,1-.27-.114l-2.222-2.292a.376.376,0,0,1,.539-.523l2.222,2.292a.375.375,0,0,1-.27.637Z" transform="translate(-181.08 -106.737)" fill="#6a6a6a"/><path d="M264.731,147.355a.375.375,0,0,1-.261-.105l-3.739-3.6a.376.376,0,0,1,.521-.541l3.739,3.6a.376.376,0,0,1-.26.646Z" transform="translate(-185.342 -81.844)" fill="#6a6a6a"/><path d="M291.572,140.816a.375.375,0,0,1-.266-.11l-2.291-2.291a.376.376,0,0,1,.531-.531l2.291,2.291a.375.375,0,0,1-.266.641Z" transform="translate(-210.237 -77.241)" fill="#6a6a6a"/><path d="M297.557,113.7a.374.374,0,0,1-.26-.1l-3.819-3.656a.376.376,0,0,1,.519-.543l3.819,3.657a.376.376,0,0,1-.26.647Z" transform="translate(-214.159 -52.175)" fill="#6a6a6a"/></g></svg>