<svg xmlns="http://www.w3.org/2000/svg" viewBox="0 0 435.73 62.46"><defs><style>.cls-1,.cls-3{fill:#ffe293;}.cls-2,.cls-4,.cls-5{fill:none;}.cls-2,.cls-3,.cls-4,.cls-5{stroke:#000;}.cls-2{stroke-width:0.28px;}.cls-3,.cls-4{stroke-width:0.37px;}.cls-5{stroke-width:0.25px;}.cls-6{fill:#ed1c24;}</style></defs><title>Asset 1f</title><g id="Layer_2" data-name="Layer 2"><g id="レイヤー_1" data-name="レイヤー 1"><polygon class="cls-1" points="435.3 62.32 435.3 59.32 0.25 59.32 2.53 62.32 435.3 62.32"/><polyline class="cls-2" points="0.25 59.32 2.75 62.32 435.3 62.32"/><polyline class="cls-3" points="435.3 0.19 0.25 0.19 0.25 59.32 435.73 59.32"/><line class="cls-4" x1="0.25" y1="11.47" x2="435.3" y2="11.47"/><line class="cls-4" x1="0.29" y1="39.89" x2="435.3" y2="39.89"/><line class="cls-2" x1="3" y1="11.19" x2="3" y2="0.47"/><line class="cls-2" x1="5.84" y1="11.19" x2="5.84" y2="0.47"/><line class="cls-2" x1="8.67" y1="11.19" x2="8.67" y2="0.47"/><line class="cls-2" x1="11.5" y1="11.19" x2="11.5" y2="0.47"/><line class="cls-4" x1="14.34" y1="14.35" x2="14.34" y2="0.46"/><line class="cls-2" x1="17.17" y1="11.19" x2="17.17" y2="0.46"/><line class="cls-2" x1="20.01" y1="11.19" x2="20.01" y2="0.46"/><line class="cls-2" x1="22.84" y1="11.19" x2="22.84" y2="0.46"/><line class="cls-2" x1="25.68" y1="11.19" x2="25.68" y2="0.46"/><line class="cls-4" x1="28.51" y1="19.23" x2="28.51" y2="0.46"/><line class="cls-2" x1="31.35" y1="11.19" x2="31.35" y2="0.46"/><line class="cls-2" x1="34.18" y1="11.19" x2="34.18" y2="0.45"/><line class="cls-2" x1="37.02" y1="11.19" x2="37.02" y2="0.45"/><line class="cls-2" x1="39.85" y1="11.19" x2="39.85" y2="0.45"/><line class="cls-4" x1="42.69" y1="14.35" x2="42.69" y2="0.45"/><line class="cls-2" x1="45.53" y1="11.19" x2="45.53" y2="0.45"/><line class="cls-2" x1="48.36" y1="11.19" x2="48.36" y2="0.45"/><line class="cls-2" x1="51.2" y1="11.19" x2="51.2" y2="0.45"/><line class="cls-2" x1="54.03" y1="11.19" x2="54.03" y2="0.44"/><line class="cls-4" x1="56.87" y1="19.23" x2="56.87" y2="0.44"/><line class="cls-2" x1="59.7" y1="11.19" x2="59.7" y2="0.44"/><line class="cls-2" x1="62.54" y1="11.19" x2="62.54" y2="0.44"/><line class="cls-2" x1="65.37" y1="11.19" x2="65.37" y2="0.44"/><line class="cls-2" x1="68.21" y1="11.19" x2="68.21" y2="0.44"/><line class="cls-4" x1="71.04" y1="14.35" x2="71.04" y2="0.44"/><line class="cls-2" x1="73.88" y1="11.19" x2="73.88" y2="0.19"/><line class="cls-2" x1="76.71" y1="11.19" x2="76.71" y2="0.43"/><line class="cls-2" x1="79.55" y1="11.19" x2="79.55" y2="0.43"/><line class="cls-2" x1="82.38" y1="11.19" x2="82.38" y2="0.43"/><line class="cls-2" x1="85.22" y1="11.19" x2="85.22" y2="0.43"/><line class="cls-2" x1="88.05" y1="11.19" x2="88.05" y2="0.43"/><line class="cls-2" x1="90.89" y1="11.19" x2="90.89" y2="0.43"/><line class="cls-2" x1="93.73" y1="11.19" x2="93.73" y2="0.42"/><line class="cls-2" x1="96.56" y1="11.19" x2="96.56" y2="0.42"/><line class="cls-4" x1="99.4" y1="14.35" x2="99.4" y2="0.42"/><line class="cls-2" x1="102.23" y1="11.19" x2="102.23" y2="0.42"/><line class="cls-2" x1="105.07" y1="11.19" x2="105.07" y2="0.42"/><line class="cls-2" x1="107.9" y1="11.19" x2="107.9" y2="0.42"/><line class="cls-2" x1="110.74" y1="11.19" x2="110.74" y2="0.42"/><line class="cls-4" x1="113.57" y1="19.19" x2="113.57" y2="0.39"/><line class="cls-2" x1="116.41" y1="11.19" x2="116.41" y2="0.41"/><line class="cls-2" x1="119.24" y1="11.19" x2="119.24" y2="0.41"/><line class="cls-2" x1="122.08" y1="11.19" x2="122.08" y2="0.41"/><line class="cls-2" x1="124.91" y1="11.19" x2="124.91" y2="0.41"/><line class="cls-4" x1="127.75" y1="14.19" x2="127.75" y2="0.41"/><line class="cls-2" x1="130.58" y1="11.19" x2="130.58" y2="0.41"/><line class="cls-2" x1="133.42" y1="11.19" x2="133.42" y2="0.4"/><line class="cls-2" x1="136.25" y1="11.19" x2="136.25" y2="0.4"/><line class="cls-2" x1="139.09" y1="11.19" x2="139.09" y2="0.4"/><line class="cls-4" x1="141.93" y1="20.05" x2="141.93" y2="0.4"/><line class="cls-2" x1="144.76" y1="11.19" x2="144.76" y2="0.4"/><line class="cls-2" x1="147.6" y1="11.19" x2="147.6" y2="0.4"/><line class="cls-2" x1="150.43" y1="11.19" x2="150.43" y2="0.4"/><line class="cls-2" x1="153.27" y1="11.19" x2="153.27" y2="0.39"/><line class="cls-4" x1="156.1" y1="14.35" x2="156.1" y2="0.39"/><line class="cls-2" x1="158.94" y1="11.19" x2="158.94" y2="0.39"/><line class="cls-2" x1="161.77" y1="11.19" x2="161.77" y2="0.39"/><line class="cls-2" x1="164.61" y1="11.19" x2="164.61" y2="0.39"/><line class="cls-2" x1="167.44" y1="11.19" x2="167.44" y2="0.39"/><line class="cls-4" x1="170.28" y1="19.33" x2="170.28" y2="0.39"/><line class="cls-2" x1="173.11" y1="11.19" x2="173.11" y2="0.38"/><line class="cls-2" x1="175.95" y1="11.19" x2="175.95" y2="0.38"/><line class="cls-2" x1="178.78" y1="11.19" x2="178.78" y2="0.38"/><line class="cls-2" x1="181.62" y1="11.19" x2="181.62" y2="0.38"/><line class="cls-4" x1="184.46" y1="14.35" x2="184.46" y2="0.38"/><line class="cls-2" x1="187.29" y1="11.19" x2="187.29" y2="0.38"/><line class="cls-2" x1="190.13" y1="11.19" x2="190.13" y2="0.38"/><line class="cls-2" x1="192.96" y1="11.19" x2="192.96" y2="0.37"/><line class="cls-2" x1="195.8" y1="11.19" x2="195.8" y2="0.37"/><line class="cls-4" x1="198.63" y1="19.33" x2="198.63" y2="0.37"/><line class="cls-2" x1="201.47" y1="11.19" x2="201.47" y2="0.37"/><line class="cls-2" x1="204.3" y1="11.19" x2="204.3" y2="0.37"/><line class="cls-2" x1="207.14" y1="11.19" x2="207.14" y2="0.37"/><line class="cls-2" x1="209.97" y1="11.19" x2="209.97" y2="0.37"/><line class="cls-4" x1="212.81" y1="14.19" x2="212.81" y2="0.36"/><line class="cls-2" x1="215.64" y1="11.19" x2="215.64" y2="0.36"/><line class="cls-2" x1="218.48" y1="11.19" x2="218.48" y2="0.36"/><line class="cls-2" x1="221.31" y1="11.19" x2="221.31" y2="0.36"/><line class="cls-2" x1="224.15" y1="11.19" x2="224.15" y2="0.36"/><line class="cls-4" x1="226.98" y1="19.19" x2="226.98" y2="0.11"/><line class="cls-2" x1="229.82" y1="11.19" x2="229.82" y2="0.36"/><line class="cls-2" x1="232.65" y1="11.19" x2="232.65" y2="0.35"/><line class="cls-2" x1="235.49" y1="11.19" x2="235.49" y2="0.35"/><line class="cls-2" x1="238.33" y1="11.19" x2="238.33" y2="0.35"/><line class="cls-4" x1="241.16" y1="14.19" x2="241.16" y2="0.35"/><line class="cls-2" x1="244" y1="11.19" x2="244" y2="0.35"/><line class="cls-2" x1="246.83" y1="11.19" x2="246.83" y2="0.35"/><line class="cls-2" x1="249.67" y1="11.19" x2="249.67" y2="0.35"/><line class="cls-2" x1="252.5" y1="11.19" x2="252.5" y2="0.34"/><line class="cls-4" x1="255.34" y1="19.19" x2="255.34" y2="0.34"/><line class="cls-2" x1="258.17" y1="11.19" x2="258.17" y2="0.34"/><line class="cls-2" x1="261.01" y1="11.19" x2="261.01" y2="0.34"/><line class="cls-2" x1="263.84" y1="11.19" x2="263.84" y2="0.34"/><line class="cls-2" x1="266.68" y1="11.19" x2="266.68" y2="0.34"/><line class="cls-4" x1="269.51" y1="14.35" x2="269.51" y2="0.34"/><line class="cls-2" x1="272.35" y1="11.19" x2="272.35" y2="0.33"/><line class="cls-2" x1="275.19" y1="11.19" x2="275.19" y2="0.33"/><line class="cls-2" x1="278.02" y1="11.19" x2="278.02" y2="0.33"/><line class="cls-2" x1="280.85" y1="11.19" x2="280.85" y2="0.33"/><line class="cls-4" x1="283.69" y1="19.67" x2="283.69" y2="0.33"/><line class="cls-2" x1="286.52" y1="11.19" x2="286.52" y2="0.33"/><line class="cls-2" x1="289.36" y1="11.19" x2="289.36" y2="0.33"/><line class="cls-2" x1="292.19" y1="11.19" x2="292.19" y2="0.32"/><line class="cls-2" x1="295.02" y1="11.19" x2="295.02" y2="0.32"/><line class="cls-4" x1="297.86" y1="14.35" x2="297.86" y2="0.32"/><line class="cls-2" x1="300.69" y1="11.19" x2="300.69" y2="0.32"/><line class="cls-2" x1="303.53" y1="11.19" x2="303.53" y2="0.32"/><line class="cls-2" x1="306.36" y1="11.19" x2="306.36" y2="0.32"/><line class="cls-2" x1="309.2" y1="11.19" x2="309.2" y2="0.32"/><line class="cls-4" x1="312.03" y1="19.23" x2="312.03" y2="0.31"/><line class="cls-2" x1="314.87" y1="11.19" x2="314.87" y2="0.31"/><line class="cls-2" x1="317.7" y1="11.19" x2="317.7" y2="0.31"/><line class="cls-2" x1="320.54" y1="11.19" x2="320.54" y2="0.31"/><line class="cls-2" x1="323.38" y1="11.19" x2="323.38" y2="0.31"/><line class="cls-4" x1="326.21" y1="14.35" x2="326.21" y2="0.31"/><line class="cls-2" x1="329.05" y1="11.19" x2="329.05" y2="0.31"/><line class="cls-2" x1="331.88" y1="11.19" x2="331.88" y2="0.3"/><line class="cls-2" x1="334.72" y1="11.19" x2="334.72" y2="0.3"/><line class="cls-2" x1="337.55" y1="11.19" x2="337.55" y2="0.3"/><line class="cls-4" x1="340.39" y1="19.19" x2="340.39" y2="0.11"/><line class="cls-2" x1="343.22" y1="11.19" x2="343.22" y2="0.3"/><line class="cls-2" x1="346.06" y1="11.19" x2="346.06" y2="0.3"/><line class="cls-2" x1="348.89" y1="11.19" x2="348.89" y2="0.3"/><line class="cls-2" x1="351.73" y1="11.19" x2="351.73" y2="0.29"/><line class="cls-4" x1="354.56" y1="14.19" x2="354.56" y2="0.29"/><line class="cls-2" x1="357.4" y1="11.19" x2="357.4" y2="0.29"/><line class="cls-2" x1="360.23" y1="11.19" x2="360.23" y2="0.29"/><line class="cls-2" x1="363.07" y1="11.19" x2="363.07" y2="0.29"/><line class="cls-2" x1="365.91" y1="11.19" x2="365.91" y2="0.29"/><line class="cls-4" x1="368.74" y1="19.19" x2="368.74" y2="0.29"/><line class="cls-2" x1="371.58" y1="11.19" x2="371.58" y2="0.28"/><line class="cls-2" x1="374.41" y1="11.19" x2="374.41" y2="0.28"/><line class="cls-2" x1="377.25" y1="11.19" x2="377.25" y2="0.28"/><line class="cls-2" x1="380.08" y1="11.19" x2="380.08" y2="0.28"/><line class="cls-4" x1="382.92" y1="14.35" x2="382.92" y2="0.28"/><line class="cls-2" x1="385.75" y1="11.19" x2="385.75" y2="0.28"/><line class="cls-2" x1="388.59" y1="11.19" x2="388.59" y2="0.28"/><line class="cls-2" x1="391.42" y1="11.19" x2="391.42" y2="0.27"/><line class="cls-2" x1="394.26" y1="11.19" x2="394.26" y2="0.27"/><line class="cls-4" x1="397.09" y1="19.23" x2="397.09" y2="0.27"/><line class="cls-2" x1="399.93" y1="11.19" x2="399.93" y2="0.27"/><line class="cls-2" x1="402.76" y1="11.19" x2="402.76" y2="0.27"/><line class="cls-2" x1="405.6" y1="11.19" x2="405.6" y2="0.27"/><line class="cls-2" x1="408.44" y1="11.19" x2="408.44" y2="0.26"/><line class="cls-4" x1="411.27" y1="14.35" x2="411.27" y2="0.26"/><line class="cls-2" x1="414.1" y1="11.19" x2="414.1" y2="0.26"/><line class="cls-2" x1="416.94" y1="11.19" x2="416.94" y2="0.26"/><line class="cls-2" x1="419.78" y1="11.19" x2="419.78" y2="0.26"/><line class="cls-2" x1="422.61" y1="11.19" x2="422.61" y2="0.26"/><line class="cls-4" x1="425.44" y1="19.67" x2="425.44" y2="0.26"/><line class="cls-2" x1="428.28" y1="11.19" x2="428.28" y2="0.26"/><line class="cls-2" x1="431.12" y1="11.19" x2="431.12" y2="0.25"/><line class="cls-2" x1="433.95" y1="11.19" x2="433.95" y2="0.25"/><line class="cls-4" x1="85.22" y1="19.19" x2="85.22" y2="0.43"/><line class="cls-2" x1="0.25" y1="14.4" x2="435.3" y2="14.4"/><path class="cls-2" d="M278,20l0,.83a5.74,5.74,0,1,0,11.48,0L289.4,20"/><path class="cls-2" d="M435.06,47.33H20.59a2.84,2.84,0,0,0-2.83,2.84v.28A2.61,2.61,0,0,0,20.59,53H435.3"/><path class="cls-2" d="M271.4,20.54a12.29,12.29,0,0,0,24.58,0"/><line class="cls-4" y1="19.57" x2="435.3" y2="19.57"/><line class="cls-5" x1="17.93" y1="50.48" x2="435.43" y2="50.48"/><path class="cls-6" d="M141.94,22.78a2.55,2.55,0,1,0-2.56-2.55A2.55,2.55,0,0,0,141.94,22.78Z"/><path class="cls-6" d="M425.46,22.78a2.55,2.55,0,1,0-2.55-2.55A2.56,2.56,0,0,0,425.46,22.78Z"/><path class="cls-6" d="M283.76,25.2a2.55,2.55,0,1,0-2.55-2.55A2.55,2.55,0,0,0,283.76,25.2Z"/><path class="cls-6" d="M283.7,35.34a2.56,2.56,0,1,0-2.55-2.55A2.55,2.55,0,0,0,283.7,35.34Z"/><path class="cls-6" d="M296,25.36a2.56,2.56,0,1,0-2.55-2.56A2.56,2.56,0,0,0,296,25.36Z"/><path class="cls-6" d="M272,25.36a2.56,2.56,0,1,0-2.55-2.56A2.56,2.56,0,0,0,272,25.36Z"/></g></g></svg>