<svg xmlns="http://www.w3.org/2000/svg" width="18.852" height="18.852" viewBox="0 0 18.852 18.852">
  <g id="Group_36" data-name="Group 36" transform="translate(-1236.689 380.79) rotate(-45)">
    <rect id="Rectangle_140" data-name="Rectangle 140" width="19.828" height="5.168" transform="translate(1133.816 615.958)" fill="#bde6f4"/>
    <g id="Group_35" data-name="Group 35" transform="translate(1133.4 615.542)">
      <path id="Path_199" data-name="Path 199" d="M1154.06,615.75v5.584a.208.208,0,0,1-.208.208h-20.244a.208.208,0,0,1-.208-.208V615.75a.208.208,0,0,1,.208-.208h20.244a.208.208,0,0,1,.208.208Zm-.416,5.376v-5.168h-19.828v5.168Z" transform="translate(-1133.4 -615.542)" fill="#6c6c6c"/>
      <path id="Path_200" data-name="Path 200" d="M1140.172,628v1.818a.208.208,0,0,1-.416,0V628a.208.208,0,0,1,.416,0Z" transform="translate(-1137.802 -624.027)" fill="#6c6c6c"/>
      <path id="Path_201" data-name="Path 201" d="M1149.752,624.832v2.792a.208.208,0,0,1-.416,0v-2.792a.208.208,0,0,1,.416,0Z" transform="translate(-1144.437 -621.832)" fill="#6c6c6c"/>
      <path id="Path_202" data-name="Path 202" d="M1159.309,628v1.818a.208.208,0,0,1-.416,0V628a.208.208,0,0,1,.416,0Z" transform="translate(-1151.055 -624.027)" fill="#6c6c6c"/>
      <path id="Path_203" data-name="Path 203" d="M1168.775,624.832v2.792a.208.208,0,0,1-.416,0v-2.792a.208.208,0,0,1,.416,0Z" transform="translate(-1157.611 -621.832)" fill="#6c6c6c"/>
      <path id="Path_204" data-name="Path 204" d="M1178.171,628v1.818a.208.208,0,0,1-.416,0V628a.208.208,0,0,1,.416,0Z" transform="translate(-1164.119 -624.027)" fill="#6c6c6c"/>
      <path id="Path_205" data-name="Path 205" d="M1188.189,624.832v2.792a.208.208,0,0,1-.416,0v-2.792a.208.208,0,0,1,.416,0Z" transform="translate(-1171.057 -621.832)" fill="#6c6c6c"/>
    </g>
  </g>
</svg>
