<svg id="Group_526" data-name="Group 526" xmlns="http://www.w3.org/2000/svg" xmlns:xlink="http://www.w3.org/1999/xlink" width="50" height="50" viewBox="0 0 50 50">
  <defs>
    <linearGradient id="linear-gradient" x1="0.5" y1="1" x2="0.5" gradientUnits="objectBoundingBox">
      <stop offset="0" stop-color="#eaeaea"/>
      <stop offset="0.207" stop-color="#d0d0d0"/>
      <stop offset="0.355" stop-color="#d0d0d0"/>
      <stop offset="1" stop-color="#d0d0d0"/>
    </linearGradient>
  </defs>
  <path id="Path_2138" data-name="Path 2138" d="M6,0H44a6,6,0,0,1,6,6V44a6,6,0,0,1-6,6H6a6,6,0,0,1-6-6V6A6,6,0,0,1,6,0Z" fill="url(#linear-gradient)"/>
  <path id="Path_684" data-name="Path 684" d="M6,0H38a6,6,0,0,1,6,6V38a6,6,0,0,1-6,6H6a6,6,0,0,1-6-6V6A6,6,0,0,1,6,0Z" transform="translate(3 3)" fill="#f4f4f4"/>
  <g id="Group_385" data-name="Group 385" transform="translate(-2 -2)">
    <g id="Group_171" data-name="Group 171" transform="translate(-211.726 -76)">
      <path id="Path_646" data-name="Path 646" d="M230.9,111.087l-.807,1.075a.276.276,0,0,0,.055.387l1.348,1.013.935.7a.275.275,0,0,0,.2.051.272.272,0,0,0,.183-.107l.807-1.074-.255-.192Z" fill="#fff"/>
      <path id="Path_647" data-name="Path 647" d="M230,113.217l-1.531,2.037,1.828,1.373,1.531-2.037-.914-.687Z" fill="#bde6f4"/>
      <path id="Path_648" data-name="Path 648" d="M247.278,90.848a16.337,16.337,0,0,0-2.573-1.6L230.616,109.9l-.005,0,0,.006a.112.112,0,0,0,0,.092.4.4,0,0,0,.147.2l3.367,2.53.128.1h0l.273.205a.4.4,0,0,0,.231.086.1.1,0,0,0,.09-.027h0l14.53-20.39A16.957,16.957,0,0,0,247.278,90.848Z" fill="#bde6f4"/>
      <path id="Path_649" data-name="Path 649" d="M249.5,90.895l-2.912-2.187a.4.4,0,0,0-.231-.086c-.049,0-.077.01-.089.027l-.39.519a18.817,18.817,0,0,1,3.379,2.535l.388-.516C249.674,91.147,249.641,91,249.5,90.895Z" fill="#bde6f4"/>
      <path id="Path_650" data-name="Path 650" d="M228.518,117.061l.753-.428-.552-.415Z" fill="#fff"/>
      <path id="Path_651" data-name="Path 651" d="M249.872,90.4l-2.911-2.187a1.02,1.02,0,0,0-.606-.211h0a.721.721,0,0,0-.583.276l-.442.588c-.2-.1-.4-.205-.589-.294a.31.31,0,0,0-.4.13.293.293,0,0,0-.053.058L230.1,109.545l0,.008a.723.723,0,0,0-.09.617,1.023,1.023,0,0,0,.372.526l.024.018-.807,1.074h0a.9.9,0,0,0-.051,1l-1.758,2.339a.311.311,0,0,0,.062.435l.327.246-.413,1.729v.01a.312.312,0,0,0,.278.45.312.312,0,0,0,.153-.04l1.614-.916.005,0,.362.272a.311.311,0,0,0,.435-.062l1.757-2.339a.876.876,0,0,0,.228.03.932.932,0,0,0,.129-.009.9.9,0,0,0,.592-.349l.807-1.075.024.018a1.02,1.02,0,0,0,.6.211h0a.721.721,0,0,0,.583-.275l0,0,0,0,14.683-20.6a.312.312,0,0,0-.028-.394h0v0c-.094-.1-.193-.207-.293-.31l.438-.584A.85.85,0,0,0,249.872,90.4Zm-21.354,26.663.2-.843.552.415Zm1.782-.433-1.828-1.373L230,113.217l.914.687.913.686Zm2.519-2.419a.272.272,0,0,1-.183.107.275.275,0,0,1-.2-.051l-.935-.7-1.348-1.013a.276.276,0,0,1-.055-.387l.807-1.075,2.47,1.856.255.192Zm2.023-1.122h0a.1.1,0,0,1-.09.027.4.4,0,0,1-.231-.086l-.273-.205h0l-.128-.1-3.367-2.53a.4.4,0,0,1-.147-.2.112.112,0,0,1,0-.092l0-.006.005,0,14.089-20.651a16.337,16.337,0,0,1,2.573,1.6,16.957,16.957,0,0,1,2.094,1.849Zm14.8-21.9-.388.516a18.817,18.817,0,0,0-3.379-2.535l.39-.519c.012-.017.04-.026.089-.027a.4.4,0,0,1,.231.086l2.912,2.187C249.641,91,249.674,91.147,249.644,91.187Z" fill="#6c6c6c"/>
    </g>
  </g>
</svg>
