<svg xmlns="http://www.w3.org/2000/svg" width="21.39" height="25.722" viewBox="0 0 21.39 25.722"><g transform="translate(-1079.789 -285.2)"><g transform="translate(1080.289 290.454)"><path d="M1080.7,321.254h13.62v-19.14H1080.7v19.14Zm13.827.414H1080.5a.207.207,0,0,1-.207-.207V301.907a.207.207,0,0,1,.207-.207h14.034a.207.207,0,0,1,.207.207v19.554a.207.207,0,0,1-.207.207Z" transform="translate(-1080.289 -301.7)" fill="#6c6c6c" stroke="#707070" stroke-width="1"/><rect width="13.62" height="19.14" transform="translate(0.414 0.414)" fill="#f4d3b3" stroke="#707070" stroke-width="1"/></g><g transform="translate(1083.26 288.077)"><path d="M1090.7,313.254h13.62v-19.14H1090.7v19.14Zm13.827.414H1090.5a.207.207,0,0,1-.207-.207V293.907a.207.207,0,0,1,.207-.207h14.034a.207.207,0,0,1,.207.207v19.554a.207.207,0,0,1-.207.207Z" transform="translate(-1090.289 -293.7)" fill="#6c6c6c" stroke="#707070" stroke-width="1"/><rect width="13.62" height="19.14" transform="translate(0.414 0.414)" fill="#f4c3e3" stroke="#707070" stroke-width="1"/></g><g transform="translate(1086.232 285.7)"><path d="M1100.7,305.254h13.62v-19.14H1100.7v19.14Zm13.827.414H1100.5a.207.207,0,0,1-.207-.207V285.907a.207.207,0,0,1,.207-.207h14.034a.207.207,0,0,1,.207.207v19.554a.207.207,0,0,1-.207.207Z" transform="translate(-1100.289 -285.7)" fill="#6c6c6c" stroke="#707070" stroke-width="1"/><rect width="13.62" height="19.14" transform="translate(0.414 0.414)" fill="#abd4ef" stroke="#707070" stroke-width="1"/></g></g></svg>