<svg xmlns="http://www.w3.org/2000/svg" width="90" height="66.694" viewBox="0 0 90 66.694">
  <g id="Group_194" data-name="Group 194" transform="translate(-61 -235.653)">
    <path id="Path_713" data-name="Path 713" d="M65.169,299.465h81.662L106,239.625Z" fill="#ffcc00"/>
    <path id="Path_714" data-name="Path 714" d="M150.971,300.618v0a.634.634,0,0,0-.022-.078,1.292,1.292,0,0,0-.172-.4l0-.008-43.583-63.87a1.473,1.473,0,0,0-2.38,0L61.248,300.1l-.02.03a1.547,1.547,0,0,0-.116.22c-.015.036-.026.073-.043.129a1.152,1.152,0,0,0-.04.142,1.465,1.465,0,0,0-.028.228v.059a.41.41,0,0,0,.006.078,1.476,1.476,0,0,0,.021.2,1.509,1.509,0,0,0,.043.153,1.152,1.152,0,0,0,.037.113,1.184,1.184,0,0,0,.074.148.964.964,0,0,0,.057.1,1.42,1.42,0,0,0,.1.136.915.915,0,0,0,.071.083,1.444,1.444,0,0,0,.468.318,1.425,1.425,0,0,0,.559.113H149.56a1.412,1.412,0,0,0,.26-.026c.025,0,.05-.01.072-.015a1.439,1.439,0,0,0,.187-.059c.022-.008.044-.016.066-.026a1.2,1.2,0,0,0,.164-.088l.1-.065a1.207,1.207,0,0,0,.269-.26,1.24,1.24,0,0,0,.083-.108,1.015,1.015,0,0,0,.06-.107l.015-.027a1.253,1.253,0,0,0,.057-.116,1.193,1.193,0,0,0,.038-.115l.01-.033c.012-.039.023-.078.032-.12a1.622,1.622,0,0,0,.022-.2l.005-.042v-.074A1.375,1.375,0,0,0,150.971,300.618Zm-85.8-1.153L106,239.625l40.831,59.84Z" fill="#6c6c6c"/>
  </g>
</svg>
