<svg xmlns="http://www.w3.org/2000/svg" width="32" height="32.973" viewBox="0 0 32 32.973"><g transform="translate(-103.507 -185.183)"><path d="M117.547,191.254c-.944.091-2.128.142-3.378.142s-2.455-.052-3.4-.144a24.351,24.351,0,0,1-2.4,3.521c-1.985,2.6-4.236,5.547-4.236,8.8,0,6.1,4.492,11.059,10.014,11.059a9.263,9.263,0,0,0,4.733-1.312,10.629,10.629,0,0,1-1.682-5.781c0-2.975,1.978-5.566,3.723-7.852.455-.6.9-1.173,1.272-1.722-.683-1.078-1.456-2.1-2.207-3.094A24.115,24.115,0,0,1,117.547,191.254Z" transform="translate(0.062 0.601)" fill="#fff"/><path d="M116.831,188.789a4.407,4.407,0,0,1,2.322-2.026,2.571,2.571,0,0,0-2.147-.958,3.058,3.058,0,0,0-1.461.35.34.34,0,0,1-.328,0,3.225,3.225,0,0,0-2.92,0,.338.338,0,0,1-.326,0,3.062,3.062,0,0,0-1.461-.35,2.571,2.571,0,0,0-2.147.958,4.366,4.366,0,0,1,2.314,2.025.33.33,0,0,1,.032.073,2.505,2.505,0,0,1,.167.686c.776.06,1.746.1,2.872.1s2.1-.041,2.876-.1a2.525,2.525,0,0,1,.176-.692A.346.346,0,0,1,116.831,188.789Z" transform="translate(0.481 0.062)" fill="#fff"/><path d="M122.242,196.617a10,10,0,0,1-.6,1.014l-.007.011c-.411.619-.9,1.264-1.413,1.931-1.678,2.2-3.582,4.692-3.582,7.436,0,5.144,3.787,9.329,8.442,9.329s8.442-4.185,8.442-9.329c0-2.685-1.875-5.165-3.53-7.352a20.844,20.844,0,0,1-2.05-3.039c-.676.067-1.591.11-2.839.11S122.92,196.685,122.242,196.617Z" transform="translate(1.301 1.133)" fill="#fff"/><path d="M117.391,189.781a39.083,39.083,0,0,1-7.384,0,8.337,8.337,0,0,1-1.133-.188v.894a20.109,20.109,0,0,0,4.825.39,20.094,20.094,0,0,0,4.825-.39v-.894A8.306,8.306,0,0,1,117.391,189.781Z" transform="translate(0.532 0.437)" fill="#f4b3b8"/><path d="M128.746,195.869V195.2a17.164,17.164,0,0,1-4.041.307,17.157,17.157,0,0,1-4.041-.307v.668a17.882,17.882,0,0,0,4.041.317A17.9,17.9,0,0,0,128.746,195.869Z" transform="translate(1.7 0.993)" fill="#f4b3b8"/><path d="M127.311,194.445a3.742,3.742,0,0,1,1.941-1.717,2.17,2.17,0,0,0-1.744-.741,2.539,2.539,0,0,0-1.214.29.34.34,0,0,1-.328,0,2.682,2.682,0,0,0-2.427,0,.34.34,0,0,1-.328,0,2.538,2.538,0,0,0-1.213-.29,2.167,2.167,0,0,0-1.744.741,3.708,3.708,0,0,1,1.933,1.717.387.387,0,0,1,.029.065,2.2,2.2,0,0,1,.138.552c.651.048,1.46.081,2.391.081s1.742-.033,2.394-.082a2.236,2.236,0,0,1,.156-.579C127.3,194.469,127.3,194.457,127.311,194.445Z" transform="translate(1.659 0.674)" fill="#fff"/><path d="M131.838,200.379a22.913,22.913,0,0,1-1.874-2.72c1.164-.2,1.165-.491,1.165-.635h0v-1.362h0c0-.311-.217-.51-1.3-.655a4.271,4.271,0,0,1,1.742-1.153.343.343,0,0,0,.184-.447.339.339,0,0,0-.145-.163,2.693,2.693,0,0,0-2.443-1.266,3.284,3.284,0,0,0-1.378.291,3.449,3.449,0,0,0-2.754,0,3.279,3.279,0,0,0-1.377-.291,2.7,2.7,0,0,0-2.444,1.266.337.337,0,0,0-.144.163.342.342,0,0,0,.182.447A4.239,4.239,0,0,1,122.989,195c-1.092.146-1.31.345-1.31.657v.864c-.362-.5-.729-.985-1.091-1.464a26.242,26.242,0,0,1-2.256-3.29c1.042-.146,1.408-.337,1.408-.7v-1.6c0-.335-.268-.559-1.583-.726a4.878,4.878,0,0,1,2.143-1.462.341.341,0,0,0,.024-.618,3.106,3.106,0,0,0-2.836-1.476,3.811,3.811,0,0,0-1.624.35,3.945,3.945,0,0,0-3.247,0,3.815,3.815,0,0,0-1.624-.35,3.106,3.106,0,0,0-2.836,1.476.34.34,0,0,0,.024.618,4.838,4.838,0,0,1,2.137,1.461c-1.326.167-1.6.391-1.6.728v1.6c0,.362.359.553,1.379.7a26.723,26.723,0,0,1-2.218,3.192c-2.052,2.687-4.377,5.732-4.377,9.218,0,6.475,4.8,11.742,10.7,11.742a9.954,9.954,0,0,0,5.123-1.432,8.827,8.827,0,0,0,7.054,3.669c5.032,0,9.126-4.492,9.126-10.013C135.507,205.228,133.558,202.652,131.838,200.379Zm-9.925-6.977a2.167,2.167,0,0,1,1.744-.741,2.538,2.538,0,0,1,1.213.29.34.34,0,0,0,.328,0,2.682,2.682,0,0,1,2.427,0,.34.34,0,0,0,.328,0,2.539,2.539,0,0,1,1.214-.29,2.17,2.17,0,0,1,1.744.741,3.742,3.742,0,0,0-1.941,1.717c-.007.012-.011.024-.016.036a2.236,2.236,0,0,0-.156.579c-.652.049-1.461.082-2.394.082s-1.74-.033-2.391-.081a2.2,2.2,0,0,0-.138-.552.388.388,0,0,0-.029-.065A3.708,3.708,0,0,0,121.913,193.4Zm4.491,3.1a17.164,17.164,0,0,0,4.041-.307v.668a17.9,17.9,0,0,1-4.041.317,17.883,17.883,0,0,1-4.041-.317v-.668A17.157,17.157,0,0,0,126.4,196.5Zm-17.558-9.675a2.571,2.571,0,0,1,2.147-.958,3.062,3.062,0,0,1,1.461.35.338.338,0,0,0,.326,0,3.225,3.225,0,0,1,2.92,0,.34.34,0,0,0,.328,0,3.058,3.058,0,0,1,1.461-.35,2.571,2.571,0,0,1,2.147.958,4.407,4.407,0,0,0-2.322,2.026.346.346,0,0,0-.03.065,2.525,2.525,0,0,0-.176.692c-.777.06-1.749.1-2.876.1s-2.1-.041-2.872-.1a2.505,2.505,0,0,0-.167-.686.331.331,0,0,0-.032-.073A4.366,4.366,0,0,0,108.846,186.825Zm.559,4.1v-.894a8.337,8.337,0,0,0,1.133.188,39.087,39.087,0,0,0,7.384,0,8.306,8.306,0,0,0,1.133-.188v.894a20.092,20.092,0,0,1-4.825.39A20.108,20.108,0,0,1,109.406,190.924Zm4.8,24.313c-5.522,0-10.014-4.961-10.014-11.059,0-3.256,2.251-6.2,4.236-8.8a24.35,24.35,0,0,0,2.4-3.521c.949.092,2.143.144,3.4.144s2.433-.051,3.378-.142a24.115,24.115,0,0,0,2.434,3.619c.751.991,1.524,2.016,2.207,3.094-.376.55-.817,1.127-1.272,1.722-1.744,2.286-3.723,4.877-3.723,7.852a10.629,10.629,0,0,0,1.682,5.781A9.263,9.263,0,0,1,114.2,215.236Zm12.177,2.236c-4.655,0-8.442-4.185-8.442-9.329,0-2.744,1.9-5.237,3.582-7.436.51-.667,1-1.312,1.413-1.931l.007-.011a10,10,0,0,0,.6-1.014c.678.068,1.6.112,2.861.112s2.163-.043,2.839-.11a20.844,20.844,0,0,0,2.05,3.039c1.655,2.187,3.53,4.667,3.53,7.352C134.823,213.287,131.036,217.472,126.381,217.472Z" transform="translate(0)" fill="#6c6c6c"/><path d="M125.022,207.1l2.322-4.059h-.728l-1.911,3.339L122.8,203.04h-.728l2.323,4.059v.735h-1.233v.632h1.233v.711h-1.233v.632h1.233v.832h.632v-.832h1.233v-.632h-1.233v-.711h1.233v-.632h-1.233Z" transform="translate(1.839 1.769)" fill="#545759"/><path d="M113.486,203.6l2.622-4.583h-.822l-2.157,3.77-2.158-3.77h-.822l2.623,4.583v.83H111.38v.713h1.392v.8H111.38v.713h1.392v.939h.713v-.939h1.392v-.713h-1.392v-.8h1.392v-.713h-1.392Z" transform="translate(0.658 1.371)" fill="#545759"/></g></svg>