<?xml version="1.0" encoding="utf-8"?>
<!-- Generator: Adobe Illustrator 22.1.0, SVG Export Plug-In . SVG Version: 6.00 Build 0)  -->
<svg version="1.1" id="Layer_1" xmlns="http://www.w3.org/2000/svg" xmlns:xlink="http://www.w3.org/1999/xlink" x="0px" y="0px"
	 viewBox="0 0 549.5 548.5" style="enable-background:new 0 0 549.5 548.5;" xml:space="preserve">
<style type="text/css">
	.st0{fill:none;stroke:#4029E5;stroke-miterlimit:10;}
	.st1{fill:#FFFFFF;stroke:#4029E5;stroke-miterlimit:10;}
	.st2{fill:#4029E5;}
	.st3{fill:#FF0000;}
	.st4{opacity:0.15;fill:#0000FF;}
	.st5{fill:#3900FF;}
</style>
<title>Asset 1</title>
<g id="Layer_2_1_">
	<g id="Layer_1-2">
		<path d="M12.5,12 h524 v524 h-524 v-524" class="st0" />
		<rect x="525" y="0.5" class="st1" width="24" height="24"/>
		<rect x="0.5" y="0.5" class="st1" width="24" height="24"/>
		<rect x="525" y="524" class="st1" width="24" height="24"/>
		<path class="st2" d="M534.6,7c0.7-0.3,1.5-0.5,2.3-0.5c3-0.1,5.5,2.3,5.6,5.3V12h3.7c-0.1-5-4.3-9-9.3-9c-1.8,0-3.5,0.5-5,1.4
			l-1.6-1.5v6h6.3L534.6,7z"/>
		<path class="st2" d="M538.8,17.3c-0.7,0.3-1.4,0.5-2.2,0.5c-3.1,0-5.6-2.5-5.6-5.6c0,0,0,0,0,0V12h-3.7c0,5.2,4.1,9.4,9.3,9.5
			c1.7,0,3.4-0.5,4.8-1.4l1.8,1.9v-6.7H537L538.8,17.3z"/>
		<rect x="525" y="262.3" class="st1" width="24" height="24"/>
		<g>
			<path class="st3" d="M543.7,280l-0.9,1l-5.8-5.8l-5.8,5.9l-0.9-1l5.8-5.8l-5.8-5.8l0.9-0.9l5.8,5.8l5.8-5.8l0.9,0.9l-5.8,5.8
				L543.7,280z"/>
		</g>
		<path class="st4" d="M26.5,521.9V28.7l493.2,493.2H26.5z M184.5,330c-18.8,0-34,15.2-34,34s15.2,34,34,34s34-15.2,34-34
			S203.3,330,184.5,330z"/>
		<path d="M28.5,33.6l486.3,486.3H28.5V33.6 M184.5,400c19.9,0,36-16.1,36-36s-16.1-36-36-36s-36,16.1-36,36S164.6,400,184.5,400
			 M24.5,23.9v500h500L24.5,23.9L24.5,23.9z M184.5,396c-17.7,0-32-14.3-32-32s14.3-32,32-32s32,14.3,32,32S202.2,396,184.5,396z"/>
		<polygon class="st5" points="1.6,12.5 7.3,18.4 7.3,14.2 17.7,14.2 17.7,18.4 23.4,12.5 17.7,6.6 17.7,10.8 7.3,10.8 7.3,6.6 		
			"/>
		<polygon class="st5" points="528.8,528.3 528.7,536.5 531.6,533.6 538.9,540.9 536,543.8 544.2,543.7 544.3,535.5 541.4,538.4 
			534.1,531.1 537,528.2 		"/>
	</g>
</g>
</svg>
