<?xml version="1.0" encoding="utf-8"?>
<!-- Generator: Adobe Illustrator 22.1.0, SVG Export Plug-In . SVG Version: 6.00 Build 0)  -->
<svg version="1.1" id="Layer_1" xmlns="http://www.w3.org/2000/svg" xmlns:xlink="http://www.w3.org/1999/xlink" x="0px" y="0px"
	 viewBox="0 0 549.5 548.5" style="enable-background:new 0 0 549.5 548.5;" xml:space="preserve">
<style type="text/css">
	.st0{fill:none;stroke:#4029E5;stroke-miterlimit:10;}
	.st1{fill:#FFFFFF;stroke:#4029E5;stroke-miterlimit:10;}
	.st2{fill:#4029E5;}
	.st3{fill:#FF0000;}
	.st4{opacity:0.15;fill:#0000FF;}
	.st5{fill:#3900FF;}
</style>
<title>Asset 4</title>
<g id="Layer_2_1_">
	<g id="Layer_1-2">
		<rect x="13" y="12" class="st0" width="524" height="524"/>
		<rect x="0.5" y="0.5" class="st1" width="24" height="24"/>
		<rect x="525" y="0.5" class="st1" width="24" height="24"/>
		<rect x="0.5" y="524" class="st1" width="24" height="24"/>
		<path class="st2" d="M10.3,7.6c0.7-0.3,1.5-0.5,2.3-0.5c3-0.1,5.5,2.3,5.6,5.3v0.2h3.7c-0.1-5-4.3-9-9.3-9c-1.8,0-3.5,0.5-5,1.4
			L6,3.5v6h6.3L10.3,7.6z"/>
		<path class="st2" d="M14.5,17.9c-0.7,0.3-1.4,0.5-2.2,0.5c-3.1,0-5.6-2.5-5.6-5.6c0,0,0,0,0,0v-0.2H3c0,5.2,4.1,9.4,9.3,9.5
			c1.7,0,3.4-0.5,4.8-1.4l1.8,1.9v-6.7h-6.2L14.5,17.9z"/>
		<rect x="0.5" y="262.3" class="st1" width="24" height="24"/>
		<g>
			<path class="st3" d="M11.6,274.2l-5.8-5.8l0.9-0.9l5.8,5.8l5.8-5.8l0.9,0.9l-5.8,5.8l5.8,5.8l-0.9,1l-5.8-5.8L6.7,281l-0.9-1
				L11.6,274.2z"/>
		</g>
		<path class="st4" d="M29.3,521.9L522.5,28.7v493.2H29.3z M364.5,330c-18.8,0-34,15.2-34,34s15.2,34,34,34s34-15.2,34-34
			S383.3,330,364.5,330z"/>
		<path d="M520.5,33.6v486.3H34.2L520.5,33.6 M364.5,400c19.9,0,36-16.1,36-36s-16.1-36-36-36s-36,16.1-36,36S344.6,400,364.5,400
			 M524.5,23.9l-500,500h500C524.5,523.9,524.5,23.9,524.5,23.9z M364.5,396c-17.7,0-32-14.3-32-32s14.3-32,32-32s32,14.3,32,32
			S382.2,396,364.5,396z"/>
		<polygon class="st5" points="547.9,12.5 542.2,18.4 542.2,14.2 531.8,14.2 531.8,18.4 526.1,12.5 531.8,6.6 531.8,10.8 
			542.2,10.8 542.2,6.6 		"/>
		<polygon class="st5" points="20.7,528.3 20.8,536.5 17.9,533.6 10.6,540.9 13.5,543.8 5.3,543.7 5.2,535.5 8.1,538.4 15.4,531.1 
			12.5,528.2 		"/>
	</g>
</g>
</svg>
