<?xml version="1.0" encoding="utf-8"?>
<!-- Generator: Adobe Illustrator 22.1.0, SVG Export Plug-In . SVG Version: 6.00 Build 0)  -->
<svg version="1.1" id="Layer_1" xmlns="http://www.w3.org/2000/svg" xmlns:xlink="http://www.w3.org/1999/xlink" x="0px" y="0px"
	 viewBox="0 0 449 598.6" style="enable-background:new 0 0 449 598.6;" xml:space="preserve">
<style type="text/css">
	.st0{fill:none;stroke:#4029E5;stroke-miterlimit:10;}
	.st1{fill:#FFFFFF;stroke:#4029E5;stroke-miterlimit:10;}
	.st2{fill:#4029E5;}
	.st3{fill:#FF0000;}
	.st4{fill:#3900FF;}
	.st5{opacity:0.15;fill:#0000FF;}
</style>
<title>Asset 3</title>
<g id="Layer_2_1_">
	<g id="Layer_1-2">
		<rect x="12.5" y="12" class="st0" width="424" height="574"/>
		<rect x="424.5" y="0.5" class="st1" width="24" height="24"/>
		<rect x="0.5" y="0.5" class="st1" width="24" height="24"/>
		<rect x="424.5" y="574.1" class="st1" width="24" height="24"/>
		<path class="st2" d="M434.4,7.3c0.7-0.3,1.5-0.5,2.3-0.5c3-0.1,5.5,2.3,5.6,5.3v0.2h3.8c-0.2-5-4.3-9-9.3-9c-1.8,0-3.5,0.5-5,1.4
			l-1.6-1.5v6h6.3L434.4,7.3z"/>
		<path class="st2" d="M438.5,17.6c-0.7,0.3-1.4,0.5-2.2,0.5c-3.1,0-5.6-2.5-5.6-5.6c0,0,0,0,0,0l0,0v-0.2H427
			c0,5.2,4.1,9.4,9.3,9.5c1.7,0,3.4-0.5,4.8-1.4l1.8,1.9v-6.7h-6.2L438.5,17.6z"/>
		<rect x="424.5" y="287.3" class="st1" width="24" height="24"/>
		<path class="st3" d="M443.2,305l-0.9,1l-5.8-5.8l-5.8,5.8l-0.9-1l5.8-5.8l-5.8-5.8l0.9-0.9l5.8,5.8l5.8-5.8l0.9,0.9l-5.8,5.8
			L443.2,305z"/>
		<polygon class="st4" points="7.3,6.6 7.3,10.8 17.7,10.8 17.7,6.6 23.4,12.5 17.7,18.4 17.7,14.2 7.3,14.2 7.3,18.4 1.6,12.5 		
			"/>
		<polygon class="st4" points="436.5,578.3 433.6,581.2 440.9,588.5 443.8,585.6 443.7,593.8 435.5,593.9 438.4,591 431.1,583.7 
			428.2,586.6 428.3,578.4 		"/>
		<path class="st5" d="M26.3,572.3V30.5l394.1,541.8H26.3z M139.9,424.9c-18.8,0-34,15.2-34,34s15.2,34,34,34s34-15.2,34-34
			S158.7,424.9,139.9,424.9z"/>
		<path d="M28.3,36.6l388.1,533.7H28.3V36.6 M139.9,494.9c19.9,0,36-16.1,36-36s-16.1-36-36-36s-36,16.1-36,36
			S120,494.9,139.9,494.9 M24.3,24.3v550h400L24.3,24.3L24.3,24.3z M139.9,490.9c-17.7,0-32-14.3-32-32s14.3-32,32-32s32,14.3,32,32
			S157.6,490.9,139.9,490.9z"/>
	</g>
</g>
</svg>
