<?xml version="1.0" encoding="utf-8"?>
<!-- Generator: Adobe Illustrator 22.1.0, SVG Export Plug-In . SVG Version: 6.00 Build 0)  -->
<svg version="1.1" id="Layer_1" xmlns="http://www.w3.org/2000/svg" xmlns:xlink="http://www.w3.org/1999/xlink" x="0px" y="0px"
	 viewBox="0 0 449 598.6" style="enable-background:new 0 0 449 598.6;" xml:space="preserve">
<style type="text/css">
	.st0{fill:none;stroke:#4029E5;stroke-miterlimit:10;}
	.st1{fill:#FFFFFF;stroke:#4029E5;stroke-miterlimit:10;}
	.st2{fill:#4029E5;}
	.st3{fill:#FF0000;}
	.st4{fill:#3900FF;}
	.st5{opacity:0.15;fill:#0000FF;}
</style>
<title>Asset 1</title>
<g id="Layer_2_1_">
	<g id="Layer_1-2">
		<rect x="12.5" y="12" class="st0" width="424" height="574"/>
		<rect x="0.5" y="0.5" class="st1" width="24" height="24"/>
		<rect x="424.5" y="0.5" class="st1" width="24" height="24"/>
		<rect x="0.5" y="574.1" class="st1" width="24" height="24"/>
		<path class="st2" d="M10.3,7.6c0.7-0.3,1.5-0.5,2.3-0.5c3-0.1,5.5,2.3,5.6,5.3v0.2h3.7c-0.2-5-4.3-9-9.3-9c-1.8,0-3.5,0.5-5,1.4
			L6,3.5v6h6.3L10.3,7.6z"/>
		<path class="st2" d="M14.5,17.9c-0.7,0.3-1.4,0.5-2.2,0.5c-3.1,0-5.6-2.5-5.6-5.6c0,0,0,0,0,0l0,0v-0.2H3c0,5.2,4.1,9.4,9.3,9.5
			c1.7,0,3.4-0.5,4.8-1.4l1.8,1.9v-6.7h-6.2L14.5,17.9z"/>
		<rect x="0.5" y="287.3" class="st1" width="24" height="24"/>
		<path class="st3" d="M11.6,299.2l-5.8-5.8l0.9-0.9l5.8,5.8l5.8-5.8l0.9,0.9l-5.8,5.8l5.8,5.8l-0.9,1l-5.8-5.8L6.7,306l-0.9-1
			L11.6,299.2z"/>
		<polygon class="st4" points="447.4,12.5 441.7,18.4 441.7,14.2 431.3,14.2 431.3,18.4 425.6,12.5 431.3,6.6 431.3,10.8 
			441.7,10.8 441.7,6.6 		"/>
		<polygon class="st4" points="20.7,578.4 20.8,586.6 17.9,583.7 10.6,591 13.5,593.9 5.3,593.8 5.2,585.6 8.1,588.5 15.4,581.2 
			12.5,578.3 		"/>
		<path class="st5" d="M28.2,572.3L422.3,30.5v541.8H28.2z M308.6,424.9c-18.8,0-34,15.2-34,34s15.2,34,34,34s34-15.2,34-34
			S327.4,424.9,308.6,424.9z"/>
		<path d="M420.3,36.6v533.7H32.1L420.3,36.6 M308.6,494.9c19.9,0,36-16.1,36-36s-16.1-36-36-36s-36,16.1-36,36
			S288.7,494.9,308.6,494.9 M424.3,24.3l-400,550h400V24.3z M308.6,490.9c-17.7,0-32-14.3-32-32s14.3-32,32-32s32,14.3,32,32
			S326.3,490.9,308.6,490.9z"/>
	</g>
</g>
</svg>
