<svg xmlns="http://www.w3.org/2000/svg" viewBox="0 0 181.6 446.1"><defs><style>.cls-1{fill:none;}.cls-1,.cls-2{stroke:#4029e5;stroke-miterlimit:10;}.cls-2{fill:#fff;}.cls-3{fill:#4029e5;}.cls-4{fill:red;}.cls-5{fill:#3900ff;}.cls-6{fill:#595959;}</style></defs><title>Asset 5</title><g id="Layer_2" data-name="Layer 2"><g id="Layer_1-2" data-name="Layer 1"><rect class="cls-1" x="12.5" y="12" width="156.6" height="424"/><rect class="cls-2" x="0.5" y="0.5" width="24" height="24"/><rect class="cls-2" x="157.1" y="0.5" width="24" height="24"/><rect class="cls-2" x="0.5" y="421.6" width="24" height="24"/><path class="cls-3" d="M10.35,7.3a5.93,5.93,0,0,1,2.3-.5,5.46,5.46,0,0,1,5.6,5.3v.2h3.8a9.35,9.35,0,0,0-9.3-9,9.66,9.66,0,0,0-5,1.4L6.15,3.2v6h6.3Z"/><path class="cls-3" d="M14.45,17.6a5.45,5.45,0,0,1-2.2.5,5.59,5.59,0,0,1-5.6-5.6h0v-.2H3a9.45,9.45,0,0,0,9.3,9.5,9,9,0,0,0,4.8-1.4l1.8,1.9V15.6h-6.2Z"/><rect class="cls-2" x="0.5" y="211.05" width="24" height="24"/><path class="cls-4" d="M11.6,223l-5.8-5.8.9-.9,5.8,5.8,5.8-5.8.9.9L13.4,223l5.8,5.8-.9,1L12.5,224l-5.8,5.8-.9-1Z"/><polygon class="cls-5" points="180 12.5 174.3 18.4 174.3 14.2 163.9 14.2 163.9 18.4 158.2 12.5 163.9 6.6 163.9 10.8 174.3 10.8 174.3 6.6 180 12.5"/><polygon class="cls-5" points="20.7 425.9 20.8 434.1 17.9 431.2 10.6 438.5 13.5 441.4 5.3 441.3 5.2 433.1 8.1 436 15.4 428.7 12.5 425.8 20.7 425.9"/><rect class="cls-6" x="78.31" y="22.68" width="21.01" height="52.53" transform="translate(177.62 97.89) rotate(-180)"/><polygon class="cls-6" points="47.3 422.68 47.3 422.68 47.3 399.04 40.08 399.04 47.3 422.68"/><rect class="cls-4" x="56.64" y="68.07" width="65.66" height="39.4" transform="translate(178.94 175.54) rotate(-180)"/><rect class="cls-4" x="56.64" y="80.05" width="65.66" height="54.83" rx="20.87" ry="20.87" transform="translate(178.94 214.94) rotate(-180)"/><circle class="cls-6" cx="88.81" cy="100.16" r="10.51"/><rect class="cls-4" x="48.76" y="122.49" width="15.76" height="278.42" transform="translate(83.8 528.07) rotate(-173.61)"/></g></g></svg>