<svg xmlns="http://www.w3.org/2000/svg" viewBox="0 0 181.6 446.1">
<defs>
<style>
.cls-1{fill:none;}
.cls-1,.cls-2{stroke:#4029e5;stroke-miterlimit:10;}
.cls-2{fill:#fff;}
.cls-3{fill:#4029e5;}
.cls-4{fill:red;}
.cls-5{fill:#3900ff;}
.cls-6{fill:#595959;}
</style>
</defs>
<title>Asset 1</title>
    <g id="Layer_2" data-name="Layer 2">
        <g id="Layer_1-2" data-name="Layer 1">
            <rect class="cls-1" x="12.5" y="12" width="156.6" height="424"/>
            <rect class="cls-2" x="157.1" y="0.5" width="24" height="24"/>
            <rect class="cls-2" x="0.5" y="0.5" width="24" height="24"/>
            <rect class="cls-2" x="157.1" y="421.6" width="24" height="24"/>
            <path class="cls-3" d="M167,7.3a5.93,5.93,0,0,1,2.3-.5,5.46,5.46,0,0,1,5.6,5.3v.2h3.8a9.35,9.35,0,0,0-9.3-9,9.66,9.66,0,0,0-5,1.4l-1.6-1.5v6h6.3Z"/>
            <path class="cls-3" d="M171.1,17.6a5.45,5.45,0,0,1-2.2.5,5.59,5.59,0,0,1-5.6-5.6h0v-.2h-3.7a9.45,9.45,0,0,0,9.3,9.5,9,9,0,0,0,4.8-1.4l1.8,1.9V15.6h-6.2Z"/>
            <rect class="cls-2" x="157.1" y="211.05" width="24" height="24"/>
            <path class="cls-4" d="M175.8,228.75l-.9,1-5.8-5.8-5.8,5.8-.9-1,5.8-5.8-5.8-5.8.9-.9,5.8,5.8,5.8-5.8.9.9L170,223Z"/>
            <polygon class="cls-5" points="7.3 6.6 7.3 10.8 17.7 10.8 17.7 6.6 23.4 12.5 17.7 18.4 17.7 14.2 7.3 14.2 7.3 18.4 1.6 12.5 7.3 6.6"/>
            <polygon class="cls-5" points="169.1 425.8 166.2 428.7 173.5 436 176.4 433.1 176.3 441.3 168.1 441.4 171 438.5 163.7 431.2 160.8 434.1 160.9 425.9 169.1 425.8"/>
            <rect class="cls-6" x="82.28" y="22.68" width="21.01" height="52.53"/><polygon class="cls-6" points="134.29 422.68 134.29 422.68 134.29 399.04 141.52 399.04 134.29 422.68"/>
            <rect class="cls-4" x="59.3" y="68.07" width="65.66" height="39.4"/><rect class="cls-4" x="59.3" y="80.05" width="65.66" height="54.83" rx="20.87" ry="20.87"/>
            <circle class="cls-6" cx="92.79" cy="100.16" r="10.51"/>
            <rect class="cls-4" x="117.08" y="122.49" width="15.76" height="278.42" transform="translate(-28.34 15.53) rotate(-6.39)"/>
        </g>
    </g>
</svg>
