<svg xmlns="http://www.w3.org/2000/svg" viewBox="0 0 537.5 148.45"><defs><style>.cls-1{fill:#efce0c;}.cls-2,.cls-3{fill:none;}.cls-2{stroke:#000;stroke-width:4px;}.cls-2,.cls-3,.cls-4{stroke-miterlimit:10;}.cls-3,.cls-4{stroke:#4029e5;}.cls-4{fill:#fff;}.cls-5{fill:#4029e5;}.cls-6{font-size:21px;fill:red;font-family:KozGoPr6N-Regular-90ms-RKSJ-H, Kozuka Gothic Pr6N;}</style></defs><title>Asset 2</title><g id="Layer_2" data-name="Layer 2"><g id="Layer_1-2" data-name="Layer 1"><rect id="rulerDragger" class="cls-1" x="14.5" y="26.5" width="496" height="96"/><path d="M508.5,28.5v92H16.5v-92h492m4-4H12.5v100h500V24.5Z"/><line class="cls-2" x1="38.5" y1="25" x2="38.5" y2="75"/><line class="cls-2" x1="113.5" y1="25" x2="113.5" y2="50"/><line class="cls-2" x1="188.5" y1="25" x2="188.5" y2="75"/><line class="cls-2" x1="263.5" y1="25" x2="263.5" y2="50"/><line class="cls-2" x1="338.5" y1="25" x2="338.5" y2="75"/><line class="cls-2" x1="413.5" y1="25" x2="413.5" y2="50"/><line class="cls-2" x1="488.5" y1="25" x2="488.5" y2="75"/><rect class="cls-3" x="0.5" y="12" width="524" height="124"/><rect id="rulerRotate" class="cls-4" x="513" y="0.5" width="24" height="24"/><rect id="rulerClose" class="cls-4" x="513" y="124.5" width="24" height="24"/><path class="cls-5" d="M522.56,7a5.76,5.76,0,0,1,2.29-.47A5.45,5.45,0,0,1,530.44,12h3.66a9.19,9.19,0,0,0-9.25-9,9.35,9.35,0,0,0-5,1.44L518.2,2.93v6h6.33Z"/><path class="cls-5" d="M526.85,17.26a5.44,5.44,0,0,1-2.19.46,5.58,5.58,0,0,1-5.6-5.71h-3.67a9.42,9.42,0,0,0,9.27,9.47,9,9,0,0,0,4.83-1.41L531.3,22V15.29H525Z"/><text class="cls-6" transform="translate(519.5 144.33)">×</text></g></g></svg>
