<svg xmlns="http://www.w3.org/2000/svg" viewBox="0 0 25 25">
    <defs>
        <style>
            .cls-1{fill:#fff;stroke:#4029e5;stroke-miterlimit:10;}.cls-2{fill:#4029e5;}
        </style>
    </defs>
    <title>Asset 2</title>
    <g id="Layer_2" data-name="Layer 2">
        <g id="Layer_1-2" data-name="Layer 1">
            <rect class="cls-1" x="0.5" y="0.5" width="24" height="24"/>
            <path class="cls-2" d="M10.35,7.3a5.91,5.91,0,0,1,2.3-.5,5.46,5.46,0,0,1,5.6,5.3v.2h3.8a9.35,9.35,0,0,0-9.3-9,9.7,9.7,0,0,0-5,1.4L6.15,3.2v6h6.3Z"/>
            <path class="cls-2" d="M14.45,17.6a5.4,5.4,0,0,1-2.2.5,5.59,5.59,0,0,1-5.6-5.58v0h0v-.2H3a9.45,9.45,0,0,0,9.3,9.5,9,9,0,0,0,4.8-1.4l1.8,1.9V15.6H12.7Z"/>
        </g>
    </g>
</svg>
