<svg xmlns="http://www.w3.org/2000/svg" width="26.805" height="22.912" viewBox="0 0 26.805 22.912"><g transform="translate(-158 -159.469)"><g transform="translate(158.526 159.995)"><path d="M164.672,169.938c.928,0,1.683-.538,1.683-1.2s-.755-1.2-1.683-1.2c-.054,0-.106,0-.159.006a.255.255,0,0,1-.065.009l-.013,0a1.823,1.823,0,0,0-1.205.569.214.214,0,0,1-.021.025.939.939,0,0,0-.22.59C162.988,169.4,163.743,169.938,164.672,169.938Z" transform="translate(-159.581 -161.704)" fill="#d3f49d"/><path d="M172.079,168.8c.929,0,1.684-.537,1.684-1.2v-.833a2.631,2.631,0,0,1-3.368,0v.833C170.395,168.264,171.15,168.8,172.079,168.8Z" transform="translate(-161.149 -161.54)" fill="#d3f49d"/><path d="M164.672,172.505c.928,0,1.683-.537,1.683-1.2v-.833a2.633,2.633,0,0,1-3.367,0v.833C162.988,171.968,163.743,172.505,164.672,172.505Z" transform="translate(-159.581 -162.324)" fill="#d3f49d"/><path d="M158.667,175.235l8.234,8.692v-4.1l-8.234-8.692Z" transform="translate(-158.667 -162.463)" fill="#d3f49d"/><path d="M183.358,166.889c0,.661.755,1.2,1.684,1.2a1.648,1.648,0,0,0,1.649-.956l0-.015a.872.872,0,0,0,.032-.227c0-.66-.755-1.2-1.684-1.2S183.358,166.229,183.358,166.889Z" transform="translate(-163.892 -161.312)" fill="#d3f49d"/><path d="M172.079,166.234c.929,0,1.684-.537,1.684-1.2s-.755-1.2-1.684-1.2a1.788,1.788,0,0,0-1.558.743.245.245,0,0,1-.03.059.882.882,0,0,0-.1.394C170.395,165.7,171.15,166.234,172.079,166.234Z" transform="translate(-161.149 -160.92)" fill="#d3f49d"/><path d="M179.486,162.53c.929,0,1.684-.537,1.684-1.2,0-.532-.491-.984-1.168-1.139a.335.335,0,0,1-.049-.01,2.3,2.3,0,0,0-.467-.048,1.656,1.656,0,0,0-1.643.941l-.006.017a.872.872,0,0,0-.034.24C177.8,161.993,178.558,162.53,179.486,162.53Z" transform="translate(-162.717 -160.136)" fill="#d3f49d"/><path d="M183.358,168.623v.833c0,.661.755,1.2,1.684,1.2s1.684-.537,1.684-1.2v-.833a2.634,2.634,0,0,1-3.368,0Z" transform="translate(-163.892 -161.932)" fill="#d3f49d"/><path d="M168.543,176.03v.833c0,.66.756,1.2,1.684,1.2s1.684-.537,1.684-1.2v-.833a2.631,2.631,0,0,1-3.368,0Z" transform="translate(-160.757 -163.5)" fill="#d3f49d"/><path d="M179.486,165.1c.929,0,1.684-.537,1.684-1.2v-.833a2.63,2.63,0,0,1-3.367,0v.833C177.8,164.56,178.558,165.1,179.486,165.1Z" transform="translate(-162.717 -160.756)" fill="#d3f49d"/><path d="M182.073,167.049v.959a2.277,2.277,0,0,1-4.418,0v-1.946a1.927,1.927,0,0,1,1.875-1.7l-1.836-1.935v1.205a2.278,2.278,0,0,1-4.419,0v-1.843l-2.676,1.263a1.75,1.75,0,0,1,1.254,1.553v1.947a2.278,2.278,0,0,1-4.418,0V164.6c0-.02,0-.039,0-.059l-2.875,1.361a1.808,1.808,0,0,1,1.452,1.619v1.947a2.278,2.278,0,0,1-4.419,0v-1.947a1.3,1.3,0,0,1,.02-.229l-2.724,1.285,8.38,8.844,17.019-8.037Zm-11.679,6.8a2.278,2.278,0,0,1-4.419,0V171.9a2.278,2.278,0,0,1,4.419,0Zm5.839-2.92a2.278,2.278,0,0,1-4.419,0v-1.946a2.278,2.278,0,0,1,4.419,0Z" transform="translate(-158.714 -160.485)" fill="#d3f49d"/><path d="M169.778,180.082v4.285l16.994-8.025v-4.285Z" transform="translate(-161.018 -162.659)" fill="#d3f49d"/><path d="M170.227,173.1c-.928,0-1.684.537-1.684,1.2s.756,1.2,1.684,1.2,1.684-.537,1.684-1.2S171.156,173.1,170.227,173.1Z" transform="translate(-160.757 -162.879)" fill="#d3f49d"/><path d="M175.951,172.326v.833c0,.66.755,1.2,1.684,1.2s1.683-.538,1.683-1.2v-.833a2.63,2.63,0,0,1-3.367,0Z" transform="translate(-162.325 -162.716)" fill="#d3f49d"/><path d="M177.635,169.4c-.929,0-1.684.538-1.684,1.2s.755,1.2,1.684,1.2,1.683-.537,1.683-1.2S178.563,169.4,177.635,169.4Z" transform="translate(-162.325 -162.095)" fill="#d3f49d"/></g><path d="M170.086,172.432a2.015,2.015,0,0,0-2.209,1.723V176.1a2.278,2.278,0,0,0,4.419,0v-1.947A2.015,2.015,0,0,0,170.086,172.432Zm1.684,3.67c0,.66-.755,1.2-1.684,1.2s-1.684-.537-1.684-1.2v-.833a2.631,2.631,0,0,0,3.368,0Zm-1.684-.75c-.928,0-1.684-.537-1.684-1.2s.756-1.2,1.684-1.2,1.684.537,1.684,1.2S171.015,175.352,170.086,175.352Z" transform="translate(-2.09 -2.743)" fill="#6c6c6c"/><path d="M177.494,168.729a2.014,2.014,0,0,0-2.21,1.723V172.4a2.278,2.278,0,0,0,4.419,0v-1.946A2.014,2.014,0,0,0,177.494,168.729Zm1.683,3.669c0,.66-.755,1.2-1.683,1.2s-1.684-.538-1.684-1.2v-.833a2.63,2.63,0,0,0,3.367,0Zm-1.683-.75c-.929,0-1.684-.537-1.684-1.2s.755-1.2,1.684-1.2,1.683.538,1.683,1.2S178.422,171.648,177.494,171.648Z" transform="translate(-3.658 -1.96)" fill="#6c6c6c"/><path d="M184.8,168.948a.243.243,0,0,0,0-.025c0-.008,0-.015-.006-.023l-.009-.027,0-.007-.008-.013a.238.238,0,0,0-.014-.024l-.015-.02-.009-.012-2.848-3v-.222a1.91,1.91,0,0,0-1.81-1.694l-2.57-2.708a1.86,1.86,0,0,0-1.6-1.634l-.017,0a2.831,2.831,0,0,0-.591-.063,2.229,2.229,0,0,0-2.1,1.2l-3.658,1.727-.079,0a2.325,2.325,0,0,0-1.994.981l-4.129,1.954a2.373,2.373,0,0,0-1.523.717l-3.66,1.727-.007,0a.237.237,0,0,0-.031.018l-.011.008a.236.236,0,0,0-.033.03l-.006.009a.191.191,0,0,0-.021.028l-.008.013c0,.009-.009.02-.013.03l-.006.013a.27.27,0,0,0-.011.043h0a.226.226,0,0,0,0,.04v4.866a.263.263,0,0,0,.073.181l8.76,9.246,0,0a.249.249,0,0,0,.032.027l.009.007a.3.3,0,0,0,.041.023l.007,0,.039.012.012,0a.241.241,0,0,0,.047,0h0a.267.267,0,0,0,.05-.006l.017-.006.027-.007.009,0,.006,0,17.519-8.272.015-.009.025-.015.02-.016a.189.189,0,0,0,.018-.017c.006-.006.011-.013.017-.02l.015-.02.012-.022a.2.2,0,0,0,.011-.023c0-.008,0-.017.007-.024a.225.225,0,0,0,.006-.024c0-.009,0-.019,0-.029l0-.017v-4.871A.248.248,0,0,0,184.8,168.948Zm-3.442-3.377a.872.872,0,0,1-.032.227l0,.015a1.648,1.648,0,0,1-1.649.956c-.929,0-1.684-.537-1.684-1.2s.755-1.2,1.684-1.2S181.359,164.912,181.359,165.572Zm0,1.114v.833c0,.661-.755,1.2-1.684,1.2s-1.684-.537-1.684-1.2v-.833a2.634,2.634,0,0,0,3.368,0Zm-7.713-5.733.006-.017a1.656,1.656,0,0,1,1.643-.941,2.3,2.3,0,0,1,.467.048.337.337,0,0,0,.049.01c.677.155,1.168.607,1.168,1.139,0,.66-.755,1.2-1.684,1.2s-1.683-.537-1.683-1.2A.872.872,0,0,1,173.646,160.953Zm-.034,1.353a2.63,2.63,0,0,0,3.367,0v.833c0,.66-.755,1.2-1.684,1.2s-1.683-.537-1.683-1.2Zm-5.744,1.412a.245.245,0,0,0,.03-.059,1.788,1.788,0,0,1,1.558-.743c.929,0,1.684.537,1.684,1.2s-.755,1.2-1.684,1.2-1.684-.537-1.684-1.2A.881.881,0,0,1,167.868,163.718Zm-.1,1.508a2.631,2.631,0,0,0,3.368,0v.833c0,.66-.755,1.2-1.684,1.2s-1.684-.537-1.684-1.2Zm-5.62,1.216a.214.214,0,0,0,.021-.025,1.823,1.823,0,0,1,1.205-.569l.013,0a.255.255,0,0,0,.065-.009c.053,0,.106-.006.159-.006.928,0,1.683.537,1.683,1.2s-.755,1.2-1.683,1.2-1.684-.538-1.684-1.2A.939.939,0,0,1,162.152,166.442Zm-.22,1.7a2.633,2.633,0,0,0,3.367,0v.833c0,.661-.755,1.2-1.683,1.2s-1.684-.537-1.684-1.2Zm4.827,13.312-8.234-8.691v-4.1l8.234,8.692Zm.323-4.526-8.38-8.844,2.724-1.285a1.3,1.3,0,0,0-.02.229v1.947a2.278,2.278,0,0,0,4.419,0v-1.947a1.808,1.808,0,0,0-1.452-1.619l2.875-1.361c0,.02,0,.039,0,.059v1.947a2.278,2.278,0,0,0,4.418,0v-1.947a1.75,1.75,0,0,0-1.254-1.553l2.676-1.263v1.843a2.278,2.278,0,0,0,4.419,0v-1.205l1.836,1.935a1.927,1.927,0,0,0-1.875,1.7v1.946a2.277,2.277,0,0,0,4.418,0v-.959L184.1,168.9Zm17.2-3.254L167.285,181.7v-4.286l16.993-8.025Z" fill="#6c6c6c"/></g></svg>