<svg xmlns="http://www.w3.org/2000/svg" width="22.053" height="30.114" viewBox="0 0 22.053 30.114"><g transform="translate(-180.015 -230)"><g transform="translate(182.235 234.655)"><rect width="2.653" height="1.937" transform="translate(4.911 15.103)" fill="#fff"/><rect width="2.653" height="1.937" transform="translate(9.822 15.103)" fill="#fff"/><rect width="2.653" height="1.938" transform="translate(9.822 10.675)" fill="#fff"/><rect width="2.653" height="1.937" transform="translate(9.822 19.53)" fill="#fff"/><rect width="2.653" height="1.937" transform="translate(0 15.103)" fill="#fff"/><rect width="2.653" height="1.938" transform="translate(0 10.675)" fill="#fff"/><rect width="2.653" height="1.937" transform="translate(4.911 19.53)" fill="#fff"/><rect width="2.653" height="1.938" transform="translate(4.911 10.675)" fill="#fff"/><rect width="2.653" height="1.438" transform="translate(0 6.634)" fill="#fff"/><rect width="2.653" height="1.937" transform="translate(0 19.53)" fill="#fff"/><rect width="2.653" height="1.438" transform="translate(4.911 6.634)" fill="#fff"/><rect width="16.672" height="3.407" transform="translate(0.408)" fill="#fff"/><rect width="2.653" height="1.438" transform="translate(9.822 6.634)" fill="#fff"/><rect width="2.653" height="1.938" transform="translate(14.732 10.675)" fill="#fff"/><rect width="2.653" height="1.438" transform="translate(14.732 6.634)" fill="#fff"/><rect width="2.653" height="6.264" transform="translate(14.732 15.153)" fill="#fff"/></g><path d="M198.214,230.622h-14.35a3.23,3.23,0,0,0-3.227,3.226V258.62a.868.868,0,0,0,.867.867h19.07a.868.868,0,0,0,.867-.867V233.848A3.23,3.23,0,0,0,198.214,230.622Zm-16.2,3.718a.313.313,0,0,1,.312-.312h17.3a.313.313,0,0,1,.312.312v4.031a.313.313,0,0,1-.312.312h-17.3a.313.313,0,0,1-.312-.312Zm3.494,22.092a.313.313,0,0,1-.312.312h-3.277a.312.312,0,0,1-.312-.312V253.87a.312.312,0,0,1,.312-.311H185.2a.312.312,0,0,1,.312.311Zm0-4.427a.313.313,0,0,1-.312.312h-3.277a.313.313,0,0,1-.312-.312v-2.562a.312.312,0,0,1,.312-.312H185.2a.313.313,0,0,1,.312.312Zm0-4.428a.313.313,0,0,1-.312.312h-3.277a.312.312,0,0,1-.312-.312v-2.562a.312.312,0,0,1,.312-.312H185.2a.313.313,0,0,1,.312.312Zm0-4.54a.313.313,0,0,1-.312.312h-3.277a.313.313,0,0,1-.312-.312v-2.063a.312.312,0,0,1,.312-.311H185.2a.312.312,0,0,1,.312.311Zm4.911,13.395a.312.312,0,0,1-.312.312h-3.277a.312.312,0,0,1-.312-.312V253.87a.312.312,0,0,1,.312-.311h3.277a.312.312,0,0,1,.312.311Zm0-4.427a.313.313,0,0,1-.312.312h-3.277a.313.313,0,0,1-.312-.312v-2.562a.312.312,0,0,1,.312-.312h3.277a.312.312,0,0,1,.312.312Zm0-4.428a.312.312,0,0,1-.312.312h-3.277a.312.312,0,0,1-.312-.312v-2.562a.312.312,0,0,1,.312-.312h3.277a.312.312,0,0,1,.312.312Zm0-4.54a.313.313,0,0,1-.312.312h-3.277a.313.313,0,0,1-.312-.312v-2.063a.312.312,0,0,1,.312-.311h3.277a.312.312,0,0,1,.312.311Zm4.911,13.395a.312.312,0,0,1-.312.312h-3.277a.312.312,0,0,1-.311-.312V253.87a.311.311,0,0,1,.311-.311h3.277a.312.312,0,0,1,.312.311Zm0-4.427a.313.313,0,0,1-.312.312h-3.277a.312.312,0,0,1-.311-.312v-2.562a.312.312,0,0,1,.311-.312h3.277a.312.312,0,0,1,.312.312Zm0-4.428a.312.312,0,0,1-.312.312h-3.277a.312.312,0,0,1-.311-.312v-2.562a.312.312,0,0,1,.311-.312h3.277a.312.312,0,0,1,.312.312Zm0-4.54a.313.313,0,0,1-.312.312h-3.277a.312.312,0,0,1-.311-.312v-2.063a.311.311,0,0,1,.311-.311h3.277a.312.312,0,0,1,.312.311Zm4.912,13.344a.313.313,0,0,1-.312.312h-3.277a.313.313,0,0,1-.312-.312v-6.888a.312.312,0,0,1,.312-.312h3.277a.313.313,0,0,1,.312.312Zm0-8.8a.313.313,0,0,1-.312.312h-3.277a.312.312,0,0,1-.312-.312v-2.562a.312.312,0,0,1,.312-.312h3.277a.313.313,0,0,1,.312.312Zm0-4.54a.313.313,0,0,1-.312.312h-3.277a.313.313,0,0,1-.312-.312v-2.063a.312.312,0,0,1,.312-.311h3.277a.312.312,0,0,1,.312.311Z" transform="translate(0.002 0.002)" fill="#e0e0e0"/><path d="M198.217,230h-14.35a3.855,3.855,0,0,0-3.852,3.851v24.772a1.494,1.494,0,0,0,1.492,1.492h19.07a1.494,1.494,0,0,0,1.492-1.492V233.851A3.855,3.855,0,0,0,198.217,230Zm3.227,28.622a.868.868,0,0,1-.867.867h-19.07a.868.868,0,0,1-.867-.867V233.851a3.23,3.23,0,0,1,3.227-3.226h14.35a3.23,3.23,0,0,1,3.227,3.226Z" transform="translate(0)" fill="#6c6c6c"/><path d="M182.323,238.671h17.3a.313.313,0,0,0,.312-.312v-4.031a.313.313,0,0,0-.312-.312h-17.3a.313.313,0,0,0-.312.312v4.031A.313.313,0,0,0,182.323,238.671Zm.312-4.031h16.672v3.407H182.635Z" transform="translate(0.008 0.015)" fill="#6c6c6c"/><path d="M185.195,240.625h-3.277a.312.312,0,0,0-.312.311V243a.313.313,0,0,0,.312.312h3.277a.313.313,0,0,0,.312-.312v-2.063A.312.312,0,0,0,185.195,240.625Zm-.312,2.062h-2.653v-1.438h2.653Z" transform="translate(0.006 0.04)" fill="#6c6c6c"/><path d="M190.087,240.625h-3.277a.312.312,0,0,0-.312.311V243a.313.313,0,0,0,.312.312h3.277A.313.313,0,0,0,190.4,243v-2.063A.312.312,0,0,0,190.087,240.625Zm-.312,2.062h-2.653v-1.438h2.653Z" transform="translate(0.025 0.04)" fill="#6c6c6c"/><path d="M194.979,240.625H191.7a.311.311,0,0,0-.311.311V243a.312.312,0,0,0,.311.312h3.277a.313.313,0,0,0,.312-.312v-2.063A.312.312,0,0,0,194.979,240.625Zm-.311,2.062h-2.654v-1.438h2.654Z" transform="translate(0.043 0.04)" fill="#6c6c6c"/><path d="M199.872,240.625h-3.277a.312.312,0,0,0-.312.311V243a.313.313,0,0,0,.312.312h3.277a.313.313,0,0,0,.312-.312v-2.063A.312.312,0,0,0,199.872,240.625Zm-.312,2.062h-2.653v-1.438h2.653Z" transform="translate(0.062 0.04)" fill="#6c6c6c"/><path d="M185.195,244.65h-3.277a.312.312,0,0,0-.312.312v2.562a.312.312,0,0,0,.312.312h3.277a.313.313,0,0,0,.312-.312v-2.562A.313.313,0,0,0,185.195,244.65Zm-.312,2.562h-2.653v-1.937h2.653Z" transform="translate(0.006 0.056)" fill="#6c6c6c"/><path d="M190.087,244.65h-3.277a.312.312,0,0,0-.312.312v2.562a.312.312,0,0,0,.312.312h3.277a.312.312,0,0,0,.312-.312v-2.562A.312.312,0,0,0,190.087,244.65Zm-.312,2.562h-2.653v-1.937h2.653Z" transform="translate(0.025 0.056)" fill="#6c6c6c"/><path d="M194.979,244.65H191.7a.312.312,0,0,0-.311.312v2.562a.312.312,0,0,0,.311.312h3.277a.312.312,0,0,0,.312-.312v-2.562A.312.312,0,0,0,194.979,244.65Zm-.311,2.562h-2.654v-1.937h2.654Z" transform="translate(0.043 0.056)" fill="#6c6c6c"/><path d="M199.872,244.65h-3.277a.312.312,0,0,0-.312.312v2.562a.312.312,0,0,0,.312.312h3.277a.313.313,0,0,0,.312-.312v-2.562A.313.313,0,0,0,199.872,244.65Zm-.312,2.562h-2.653v-1.937h2.653Z" transform="translate(0.062 0.056)" fill="#6c6c6c"/><path d="M185.195,249.061h-3.277a.312.312,0,0,0-.312.312v2.562a.313.313,0,0,0,.312.312h3.277a.313.313,0,0,0,.312-.312v-2.562A.313.313,0,0,0,185.195,249.061Zm-.312,2.562h-2.653v-1.937h2.653Z" transform="translate(0.006 0.072)" fill="#6c6c6c"/><path d="M190.087,249.061h-3.277a.312.312,0,0,0-.312.312v2.562a.313.313,0,0,0,.312.312h3.277a.313.313,0,0,0,.312-.312v-2.562A.312.312,0,0,0,190.087,249.061Zm-.312,2.562h-2.653v-1.937h2.653Z" transform="translate(0.025 0.072)" fill="#6c6c6c"/><path d="M194.979,249.061H191.7a.312.312,0,0,0-.311.312v2.562a.312.312,0,0,0,.311.312h3.277a.313.313,0,0,0,.312-.312v-2.562A.312.312,0,0,0,194.979,249.061Zm-.311,2.562h-2.654v-1.937h2.654Z" transform="translate(0.043 0.072)" fill="#6c6c6c"/><path d="M185.195,253.472h-3.277a.312.312,0,0,0-.312.311v2.562a.312.312,0,0,0,.312.312h3.277a.313.313,0,0,0,.312-.312v-2.562A.312.312,0,0,0,185.195,253.472Zm-.312,2.561h-2.653V254.1h2.653Z" transform="translate(0.006 0.089)" fill="#6c6c6c"/><path d="M190.087,253.472h-3.277a.312.312,0,0,0-.312.311v2.562a.312.312,0,0,0,.312.312h3.277a.312.312,0,0,0,.312-.312v-2.562A.312.312,0,0,0,190.087,253.472Zm-.312,2.561h-2.653V254.1h2.653Z" transform="translate(0.025 0.089)" fill="#6c6c6c"/><path d="M194.979,253.472H191.7a.311.311,0,0,0-.311.311v2.562a.312.312,0,0,0,.311.312h3.277a.312.312,0,0,0,.312-.312v-2.562A.312.312,0,0,0,194.979,253.472Zm-.311,2.561h-2.654V254.1h2.654Z" transform="translate(0.043 0.089)" fill="#6c6c6c"/><path d="M199.872,249.111h-3.277a.312.312,0,0,0-.312.312v6.888a.313.313,0,0,0,.312.312h3.277a.313.313,0,0,0,.312-.312v-6.888A.313.313,0,0,0,199.872,249.111ZM199.559,256h-2.653v-6.264h2.653Z" transform="translate(0.062 0.073)" fill="#6c6c6c"/></g></svg>