<svg xmlns="http://www.w3.org/2000/svg" xmlns:xlink="http://www.w3.org/1999/xlink" width="51.152" height="51.152" viewBox="0 0 51.152 51.152">
  <defs>
    <filter id="Path_101" x="0" y="0" width="51.152" height="51.152" filterUnits="userSpaceOnUse">
      <feOffset dy="3" input="SourceAlpha"/>
      <feGaussianBlur stdDeviation="3" result="blur"/>
      <feFlood flood-opacity="0.161"/>
      <feComposite operator="in" in2="blur"/>
      <feComposite in="SourceGraphic"/>
    </filter>
    <linearGradient id="linear-gradient" x1="0.5" y1="1" x2="0.5" gradientUnits="objectBoundingBox">
      <stop offset="0" stop-color="#f7f7f7"/>
      <stop offset="0.264" stop-color="#f3f3f3"/>
      <stop offset="0.523" stop-color="#e8e8e8"/>
      <stop offset="0.78" stop-color="#e6e6e6"/>
      <stop offset="1" stop-color="#e2e2e2"/>
    </linearGradient>
  </defs>
  <g id="Group_536" data-name="Group 536" transform="translate(-101.424 4.16)">
    <g id="Cancel" transform="translate(126.131 17.543)">
      <g transform="matrix(1, 0, 0, 1, -24.71, -21.7)" filter="url(#Path_101)">
        <path id="Path_101-2" data-name="Path 101" d="M16.577,0A16.577,16.577,0,1,1,0,16.577,16.577,16.577,0,0,1,16.577,0Z" transform="translate(9 6)" fill="#ddd"/>
      </g>
      <path id="Path_95" data-name="Path 95" d="M22.324,37.648A15.324,15.324,0,1,1,37.648,22.324,15.342,15.342,0,0,1,22.324,37.648Z" transform="translate(-21.454 -21.451)" fill="url(#linear-gradient)"/>
      <path id="Path_96" data-name="Path 96" d="M22.324,105.175A15.331,15.331,0,0,1,7.021,90.27c-.005.141-.021.279-.021.422a15.324,15.324,0,0,0,30.648,0c0-.141-.018-.277-.021-.419A15.332,15.332,0,0,1,22.324,105.175Z" transform="translate(-21.454 -89.82)" fill="#f5f5f5"/>
      <path id="Union_1" data-name="Union 1" d="M8.1,10.083,1.984,16.2,0,14.212,6.114,8.1,0,1.984,1.984,0,8.1,6.114,14.212,0,16.2,1.985,10.083,8.1,16.2,14.212,14.212,16.2Z" transform="translate(-7.06 -7.63)" fill="#6c6c6c" stroke="#626262" stroke-width="0.5"/>
    </g>
  </g>
</svg>
