<svg xmlns="http://www.w3.org/2000/svg" width="32" height="32" viewBox="0 0 32 32"><g transform="translate(-435 -230)"><path d="M451,232.853A13.147,13.147,0,1,0,464.147,246,13.161,13.161,0,0,0,451,232.853Zm1.841,2.28a.693.693,0,0,0-.9.008.884.884,0,0,0-.194.57l-.907-.09a1.488,1.488,0,0,1,.509-1.079,1.706,1.706,0,0,1,1.068-.327,1.544,1.544,0,0,1,1.105.379,1.243,1.243,0,0,1,.4.942,1.635,1.635,0,0,1-.116.611,2.461,2.461,0,0,1-.364.607,5.823,5.823,0,0,1-.6.606q-.43.395-.546.524a1.677,1.677,0,0,0-.186.253h1.808v.845h-3.191a2.2,2.2,0,0,1,.311-.908,6.054,6.054,0,0,1,1.024-1.139,6.44,6.44,0,0,0,.754-.777,1,1,0,0,0,.188-.557A.633.633,0,0,0,452.841,235.133Zm-5.442.284a2.673,2.673,0,0,0,.774-.442,1.694,1.694,0,0,0,.573-.76h.739v4.767h-.911v-3.43a3.132,3.132,0,0,1-1.175.69Zm-5.46,12.188a1.561,1.561,0,0,1-1.257.576,1.332,1.332,0,0,1-.9-.3,1.432,1.432,0,0,1-.44-.886l.881-.1a.631.631,0,0,0,.168.4.5.5,0,0,0,.36.13.588.588,0,0,0,.479-.259,2.2,2.2,0,0,0,.252-1.076,1.085,1.085,0,0,1-.858.4,1.283,1.283,0,0,1-.966-.433,1.575,1.575,0,0,1-.407-1.125,1.6,1.6,0,0,1,.429-1.165,1.554,1.554,0,0,1,2.279.117,2.884,2.884,0,0,1,.463,1.838A2.923,2.923,0,0,1,441.939,247.6Zm10.706,10.344a1.558,1.558,0,0,1-2.28-.118A2.874,2.874,0,0,1,449.9,256a2.929,2.929,0,0,1,.482-1.882,1.559,1.559,0,0,1,1.253-.576,1.33,1.33,0,0,1,.9.3,1.423,1.423,0,0,1,.452.879l-.881.1a.641.641,0,0,0-.169-.4.487.487,0,0,0-.353-.13.6.6,0,0,0-.487.259,2.175,2.175,0,0,0-.251,1.079,1.063,1.063,0,0,1,.845-.4,1.293,1.293,0,0,1,.977.434,1.573,1.573,0,0,1,.406,1.121A1.608,1.608,0,0,1,452.645,257.949Zm6.868-14.113-7.6,2.241a.915.915,0,0,1-1.827-.077.9.9,0,0,1,.079-.371l-4.478-4.505a.331.331,0,1,1,.47-.467l4.478,4.505a.9.9,0,0,1,.366-.077.913.913,0,0,1,.723.356l7.6-2.241a.332.332,0,0,1,.188.636Zm3.023,2.253a.588.588,0,0,0-.45-.2,1.607,1.607,0,0,0-.418.068l.1-.742a.8.8,0,0,0,.563-.16.569.569,0,0,0,.2-.452.49.49,0,0,0-.522-.524.551.551,0,0,0-.4.161.764.764,0,0,0-.2.473l-.839-.142a1.908,1.908,0,0,1,.264-.689,1.194,1.194,0,0,1,.493-.4,1.639,1.639,0,0,1,.707-.148,1.41,1.41,0,0,1,1.075.428,1.082,1.082,0,0,1-.35,1.788,1.1,1.1,0,0,1,.653.392,1.137,1.137,0,0,1,.245.735,1.422,1.422,0,0,1-.457,1.065,1.7,1.7,0,0,1-2.206.07,1.464,1.464,0,0,1-.492-.97l.881-.107a.834.834,0,0,0,.227.515.619.619,0,0,0,.447.178.611.611,0,0,0,.474-.214.824.824,0,0,0,.193-.576A.769.769,0,0,0,462.536,246.089Z" fill="#fdfdfd"/><path d="M451,230.663A15.337,15.337,0,1,0,466.337,246,15.354,15.354,0,0,0,451,230.663Zm0,29.147A13.81,13.81,0,1,1,464.81,246,13.825,13.825,0,0,1,451,259.81Z" fill="#f2b6f2"/><path d="M451,230a16,16,0,1,0,16,16A16.019,16.019,0,0,0,451,230Zm0,31.337A15.337,15.337,0,1,1,466.337,246,15.354,15.354,0,0,1,451,261.337Z" fill="#6c6c6c"/><path d="M459.325,243.2l-7.6,2.241a.913.913,0,0,0-.723-.356.9.9,0,0,0-.366.077l-4.478-4.505a.331.331,0,1,0-.47.467l4.478,4.505a.9.9,0,0,0-.079.371.915.915,0,0,0,1.827.077l7.6-2.241a.332.332,0,0,0-.188-.636Z" fill="#6c6c6c"/><path d="M451,232.19A13.81,13.81,0,1,0,464.81,246,13.825,13.825,0,0,0,451,232.19Zm0,26.957A13.147,13.147,0,1,1,464.147,246,13.161,13.161,0,0,1,451,259.147Z" fill="#6c6c6c"/><path d="M448.574,238.982h.911v-4.767h-.739a1.694,1.694,0,0,1-.573.76,2.673,2.673,0,0,1-.774.442v.825a3.132,3.132,0,0,0,1.175-.69Z" fill="#6c6c6c"/><path d="M452.063,236.935a6.054,6.054,0,0,0-1.024,1.139,2.2,2.2,0,0,0-.311.908h3.191v-.845h-1.808a1.677,1.677,0,0,1,.186-.253q.115-.129.546-.524a5.823,5.823,0,0,0,.6-.606,2.461,2.461,0,0,0,.364-.607,1.635,1.635,0,0,0,.116-.611,1.243,1.243,0,0,0-.4-.942,1.544,1.544,0,0,0-1.105-.379,1.706,1.706,0,0,0-1.068.327,1.488,1.488,0,0,0-.509,1.079l.907.09a.884.884,0,0,1,.194-.57.693.693,0,0,1,.9-.008.633.633,0,0,1,.164.468,1,1,0,0,1-.188.557A6.44,6.44,0,0,1,452.063,236.935Z" fill="#6c6c6c"/><path d="M462.054,247.423a.619.619,0,0,1-.447-.178.834.834,0,0,1-.227-.515l-.881.107a1.464,1.464,0,0,0,.492.97,1.7,1.7,0,0,0,2.206-.07,1.422,1.422,0,0,0,.457-1.065,1.137,1.137,0,0,0-.245-.735,1.1,1.1,0,0,0-.653-.392,1.082,1.082,0,0,0,.35-1.788,1.41,1.41,0,0,0-1.075-.428,1.639,1.639,0,0,0-.707.148,1.194,1.194,0,0,0-.493.4,1.908,1.908,0,0,0-.264.689l.839.142a.764.764,0,0,1,.2-.473.551.551,0,0,1,.4-.161.49.49,0,0,1,.522.524.569.569,0,0,1-.2.452.8.8,0,0,1-.563.16l-.1.742a1.607,1.607,0,0,1,.418-.068.588.588,0,0,1,.45.2.769.769,0,0,1,.185.544.824.824,0,0,1-.193.576A.611.611,0,0,1,462.054,247.423Z" fill="#6c6c6c"/><path d="M440.773,243.329a1.46,1.46,0,0,0-1.093.442,1.6,1.6,0,0,0-.429,1.165,1.575,1.575,0,0,0,.407,1.125,1.283,1.283,0,0,0,.966.433,1.085,1.085,0,0,0,.858-.4,2.2,2.2,0,0,1-.252,1.076.588.588,0,0,1-.479.259.5.5,0,0,1-.36-.13.631.631,0,0,1-.168-.4l-.881.1a1.432,1.432,0,0,0,.44.886,1.332,1.332,0,0,0,.9.3,1.561,1.561,0,0,0,1.257-.576,2.923,2.923,0,0,0,.483-1.879,2.884,2.884,0,0,0-.463-1.838A1.474,1.474,0,0,0,440.773,243.329Zm.449,2.29a.561.561,0,0,1-.442.207.568.568,0,0,1-.454-.215,1.037,1.037,0,0,1-.181-.675,1.012,1.012,0,0,1,.167-.653.523.523,0,0,1,.419-.2.6.6,0,0,1,.468.243,1.038,1.038,0,0,1,.2.683A.9.9,0,0,1,441.222,245.619Z" fill="#6c6c6c"/><path d="M451.689,255.225a1.063,1.063,0,0,0-.845.4,2.175,2.175,0,0,1,.251-1.079.6.6,0,0,1,.487-.259.487.487,0,0,1,.353.13.641.641,0,0,1,.169.4l.881-.1a1.423,1.423,0,0,0-.452-.879,1.33,1.33,0,0,0-.9-.3,1.559,1.559,0,0,0-1.253.576A2.929,2.929,0,0,0,449.9,256a2.874,2.874,0,0,0,.463,1.832,1.558,1.558,0,0,0,2.28.118,1.608,1.608,0,0,0,.427-1.169,1.573,1.573,0,0,0-.406-1.121A1.293,1.293,0,0,0,451.689,255.225Zm.324,2.212a.53.53,0,0,1-.421.2.6.6,0,0,1-.466-.241,1.034,1.034,0,0,1-.2-.686.893.893,0,0,1,.181-.607.584.584,0,0,1,.9.01,1.043,1.043,0,0,1,.182.678A1,1,0,0,1,452.013,257.437Z" fill="#6c6c6c"/></g></svg>