<svg xmlns="http://www.w3.org/2000/svg" width="465.157" height="465.157">
  <defs>
    <linearGradient id="a" x1=".151" y1=".151" x2=".858" y2=".858" gradientUnits="objectBoundingBox">
      <stop offset="0" stop-color="#212121"/>
      <stop offset="1" stop-color="#3d3d3d"/>
    </linearGradient>
  </defs>
  <g data-name="Group 535">
    <g data-name="Group 477">
      <g data-name="Group 468">
        <g data-name="Group 456" fill="#201600">
          <path data-name="Path 2035" d="M140.069 54.162V91.01h-6.042V61.44a20.863 20.863 0 0 1-8.413 4.489v-5.988a21.941 21.941 0 0 0 5.267-2.166 23.245 23.245 0 0 0 4.645-3.612z"/>
          <path data-name="Path 2036" d="M161.226 54.162V91.01h-6.039V61.44a20.842 20.842 0 0 1-8.411 4.489v-5.988a21.881 21.881 0 0 0 5.264-2.166 23.076 23.076 0 0 0 4.643-3.612z"/>
        </g>
        <g data-name="Group 457" fill="#201600">
          <path data-name="Path 2037" d="M73.592 119.912v36.85h-6.039v-29.573a20.883 20.883 0 0 1-8.411 4.492v-5.989a21.732 21.732 0 0 0 5.264-2.168 22.954 22.954 0 0 0 4.643-3.611z"/>
          <path data-name="Path 2038" d="M103.784 124.558q3.407 5.108 3.406 13.779t-3.406 13.78a12.12 12.12 0 0 1-20.129 0q-3.4-5.108-3.4-13.78t3.4-13.779a12.12 12.12 0 0 1 20.129 0zm-16.258 4.639a27.075 27.075 0 0 0-1.237 9.136 27.49 27.49 0 0 0 1.237 9.137c1.19 3.25 3.252 4.9 6.2 4.9 2.889 0 4.952-1.649 6.192-4.9a27.4 27.4 0 0 0 1.238-9.137 26.986 26.986 0 0 0-1.238-9.136c-1.239-3.3-3.3-4.9-6.192-4.9-2.948 0-5.011 1.6-6.2 4.9z"/>
        </g>
        <g data-name="Group 458">
          <path data-name="Path 2039" d="M57.171 218.28c2.374 3.2 3.56 7.586 3.56 13.263 0 5.986-1.288 10.891-3.768 14.606a11.749 11.749 0 0 1-10.167 5.573q-10.915 0-12.229-10.063h5.884c.721 3.406 2.837 5.109 6.4 5.109 2.427 0 4.389-1.238 5.885-3.612a16.028 16.028 0 0 0 2.115-8.517v-.462h-.254a10.381 10.381 0 0 1-3.87 3.353 11.694 11.694 0 0 1-4.957 1.034 11.288 11.288 0 0 1-8.723-3.562 12.219 12.219 0 0 1-3.2-8.825 12.1 12.1 0 0 1 3.715-9.135 12.715 12.715 0 0 1 9.286-3.615c4.488.004 7.948 1.606 10.323 4.853zm-15.38 2.322a7.84 7.84 0 0 0-1.959 5.574 7.291 7.291 0 0 0 1.959 5.417 6.832 6.832 0 0 0 5.264 2.065 7 7 0 0 0 5.267-2.065 8.147 8.147 0 0 0 1.906-5.623 7.411 7.411 0 0 0-2.01-5.523 7.057 7.057 0 0 0-5.163-2.012 6.85 6.85 0 0 0-5.265 2.172z" fill="#201600"/>
        </g>
        <g data-name="Group 459">
          <path data-name="Path 2040" d="M82.009 310.102a9.033 9.033 0 0 1 3.146 6.971 8.665 8.665 0 0 1-1.24 4.748 8.82 8.82 0 0 1-4.075 3.146v.1a8.381 8.381 0 0 1 4.437 3.1 9.462 9.462 0 0 1 2.116 6.038 10.114 10.114 0 0 1-3.612 8c-2.425 2.011-5.83 3.042-10.219 3.042-4.438 0-7.843-1.031-10.217-3.042a9.962 9.962 0 0 1-3.615-8 9.176 9.176 0 0 1 2.118-6.038 8.194 8.194 0 0 1 4.439-3.1v-.1a8.323 8.323 0 0 1-4.08-3.146 8.71 8.71 0 0 1-1.237-4.748 8.863 8.863 0 0 1 3.149-6.971c2.321-2.115 5.468-3.146 9.442-3.146 3.921 0 7.07 1.031 9.448 3.146zm-15.33 19.354a6.012 6.012 0 0 0-1.959 4.748 5.487 5.487 0 0 0 2.065 4.49 8.669 8.669 0 0 0 5.778 1.7 9.284 9.284 0 0 0 5.885-1.756 5.605 5.605 0 0 0 1.959-4.437 6.131 6.131 0 0 0-1.907-4.7 10.223 10.223 0 0 0-11.821-.053zm.672-15.948a4.876 4.876 0 0 0-1.7 3.77 5.606 5.606 0 0 0 1.4 4.024c1.132 1.186 2.941 1.8 5.519 1.8 2.53 0 4.388-.618 5.523-1.8a5.6 5.6 0 0 0 1.4-4.024 4.872 4.872 0 0 0-1.708-3.77 8.612 8.612 0 0 0-10.423 0z" fill="#201600"/>
        </g>
        <g data-name="Group 460">
          <path data-name="Path 2041" d="M150.029 374.151V379l-12.905 32h-6.4l13.21-31.38h-18.836v-5.468z" fill="#201600"/>
        </g>
        <g data-name="Group 461">
          <path data-name="Path 2042" d="M245.303 408.792h-5.886c-.722-3.411-2.89-5.113-6.4-5.113a6.582 6.582 0 0 0-5.885 3.616 15.554 15.554 0 0 0-2.115 8.515v.465h.258a9.307 9.307 0 0 1 3.871-3.358 10.965 10.965 0 0 1 4.958-1.031 11.274 11.274 0 0 1 8.667 3.458 12.584 12.584 0 0 1 3.252 8.926 12.138 12.138 0 0 1-3.768 9.137 12.9 12.9 0 0 1-9.239 3.612c-4.54 0-8-1.65-10.375-4.9-2.374-3.2-3.509-7.588-3.509-13.214 0-6.04 1.238-10.889 3.768-14.6a11.629 11.629 0 0 1 10.169-5.574q10.839.002 12.234 10.061zm-17.755 10.063a7.816 7.816 0 0 0-1.911 5.626 7.493 7.493 0 0 0 2.014 5.521 6.971 6.971 0 0 0 5.161 2.01 6.725 6.725 0 0 0 5.212-2.168 7.854 7.854 0 0 0 2.015-5.573 7.684 7.684 0 0 0-1.912-5.416 6.983 6.983 0 0 0-5.314-2.063 6.649 6.649 0 0 0-5.26 2.063z" fill="#201600"/>
        </g>
        <g data-name="Group 462">
          <path data-name="Path 2043" d="M337.793 374.151v5.315h-17.6l-1.034 10.116h.156a10.161 10.161 0 0 1 3.924-2.479 12.469 12.469 0 0 1 4.489-.773 11.2 11.2 0 0 1 8.464 3.406c2.168 2.273 3.3 5.419 3.3 9.4a11.621 11.621 0 0 1-4.338 9.339 14.608 14.608 0 0 1-9.5 3.253 13.882 13.882 0 0 1-8.619-2.735 10.734 10.734 0 0 1-4.385-8.159h5.934a6.208 6.208 0 0 0 2.374 4.49 8.907 8.907 0 0 0 10.27-.719 7.071 7.071 0 0 0 2.218-5.42 8.54 8.54 0 0 0-1.909-5.833 6.831 6.831 0 0 0-5.471-2.115 9.239 9.239 0 0 0-4.13.826 6.634 6.634 0 0 0-2.99 2.839h-5.627l2.013-20.746z" fill="#201600"/>
        </g>
        <g data-name="Group 463">
          <path data-name="Path 2044" d="M401.582 308.402v24.155h5.471v4.8h-5.471v7.9h-5.729v-7.9h-17.8v-5.728l18.009-23.225zm-18.632 24.155h12.9v-16.515h-.157z" fill="#201600"/>
        </g>
        <g data-name="Group 464">
          <path data-name="Path 2045" d="M427.241 216.115a9.117 9.117 0 0 1 3.352 7.485c0 4.024-2.062 6.71-6.14 8.051a10.469 10.469 0 0 1 5.008 2.993 7.811 7.811 0 0 1 1.857 5.368 10.808 10.808 0 0 1-3.562 8.36 14.088 14.088 0 0 1-9.754 3.355 13.9 13.9 0 0 1-9.241-2.943c-2.578-2.168-4.022-5.367-4.333-9.495h6.144a7.468 7.468 0 0 0 2.269 5.523 7.28 7.28 0 0 0 5.112 1.8 7.7 7.7 0 0 0 5.523-1.959 5.965 5.965 0 0 0 1.8-4.386 5.594 5.594 0 0 0-1.909-4.646 8.265 8.265 0 0 0-5.418-1.5h-2.583v-4.54h2.583a7.657 7.657 0 0 0 4.952-1.4 5.173 5.173 0 0 0 1.652-4.13 5.339 5.339 0 0 0-1.5-4.078 7.212 7.212 0 0 0-4.8-1.391 6.469 6.469 0 0 0-7.173 6.555h-5.936a12 12 0 0 1 4.127-8.67 12.946 12.946 0 0 1 8.932-3.048c3.721.012 6.764.89 9.038 2.696z" fill="#201600"/>
        </g>
        <g data-name="Group 465">
          <path data-name="Path 2046" d="M401.943 123.009a10.27 10.27 0 0 1 3.406 8 12.776 12.776 0 0 1-3.613 8.723 47.583 47.583 0 0 1-7.638 5.934c-3.77 2.478-6.037 4.646-6.864 6.5h18.167v5.316h-25.7a14.217 14.217 0 0 1 3.667-9.806c1.341-1.548 4.181-3.819 8.461-6.759a34 34 0 0 0 5.061-4.13 8.716 8.716 0 0 0 2.425-5.832 5.934 5.934 0 0 0-1.6-4.49 6.929 6.929 0 0 0-4.8-1.446 5.918 5.918 0 0 0-5.108 2.323c-1.135 1.444-1.756 3.665-1.861 6.555h-6.037a14.19 14.19 0 0 1 3.612-9.96 12.32 12.32 0 0 1 9.6-4.026 12.8 12.8 0 0 1 8.822 3.098z" fill="#201600"/>
        </g>
        <g data-name="Group 466">
          <path data-name="Path 2047" d="M327.107 54.162V91.01h-6.039V61.44a20.876 20.876 0 0 1-8.409 4.489v-5.988a22 22 0 0 0 5.262-2.166 23.142 23.142 0 0 0 4.643-3.612z" fill="#201600"/>
        </g>
        <g data-name="Group 467" fill="#201600">
          <path data-name="Path 2048" d="M223.316 28.864v36.85h-6.037V36.141a20.828 20.828 0 0 1-8.413 4.489v-5.986a21.793 21.793 0 0 0 5.262-2.168 22.86 22.86 0 0 0 4.645-3.612z"/>
          <path data-name="Path 2049" d="M252.837 31.237a10.26 10.26 0 0 1 3.406 8 12.769 12.769 0 0 1-3.609 8.723 47.636 47.636 0 0 1-7.641 5.936c-3.763 2.478-6.037 4.644-6.865 6.5h18.167v5.318h-25.7a14.213 14.213 0 0 1 3.664-9.807c1.343-1.55 4.181-3.821 8.462-6.761a34.316 34.316 0 0 0 5.061-4.127 8.732 8.732 0 0 0 2.427-5.833 5.935 5.935 0 0 0-1.6-4.49 6.932 6.932 0 0 0-4.8-1.446 5.925 5.925 0 0 0-5.108 2.322c-1.137 1.447-1.756 3.664-1.859 6.555h-6.039a14.217 14.217 0 0 1 3.612-9.96 12.33 12.33 0 0 1 9.6-4.024 12.779 12.779 0 0 1 8.822 3.094z"/>
        </g>
      </g>
      <g data-name="Group 469" fill="#201600">
        <path data-name="Rectangle 244" d="M206.464 1.465l3.614-.38 1.615 15.391-3.614.38z"/>
        <path data-name="Rectangle 245" d="M182.448 5.461l3.554-.755 3.217 15.137-3.553.756z"/>
        <path data-name="Rectangle 246" d="M158.984 11.943l3.455-1.12 4.775 14.719-3.455 1.12z"/>
        <path data-name="Rectangle 247" d="M136.321 20.847l3.318-1.478 6.297 14.137-3.318 1.478z"/>
        <path data-name="Rectangle 248" d="M94.405 45.484l2.94-2.133 9.084 12.52-2.94 2.132z"/>
        <path data-name="Rectangle 249" d="M75.606 60.952l2.698-2.43 10.353 11.499-2.698 2.429z"/>
        <path data-name="Rectangle 250" d="M58.526 78.303l2.43-2.699 11.5 10.356-2.43 2.699z"/>
        <path data-name="Rectangle 251" d="M43.353 97.342l2.134-2.938 12.52 9.097-2.133 2.937z"/>
        <path data-name="Rectangle 252" d="M19.371 139.639l1.478-3.318 14.135 6.297-1.478 3.317z"/>
        <path data-name="Rectangle 253" d="M10.824 162.432l1.125-3.454 14.714 4.791-1.125 3.455z"/>
        <path data-name="Rectangle 254" d="M4.706 186.006l.752-3.552 15.134 3.203-.751 3.552z"/>
        <path data-name="Rectangle 255" d="M1.085 210.078l.379-3.613 15.391 1.613-.378 3.614z"/>
        <path data-name="Rectangle 256" d="M1.086 255.084l15.39-1.614.38 3.613-15.391 1.613z"/>
        <path data-name="Rectangle 257" d="M4.707 279.155l15.138-3.209.753 3.554L5.46 282.71z"/>
        <path data-name="Rectangle 258" d="M10.824 302.726l14.718-4.783 1.122 3.453-14.718 4.783z"/>
        <path data-name="Rectangle 259" d="M19.371 325.518l14.143-6.298 1.479 3.32-14.143 6.299z"/>
        <path data-name="Rectangle 260" d="M43.353 367.816l12.52-9.084 2.13 2.938-12.519 9.083z"/>
        <path data-name="Rectangle 261" d="M58.524 386.855l11.504-10.35 2.43 2.7-11.504 10.35z"/>
        <path data-name="Rectangle 262" d="M75.608 404.207l10.349-11.503 2.7 2.43-10.348 11.503z"/>
        <path data-name="Rectangle 263" d="M94.402 419.671l9.099-12.517 2.942 2.138-9.1 12.517z"/>
        <path data-name="Rectangle 264" d="M136.325 444.318l6.29-14.142 3.322 1.477-6.29 14.143z"/>
        <path data-name="Rectangle 265" d="M158.985 453.215l4.781-14.715 3.456 1.123-4.781 14.715z"/>
        <path data-name="Rectangle 266" d="M182.453 459.702l3.207-15.137 3.554.753-3.207 15.137z"/>
        <path data-name="Rectangle 267" d="M206.466 463.697l1.61-15.398 3.613.378-1.61 15.398z"/>
        <path data-name="Rectangle 268" d="M253.471 448.686l3.615-.378 1.609 15.395-3.615.378z"/>
        <path data-name="Path 2050" d="M275.944 445.315l3.552-.753 3.221 15.133-3.557.754z"/>
        <path data-name="Rectangle 269" d="M297.942 439.621l3.454-1.122 4.781 14.715-3.454 1.122z"/>
        <path data-name="Path 2051" d="M319.229 431.652l3.317-1.477 6.293 14.14-3.319 1.473z"/>
        <path data-name="Rectangle 270" d="M358.716 409.296l2.937-2.141 9.114 12.503-2.937 2.141z"/>
        <path data-name="Rectangle 271" d="M376.506 395.133l2.697-2.428 10.355 11.501-2.697 2.428z"/>
        <path data-name="Path 2052" d="M392.71 379.2l2.427-2.7 11.5 10.356-2.427 2.7z"/>
        <path data-name="Path 2053" d="M407.157 361.661l2.135-2.94 12.519 9.1-2.139 2.935z"/>
        <path data-name="Rectangle 272" d="M430.178 322.551l1.475-3.32 14.14 6.283-1.475 3.32z"/>
        <path data-name="Path 2054" d="M438.5 301.396l1.122-3.453 14.719 4.777-1.127 3.458z"/>
        <path data-name="Rectangle 273" d="M444.563 279.495l.756-3.554 15.135 3.219-.755 3.554z"/>
        <path data-name="Rectangle 274" d="M448.307 257.078l.38-3.61 15.39 1.619-.38 3.609z"/>
        <path data-name="Rectangle 275" d="M448.307 208.079l15.39-1.616.379 3.614-15.39 1.615z"/>
        <path data-name="Rectangle 276" d="M444.563 185.666l15.136-3.219.755 3.553-15.135 3.22z"/>
        <path data-name="Rectangle 277" d="M438.5 163.763l14.715-4.782 1.123 3.455-14.715 4.782z"/>
        <path data-name="Rectangle 278" d="M430.178 142.62l14.135-6.302 1.48 3.32-14.135 6.301z"/>
        <path data-name="Rectangle 279" d="M407.155 103.496l12.525-9.089 2.132 2.939-12.524 9.089z"/>
        <path data-name="Rectangle 280" d="M392.707 85.959l11.497-10.352 2.43 2.7-11.497 10.351z"/>
        <path data-name="Rectangle 281" d="M376.502 70.024l10.353-11.498 2.7 2.431-10.353 11.498z"/>
        <path data-name="Rectangle 282" d="M358.724 55.874l9.084-12.52 2.939 2.133-9.084 12.52z"/>
        <path data-name="Rectangle 283" d="M319.23 33.509l6.284-14.14 3.32 1.475-6.284 14.14z"/>
        <path data-name="Rectangle 284" d="M297.943 25.54l4.782-14.717 3.454 1.123-4.782 14.716z"/>
        <path data-name="Rectangle 285" d="M275.948 19.845l3.21-15.139 3.553.754-3.21 15.138z"/>
        <path data-name="Rectangle 286" d="M253.474 16.477l1.604-15.392 3.615.377-1.605 15.392z"/>
      </g>
      <g data-name="Group 476" fill="#201600">
        <g data-name="Group 470">
          <path data-name="Rectangle 287" d="M227.129 0h10.905v15.476h-10.905z"/>
          <path data-name="Rectangle 288" d="M227.129 449.683h10.905v15.474h-10.905z"/>
        </g>
        <g data-name="Group 471">
          <path data-name="Rectangle 289" d="M111.568 33.886l9.444-5.453 7.738 13.4-9.443 5.454z"/>
          <path data-name="Path 2055" d="M353.592 431.274l-9.442 5.449-7.739-13.4 9.447-5.454z"/>
        </g>
        <g data-name="Group 472">
          <path data-name="Rectangle 290" d="M28.434 121.01l5.454-9.443 13.399 7.738-5.454 9.444z"/>
          <path data-name="Rectangle 291" d="M417.872 345.856l5.448-9.443 13.404 7.733-5.448 9.443z"/>
        </g>
        <g data-name="Group 473">
          <path data-name="Rectangle 292" d="M0 227.126h15.474v10.905H0z"/>
          <path data-name="Rectangle 293" d="M449.686 227.126h15.471v10.905h-15.471z"/>
        </g>
        <g data-name="Group 474">
          <path data-name="Rectangle 294" d="M28.434 344.151l13.399-7.741 5.454 9.442-13.398 7.74z"/>
          <path data-name="Rectangle 295" d="M417.872 119.302l13.403-7.733 5.449 9.444-13.403 7.733z"/>
        </g>
        <g data-name="Group 475">
          <path data-name="Rectangle 296" d="M111.57 431.275l7.737-13.401 9.442 5.45-7.738 13.402z"/>
          <path data-name="Rectangle 297" d="M336.41 41.832l7.74-13.4 9.444 5.455-7.74 13.4z"/>
        </g>
      </g>
    </g>
    <g data-name="Group 478">
      <path data-name="Rectangle 298" fill="#292929" d="M229.066 227.166l94.47-62.232 7.136 10.834L236.202 238z"/>
    </g>
    <g data-name="Group 479">
      <path data-name="Rectangle 299" fill="#242424" d="M89.159 152.479l4.993-8.351 140.975 84.275-4.992 8.351z"/>
    </g>
    <path data-name="Path 2056" d="M310.014 363.532l-71.633-124.071 1.369-.79-35.149-60.878-4.835 2.792 35.149 60.878 1.369-.792 71.63 124.069z" fill="#1c1c1c"/>
    <path data-name="Path 2057" d="M1820.722 6454.129a10.8 10.8 0 1 1-10.8-10.8 10.8 10.8 0 0 1 10.8 10.8z" transform="translate(-1577.29 -6222.434)" fill="url(#a)"/>
  </g>
</svg>