<svg xmlns="http://www.w3.org/2000/svg" width="90" height="90" viewBox="0 0 90 90">
  <g id="Group_190" data-name="Group 190" transform="translate(302 7)">
    <path id="Path_697" data-name="Path 697" d="M-257-5.135A43.184,43.184,0,0,0-300.135,38,43.182,43.182,0,0,0-257,81.134,43.183,43.183,0,0,0-213.865,38,43.184,43.184,0,0,0-257-5.135Zm32.729,30.652a.932.932,0,0,1-1.219-.505A34.036,34.036,0,0,0-257,3.912,34.127,34.127,0,0,0-291.088,38,34.126,34.126,0,0,0-257,72.087a34.036,34.036,0,0,0,31.51-21.1.933.933,0,0,1,1.219-.5.933.933,0,0,1,.5,1.219A35.9,35.9,0,0,1-257,73.953,35.993,35.993,0,0,1-292.953,38,35.994,35.994,0,0,1-257,2.046,35.9,35.9,0,0,1-223.767,24.3.933.933,0,0,1-224.271,25.517Z" fill="#c3996b"/>
    <path id="Path_698" data-name="Path 698" d="M-257-7a45.051,45.051,0,0,0-45,45,45.051,45.051,0,0,0,45,45,45.051,45.051,0,0,0,45-45A45.051,45.051,0,0,0-257-7Zm0,88.134A43.182,43.182,0,0,1-300.135,38,43.184,43.184,0,0,1-257-5.135,43.184,43.184,0,0,1-213.865,38,43.183,43.183,0,0,1-257,81.134Z" fill="#6c6c6c"/>
    <path id="Path_699" data-name="Path 699" d="M-257,2.046A35.994,35.994,0,0,0-292.953,38,35.993,35.993,0,0,0-257,73.953,35.9,35.9,0,0,0-223.767,51.7a.933.933,0,0,0-.5-1.219.933.933,0,0,0-1.219.5A34.036,34.036,0,0,1-257,72.087,34.126,34.126,0,0,1-291.088,38,34.127,34.127,0,0,1-257,3.912a34.036,34.036,0,0,1,31.51,21.1.932.932,0,0,0,1.219.505.933.933,0,0,0,.5-1.219A35.9,35.9,0,0,0-257,2.046Z" fill="#fff"/>
    <g id="Group_189" data-name="Group 189">
      <path id="Path_700" data-name="Path 700" d="M-248.167,20.846h-3.378a5.977,5.977,0,0,0-5.97,5.971V49.182a5.978,5.978,0,0,0,5.97,5.972h3.378a5.978,5.978,0,0,0,5.97-5.972V26.817A5.977,5.977,0,0,0-248.167,20.846Zm2.442,25.835c0,2.492-1.506,4.519-3.357,4.519h-1.549c-1.851,0-3.358-2.027-3.358-4.519V29.319c0-2.492,1.507-4.52,3.358-4.52h1.549c1.851,0,3.357,2.028,3.357,4.52Z" fill="#c3996b"/>
      <path id="Path_701" data-name="Path 701" d="M-264.377,21.974h-4.061a11.243,11.243,0,0,1-3.365,2.838v4l2.528-1.784a.423.423,0,0,1,.44-.031.424.424,0,0,1,.228.376V52.006a4.313,4.313,0,0,1-1.572,3.148h6.877a4.032,4.032,0,0,1-1.075-3.148Z" fill="#c3996b"/>
      <path id="Path_702" data-name="Path 702" d="M-261.564,55.175c-1.415-.471-1.968-1.36-1.968-3.169V21.55a.422.422,0,0,0-.422-.422h-4.7a.422.422,0,0,0-.347.18,10.555,10.555,0,0,1-3.415,2.872.423.423,0,0,0-.234.379v5.075a.423.423,0,0,0,.228.375.423.423,0,0,0,.439-.029l2.529-1.786V52.006c0,1.97-2.2,3.187-2.221,3.2a.422.422,0,0,0-.209.476.422.422,0,0,0,.409.32h9.776a.424.424,0,0,0,.417-.356A.424.424,0,0,0-261.564,55.175Zm-8.615-.021a4.313,4.313,0,0,0,1.572-3.148V27.378a.424.424,0,0,0-.228-.376.423.423,0,0,0-.44.031l-2.528,1.784v-4a11.243,11.243,0,0,0,3.365-2.838h4.061V52.006a4.032,4.032,0,0,0,1.075,3.148Z" fill="#fff"/>
      <path id="Path_703" data-name="Path 703" d="M-248.167,20h-3.378a6.825,6.825,0,0,0-6.817,6.817V49.182A6.825,6.825,0,0,0-251.545,56h3.378a6.825,6.825,0,0,0,6.816-6.818V26.817A6.824,6.824,0,0,0-248.167,20Zm5.97,29.182a5.978,5.978,0,0,1-5.97,5.972h-3.378a5.978,5.978,0,0,1-5.97-5.972V26.817a5.977,5.977,0,0,1,5.97-5.971h3.378a5.977,5.977,0,0,1,5.97,5.971Z" fill="#fff"/>
      <path id="Path_704" data-name="Path 704" d="M-249.082,24.8h-1.549c-1.851,0-3.358,2.028-3.358,4.52V46.681c0,2.492,1.507,4.519,3.358,4.519h1.549c1.851,0,3.357-2.027,3.357-4.519V29.319C-245.725,26.827-247.231,24.8-249.082,24.8Zm2.512,21.882c0,1.991-1.15,3.673-2.512,3.673h-1.549c-1.361,0-2.511-1.682-2.511-3.673V29.319c0-1.991,1.15-3.673,2.511-3.673h1.549c1.362,0,2.512,1.682,2.512,3.673Z" fill="#fff"/>
    </g>
  </g>
</svg>
