<svg xmlns="http://www.w3.org/2000/svg" width="30.575" height="32.506" viewBox="0 0 30.575 32.506"><g transform="translate(-69.664 -61.43)"><path d="M180.742,114.427a.394.394,0,0,1,.036.185h4.444v-6.2h-4.48Zm2.24-4.718a1.793,1.793,0,0,1,1.049.339l.023.013c.008.006.014.013.022.02a1.8,1.8,0,0,1-2.14,2.9c-.009-.006-.019-.01-.027-.017s-.014-.013-.022-.02a1.8,1.8,0,0,1,1.1-3.237Z" transform="translate(-98.049 -41.475)" fill="#fff"/><path d="M82.027,185.311l12.18-17.34H92.67l-.021,0L81.416,185Z" transform="translate(-10.373 -94.043)" fill="#abd4ef"/><path d="M219.515,185.742l.611-.316-11.505-17.439h-1.578Z" transform="translate(-121.266 -94.059)" fill="#abd4ef"/><path d="M198.06,131.96a1.012,1.012,0,0,0,.871-1.53l-1.108,1.5A1.015,1.015,0,0,0,198.06,131.96Z" transform="translate(-113.127 -60.907)" fill="#abd4ef"/><path d="M192.207,126.181a1.012,1.012,0,0,0-.873,1.528l1.107-1.5A1.008,1.008,0,0,0,192.207,126.181Z" transform="translate(-107.274 -57.156)" fill="#abd4ef"/><path d="M197.571,68.525a.348.348,0,1,0-.7,0v1.543h.7Z" transform="translate(-112.291 -5.956)" fill="#abd4ef"/><path d="M208.808,122.336l-.023-.013.045.034C208.822,122.35,208.816,122.343,208.808,122.336Z" transform="translate(-122.803 -53.751)" fill="#6c6c6c"/><path d="M190.521,147.053c.009.007.018.011.027.017l-.049-.037C190.507,147.04,190.513,147.047,190.521,147.053Z" transform="translate(-106.662 -75.562)" fill="#6c6c6c"/><path d="M187.345,119.806l-.045-.034a1.8,1.8,0,0,0-2.145,2.9l.049.037a1.8,1.8,0,0,0,2.14-2.9Zm-1.094.419a1.009,1.009,0,0,1,.234.029l-1.107,1.5a1.012,1.012,0,0,1,.873-1.528Zm0,2.028a1.015,1.015,0,0,1-.237-.029l1.108-1.5a1.012,1.012,0,0,1-.871,1.53Z" transform="translate(-101.319 -51.201)" fill="#6c6c6c"/><path d="M180.742,159.662v.185h.036A.394.394,0,0,0,180.742,159.662Z" transform="translate(-98.049 -86.71)" fill="#6c6c6c"/><path d="M100.178,93.329l-.834-1.321.266-.138.023-.012a.4.4,0,0,0,.1-.088.4.4,0,0,0,.086-.327h0a.4.4,0,0,0-.048-.128l-.013-.021-6.384-9.676.812-.679.078.122a.4.4,0,0,0,.666-.428l-.642-1a.4.4,0,0,0-.666.428l.132.206-.82.685-4.975-7.54V66.545a.4.4,0,0,0-.4-.4h-2.24V64.9h.348a.4.4,0,0,0,.4-.4V62.569a1.139,1.139,0,1,0-2.278,0v1.938a.4.4,0,0,0,.4.4h.347V66.15H82.3a.4.4,0,0,0-.4.4v6.511L70.143,90.88l-.015.023a.406.406,0,0,0-.048.127.393.393,0,0,0,.006.17h0a.4.4,0,0,0,.081.158h0a.4.4,0,0,0,.1.086l.023.013.266.138-.834,1.321a.4.4,0,0,0,.669.423l.871-1.379.327.169a.4.4,0,0,0,.281.035A.393.393,0,0,0,72.106,92L84.8,73.928h.113a.392.392,0,0,0,.07.246L97.8,92.416a.384.384,0,0,0,.076.083.4.4,0,0,0,.157.078.39.39,0,0,0,.094.011.412.412,0,0,0,.079-.008.4.4,0,0,0,.107-.038l.327-.169.87,1.379a.4.4,0,1,0,.669-.422ZM84.585,62.569a.348.348,0,1,1,.7,0v1.543h-.7Zm-12.931,28.7-.611-.316L82.276,73.926l.021,0h1.537ZM82.729,73.137h-.036v-6.2h4.48v6.2ZM98.249,91.683,85.778,73.928h1.578L98.861,91.367Z" transform="translate(0 0)" fill="#6c6c6c"/></g></svg>