<svg xmlns="http://www.w3.org/2000/svg" width="71.898" height="90" viewBox="0 0 71.898 90">
  <g id="Group_530" data-name="Group 530" transform="translate(-15 -5)">
    <g id="Group_201" data-name="Group 201" transform="translate(209.949 171)">
      <rect id="Rectangle_198" data-name="Rectangle 198" width="67.208" height="85.311" transform="translate(-192.604 -163.655)" fill="#fff"/>
      <path id="Path_723" data-name="Path 723" d="M-124.224-76h-69.552a1.173,1.173,0,0,1-1.173-1.172v-87.656A1.173,1.173,0,0,1-193.776-166h69.552a1.173,1.173,0,0,1,1.173,1.172v87.656A1.173,1.173,0,0,1-124.224-76Zm-68.38-2.344H-125.4v-85.311H-192.6v85.311Z" fill="#6c6c6c"/>
    </g>
    <g id="Group_205" data-name="Group 205" transform="translate(-70.986 -171.565)">
      <path id="Path_743" data-name="Path 743" d="M90.986,218.668v-1.374a7.3,7.3,0,0,0,2.708-.632,3.115,3.115,0,0,0,1.145-2.1h1.414v14.2H94.342v-10.1Z" fill="#6a6a6a"/>
      <path id="Path_744" data-name="Path 744" d="M131.144,216.845a10.2,10.2,0,0,1,.956,4.829,11.63,11.63,0,0,1-.866,4.81,4.241,4.241,0,0,1-4.1,2.728,4.107,4.107,0,0,1-3.823-2.23,10.213,10.213,0,0,1-1.046-5,12.349,12.349,0,0,1,.627-4.172q1.175-3.246,4.252-3.246A4.214,4.214,0,0,1,131.144,216.845Zm-1.8,9.5q.828-1.235.828-4.6a11.348,11.348,0,0,0-.6-4,2.277,2.277,0,0,0-2.324-1.568,2.43,2.43,0,0,0-2.319,1.489,10.262,10.262,0,0,0-.733,4.386,10.757,10.757,0,0,0,.469,3.505,2.549,2.549,0,0,0,4.678.787Z" transform="translate(-21.879)" fill="#6a6a6a"/>
      <path id="Path_745" data-name="Path 745" d="M177.631,216.845a10.2,10.2,0,0,1,.956,4.829,11.63,11.63,0,0,1-.866,4.81,4.241,4.241,0,0,1-4.1,2.728,4.108,4.108,0,0,1-3.824-2.23,10.213,10.213,0,0,1-1.046-5,12.349,12.349,0,0,1,.627-4.172q1.175-3.246,4.252-3.246A4.213,4.213,0,0,1,177.631,216.845Zm-1.8,9.5q.828-1.235.828-4.6a11.355,11.355,0,0,0-.6-4,2.277,2.277,0,0,0-2.324-1.568,2.429,2.429,0,0,0-2.319,1.489,10.261,10.261,0,0,0-.733,4.386,10.748,10.748,0,0,0,.469,3.505,2.549,2.549,0,0,0,4.678.787Z" transform="translate(-54.398)" fill="#6a6a6a"/>
      <path id="Path_746" data-name="Path 746" d="M270.606,216.845a10.2,10.2,0,0,1,.956,4.829,11.63,11.63,0,0,1-.866,4.81,4.241,4.241,0,0,1-4.1,2.728,4.107,4.107,0,0,1-3.823-2.23,10.213,10.213,0,0,1-1.046-5,12.349,12.349,0,0,1,.627-4.172q1.175-3.246,4.252-3.246A4.214,4.214,0,0,1,270.606,216.845Zm-1.8,9.5q.827-1.235.828-4.6a11.348,11.348,0,0,0-.6-4,2.276,2.276,0,0,0-2.324-1.568,2.43,2.43,0,0,0-2.319,1.489,10.263,10.263,0,0,0-.733,4.386,10.758,10.758,0,0,0,.469,3.505,2.549,2.549,0,0,0,4.678.787Z" transform="translate(-119.438)" fill="#6a6a6a"/>
      <path id="Path_747" data-name="Path 747" d="M224.118,216.845a10.2,10.2,0,0,1,.956,4.829,11.63,11.63,0,0,1-.866,4.81,4.241,4.241,0,0,1-4.1,2.728,4.108,4.108,0,0,1-3.824-2.23,10.213,10.213,0,0,1-1.046-5,12.349,12.349,0,0,1,.627-4.172q1.175-3.246,4.252-3.246A4.214,4.214,0,0,1,224.118,216.845Zm-1.8,9.5q.827-1.235.828-4.6a11.348,11.348,0,0,0-.6-4,2.277,2.277,0,0,0-2.324-1.568,2.429,2.429,0,0,0-2.319,1.489,10.262,10.262,0,0,0-.733,4.386,10.757,10.757,0,0,0,.469,3.505,2.549,2.549,0,0,0,4.678.787Z" transform="translate(-86.917)" fill="#6a6a6a"/>
      <path id="Path_748" data-name="Path 748" d="M90.986,218.668v-1.374a7.3,7.3,0,0,0,2.708-.632,3.115,3.115,0,0,0,1.145-2.1h1.414v14.2H94.342v-10.1Z" fill="#6a6a6a"/>
      <path id="Path_749" data-name="Path 749" d="M131.144,216.845a10.2,10.2,0,0,1,.956,4.829,11.63,11.63,0,0,1-.866,4.81,4.241,4.241,0,0,1-4.1,2.728,4.107,4.107,0,0,1-3.823-2.23,10.213,10.213,0,0,1-1.046-5,12.349,12.349,0,0,1,.627-4.172q1.175-3.246,4.252-3.246A4.214,4.214,0,0,1,131.144,216.845Zm-1.8,9.5q.828-1.235.828-4.6a11.348,11.348,0,0,0-.6-4,2.277,2.277,0,0,0-2.324-1.568,2.43,2.43,0,0,0-2.319,1.489,10.262,10.262,0,0,0-.733,4.386,10.757,10.757,0,0,0,.469,3.505,2.549,2.549,0,0,0,4.678.787Z" transform="translate(-21.879)" fill="#6a6a6a"/>
      <path id="Path_750" data-name="Path 750" d="M177.631,216.845a10.2,10.2,0,0,1,.956,4.829,11.63,11.63,0,0,1-.866,4.81,4.241,4.241,0,0,1-4.1,2.728,4.108,4.108,0,0,1-3.824-2.23,10.213,10.213,0,0,1-1.046-5,12.349,12.349,0,0,1,.627-4.172q1.175-3.246,4.252-3.246A4.213,4.213,0,0,1,177.631,216.845Zm-1.8,9.5q.828-1.235.828-4.6a11.355,11.355,0,0,0-.6-4,2.277,2.277,0,0,0-2.324-1.568,2.429,2.429,0,0,0-2.319,1.489,10.261,10.261,0,0,0-.733,4.386,10.748,10.748,0,0,0,.469,3.505,2.549,2.549,0,0,0,4.678.787Z" transform="translate(-54.398)" fill="#6a6a6a"/>
      <path id="Path_751" data-name="Path 751" d="M270.606,216.845a10.2,10.2,0,0,1,.956,4.829,11.63,11.63,0,0,1-.866,4.81,4.241,4.241,0,0,1-4.1,2.728,4.107,4.107,0,0,1-3.823-2.23,10.213,10.213,0,0,1-1.046-5,12.349,12.349,0,0,1,.627-4.172q1.175-3.246,4.252-3.246A4.214,4.214,0,0,1,270.606,216.845Zm-1.8,9.5q.827-1.235.828-4.6a11.348,11.348,0,0,0-.6-4,2.276,2.276,0,0,0-2.324-1.568,2.43,2.43,0,0,0-2.319,1.489,10.263,10.263,0,0,0-.733,4.386,10.758,10.758,0,0,0,.469,3.505,2.549,2.549,0,0,0,4.678.787Z" transform="translate(-119.438)" fill="#6a6a6a"/>
      <path id="Path_752" data-name="Path 752" d="M224.118,216.845a10.2,10.2,0,0,1,.956,4.829,11.63,11.63,0,0,1-.866,4.81,4.241,4.241,0,0,1-4.1,2.728,4.108,4.108,0,0,1-3.824-2.23,10.213,10.213,0,0,1-1.046-5,12.349,12.349,0,0,1,.627-4.172q1.175-3.246,4.252-3.246A4.214,4.214,0,0,1,224.118,216.845Zm-1.8,9.5q.827-1.235.828-4.6a11.348,11.348,0,0,0-.6-4,2.277,2.277,0,0,0-2.324-1.568,2.429,2.429,0,0,0-2.319,1.489,10.262,10.262,0,0,0-.733,4.386,10.757,10.757,0,0,0,.469,3.505,2.549,2.549,0,0,0,4.678.787Z" transform="translate(-86.917)" fill="#6a6a6a"/>
    </g>
  </g>
</svg>
