<svg xmlns="http://www.w3.org/2000/svg" width="71.898" height="90" viewBox="0 0 71.898 90">
  <g id="Group_527" data-name="Group 527" transform="translate(-15 -5)">
    <g id="Group_198" data-name="Group 198" transform="translate(209.949 171)">
      <rect id="Rectangle_195" data-name="Rectangle 195" width="67.208" height="85.311" transform="translate(-192.604 -163.655)" fill="#fff"/>
      <path id="Path_720" data-name="Path 720" d="M-124.224-76h-69.552a1.173,1.173,0,0,1-1.173-1.172v-87.656A1.173,1.173,0,0,1-193.776-166h69.552a1.173,1.173,0,0,1,1.173,1.172v87.656A1.173,1.173,0,0,1-124.224-76Zm-68.38-2.344H-125.4v-85.311H-192.6v85.311Z" fill="#6c6c6c"/>
    </g>
    <g id="Group_202" data-name="Group 202" transform="translate(-68.986 -185.565)">
      <path id="Path_725" data-name="Path 725" d="M90.986,226.348V222.4q5.577-.542,7.779-1.816t3.289-6.02h4.061v40.783h-5.491v-29Z" transform="translate(0 0)" fill="#6a6a6a"/>
      <path id="Path_726" data-name="Path 726" d="M147.773,221.114q2.746,5.061,2.745,13.871,0,8.352-2.488,13.814-3.6,7.837-11.783,7.836a11.8,11.8,0,0,1-10.982-6.406q-3-5.349-3-14.358a35.468,35.468,0,0,1,1.8-11.983q3.375-9.324,12.212-9.324Q144.226,214.565,147.773,221.114ZM142.592,248.4q2.378-3.547,2.378-13.213a32.593,32.593,0,0,0-1.719-11.483,6.539,6.539,0,0,0-6.674-4.5,6.978,6.978,0,0,0-6.661,4.275q-2.106,4.276-2.106,12.6a30.9,30.9,0,0,0,1.346,10.068q2.062,5.806,7.047,5.805A7.341,7.341,0,0,0,142.592,248.4Z" transform="translate(-4.285 0)" fill="#6a6a6a"/>
      <path id="Path_727" data-name="Path 727" d="M90.986,226.348V222.4q5.577-.542,7.779-1.816t3.289-6.02h4.061v40.783h-5.491v-29Z" transform="translate(0 0)" fill="#6a6a6a"/>
      <path id="Path_728" data-name="Path 728" d="M147.773,221.114q2.746,5.061,2.745,13.871,0,8.352-2.488,13.814-3.6,7.837-11.783,7.836a11.8,11.8,0,0,1-10.982-6.406q-3-5.349-3-14.358a35.468,35.468,0,0,1,1.8-11.983q3.375-9.324,12.212-9.324Q144.226,214.565,147.773,221.114ZM142.592,248.4q2.378-3.547,2.378-13.213a32.593,32.593,0,0,0-1.719-11.483,6.539,6.539,0,0,0-6.674-4.5,6.978,6.978,0,0,0-6.661,4.275q-2.106,4.276-2.106,12.6a30.9,30.9,0,0,0,1.346,10.068q2.062,5.806,7.047,5.805A7.341,7.341,0,0,0,142.592,248.4Z" transform="translate(-4.285 0)" fill="#6a6a6a"/>
    </g>
  </g>
</svg>
