<svg xmlns="http://www.w3.org/2000/svg" width="71.898" height="90" viewBox="0 0 71.898 90">
  <g id="Group_528" data-name="Group 528" transform="translate(-15 -5)">
    <g id="Group_199" data-name="Group 199" transform="translate(209.949 171)">
      <rect id="Rectangle_196" data-name="Rectangle 196" width="67.208" height="85.311" transform="translate(-192.604 -163.655)" fill="#fff"/>
      <path id="Path_721" data-name="Path 721" d="M-124.224-76h-69.552a1.173,1.173,0,0,1-1.173-1.172v-87.656A1.173,1.173,0,0,1-193.776-166h69.552a1.173,1.173,0,0,1,1.173,1.172v87.656A1.173,1.173,0,0,1-124.224-76Zm-68.38-2.344H-125.4v-85.311H-192.6v85.311Z" fill="#6c6c6c"/>
    </g>
    <g id="Group_203" data-name="Group 203" transform="translate(-70.986 -177.565)">
      <path id="Path_729" data-name="Path 729" d="M90.986,222.051v-2.508a13.317,13.317,0,0,0,4.942-1.154q1.4-.808,2.09-3.825h2.58v25.911H97.109V222.051Z" transform="translate(0 0)" fill="#6a6a6a"/>
      <path id="Path_730" data-name="Path 730" d="M138.47,218.726a18.616,18.616,0,0,1,1.744,8.813,21.221,21.221,0,0,1-1.581,8.776,7.739,7.739,0,0,1-7.486,4.978,7.5,7.5,0,0,1-6.977-4.07,18.637,18.637,0,0,1-1.908-9.122,22.534,22.534,0,0,1,1.145-7.613q2.144-5.924,7.759-5.924A7.689,7.689,0,0,1,138.47,218.726Zm-3.291,17.335q1.511-2.253,1.511-8.395a20.708,20.708,0,0,0-1.092-7.3,4.154,4.154,0,0,0-4.24-2.862,4.434,4.434,0,0,0-4.232,2.716q-1.338,2.716-1.338,8a19.63,19.63,0,0,0,.855,6.4q1.31,3.689,4.477,3.688A4.664,4.664,0,0,0,135.178,236.06Z" transform="translate(-14.128 0)" fill="#6a6a6a"/>
      <path id="Path_731" data-name="Path 731" d="M184.957,218.726a18.616,18.616,0,0,1,1.745,8.813,21.222,21.222,0,0,1-1.581,8.776,7.739,7.739,0,0,1-7.486,4.978,7.5,7.5,0,0,1-6.977-4.07,18.636,18.636,0,0,1-1.908-9.122,22.534,22.534,0,0,1,1.145-7.613q2.144-5.924,7.759-5.924A7.688,7.688,0,0,1,184.957,218.726Zm-3.291,17.335q1.511-2.253,1.511-8.395a20.72,20.72,0,0,0-1.092-7.3,4.155,4.155,0,0,0-4.24-2.862,4.432,4.432,0,0,0-4.232,2.716q-1.338,2.716-1.338,8a19.614,19.614,0,0,0,.856,6.4q1.31,3.689,4.477,3.688A4.663,4.663,0,0,0,181.665,236.06Z" transform="translate(-35.127 0)" fill="#6a6a6a"/>
      <path id="Path_732" data-name="Path 732" d="M90.986,222.051v-2.508a13.317,13.317,0,0,0,4.942-1.154q1.4-.808,2.09-3.825h2.58v25.911H97.109V222.051Z" transform="translate(0 0)" fill="#6a6a6a"/>
      <path id="Path_733" data-name="Path 733" d="M138.47,218.726a18.616,18.616,0,0,1,1.744,8.813,21.221,21.221,0,0,1-1.581,8.776,7.739,7.739,0,0,1-7.486,4.978,7.5,7.5,0,0,1-6.977-4.07,18.637,18.637,0,0,1-1.908-9.122,22.534,22.534,0,0,1,1.145-7.613q2.144-5.924,7.759-5.924A7.689,7.689,0,0,1,138.47,218.726Zm-3.291,17.335q1.511-2.253,1.511-8.395a20.708,20.708,0,0,0-1.092-7.3,4.154,4.154,0,0,0-4.24-2.862,4.434,4.434,0,0,0-4.232,2.716q-1.338,2.716-1.338,8a19.63,19.63,0,0,0,.855,6.4q1.31,3.689,4.477,3.688A4.664,4.664,0,0,0,135.178,236.06Z" transform="translate(-14.128 0)" fill="#6a6a6a"/>
      <path id="Path_734" data-name="Path 734" d="M184.957,218.726a18.616,18.616,0,0,1,1.745,8.813,21.222,21.222,0,0,1-1.581,8.776,7.739,7.739,0,0,1-7.486,4.978,7.5,7.5,0,0,1-6.977-4.07,18.636,18.636,0,0,1-1.908-9.122,22.534,22.534,0,0,1,1.145-7.613q2.144-5.924,7.759-5.924A7.688,7.688,0,0,1,184.957,218.726Zm-3.291,17.335q1.511-2.253,1.511-8.395a20.72,20.72,0,0,0-1.092-7.3,4.155,4.155,0,0,0-4.24-2.862,4.432,4.432,0,0,0-4.232,2.716q-1.338,2.716-1.338,8a19.614,19.614,0,0,0,.856,6.4q1.31,3.689,4.477,3.688A4.663,4.663,0,0,0,181.665,236.06Z" transform="translate(-35.127 0)" fill="#6a6a6a"/>
    </g>
  </g>
</svg>
