<svg xmlns="http://www.w3.org/2000/svg" width="20.781" height="30" viewBox="0 0 20.781 30"><g transform="translate(-188.61 -326)"><path d="M189.35,355.019l1.44-.985-1.143-.734Z"/><path d="M193.885,350.265a.14.14,0,0,1-.022.006l-.036.011-.038,0a.164.164,0,0,1-.023,0h-.03a.278.278,0,0,1-.064-.013l-.009,0a.368.368,0,0,1-.06-.029h0a.326.326,0,0,1-.053-.044l-.011-.012a.4.4,0,0,1-.031-.041l-.011-.02a.374.374,0,0,1-.018-.042l-.007-.022a.228.228,0,0,1-.009-.051l0-.013-.073-1.4-1.271.535-.022.007a.24.24,0,0,1-.036.01.262.262,0,0,1-.039.005l-.024,0h-.026a.28.28,0,0,1-.063-.012l-.006,0a.254.254,0,0,1-.056-.025l-.006,0,0,0-.007,0a.351.351,0,0,1-.047-.037v0a.265.265,0,0,1-.043-.052l-.008-.015a.235.235,0,0,1-.022-.045l-.007-.021a.242.242,0,0,1-.01-.045l0-.012-.125-1.2-1.028.509-.769,4.451,1.585,1.017,3.72-2.547-.014-1.326Z" fill="#f4d3b3"/><path d="M193.834,347.869a.313.313,0,0,1,.146.247l.046.884,10.926-17.02-1.252-.8-10.906,16.989.755-.319A.309.309,0,0,1,193.834,347.869Z" fill="#afefb7"/><path d="M191.97,346.928a.312.312,0,0,1,.159.24l.079.76,10.969-17.087-1.025-.658,0,0-.074-.048L191.116,347.2l.567-.28A.31.31,0,0,1,191.97,346.928Z" fill="#afefb7"/><path d="M206.594,333.034l-1.119-.718-10.911,16.995.674-.28a.306.306,0,0,1,.289.027.311.311,0,0,1,.14.255l.01.916,11-17.14-.083-.053Z" fill="#afefb7"/><rect width="1.139" height="4.658" transform="translate(204.117 327.697) rotate(-57.3)" fill="#afefb7"/><rect width="1.911" height="4.658" transform="matrix(0.54, -0.842, 0.842, 0.54, 202.749, 329.828)" fill="#afefb7"/><path d="M209.248,328.9l-4.442-2.852a.316.316,0,0,0-.234-.042.312.312,0,0,0-.2.136l-2.15,3.35-.078-.05a.307.307,0,0,0-.234-.042.311.311,0,0,0-.195.135l-11.731,18.273c-.006.01-.01.02-.015.03l-.01.02a.261.261,0,0,0-.019.066l-.83,4.807v0l-.5,2.9a.311.311,0,0,0,.481.309l6.459-4.421.015-.014a.234.234,0,0,0,.029-.026c.01-.01.019-.021.028-.032l.013-.017,11.731-18.272a.31.31,0,0,0-.093-.429l-.086-.056,2.15-3.35A.309.309,0,0,0,209.248,328.9Zm-7.173,1.231.074.048,0,0,1.025.658-10.969,17.087-.079-.76a.31.31,0,0,0-.446-.246l-.567.28Zm1.625,1.044,1.252.8L194.026,349l-.046-.884a.313.313,0,0,0-.146-.247.309.309,0,0,0-.285-.023l-.755.319Zm-14.35,23.843.3-1.719,1.143.734Zm2-1.366-1.585-1.017.769-4.451,1.028-.509.125,1.2,0,.012a.242.242,0,0,0,.01.045l.007.021a.235.235,0,0,0,.022.045l.008.015a.265.265,0,0,0,.043.052v0a.351.351,0,0,0,.047.037l.007,0,0,0,.006,0a.254.254,0,0,0,.056.025l.006,0a.28.28,0,0,0,.063.012h.026l.024,0a.262.262,0,0,0,.039-.005.24.24,0,0,0,.036-.01l.022-.007,1.271-.535.073,1.4,0,.013a.228.228,0,0,0,.009.051l.007.022a.374.374,0,0,0,.018.042l.011.02a.4.4,0,0,0,.031.041l.011.012a.326.326,0,0,0,.053.044h0a.368.368,0,0,0,.06.029l.009,0a.278.278,0,0,0,.064.013h.03a.164.164,0,0,0,.023,0l.038,0,.036-.011a.14.14,0,0,0,.022-.006l1.167-.485.014,1.326Zm4.331-3.424-.01-.916a.311.311,0,0,0-.14-.255.306.306,0,0,0-.289-.027l-.674.28,10.911-16.995,1.119.718,0,0,.083.053Zm10.992-17.885-3.92-2.516,1.032-1.608,3.92,2.516Zm1.367-2.13-3.919-2.517.615-.958,3.919,2.516Z" fill="#6c6c6c"/></g></svg>