<svg xmlns="http://www.w3.org/2000/svg" width="36" height="23.371" viewBox="0 0 36 23.371"><g transform="translate(-50 -102.622)"><g transform="translate(50 102.622)"><path d="M88.644,123.88a15.039,15.039,0,0,0-30.078,0,.373.373,0,0,1-.373.373H56.218v6.466H90.726v-6.466H89.017A.373.373,0,0,1,88.644,123.88Zm-6.9.373H65.465a.373.373,0,0,1-.373-.373,8.513,8.513,0,0,1,17.027,0A.373.373,0,0,1,81.746,124.253Z" transform="translate(-55.472 -108.095)" fill="#bde6f4"/><g transform="translate(0 0)"><path d="M85.627,118.034H83.914a15.785,15.785,0,0,0-31.561,0h-1.98a.373.373,0,0,0-.373.373v7.212a.373.373,0,0,0,.373.373H85.627A.373.373,0,0,0,86,125.62v-7.212A.373.373,0,0,0,85.627,118.034Zm-.373,7.213H50.746V118.78h1.975a.373.373,0,0,0,.373-.373,15.039,15.039,0,0,1,30.078,0,.373.373,0,0,0,.373.373h1.708Z" transform="translate(-50 -102.622)" fill="#6c6c6c"/><path d="M138.68,163.221a8.523,8.523,0,0,0-8.513,8.513.373.373,0,0,0,.373.373h16.281a.373.373,0,0,0,.373-.373A8.523,8.523,0,0,0,138.68,163.221Zm-7.758,8.14a7.767,7.767,0,0,1,15.515,0Z" transform="translate(-120.547 -155.949)" fill="#6c6c6c"/></g></g><g transform="translate(51.535 108.226)"><path d="M63.162,271.425a.373.373,0,0,1-.373-.373v-2.793a.373.373,0,1,1,.746,0v2.793a.373.373,0,0,1-.373.373Z" transform="translate(-62.789 -253.659)" fill="#6c6c6c"/><path d="M79.647,280.929a.373.373,0,0,1-.373-.373v-1.5a.373.373,0,0,1,.746,0v1.5a.373.373,0,0,1-.373.373Z" transform="translate(-77.296 -263.163)" fill="#6c6c6c"/><path d="M96.132,280.929a.373.373,0,0,1-.373-.373v-1.5a.373.373,0,0,1,.746,0v1.5a.373.373,0,0,1-.373.373Z" transform="translate(-91.803 -263.163)" fill="#6c6c6c"/><path d="M112.619,280.929a.373.373,0,0,1-.373-.373v-1.5a.373.373,0,0,1,.746,0v1.5a.373.373,0,0,1-.373.373Z" transform="translate(-106.311 -263.163)" fill="#6c6c6c"/><path d="M129.1,271.425a.373.373,0,0,1-.373-.373v-2.793a.373.373,0,1,1,.746,0v2.793a.373.373,0,0,1-.373.373Z" transform="translate(-120.818 -253.659)" fill="#6c6c6c"/><path d="M145.589,280.929a.373.373,0,0,1-.373-.373v-1.5a.373.373,0,0,1,.746,0v1.5a.373.373,0,0,1-.373.373Z" transform="translate(-135.325 -263.163)" fill="#6c6c6c"/><path d="M162.074,280.929a.373.373,0,0,1-.373-.373v-1.5a.373.373,0,0,1,.746,0v1.5a.373.373,0,0,1-.373.373Z" transform="translate(-149.832 -263.163)" fill="#6c6c6c"/><path d="M178.563,280.929a.373.373,0,0,1-.373-.373v-1.5a.373.373,0,0,1,.746,0v1.5a.373.373,0,0,1-.373.373Z" transform="translate(-164.342 -263.163)" fill="#6c6c6c"/><path d="M195.048,271.425a.373.373,0,0,1-.373-.373v-2.793a.373.373,0,1,1,.746,0v2.793a.373.373,0,0,1-.373.373Z" transform="translate(-178.849 -253.659)" fill="#6c6c6c"/><path d="M211.533,280.929a.373.373,0,0,1-.373-.373v-1.5a.373.373,0,0,1,.746,0v1.5a.373.373,0,0,1-.373.373Z" transform="translate(-193.355 -263.163)" fill="#6c6c6c"/><path d="M228.02,280.929a.373.373,0,0,1-.373-.373v-1.5a.373.373,0,0,1,.746,0v1.5a.373.373,0,0,1-.373.373Z" transform="translate(-207.864 -263.163)" fill="#6c6c6c"/><path d="M244.505,280.929a.373.373,0,0,1-.373-.373v-1.5a.373.373,0,0,1,.746,0v1.5a.373.373,0,0,1-.373.373Z" transform="translate(-222.371 -263.163)" fill="#6c6c6c"/><path d="M260.992,271.425a.373.373,0,0,1-.373-.373v-2.793a.373.373,0,1,1,.746,0v2.793a.373.373,0,0,1-.373.373Z" transform="translate(-236.879 -253.659)" fill="#6c6c6c"/><path d="M277.477,280.929a.373.373,0,0,1-.373-.373v-1.5a.373.373,0,0,1,.746,0v1.5a.373.373,0,0,1-.373.373Z" transform="translate(-251.386 -263.163)" fill="#6c6c6c"/><path d="M293.962,280.929a.373.373,0,0,1-.373-.373v-1.5a.373.373,0,0,1,.746,0v1.5a.373.373,0,0,1-.373.373Z" transform="translate(-265.893 -263.163)" fill="#6c6c6c"/><path d="M310.447,280.929a.373.373,0,0,1-.373-.373v-1.5a.373.373,0,0,1,.746,0v1.5a.373.373,0,0,1-.373.373Z" transform="translate(-280.4 -263.163)" fill="#6c6c6c"/><path d="M326.934,271.425a.373.373,0,0,1-.373-.373v-2.793a.373.373,0,1,1,.746,0v2.793a.373.373,0,0,1-.373.373Z" transform="translate(-294.908 -253.659)" fill="#6c6c6c"/><path d="M198.375,151.739a.373.373,0,0,1-.373-.373V149.7a.373.373,0,0,1,.746,0v1.668a.373.373,0,0,1-.373.373Z" transform="translate(-181.776 -149.325)" fill="#6c6c6c"/><path d="M164.436,158.772a.373.373,0,0,1-.338-.216l-.7-1.511a.373.373,0,1,1,.676-.315l.705,1.511a.373.373,0,0,1-.338.531Z" transform="translate(-151.289 -155.652)" fill="#6c6c6c"/><path d="M136.647,179.488a.373.373,0,0,1-.24-.087l-1.277-1.072a.373.373,0,0,1,.48-.572l1.277,1.072a.373.373,0,0,1-.24.659Z" transform="translate(-126.332 -174.269)" fill="#6c6c6c"/><path d="M120.218,210.007a.37.37,0,0,1-.1-.013l-1.611-.432a.373.373,0,0,1,.193-.721l1.611.432a.373.373,0,0,1-.1.734Z" transform="translate(-111.58 -201.689)" fill="#6c6c6c"/><path d="M225.806,158.771a.373.373,0,0,1-.338-.531l.7-1.511a.373.373,0,1,1,.676.315l-.7,1.511a.374.374,0,0,1-.339.216Z" transform="translate(-205.916 -155.651)" fill="#6c6c6c"/><path d="M249.4,179.488a.373.373,0,0,1-.24-.659l1.277-1.072a.373.373,0,0,1,.48.572l-1.277,1.072a.374.374,0,0,1-.24.087Z" transform="translate(-226.675 -174.269)" fill="#6c6c6c"/><path d="M263.382,210.007a.373.373,0,0,1-.1-.734l1.61-.432a.373.373,0,1,1,.193.721l-1.61.432a.373.373,0,0,1-.1.013Z" transform="translate(-238.982 -201.689)" fill="#6c6c6c"/></g></g></svg>