<svg xmlns="http://www.w3.org/2000/svg" width="33.199" height="33.199" viewBox="0 0 33.199 33.199">
  <g id="Group_39" data-name="Group 39" transform="translate(-1276.994 354.833) rotate(-45)">
    <path id="Path_206" data-name="Path 206" d="M1156.042,673.895h-21.289v5.168h40.119v-5.168h-18.83Z" transform="translate(-0.937 -0.937)" fill="#bde6f4"/>
    <g id="Group_38" data-name="Group 38" transform="translate(1133.4 672.542)">
      <path id="Path_207" data-name="Path 207" d="M1174.143,672.542h-40.535a.208.208,0,0,0-.208.208v5.584a.208.208,0,0,0,.208.208h40.535a.208.208,0,0,0,.208-.208V672.75A.208.208,0,0,0,1174.143,672.542Zm-.208,5.584h-40.119v-5.168h40.119Z" transform="translate(-1133.4 -672.542)" fill="#6c6c6c"/>
      <g id="Group_37" data-name="Group 37" transform="translate(1.954 2.485)">
        <path id="Path_208" data-name="Path 208" d="M1140.172,684v1.818a.208.208,0,0,1-.416,0V684a.208.208,0,0,1,.416,0Z" transform="translate(-1139.756 -682.819)" fill="#6c6c6c"/>
        <path id="Path_209" data-name="Path 209" d="M1149.752,680.832v2.792a.208.208,0,0,1-.416,0v-2.792a.208.208,0,0,1,.416,0Z" transform="translate(-1146.391 -680.624)" fill="#6c6c6c"/>
        <path id="Path_210" data-name="Path 210" d="M1159.309,684v1.818a.208.208,0,0,1-.416,0V684a.208.208,0,0,1,.416,0Z" transform="translate(-1153.01 -682.819)" fill="#6c6c6c"/>
        <path id="Path_211" data-name="Path 211" d="M1168.775,680.832v2.792a.208.208,0,0,1-.416,0v-2.792a.208.208,0,0,1,.416,0Z" transform="translate(-1159.565 -680.624)" fill="#6c6c6c"/>
        <path id="Path_212" data-name="Path 212" d="M1178.171,684v1.818a.208.208,0,0,1-.416,0V684a.208.208,0,0,1,.416,0Z" transform="translate(-1166.073 -682.819)" fill="#6c6c6c"/>
        <path id="Path_213" data-name="Path 213" d="M1188.189,680.832v2.792a.208.208,0,0,1-.416,0v-2.792a.208.208,0,0,1,.416,0Z" transform="translate(-1173.011 -680.624)" fill="#6c6c6c"/>
      </g>
      <path id="Path_214" data-name="Path 214" d="M1198.172,684v1.818a.208.208,0,0,1-.416,0V684a.208.208,0,0,1,.416,0Z" transform="translate(-1177.97 -680.335)" fill="#6c6c6c"/>
      <path id="Path_215" data-name="Path 215" d="M1207.752,680.832v2.792a.208.208,0,0,1-.416,0v-2.792a.208.208,0,0,1,.416,0Z" transform="translate(-1184.605 -678.139)" fill="#6c6c6c"/>
      <path id="Path_216" data-name="Path 216" d="M1217.309,684v1.818a.208.208,0,0,1-.416,0V684a.208.208,0,0,1,.416,0Z" transform="translate(-1191.224 -680.335)" fill="#6c6c6c"/>
      <path id="Path_217" data-name="Path 217" d="M1226.775,680.832v2.792a.208.208,0,0,1-.416,0v-2.792a.208.208,0,0,1,.416,0Z" transform="translate(-1197.78 -678.139)" fill="#6c6c6c"/>
      <path id="Path_218" data-name="Path 218" d="M1236.171,684v1.818a.208.208,0,0,1-.416,0V684a.208.208,0,0,1,.416,0Z" transform="translate(-1204.287 -680.335)" fill="#6c6c6c"/>
      <path id="Path_219" data-name="Path 219" d="M1246.189,680.832v2.792a.208.208,0,0,1-.416,0v-2.792a.208.208,0,0,1,.416,0Z" transform="translate(-1211.225 -678.139)" fill="#6c6c6c"/>
      <path id="Path_220" data-name="Path 220" d="M1256.171,684v1.818a.208.208,0,0,1-.416,0V684a.208.208,0,0,1,.416,0Z" transform="translate(-1218.138 -680.335)" fill="#6c6c6c"/>
    </g>
  </g>
</svg>
