<svg xmlns="http://www.w3.org/2000/svg" width="205.385" height="205.213" viewBox="0 0 205.385 205.213">
  <g id="Group_536" data-name="Group 536" transform="translate(-33.272 -278.355)">
    <path id="Path_1285" data-name="Path 1285" d="M233.4,278.355H37.56a4.3,4.3,0,0,0-4.288,4.288V478.487c0,5.207,2.618,5.954,4.288,4.288,50.575-50.437,145.9-145.8,200.132-200.132C239.359,280.974,239.4,278.355,233.4,278.355ZM148,318.79c-19.418,19.452-53.545,53.594-71.652,71.652-.6.6-1.535.329-1.535-1.536V318.79a1.54,1.54,0,0,1,1.535-1.535h70.117C148.616,317.255,148.6,318.192,148,318.79Z" fill="#bde6f4" opacity="0.6"/>
    <g id="Group_339" data-name="Group 339">
      <g id="Group_326" data-name="Group 326">
        <path id="Path_1286" data-name="Path 1286" d="M44.555,292.1c0,1.921-.791,2.982-2.181,2.982-1.225,0-2.055-1.035-2.075-2.9,0-1.894.907-2.938,2.181-2.938C43.8,289.244,44.555,290.3,44.555,292.1Zm-3.406.087c0,1.469.5,2.3,1.273,2.3.869,0,1.284-.913,1.284-2.356,0-1.391-.4-2.3-1.274-2.3C41.689,289.835,41.149,290.652,41.149,292.191Z"/>
        <path id="Path_1287" data-name="Path 1287" d="M59.624,290.053H59.6l-1.09.53L58.35,290l1.371-.661h.724v5.65h-.821Z"/>
        <path id="Path_1288" data-name="Path 1288" d="M75.851,294.99v-.469l.666-.583c1.6-1.373,2.325-2.1,2.335-2.955,0-.574-.309-1.1-1.245-1.1a2.271,2.271,0,0,0-1.332.478l-.27-.539a2.945,2.945,0,0,1,1.776-.574,1.685,1.685,0,0,1,1.92,1.643c0,1.043-.839,1.887-2.161,3.034l-.5.417v.017h2.818v.635Z"/>
        <path id="Path_1289" data-name="Path 1289" d="M93.632,294.112a3.079,3.079,0,0,0,1.39.356c1.091,0,1.428-.625,1.419-1.1-.01-.791-.8-1.13-1.622-1.13h-.472v-.574h.472c.618,0,1.4-.286,1.4-.956,0-.452-.319-.852-1.1-.852a2.474,2.474,0,0,0-1.255.374l-.222-.556a3.222,3.222,0,0,1,1.641-.435c1.235,0,1.8.661,1.8,1.348a1.434,1.434,0,0,1-1.158,1.329v.018a1.532,1.532,0,0,1,1.4,1.451c0,.9-.782,1.7-2.287,1.7A3.456,3.456,0,0,1,93.4,294.7Z"/>
        <path id="Path_1290" data-name="Path 1290" d="M113.2,294.99v-1.539H110.29v-.5l2.8-3.607H114v3.512h.879v.6H114v1.539Zm0-2.138v-1.886q0-.444.029-.887H113.2c-.193.33-.347.573-.521.834l-1.534,1.921v.018Z"/>
        <path id="Path_1291" data-name="Path 1291" d="M132.639,289.983h-2.394L130,291.435a3.762,3.762,0,0,1,.511-.035,2.9,2.9,0,0,1,1.352.3,1.591,1.591,0,0,1,.9,1.452,2.094,2.094,0,0,1-2.335,1.93,3.335,3.335,0,0,1-1.564-.348l.212-.582a3.055,3.055,0,0,0,1.342.312,1.334,1.334,0,0,0,1.486-1.225c-.01-.73-.55-1.252-1.8-1.252a7.182,7.182,0,0,0-.868.061l.4-2.712h3Z"/>
        <path id="Path_1292" data-name="Path 1292" d="M149.747,289.879a3.355,3.355,0,0,0-.637.035,2.418,2.418,0,0,0-2.181,2.007h.029a1.948,1.948,0,0,1,1.515-.651,1.765,1.765,0,0,1,1.892,1.825,1.986,1.986,0,0,1-2.085,1.991,2.174,2.174,0,0,1-2.22-2.408,3.365,3.365,0,0,1,1.062-2.547,3.58,3.58,0,0,1,2.007-.834,4.505,4.505,0,0,1,.618-.044Zm-.241,3.259a1.2,1.2,0,0,0-1.293-1.3,1.415,1.415,0,0,0-1.216.7.6.6,0,0,0-.1.339c.019.93.492,1.617,1.38,1.617A1.229,1.229,0,0,0,149.506,293.138Z"/>
        <path id="Path_1293" data-name="Path 1293" d="M168.677,289.34v.5l-2.731,5.146h-.879l2.722-5v-.018H164.72v-.634Z"/>
        <path id="Path_1294" data-name="Path 1294" d="M181.35,293.556a1.642,1.642,0,0,1,1.244-1.513l-.009-.026a1.409,1.409,0,0,1-.994-1.269c0-.895.84-1.5,1.94-1.5,1.216,0,1.824.687,1.824,1.391a1.443,1.443,0,0,1-1.033,1.321v.026a1.6,1.6,0,0,1,1.264,1.461c0,.982-.936,1.643-2.133,1.643C182.141,295.086,181.35,294.382,181.35,293.556Zm3.377-.035c0-.687-.53-1.017-1.38-1.234-.733.191-1.129.626-1.129,1.164-.029.574.454,1.078,1.255,1.078C184.235,294.529,184.727,294.1,184.727,293.521Zm-2.335-2.825c0,.565.473.869,1.2,1.043.541-.165.956-.513.956-1.026a.929.929,0,0,0-1.062-.921C182.778,289.792,182.392,290.209,182.392,290.7Z"/>
        <path id="Path_1295" data-name="Path 1295" d="M200.315,294.42a3.874,3.874,0,0,0,.685-.026,2.481,2.481,0,0,0,1.313-.547,2.406,2.406,0,0,0,.83-1.5h-.029a1.929,1.929,0,0,1-1.477.608,1.725,1.725,0,0,1-1.853-1.729,2.041,2.041,0,0,1,2.143-2.008c1.284,0,2.075.939,2.075,2.381a3.384,3.384,0,0,1-1.081,2.652A3.308,3.308,0,0,1,201.1,295a4.4,4.4,0,0,1-.782.043Zm.309-3.25a1.14,1.14,0,0,0,1.206,1.2,1.447,1.447,0,0,0,1.236-.591.468.468,0,0,0,.077-.278c0-.965-.4-1.7-1.284-1.7A1.26,1.26,0,0,0,200.624,291.17Z"/>
        <path id="Path_1296" data-name="Path 1296" d="M216.916,290.053H216.9l-1.091.53-.164-.582,1.37-.661h.724v5.65h-.82Z"/>
        <path id="Path_1297" data-name="Path 1297" d="M224.2,292.1c0,1.921-.791,2.982-2.181,2.982-1.226,0-2.056-1.035-2.075-2.9,0-1.894.907-2.938,2.181-2.938C223.442,289.244,224.2,290.3,224.2,292.1Zm-3.407.087c0,1.469.5,2.3,1.274,2.3.869,0,1.284-.913,1.284-2.356,0-1.391-.4-2.3-1.274-2.3C221.329,289.835,220.788,290.652,220.788,292.191Z"/>
      </g>
      <g id="Group_338" data-name="Group 338">
        <g id="Group_327" data-name="Group 327">
          <path id="Path_1298" data-name="Path 1298" d="M41.648,278.771h.667v7.563h-.667Z"/>
          <path id="Path_1299" data-name="Path 1299" d="M43.437,278.771H44.1v4.176h-.667Z"/>
          <path id="Path_1300" data-name="Path 1300" d="M45.225,278.771h.667v4.176h-.667Z"/>
          <path id="Path_1301" data-name="Path 1301" d="M47.014,278.771h.667v4.176h-.667Z"/>
          <path id="Path_1302" data-name="Path 1302" d="M48.8,278.771h.667v4.176H48.8Z"/>
          <path id="Path_1303" data-name="Path 1303" d="M50.591,278.771h.667v6.245h-.667Z"/>
          <path id="Path_1304" data-name="Path 1304" d="M52.38,278.771h.666v4.176H52.38Z"/>
          <path id="Path_1305" data-name="Path 1305" d="M54.168,278.771h.667v4.176h-.667Z"/>
          <path id="Path_1306" data-name="Path 1306" d="M55.957,278.771h.667v4.176h-.667Z"/>
          <path id="Path_1307" data-name="Path 1307" d="M57.745,278.771h.667v4.176h-.667Z"/>
        </g>
        <g id="Group_328" data-name="Group 328">
          <path id="Path_1308" data-name="Path 1308" d="M59.514,278.771h.666v7.563h-.666Z"/>
          <path id="Path_1309" data-name="Path 1309" d="M61.3,278.771h.667v4.176H61.3Z"/>
          <path id="Path_1310" data-name="Path 1310" d="M63.091,278.771h.666v4.176h-.666Z"/>
          <path id="Path_1311" data-name="Path 1311" d="M64.879,278.771h.667v4.176h-.667Z"/>
          <path id="Path_1312" data-name="Path 1312" d="M66.668,278.771h.666v4.176h-.666Z"/>
          <path id="Path_1313" data-name="Path 1313" d="M68.457,278.771h.666v6.245h-.666Z"/>
          <path id="Path_1314" data-name="Path 1314" d="M70.245,278.771h.667v4.176h-.667Z"/>
          <path id="Path_1315" data-name="Path 1315" d="M72.033,278.771H72.7v4.176h-.667Z"/>
          <path id="Path_1316" data-name="Path 1316" d="M73.822,278.771h.667v4.176h-.667Z"/>
          <path id="Path_1317" data-name="Path 1317" d="M75.611,278.771h.667v4.176h-.667Z"/>
        </g>
        <g id="Group_329" data-name="Group 329">
          <path id="Path_1318" data-name="Path 1318" d="M77.379,278.771h.667v7.563h-.667Z"/>
          <path id="Path_1319" data-name="Path 1319" d="M79.167,278.771h.667v4.176h-.667Z"/>
          <path id="Path_1320" data-name="Path 1320" d="M80.956,278.771h.667v4.176h-.667Z"/>
          <path id="Path_1321" data-name="Path 1321" d="M82.744,278.771h.667v4.176h-.667Z"/>
          <path id="Path_1322" data-name="Path 1322" d="M84.533,278.771H85.2v4.176h-.667Z"/>
          <path id="Path_1323" data-name="Path 1323" d="M86.322,278.771h.667v6.245h-.667Z"/>
          <path id="Path_1324" data-name="Path 1324" d="M88.11,278.771h.667v4.176H88.11Z"/>
          <path id="Path_1325" data-name="Path 1325" d="M89.9,278.771h.666v4.176H89.9Z"/>
          <path id="Path_1326" data-name="Path 1326" d="M91.687,278.771h.667v4.176h-.667Z"/>
          <path id="Path_1327" data-name="Path 1327" d="M93.476,278.771h.667v4.176h-.667Z"/>
        </g>
        <g id="Group_330" data-name="Group 330">
          <path id="Path_1328" data-name="Path 1328" d="M95.244,278.771h.667v7.563h-.667Z"/>
          <path id="Path_1329" data-name="Path 1329" d="M97.033,278.771H97.7v4.176h-.666Z"/>
          <path id="Path_1330" data-name="Path 1330" d="M98.821,278.771h.667v4.176h-.667Z"/>
          <path id="Path_1331" data-name="Path 1331" d="M100.61,278.771h.666v4.176h-.666Z"/>
          <path id="Path_1332" data-name="Path 1332" d="M102.4,278.771h.667v4.176H102.4Z"/>
          <path id="Path_1333" data-name="Path 1333" d="M104.187,278.771h.667v6.245h-.667Z"/>
          <path id="Path_1334" data-name="Path 1334" d="M105.975,278.771h.667v4.176h-.667Z"/>
          <path id="Path_1335" data-name="Path 1335" d="M107.764,278.771h.667v4.176h-.667Z"/>
          <path id="Path_1336" data-name="Path 1336" d="M109.553,278.771h.666v4.176h-.666Z"/>
          <path id="Path_1337" data-name="Path 1337" d="M111.341,278.771h.667v4.176h-.667Z"/>
        </g>
        <g id="Group_331" data-name="Group 331">
          <path id="Path_1338" data-name="Path 1338" d="M113.109,278.771h.667v7.563h-.667Z"/>
          <path id="Path_1339" data-name="Path 1339" d="M114.9,278.771h.667v4.176H114.9Z"/>
          <path id="Path_1340" data-name="Path 1340" d="M116.687,278.771h.666v4.176h-.666Z"/>
          <path id="Path_1341" data-name="Path 1341" d="M118.475,278.771h.667v4.176h-.667Z"/>
          <path id="Path_1342" data-name="Path 1342" d="M120.264,278.771h.666v4.176h-.666Z"/>
          <path id="Path_1343" data-name="Path 1343" d="M122.052,278.771h.667v6.245h-.667Z"/>
          <path id="Path_1344" data-name="Path 1344" d="M123.841,278.771h.666v4.176h-.666Z"/>
          <path id="Path_1345" data-name="Path 1345" d="M125.629,278.771h.667v4.176h-.667Z"/>
          <path id="Path_1346" data-name="Path 1346" d="M127.418,278.771h.667v4.176h-.667Z"/>
          <path id="Path_1347" data-name="Path 1347" d="M129.207,278.771h.666v4.176h-.666Z"/>
        </g>
        <g id="Group_332" data-name="Group 332">
          <path id="Path_1348" data-name="Path 1348" d="M130.975,278.771h.666v7.563h-.666Z"/>
          <path id="Path_1349" data-name="Path 1349" d="M132.763,278.771h.667v4.176h-.667Z"/>
          <path id="Path_1350" data-name="Path 1350" d="M134.552,278.771h.667v4.176h-.667Z"/>
          <path id="Path_1351" data-name="Path 1351" d="M136.34,278.771h.667v4.176h-.667Z"/>
          <path id="Path_1352" data-name="Path 1352" d="M138.129,278.771h.667v4.176h-.667Z"/>
          <path id="Path_1353" data-name="Path 1353" d="M139.918,278.771h.666v6.245h-.666Z"/>
          <path id="Path_1354" data-name="Path 1354" d="M141.706,278.771h.667v4.176h-.667Z"/>
          <path id="Path_1355" data-name="Path 1355" d="M143.495,278.771h.666v4.176h-.666Z"/>
          <path id="Path_1356" data-name="Path 1356" d="M145.283,278.771h.667v4.176h-.667Z"/>
          <path id="Path_1357" data-name="Path 1357" d="M147.072,278.771h.667v4.176h-.667Z"/>
        </g>
        <g id="Group_333" data-name="Group 333">
          <path id="Path_1358" data-name="Path 1358" d="M148.84,278.771h.667v7.563h-.667Z"/>
          <path id="Path_1359" data-name="Path 1359" d="M150.628,278.771h.667v4.176h-.667Z"/>
          <path id="Path_1360" data-name="Path 1360" d="M152.417,278.771h.667v4.176h-.667Z"/>
          <path id="Path_1361" data-name="Path 1361" d="M154.205,278.771h.667v4.176h-.667Z"/>
          <path id="Path_1362" data-name="Path 1362" d="M155.994,278.771h.667v4.176h-.667Z"/>
          <path id="Path_1363" data-name="Path 1363" d="M157.783,278.771h.667v6.245h-.667Z"/>
          <path id="Path_1364" data-name="Path 1364" d="M159.571,278.771h.667v4.176h-.667Z"/>
          <path id="Path_1365" data-name="Path 1365" d="M161.36,278.771h.667v4.176h-.667Z"/>
          <path id="Path_1366" data-name="Path 1366" d="M163.148,278.771h.667v4.176h-.667Z"/>
          <path id="Path_1367" data-name="Path 1367" d="M164.937,278.771h.667v4.176h-.667Z"/>
        </g>
        <g id="Group_334" data-name="Group 334">
          <path id="Path_1368" data-name="Path 1368" d="M166.705,278.771h.667v7.563h-.667Z"/>
          <path id="Path_1369" data-name="Path 1369" d="M168.494,278.771h.666v4.176h-.666Z"/>
          <path id="Path_1370" data-name="Path 1370" d="M170.282,278.771h.667v4.176h-.667Z"/>
          <path id="Path_1371" data-name="Path 1371" d="M172.071,278.771h.666v4.176h-.666Z"/>
          <path id="Path_1372" data-name="Path 1372" d="M173.859,278.771h.667v4.176h-.667Z"/>
          <path id="Path_1373" data-name="Path 1373" d="M175.648,278.771h.667v6.245h-.667Z"/>
          <path id="Path_1374" data-name="Path 1374" d="M177.436,278.771h.667v4.176h-.667Z"/>
          <path id="Path_1375" data-name="Path 1375" d="M179.225,278.771h.667v4.176h-.667Z"/>
          <path id="Path_1376" data-name="Path 1376" d="M181.014,278.771h.666v4.176h-.666Z"/>
          <path id="Path_1377" data-name="Path 1377" d="M182.8,278.771h.667v4.176H182.8Z"/>
        </g>
        <g id="Group_335" data-name="Group 335">
          <path id="Path_1378" data-name="Path 1378" d="M184.57,278.771h.667v7.563h-.667Z"/>
          <path id="Path_1379" data-name="Path 1379" d="M186.359,278.771h.667v4.176h-.667Z"/>
          <path id="Path_1380" data-name="Path 1380" d="M188.148,278.771h.666v4.176h-.666Z"/>
          <path id="Path_1381" data-name="Path 1381" d="M189.936,278.771h.667v4.176h-.667Z"/>
          <path id="Path_1382" data-name="Path 1382" d="M191.725,278.771h.666v4.176h-.666Z"/>
          <path id="Path_1383" data-name="Path 1383" d="M193.513,278.771h.667v6.245h-.667Z"/>
          <path id="Path_1384" data-name="Path 1384" d="M195.3,278.771h.666v4.176H195.3Z"/>
          <path id="Path_1385" data-name="Path 1385" d="M197.09,278.771h.667v4.176h-.667Z"/>
          <path id="Path_1386" data-name="Path 1386" d="M198.879,278.771h.667v4.176h-.667Z"/>
          <path id="Path_1387" data-name="Path 1387" d="M200.668,278.771h.666v4.176h-.666Z"/>
        </g>
        <g id="Group_336" data-name="Group 336">
          <path id="Path_1388" data-name="Path 1388" d="M202.436,278.771h.666v7.563h-.666Z"/>
          <path id="Path_1389" data-name="Path 1389" d="M204.224,278.771h.667v4.176h-.667Z"/>
          <path id="Path_1390" data-name="Path 1390" d="M206.013,278.771h.667v4.176h-.667Z"/>
          <path id="Path_1391" data-name="Path 1391" d="M207.8,278.771h.667v4.176H207.8Z"/>
          <path id="Path_1392" data-name="Path 1392" d="M209.59,278.771h.667v4.176h-.667Z"/>
          <path id="Path_1393" data-name="Path 1393" d="M211.379,278.771h.666v6.245h-.666Z"/>
          <path id="Path_1394" data-name="Path 1394" d="M213.167,278.771h.667v4.176h-.667Z"/>
          <path id="Path_1395" data-name="Path 1395" d="M214.956,278.771h.666v4.176h-.666Z"/>
          <path id="Path_1396" data-name="Path 1396" d="M216.744,278.771h.667v4.176h-.667Z"/>
          <path id="Path_1397" data-name="Path 1397" d="M218.533,278.771h.667v4.176h-.667Z"/>
        </g>
        <g id="Group_337" data-name="Group 337">
          <path id="Path_1398" data-name="Path 1398" d="M220.3,278.771h.667v7.563H220.3Z"/>
        </g>
      </g>
    </g>
  </g>
</svg>
