<svg id="Group_165" data-name="Group 165" xmlns="http://www.w3.org/2000/svg" width="21.359" height="34.621" viewBox="0 0 21.359 34.621">
  <path id="Path_600" data-name="Path 600" d="M210.152,245.139h19.737l-19.737-32.393Zm3.889-17.378a.34.34,0,0,1,.63-.177l8.009,13.144a.34.34,0,0,1-.29.516h-8.01a.34.34,0,0,1-.339-.339Z" transform="translate(-209.473 -211.197)" fill="#bde6f4"/>
  <path id="Path_601" data-name="Path 601" d="M210.193,211.567a.339.339,0,0,0-.629.177v33.942a.339.339,0,0,0,.339.339h20.681a.34.34,0,0,0,.29-.516Zm.05,33.779V212.953l19.737,32.393Z" transform="translate(-209.564 -211.404)" fill="#696865"/>
  <path id="Path_602" data-name="Path 602" d="M213.861,239.286h8.01a.34.34,0,0,0,.29-.516l-8.009-13.144a.34.34,0,0,0-.63.177v13.144A.34.34,0,0,0,213.861,239.286Zm.34-12.274,7.065,11.6H214.2Z" transform="translate(-208.954 -209.239)" fill="#696865"/>
</svg>
