<svg xmlns="http://www.w3.org/2000/svg" width="39.714" height="20.128" viewBox="0 0 39.714 20.128">
  <g id="Group_525" data-name="Group 525" transform="translate(-5 -11)">
    <g id="Group_169" data-name="Group 169" transform="translate(-142.221 -149.377)">
      <path id="Path_619" data-name="Path 619" d="M147.976,179.75h37.7L166.826,160.9Zm28.478-4.149a.336.336,0,0,1,.037.058.258.258,0,0,1,.057.154.264.264,0,0,1-.056.152.325.325,0,0,1-.038.06.3.3,0,0,1-.212.086l-.022,0c-.009,0-.017,0-.026,0H157.549a.409.409,0,0,1-.07-.012.239.239,0,0,1-.06.012.3.3,0,0,1-.21-.508l9.4-9.4a.294.294,0,0,1,.21-.087h.008a.288.288,0,0,1,.217.086Z" transform="translate(0.244 0.169)" fill="#bde6f4"/>
      <g id="Group_167" data-name="Group 167" transform="translate(147.221 160.377)">
        <path id="Path_620" data-name="Path 620" d="M186.881,180.069a.277.277,0,0,0-.046-.065l-19.544-19.542a.329.329,0,0,0-.441,0L147.307,180a.293.293,0,0,0,.319.478.6.6,0,0,0,.158.022h38.743a.434.434,0,0,0,.058-.005.289.289,0,0,0,.25-.081.3.3,0,0,0,.046-.064.226.226,0,0,0,.054-.143A.224.224,0,0,0,186.881,180.069Zm-38.661-.15,18.85-18.851,18.851,18.851Z" transform="translate(-147.221 -160.377)" fill="#6c6c6c"/>
        <path id="Path_621" data-name="Path 621" d="M164.586,164.836a.294.294,0,0,0-.21.087l-9.4,9.4a.3.3,0,0,0,.21.508.239.239,0,0,0,.06-.012.409.409,0,0,0,.07.012h18.645c.009,0,.017,0,.026,0l.022,0a.3.3,0,0,0,.212-.086.324.324,0,0,0,.038-.06.264.264,0,0,0,.056-.152.258.258,0,0,0-.057-.154.335.335,0,0,0-.037-.058l-9.406-9.4a.288.288,0,0,0-.217-.086Zm8.7,9.4H155.9l8.692-8.692Z" transform="translate(-144.74 -158.933)" fill="#6c6c6c"/>
      </g>
      <g id="Group_168" data-name="Group 168" transform="translate(154.998 177.427)">
        <path id="Path_622" data-name="Path 622" d="M153.389,175.8a.293.293,0,0,1-.293-.293v-.92a.293.293,0,0,1,.585,0v.92a.293.293,0,0,1-.293.293Z" transform="translate(-153.096 -172.921)" fill="#6c6c6c"/>
        <path id="Path_623" data-name="Path 623" d="M154.5,175.8a.293.293,0,0,1-.293-.293v-.92a.293.293,0,0,1,.585,0v.92a.293.293,0,0,1-.293.293Z" transform="translate(-152.736 -172.921)" fill="#6c6c6c"/>
        <path id="Path_624" data-name="Path 624" d="M155.615,175.8a.293.293,0,0,1-.293-.293v-.92a.293.293,0,0,1,.585,0v.92a.293.293,0,0,1-.293.293Z" transform="translate(-152.375 -172.921)" fill="#6c6c6c"/>
        <path id="Path_625" data-name="Path 625" d="M156.728,175.8a.293.293,0,0,1-.293-.293v-.92a.293.293,0,1,1,.585,0v.92a.293.293,0,0,1-.293.293Z" transform="translate(-152.015 -172.921)" fill="#6c6c6c"/>
        <path id="Path_626" data-name="Path 626" d="M157.841,176.131a.293.293,0,0,1-.293-.293v-2.29a.293.293,0,1,1,.585,0v2.29a.293.293,0,0,1-.293.293Z" transform="translate(-151.654 -173.256)" fill="#6c6c6c"/>
        <path id="Path_627" data-name="Path 627" d="M158.954,175.8a.293.293,0,0,1-.293-.293v-.92a.293.293,0,0,1,.585,0v.92a.293.293,0,0,1-.293.293Z" transform="translate(-151.294 -172.921)" fill="#6c6c6c"/>
        <path id="Path_628" data-name="Path 628" d="M160.066,175.8a.292.292,0,0,1-.291-.293v-.92a.292.292,0,1,1,.584,0v.92a.293.293,0,0,1-.293.293Z" transform="translate(-150.933 -172.921)" fill="#6c6c6c"/>
        <path id="Path_629" data-name="Path 629" d="M161.179,175.8a.292.292,0,0,1-.291-.293v-.92a.292.292,0,1,1,.584,0v.92a.292.292,0,0,1-.293.293Z" transform="translate(-150.573 -172.921)" fill="#6c6c6c"/>
        <path id="Path_630" data-name="Path 630" d="M162.292,176.131a.292.292,0,0,1-.291-.293v-2.29a.292.292,0,1,1,.584,0v2.29a.292.292,0,0,1-.293.293Z" transform="translate(-150.212 -173.256)" fill="#6c6c6c"/>
        <path id="Path_631" data-name="Path 631" d="M163.407,175.8a.293.293,0,0,1-.293-.293v-.92a.293.293,0,0,1,.585,0v.92a.293.293,0,0,1-.293.293Z" transform="translate(-149.852 -172.921)" fill="#6c6c6c"/>
        <path id="Path_632" data-name="Path 632" d="M164.518,175.8a.292.292,0,0,1-.291-.293v-.92a.292.292,0,1,1,.584,0v.92a.292.292,0,0,1-.293.293Z" transform="translate(-149.492 -172.921)" fill="#6c6c6c"/>
        <path id="Path_633" data-name="Path 633" d="M165.633,175.8a.293.293,0,0,1-.293-.293v-.92a.293.293,0,1,1,.585,0v.92a.293.293,0,0,1-.293.293Z" transform="translate(-149.131 -172.921)" fill="#6c6c6c"/>
        <path id="Path_634" data-name="Path 634" d="M166.746,176.131a.293.293,0,0,1-.293-.293v-2.29a.293.293,0,1,1,.585,0v2.29a.293.293,0,0,1-.293.293Z" transform="translate(-148.771 -173.256)" fill="#6c6c6c"/>
        <path id="Path_635" data-name="Path 635" d="M167.859,175.8a.293.293,0,0,1-.293-.293v-.92a.293.293,0,0,1,.585,0v.92a.293.293,0,0,1-.293.293Z" transform="translate(-148.41 -172.921)" fill="#6c6c6c"/>
        <path id="Path_636" data-name="Path 636" d="M168.972,175.8a.293.293,0,0,1-.293-.293v-.92a.293.293,0,0,1,.585,0v.92a.293.293,0,0,1-.293.293Z" transform="translate(-148.05 -172.921)" fill="#6c6c6c"/>
        <path id="Path_637" data-name="Path 637" d="M170.085,175.8a.293.293,0,0,1-.293-.293v-.92a.293.293,0,0,1,.585,0v.92a.293.293,0,0,1-.293.293Z" transform="translate(-147.69 -172.921)" fill="#6c6c6c"/>
        <path id="Path_638" data-name="Path 638" d="M171.2,175.8a.293.293,0,0,1-.293-.293v-.92a.293.293,0,0,1,.585,0v.92a.293.293,0,0,1-.293.293Z" transform="translate(-147.329 -172.921)" fill="#6c6c6c"/>
      </g>
    </g>
  </g>
</svg>
