<svg xmlns="http://www.w3.org/2000/svg" width="36" height="26.569" viewBox="0 0 36 26.569"><g transform="translate(-50 -89.298)"><path d="M59,122.636H92.837l-16.92-24.8ZM76.005,106.17a.367.367,0,0,1,.052.016l.014.007a.363.363,0,0,1,.052.028h0l.015.013a.362.362,0,0,1,.04.033.377.377,0,0,1,.025.03c.007.008.014.015.02.024l7.3,10.827c0,.007.007.014.011.021a.345.345,0,0,1,.023.044.385.385,0,0,1,.012.039c0,.011.007.021.009.031a.362.362,0,0,1,.007.07s0,0,0,0v0a.381.381,0,0,1-.007.07c0,.012-.007.023-.01.035a.35.35,0,0,1-.011.035c0,.011-.01.02-.016.03a.35.35,0,0,1-.019.034c-.006.008-.012.015-.018.023a.363.363,0,0,1-.027.033.382.382,0,0,1-.03.025.308.308,0,0,1-.025.021.363.363,0,0,1-.058.032l-.016.006a.374.374,0,0,1-.048.015l-.018,0a.37.37,0,0,1-.067.007h-14.6a.372.372,0,0,1-.067-.007l-.018,0a.367.367,0,0,1-.048-.015l-.017-.006a.369.369,0,0,1-.058-.031l-.016-.013a.369.369,0,0,1-.04-.033.361.361,0,0,1-.029-.035c-.006-.007-.012-.014-.017-.021a.373.373,0,0,1-.021-.038c0-.009-.01-.017-.013-.026a.348.348,0,0,1-.013-.042c0-.009-.006-.018-.008-.027a.374.374,0,0,1,0-.147c0-.01.006-.018.008-.028a.359.359,0,0,1,.013-.042.375.375,0,0,1,.024-.045c0-.006.006-.013.01-.019l7.3-10.827c.007-.01.015-.018.023-.028s.014-.018.022-.026a.373.373,0,0,1,.04-.033l.016-.013h0a.368.368,0,0,1,.047-.025l.019-.01c.01,0,.021-.006.031-.009a.374.374,0,0,1,.181-.011Z" transform="translate(-7.916 -7.515)" fill="#bde6f4"/><path d="M143.613,167.192c-.01,0-.021.005-.031.009l-.019.01a.369.369,0,0,0-.047.025h0l-.016.013a.374.374,0,0,0-.04.033c-.008.008-.015.018-.022.026s-.016.018-.023.028l-7.3,10.827c0,.006-.007.013-.01.019a.375.375,0,0,0-.024.045.36.36,0,0,0-.013.042c0,.009-.006.018-.008.028a.374.374,0,0,0,0,.147c0,.009.006.018.008.027a.346.346,0,0,0,.013.042c0,.009.009.017.013.026a.37.37,0,0,0,.021.038c.005.008.012.014.017.021a.358.358,0,0,0,.029.035.369.369,0,0,0,.04.033l.016.013a.37.37,0,0,0,.058.031l.017.006a.365.365,0,0,0,.048.015l.018,0a.372.372,0,0,0,.067.007h14.6a.371.371,0,0,0,.067-.007l.018,0a.371.371,0,0,0,.048-.015l.016-.006a.363.363,0,0,0,.058-.032.31.31,0,0,0,.025-.021.383.383,0,0,0,.03-.025.365.365,0,0,0,.027-.033c.006-.008.013-.015.018-.023a.35.35,0,0,0,.019-.034c.005-.01.011-.02.016-.03a.349.349,0,0,0,.011-.035c0-.012.008-.023.01-.035a.382.382,0,0,0,.007-.07v0s0,0,0,0a.362.362,0,0,0-.007-.07c0-.011-.006-.021-.009-.031a.389.389,0,0,0-.012-.039.347.347,0,0,0-.023-.044c0-.007-.007-.015-.011-.021l-7.3-10.827c-.006-.009-.013-.016-.02-.024a.38.38,0,0,0-.025-.03.361.361,0,0,0-.04-.033l-.015-.013h0a.364.364,0,0,0-.052-.028l-.014-.007a.365.365,0,0,0-.052-.016l-.017-.005A.374.374,0,0,0,143.613,167.192ZM150.322,178h-13.2l6.6-9.786Z" transform="translate(-75.723 -68.532)" fill="#6c6c6c"/><path d="M85.992,115.419c0-.007,0-.013-.006-.02a.363.363,0,0,0-.016-.051.371.371,0,0,0-.035-.064v0L68.308,89.451a.387.387,0,0,0-.616,0L50.065,115.283h0a.385.385,0,0,0-.035.065c0,.01-.006.02-.009.03a.358.358,0,0,0-.012.04.371.371,0,0,0-.007.073h0c0,.007,0,.014,0,.021a.383.383,0,0,0,.005.051c0,.013.007.024.011.036s.006.022.01.033a.363.363,0,0,0,.018.035.333.333,0,0,0,.016.03.361.361,0,0,0,.026.033c.007.008.012.016.019.024a.375.375,0,0,0,.121.083.37.37,0,0,0,.145.029H85.627a.373.373,0,0,0,.067-.007l.019,0a.37.37,0,0,0,.047-.015l.018-.007a.366.366,0,0,0,.048-.026l.011-.006h0a.375.375,0,0,0,.054-.045c.008-.008.013-.016.02-.025a.352.352,0,0,0,.025-.032c.006-.01.011-.02.017-.031a.367.367,0,0,0,.017-.033.353.353,0,0,0,.011-.035c0-.012.008-.023.01-.035a.364.364,0,0,0,.006-.056c0-.005,0-.01,0-.016h0A.366.366,0,0,0,85.992,115.419Zm-34.913-.3L68,90.323l16.92,24.8Z" fill="#6c6c6c"/><path d="M70.226,296.625a.373.373,0,0,1-.373-.373v-1.173a.373.373,0,0,1,.746,0v1.173a.373.373,0,0,1-.373.373Z" transform="translate(-17.471 -180.759)" fill="#6c6c6c"/><path d="M85.89,296.625a.373.373,0,0,1-.373-.373v-1.173a.373.373,0,0,1,.746,0v1.173a.373.373,0,0,1-.373.373Z" transform="translate(-31.255 -180.759)" fill="#6c6c6c"/><path d="M101.552,296.625a.373.373,0,0,1-.373-.373v-1.173a.373.373,0,0,1,.746,0v1.173a.373.373,0,0,1-.373.373Z" transform="translate(-45.038 -180.759)" fill="#6c6c6c"/><path d="M117.215,296.625a.373.373,0,0,1-.373-.373v-1.173a.373.373,0,1,1,.746,0v1.173a.373.373,0,0,1-.373.373Z" transform="translate(-58.821 -180.759)" fill="#6c6c6c"/><path d="M132.876,283.812a.373.373,0,0,1-.373-.373v-2.921a.373.373,0,0,1,.746,0v2.921a.373.373,0,0,1-.373.373Z" transform="translate(-72.603 -167.946)" fill="#6c6c6c"/><path d="M148.538,296.625a.373.373,0,0,1-.373-.373v-1.173a.373.373,0,0,1,.746,0v1.173a.373.373,0,0,1-.373.373Z" transform="translate(-86.385 -180.759)" fill="#6c6c6c"/><path d="M164.2,296.625a.373.373,0,0,1-.373-.373v-1.173a.373.373,0,0,1,.746,0v1.173a.373.373,0,0,1-.373.373Z" transform="translate(-100.17 -180.759)" fill="#6c6c6c"/><path d="M179.865,296.625a.373.373,0,0,1-.373-.373v-1.173a.373.373,0,1,1,.746,0v1.173a.373.373,0,0,1-.373.373Z" transform="translate(-113.953 -180.759)" fill="#6c6c6c"/><path d="M195.527,283.812a.373.373,0,0,1-.373-.373v-2.921a.373.373,0,0,1,.746,0v2.921a.373.373,0,0,1-.373.373Z" transform="translate(-127.736 -167.946)" fill="#6c6c6c"/><path d="M211.19,296.625a.373.373,0,0,1-.373-.373v-1.173a.373.373,0,0,1,.746,0v1.173a.373.373,0,0,1-.373.373Z" transform="translate(-141.519 -180.759)" fill="#6c6c6c"/><path d="M226.85,296.625a.373.373,0,0,1-.373-.373v-1.173a.373.373,0,0,1,.746,0v1.173a.373.373,0,0,1-.373.373Z" transform="translate(-155.3 -180.759)" fill="#6c6c6c"/><path d="M242.515,296.625a.373.373,0,0,1-.373-.373v-1.173a.373.373,0,1,1,.746,0v1.173a.373.373,0,0,1-.373.373Z" transform="translate(-169.085 -180.759)" fill="#6c6c6c"/><path d="M258.177,283.812a.373.373,0,0,1-.373-.373v-2.921a.373.373,0,1,1,.746,0v2.921a.373.373,0,0,1-.373.373Z" transform="translate(-182.868 -167.946)" fill="#6c6c6c"/><path d="M273.839,296.625a.373.373,0,0,1-.373-.373v-1.173a.373.373,0,0,1,.746,0v1.173a.373.373,0,0,1-.373.373Z" transform="translate(-196.65 -180.759)" fill="#6c6c6c"/><path d="M289.5,296.625a.373.373,0,0,1-.373-.373v-1.173a.373.373,0,0,1,.746,0v1.173a.373.373,0,0,1-.373.373Z" transform="translate(-210.432 -180.759)" fill="#6c6c6c"/><path d="M305.162,296.625a.373.373,0,0,1-.373-.373v-1.173a.373.373,0,0,1,.746,0v1.173a.373.373,0,0,1-.373.373Z" transform="translate(-224.214 -180.759)" fill="#6c6c6c"/><path d="M320.824,296.625a.373.373,0,0,1-.373-.373v-1.173a.373.373,0,0,1,.746,0v1.173a.373.373,0,0,1-.373.373Z" transform="translate(-237.997 -180.759)" fill="#6c6c6c"/></g></svg>