<svg xmlns="http://www.w3.org/2000/svg" width="90" height="56.92" viewBox="0 0 90 56.92">
  <g id="Group_187" data-name="Group 187" transform="translate(-143 -99.54)">
    <path id="Path_690" data-name="Path 690" d="M233,120.342c-.066-11.67-19.8-20.8-45-20.8s-44.931,9.132-45,20.8h0v21.079a.969.969,0,0,0,.293.7c9.78,9.562,27.41,14.343,44.957,14.343s35.028-4.786,44.47-14.355a.976.976,0,0,0,.28-.684V120.4h0v-.057Zm-45-18.834c23.728,0,43.032,8.475,43.032,18.892s-19.3,18.89-43.032,18.89-43.032-8.474-43.032-18.89S164.272,101.508,188,101.508Zm43.052,35.384v4.126c-8.606,8.483-24.462,13.518-42.6,13.518h-.419c-17.921-.076-34.375-5.252-43.088-13.528V126.6c5.568,8.578,22.494,14.661,43.052,14.661s37.484-6.083,43.052-14.661Z" fill="#6c6c6c"/>
    <g id="Group_186" data-name="Group 186">
      <path id="Path_691" data-name="Path 691" d="M188,139.268c23.728,0,43.032-8.474,43.032-18.89s-19.3-18.892-43.032-18.892-43.032,8.475-43.032,18.892S164.272,139.268,188,139.268Z" fill="#bde6f4"/>
      <path id="Path_692" data-name="Path 692" d="M188,141.237c-20.558,0-37.484-6.083-43.052-14.661v14.408c8.713,8.277,25.167,13.453,43.088,13.529h.419c18.135,0,33.991-5.035,42.6-13.519V126.576C225.484,135.154,208.558,141.237,188,141.237Z" fill="#bde6f4"/>
    </g>
  </g>
</svg>
