<svg xmlns="http://www.w3.org/2000/svg" width="93.604" height="81.643" viewBox="0 0 93.604 81.643"><g transform="translate(-385.151 -227.76)"><path d="M390.927,282.086h2.057v-1.263a.589.589,0,0,1,1.178,0v1.263h1.788v-1.263a.589.589,0,0,1,1.178,0v1.263h1.788v-1.263a.589.589,0,0,1,1.178,0v1.263h1.791v-1.263a.588.588,0,1,1,1.176,0v1.263h1.791v-4.022a.588.588,0,1,1,1.176,0v4.022h1.791v-1.263a.589.589,0,0,1,1.178,0v1.263h1.788v-1.263a.589.589,0,0,1,1.178,0v1.263h1.788v-1.263a.589.589,0,0,1,1.178,0v1.263h1.788v-4.022a.589.589,0,0,1,1.178,0v4.022h1.788v-1.263a.589.589,0,0,1,1.178,0v1.263h1.788v-1.263a.589.589,0,0,1,1.178,0v1.263h1.791v-1.263a.588.588,0,1,1,1.176,0v1.263h1.791v-4.022a.588.588,0,1,1,1.176,0v4.022h1.791v-1.263a.588.588,0,1,1,1.176,0v1.263h1.791v-1.263a.589.589,0,0,1,1.178,0v1.263h1.788v-1.263a.589.589,0,0,1,1.178,0v1.263h1.788v-1.263a.589.589,0,0,1,1.178,0v1.263h2.713l-26.708-39.142ZM417.776,256.1a.4.4,0,0,1,.082.025l.022.011a.575.575,0,0,1,.082.044l0,0,.025.019c.022.016.043.033.065.052l.038.049.033.038,11.525,17.09.016.033a.532.532,0,0,1,.038.068l.019.063.014.049a.491.491,0,0,1,.011.109l0,.008,0,.005a.476.476,0,0,1-.011.109l-.016.057-.016.052-.025.049-.03.054-.03.035-.041.052-.049.041-.041.033,0,0a.7.7,0,0,1-.136.065l-.038.011a.554.554,0,0,1-.15.022H406.11a.554.554,0,0,1-.15-.022l-.038-.011a.573.573,0,0,1-.136-.065l0,0-.027-.019a.575.575,0,0,1-.063-.054.416.416,0,0,1-.044-.054l-.027-.033-.033-.06-.022-.041-.022-.068-.011-.044a.551.551,0,0,1,0-.231l.011-.044c.008-.022.014-.044.022-.068s.025-.046.038-.071l.016-.03,11.525-17.09.035-.044.035-.041a.387.387,0,0,1,.063-.054l.025-.019,0,0c.025-.016.052-.027.076-.041l.03-.014.049-.016a.6.6,0,0,1,.286-.016Z" transform="translate(9.944 26.138)" fill="#8fc5cc"/><path d="M395.409,282.846a.589.589,0,0,1,.819-.144l1.45,1.018,1.116-1.589-1.453-1.021a.588.588,0,0,1-.144-.819l0,0a.588.588,0,0,1,.819-.141l1.453,1.021,1.116-1.589-1.453-1.021a.589.589,0,0,1-.144-.819l0,0a.588.588,0,0,1,.819-.141l1.453,1.018,1.116-1.592-3.11-2.18a.588.588,0,0,1-.142-.819v0a.588.588,0,0,1,.819-.141l3.11,2.18,1.113-1.589-1.45-1.018a.585.585,0,0,1-.141-.819h0a.588.588,0,0,1,.819-.144l1.451,1.018,1.116-1.589-1.448-1.018a.586.586,0,0,1-.144-.819v0a.588.588,0,0,1,.819-.141l1.451,1.018,1.113-1.592-1.451-1.018a.59.59,0,0,1-.144-.822h0a.589.589,0,0,1,.819-.142l1.453,1.018,1.119-1.592-3.105-2.174a.592.592,0,0,1-.144-.822h0a.592.592,0,0,1,.822-.144l3.105,2.177,1.113-1.589-1.45-1.018a.588.588,0,0,1-.144-.819h0a.59.59,0,0,1,.822-.144l1.448,1.018,1.116-1.589-1.448-1.018a.587.587,0,0,1-.144-.819v0a.592.592,0,0,1,.822-.142l1.448,1.018,1.116-1.592-1.453-1.018a.591.591,0,0,1-.141-.822h0a.589.589,0,0,1,.819-.144l1.453,1.021,1.116-1.592-3.1-2.172a.59.59,0,0,1-.144-.822h0a.589.589,0,0,1,.819-.144l3.1,2.174,1.113-1.589-1.448-1.018a.586.586,0,0,1-.144-.819v0a.591.591,0,0,1,.819-.142l1.45,1.018,1.116-1.589-1.453-1.021a.592.592,0,0,1-.144-.822h0a.588.588,0,0,1,.819-.141l1.453,1.018,1.116-1.589-1.453-1.018a.592.592,0,0,1-.144-.822h0a.588.588,0,0,1,.819-.144l1.451,1.021,1.118-1.592L420.8,244.2a.588.588,0,0,1-.144-.819l0,0a.588.588,0,0,1,.819-.142l3.094,2.166.713-1.015-8.349-5.859L385.669,283.08l8.346,5.859,1.2-1.7-3.116-2.183a.586.586,0,0,1-.144-.819v0a.592.592,0,0,1,.819-.144l3.116,2.185L397,284.686l-1.451-1.018a.59.59,0,0,1-.144-.822Z" transform="translate(0.892 18.542)" fill="#e5c88a"/><path d="M412.683,241.612a.586.586,0,0,1-.814-.177l-1.69-2.621-8.581,5.524.675,1.048,3.211-2.068a.589.589,0,0,1,.637.991l-3.211,2.068,1.053,1.633,1.491-.958a.589.589,0,1,1,.637.991L404.6,249l1.053,1.636,1.491-.961a.589.589,0,1,1,.637.991l-1.491.961,1.053,1.636,1.491-.961a.589.589,0,1,1,.637.991l-1.491.961,1.053,1.636,3.211-2.068a.589.589,0,1,1,.637.991l-3.211,2.068,1.053,1.633,1.491-.958a.588.588,0,1,1,.64.988l-1.494.961,1.053,1.635,1.491-.961a.59.59,0,0,1,.64.991l-1.491.961,1.053,1.636,1.491-.961a.589.589,0,1,1,.637.991l-1.491.961,1.053,1.635,3.211-2.068a.589.589,0,0,1,.637.991l-3.211,2.068,1.053,1.636,1.491-.961a.589.589,0,1,1,.637.991l-1.491.958,1.053,1.636,1.491-.961a.589.589,0,0,1,.637.991l-1.491.961,1.053,1.636,1.491-.961a.589.589,0,1,1,.637.991l-1.491.961,1.053,1.636,3.211-2.068a.59.59,0,0,1,.639.991l-3.211,2.068,1.05,1.635,1.491-.961a.59.59,0,0,1,.64.991l-1.491.958,1.05,1.636,1.494-.961a.589.589,0,1,1,.637.991l-1.491.961,1.053,1.636,1.491-.961a.589.589,0,1,1,.637.991l-1.491.961,1.053,1.636,3.211-2.068a.589.589,0,1,1,.637.991l-3.211,2.068,1.129,1.753,8.581-5.527-1.459-2.267a.587.587,0,0,1,.177-.814,23.738,23.738,0,1,0-25.7-39.917Zm28.216,18.2-2.014.275a13.537,13.537,0,0,1-.307,4.659l1.954.607a.588.588,0,1,1-.348,1.124l-1.932-.6a13.477,13.477,0,0,1-2.242,4.1l1.5,1.363a.589.589,0,1,1-.792.871l-1.489-1.347a13.466,13.466,0,0,1-2.422,2,.591.591,0,0,1-.814-.177l-13.912-21.608a.587.587,0,0,1,.177-.814,13.32,13.32,0,0,1,2.762-1.355l-.688-2.15a.589.589,0,0,1,1.121-.359l.691,2.161a13.428,13.428,0,0,1,4.564-.373l.28-2.207a.59.59,0,0,1,1.17.15l-.28,2.21a13.488,13.488,0,0,1,4.327,1.567l1.146-1.818a.588.588,0,1,1,1,.626l-1.143,1.818a13.362,13.362,0,0,1,3.293,3.268l1.731-1.113a.59.59,0,0,1,.64.991l-1.731,1.113a13.358,13.358,0,0,1,1.565,4.126l2.036-.278a.589.589,0,0,1,.161,1.167Z" transform="translate(28.314 17.351)" fill="#8fc5cc"/><path d="M413.432,241.054l-1.693-2.626a.587.587,0,0,0-.814-.177l-9.571,6.161a.59.59,0,0,0-.177.816L417.7,270.894h0l1.69,2.626h0l1.69,2.623h0l3.383,5.252h0l1.69,2.626h0l1.69,2.623h0l3.456,5.369a.592.592,0,0,0,.814.177l9.571-6.164a.587.587,0,0,0,.177-.814l-1.464-2.272a24.916,24.916,0,0,0-26.966-41.888Zm25.84,41.221a.587.587,0,0,0-.177.814l1.459,2.267-8.581,5.527-1.129-1.753,3.211-2.068a.589.589,0,1,0-.637-.991l-3.211,2.068-1.053-1.636,1.491-.961a.589.589,0,1,0-.637-.991l-1.491.961-1.053-1.636,1.491-.961a.589.589,0,1,0-.637-.991l-1.494.961-1.05-1.636,1.491-.958a.59.59,0,0,0-.64-.991l-1.491.961-1.05-1.635,3.211-2.068a.59.59,0,0,0-.639-.991l-3.211,2.068L422.391,276l1.491-.961a.589.589,0,1,0-.637-.991l-1.491.961-1.053-1.636,1.491-.961a.589.589,0,1,0-.637-.991l-1.491.961-1.053-1.636,1.491-.958a.589.589,0,1,0-.637-.991l-1.491.961-1.053-1.636,3.211-2.068a.589.589,0,0,0-.637-.991l-3.211,2.068-1.053-1.635,1.491-.961a.589.589,0,1,0-.637-.991l-1.491.961-1.053-1.636,1.491-.961a.59.59,0,0,0-.64-.991l-1.491.961-1.053-1.635,1.494-.961a.588.588,0,1,0-.64-.988l-1.491.958-1.053-1.633,3.211-2.068a.589.589,0,1,0-.637-.991l-3.211,2.068L408.868,255l1.491-.961a.589.589,0,1,0-.637-.991l-1.491.961-1.053-1.636,1.491-.961a.589.589,0,1,0-.637-.991l-1.491.961-1.053-1.636,1.491-.958a.589.589,0,1,0-.637-.991l-1.491.958-1.053-1.633,3.211-2.068a.589.589,0,0,0-.637-.991l-3.211,2.068-.675-1.048,8.581-5.524,1.69,2.621a.586.586,0,0,0,.814.177,23.738,23.738,0,1,1,25.7,39.917Z" transform="translate(27.427 16.607)" fill="#6c6c6c"/><path d="M430.371,253.819l-2.036.278a13.358,13.358,0,0,0-1.565-4.126l1.731-1.113a.59.59,0,0,0-.64-.991l-1.731,1.113a13.362,13.362,0,0,0-3.293-3.268l1.143-1.818a.588.588,0,1,0-1-.626l-1.146,1.818a13.488,13.488,0,0,0-4.327-1.567l.28-2.21a.59.59,0,0,0-1.17-.15l-.28,2.207a13.428,13.428,0,0,0-4.564.373l-.691-2.161a.589.589,0,0,0-1.121.359l.688,2.15a13.32,13.32,0,0,0-2.762,1.355.587.587,0,0,0-.177.814l13.912,21.608a.591.591,0,0,0,.814.177,13.466,13.466,0,0,0,2.422-2l1.489,1.347a.589.589,0,1,0,.792-.871l-1.5-1.363a13.477,13.477,0,0,0,2.242-4.1l1.932.6a.588.588,0,1,0,.348-1.124l-1.954-.607a13.537,13.537,0,0,0,.307-4.659l2.014-.275a.589.589,0,0,0-.161-1.167Zm-3.4,6.183a.541.541,0,0,0-.06.133.534.534,0,0,0-.025.161,12.228,12.228,0,0,1-2.373,4.373.655.655,0,0,0-.155.12.544.544,0,0,0-.112.185,12.19,12.19,0,0,1-1.962,1.744l-13.256-20.59a12.257,12.257,0,0,1,18.225,8.6.485.485,0,0,0,0,.109.636.636,0,0,0,.03.125A12.29,12.29,0,0,1,426.975,260Z" transform="translate(38.681 22.181)" fill="#6c6c6c"/><path d="M399.2,285.771l.005-.011,5.334-7.6.043-.049h0a.63.63,0,0,0,.033-.06l1.744-2.485.008-.008v0l.008-.011,1.769-2.523.016-.019h0l.014-.022,3.5-4.991a.68.68,0,0,0,.079-.093h0a.47.47,0,0,0,.06-.109l1.712-2.438.011-.011h0l.005-.011,1.772-2.523.014-.019h0l.011-.022,3.492-4.975a.711.711,0,0,0,.1-.1v0a.633.633,0,0,0,.065-.128l1.7-2.422.008-.011h0l.005-.014,5.277-7.519a.52.52,0,0,0,.114-.117l0,0a.52.52,0,0,0,.071-.147l1.3-1.848a.589.589,0,0,0,.1-.441.583.583,0,0,0-.242-.378l-9.313-6.537a.589.589,0,0,0-.819.144h0l-31.944,45.515a.586.586,0,0,0,.144.819l9.313,6.537a.584.584,0,0,0,.438.1.6.6,0,0,0,.381-.242l3.655-5.206Zm-2.754-1.211,1.451,1.018-1.116,1.587-3.116-2.185a.592.592,0,0,0-.819.144v0a.586.586,0,0,0,.144.819l3.116,2.183-1.2,1.7-8.346-5.859,31.263-44.549,8.349,5.859-.713,1.015-3.094-2.166a.588.588,0,0,0-.819.142l0,0a.588.588,0,0,0,.144.819l3.094,2.169-1.118,1.592-1.451-1.021a.588.588,0,0,0-.819.144h0a.592.592,0,0,0,.144.822l1.453,1.018-1.116,1.589-1.453-1.018a.588.588,0,0,0-.819.141h0a.592.592,0,0,0,.144.822l1.453,1.021-1.116,1.589-1.45-1.018a.591.591,0,0,0-.819.142v0a.586.586,0,0,0,.144.819l1.448,1.018-1.113,1.589-3.1-2.174a.589.589,0,0,0-.819.144h0a.59.59,0,0,0,.144.822l3.1,2.172-1.116,1.592-1.453-1.021a.589.589,0,0,0-.819.144h0a.591.591,0,0,0,.141.822l1.453,1.018-1.116,1.592-1.448-1.018a.592.592,0,0,0-.822.142v0a.587.587,0,0,0,.144.819l1.448,1.018-1.116,1.589-1.448-1.018a.59.59,0,0,0-.822.144h0a.588.588,0,0,0,.144.819l1.45,1.018-1.113,1.589-3.105-2.177a.592.592,0,0,0-.822.144h0a.592.592,0,0,0,.144.822l3.105,2.174-1.119,1.592-1.453-1.018a.589.589,0,0,0-.819.142h0a.59.59,0,0,0,.144.822l1.451,1.018-1.113,1.592-1.451-1.018a.588.588,0,0,0-.819.141v0a.586.586,0,0,0,.144.819l1.448,1.018-1.116,1.589-1.451-1.018a.588.588,0,0,0-.819.144h0a.585.585,0,0,0,.141.819l1.45,1.018-1.113,1.589-3.11-2.18a.588.588,0,0,0-.819.141v0a.588.588,0,0,0,.142.819l3.11,2.18-1.116,1.592-1.453-1.018a.588.588,0,0,0-.819.141l0,0a.589.589,0,0,0,.144.819l1.453,1.021-1.116,1.589-1.453-1.021a.588.588,0,0,0-.819.141l0,0a.588.588,0,0,0,.144.819l1.453,1.021-1.116,1.589-1.45-1.018a.589.589,0,0,0-.819.144h0A.59.59,0,0,0,396.445,284.56Z" transform="translate(0 17.65)" fill="#6c6c6c"/><path d="M447.113,283.579l-.008-.027a.8.8,0,0,0-.025-.084.746.746,0,0,0-.057-.1v0L419.2,242.593a.607.607,0,0,0-.972,0L390.4,283.364v0a.639.639,0,0,0-.057.1l-.014.049-.019.06a.57.57,0,0,0-.014.117h0l.005.033a.411.411,0,0,0,.008.082l.016.057.016.052.027.054.025.046.041.052.033.038a.46.46,0,0,0,.087.073h0a.625.625,0,0,0,.1.057.6.6,0,0,0,.229.046h55.647a.683.683,0,0,0,.15-.022l.038-.014a.564.564,0,0,0,.141-.068h0l0,0a.422.422,0,0,0,.084-.071l.033-.038.041-.052.025-.046.027-.054.016-.054.016-.055c.005-.03.008-.06.011-.09V283.7h0A.566.566,0,0,0,447.113,283.579Zm-4.406-.471v-1.263a.589.589,0,0,0-1.178,0v1.263h-1.788v-1.263a.589.589,0,0,0-1.178,0v1.263h-1.788v-1.263a.589.589,0,0,0-1.178,0v1.263h-1.791v-1.263a.588.588,0,1,0-1.176,0v1.263h-1.791v-4.022a.588.588,0,1,0-1.176,0v4.022h-1.791v-1.263a.588.588,0,1,0-1.176,0v1.263h-1.791v-1.263a.589.589,0,0,0-1.178,0v1.263H421.94v-1.263a.589.589,0,0,0-1.178,0v1.263h-1.788v-4.022a.589.589,0,0,0-1.178,0v4.022h-1.788v-1.263a.589.589,0,0,0-1.178,0v1.263h-1.788v-1.263a.589.589,0,0,0-1.178,0v1.263h-1.788v-1.263a.589.589,0,0,0-1.178,0v1.263h-1.791v-4.022a.588.588,0,1,0-1.176,0v4.022h-1.791v-1.263a.588.588,0,1,0-1.176,0v1.263h-1.791v-1.263a.589.589,0,0,0-1.178,0v1.263h-1.788v-1.263a.589.589,0,0,0-1.178,0v1.263H395.24v-1.263a.589.589,0,0,0-1.178,0v1.263H392l26.708-39.142,26.708,39.142Z" transform="translate(8.866 25.115)" fill="#6c6c6c"/><path d="M408.231,247.8l-.049.016-.03.014c-.024.014-.052.024-.076.041l0,0-.025.019a.387.387,0,0,0-.062.054l-.035.041-.035.044-11.525,17.09-.016.03c-.014.024-.027.046-.038.071s-.014.046-.022.068l-.011.044a.551.551,0,0,0,0,.231l.011.044.022.068.022.041.033.06.027.033a.416.416,0,0,0,.044.054.575.575,0,0,0,.063.054l.027.019,0,0a.573.573,0,0,0,.136.065l.038.011a.554.554,0,0,0,.15.022H419.93a.554.554,0,0,0,.15-.022l.038-.011a.7.7,0,0,0,.136-.065l0,0,.041-.033.049-.041.041-.052.03-.035.03-.054.025-.049.016-.052.016-.057a.476.476,0,0,0,.011-.109l0-.005,0-.008a.491.491,0,0,0-.011-.109l-.014-.049-.019-.063a.532.532,0,0,0-.038-.068l-.016-.033-11.525-17.09-.033-.038-.038-.049c-.022-.019-.043-.035-.065-.052l-.025-.019,0,0a.575.575,0,0,0-.082-.044l-.022-.011a.4.4,0,0,0-.082-.025l-.027-.008A.6.6,0,0,0,408.231,247.8Zm10.589,17.06H397.987L408.4,249.411Z" transform="translate(19.176 34.446)" fill="#6c6c6c"/><g transform="translate(387.768 227.76)"><g transform="translate(1.383 1.382)"><path d="M386.818,228.427a.61.61,0,0,0-.038.86l1.821,1.989.9-.822-1.821-1.989A.607.607,0,0,0,386.818,228.427Z" transform="translate(-386.621 -228.268)" fill="#99beff"/><path d="M390.008,231.7a1.769,1.769,0,0,0,.678,3l-.343-3.241A1.758,1.758,0,0,0,390.008,231.7Z" transform="translate(-381.78 -222.77)" fill="#99beff"/><path d="M429.209,242.853l.416-1.129-35.42-8.9-2.034,1.862Z" transform="translate(-377.066 -220.428)" fill="#99beff"/><path d="M390.541,236.164l-.03.022,4.026,25.241,1.267-1.782-3.282-25.3Z" transform="translate(-379.923 -217.799)" fill="#99beff"/><path d="M390.273,231.408l.343,3.241a1.687,1.687,0,0,0,.34-.242,1.775,1.775,0,0,0,.109-2.5A1.751,1.751,0,0,0,390.273,231.408Z" transform="translate(-380.333 -222.862)" fill="#99beff"/><path d="M393.454,229.591l-2.887,2.642h0l-2.887,2.645,7.095,7.751a.646.646,0,0,1,.264.2l5.731-5.247Zm1.154,9.767-.054.008a.324.324,0,0,1-.052,0,3.151,3.151,0,0,1-.656-6.267l.043-.008c.019,0,.035,0,.052,0a3.153,3.153,0,0,1,.667,6.27Z" transform="translate(-384.799 -225.989)" fill="#99beff"/></g><path d="M394.407,231.893a3.155,3.155,0,0,0-2.61-1.01c-.016,0-.033,0-.052,0l-.043.008a3.151,3.151,0,0,0,.656,6.267.324.324,0,0,0,.052,0l.054-.008a3.152,3.152,0,0,0,1.943-5.26Zm-3.636,3.328a1.778,1.778,0,0,1,.112-2.506,1.758,1.758,0,0,1,.335-.239l.343,3.241A1.766,1.766,0,0,1,390.771,235.221Zm2.506.109a1.687,1.687,0,0,1-.34.242l-.343-3.241a1.751,1.751,0,0,1,.792.5A1.775,1.775,0,0,1,393.278,235.33Z" transform="translate(-381.272 -222.403)" fill="#6c6c6c"/><path d="M402.11,272.77l-.139.193.139-.193-4.028-25.241.03-.022,1.981-1.815,3.282,25.3.1-.131-.1.131v0l1.178-1.676-3.211-24.762.144-.133a.67.67,0,0,0,.381.234l38.053,8.393a.6.6,0,0,0,.2.016.681.681,0,0,0,.294-.084.583.583,0,0,0,.136-.1.823.823,0,0,0,.093-.1.687.687,0,0,0,.093-.177l.223-.6,2.749.751a.693.693,0,0,0,.365-1.336l-2.634-.718.18-.493.016-.044a.689.689,0,0,0,.03-.234.687.687,0,0,0-.277-.523h0a.714.714,0,0,0-.212-.109l-.041-.011-19.654-4.939.245-1.834.248.065a.694.694,0,0,0,.844-.493.692.692,0,0,0-.493-.846l-2.006-.531a.692.692,0,0,0-.354,1.339l.414.109L420.126,244l-15.313-3.848L396.7,231.3a.69.69,0,0,0-.977-.044l-2.887,2.645-1.472-1.608.449-.411a.69.69,0,0,0,.043-.977l-2.289-2.5a1.991,1.991,0,0,0-2.936,2.689l2.289,2.5a.69.69,0,0,0,.977.044l.449-.408,1.47,1.606-2.887,2.645a.69.69,0,0,0-.044.977l7.688,8.4,4.4,27.551h.011l1.132-1.611ZM389.475,232.15l-1.821-1.989a.608.608,0,1,1,.9-.822l1.821,1.989Zm50.58,18.288-.416,1.129L402.6,243.4l2.036-1.861Zm-42.584-4.656-7.095-7.751,2.887-2.645h0l2.887-2.642,7.315,7.987-5.731,5.247A.646.646,0,0,0,397.47,245.782Z" transform="translate(-386.112 -227.76)" fill="#6c6c6c"/></g></g></svg>