<svg xmlns="http://www.w3.org/2000/svg" xmlns:xlink="http://www.w3.org/1999/xlink" viewBox="0 0 180.01 236.56"><defs><linearGradient id="a" x1="57.21" y1="143.07" x2="57.64" y2="143.07" gradientTransform="matrix(81.77, 0, 0, -163.62, -5244.52, 23551.25)" gradientUnits="userSpaceOnUse"><stop offset="0.04" stop-color="#dedede"/><stop offset="0.4" stop-color="#c6c6c6"/><stop offset="0.64" stop-color="#b4b4b4"/><stop offset="1" stop-color="#cdcdcd"/></linearGradient><linearGradient id="b" x1="56.77" y1="143.06" x2="57.06" y2="143.06" gradientTransform="matrix(76, 0, 0, -166.37, -4872.82, 23940.39)" xlink:href="#a"/><linearGradient id="c" x1="10" y1="151.67" x2="10.88" y2="151.67" gradientTransform="matrix(12.59, 0, 0, -10.14, -678.97, 1599.01)" xlink:href="#a"/><linearGradient id="d" x1="6.39" y1="161.07" x2="7.39" y2="161.07" gradientTransform="matrix(10.67, 0, 0, -5.01, -621.35, 1008.36)" xlink:href="#a"/><linearGradient id="e" x1="30.39" y1="147.3" x2="31.4" y2="147.3" gradientTransform="matrix(13.57, 0, 0, -13.71, -967.88, 2216.18)" gradientUnits="userSpaceOnUse"><stop offset="0.04" stop-color="#bfbfb8"/><stop offset="0.4" stop-color="#aea8a8"/><stop offset="0.64" stop-color="#959595"/><stop offset="1" stop-color="#b5afa0"/></linearGradient><linearGradient id="f" x1="-116.61" y1="168.54" x2="-115.53" y2="168.54" gradientTransform="matrix(8.7, 0, 0, -3.57, -339.15, 801.96)" gradientUnits="userSpaceOnUse"><stop offset="0.04" stop-color="#e0e0e0"/><stop offset="0.4" stop-color="#c8c8c8"/><stop offset="0.64" stop-color="#b6b6b6"/><stop offset="1" stop-color="#cfcfcf"/></linearGradient><linearGradient id="g" x1="23.28" y1="233.01" x2="23.44" y2="232.61" gradientTransform="matrix(7.85, 0, 0, -17.1, -272.83, 2755.73)" gradientUnits="userSpaceOnUse"><stop offset="0" stop-color="#3c2718"/><stop offset="0.98" stop-color="#22130a"/></linearGradient><linearGradient id="h" x1="-1155.01" y1="1080.41" x2="-1153.54" y2="1079.23" gradientTransform="matrix(0.84, 0, 0, -5.69, 189.83, 1135.41)" xlink:href="#g"/><linearGradient id="i" x1="25.95" y1="265.96" x2="26.14" y2="265.21" gradientTransform="matrix(5.44, 0, 0, -7.41, -116.12, 1369.65)" xlink:href="#g"/><linearGradient id="j" x1="56.06" y1="228.57" x2="56.06" y2="230.26" gradientTransform="matrix(6.89, 0, 0, -5.21, -211.54, 1057.74)" gradientUnits="userSpaceOnUse"><stop offset="0.04" stop-color="#939393"/><stop offset="0.4" stop-color="#7c7c7c"/><stop offset="0.64" stop-color="#696969"/><stop offset="1" stop-color="#828282"/></linearGradient><linearGradient id="k" x1="55.91" y1="288.98" x2="55.91" y2="291.88" gradientTransform="matrix(6.78, 0, 0, -3.05, -204.39, 747.79)" xlink:href="#j"/><linearGradient id="l" x1="-13.58" y1="144.75" x2="-13.27" y2="144.75" gradientTransform="matrix(19.92, 0, 0, -41.28, -1081.86, 6156.4)" xlink:href="#e"/><linearGradient id="m" x1="-397.83" y1="190.77" x2="-396.08" y2="190.77" gradientTransform="matrix(3.42, 0, 0, -1.93, 7.22, 567.85)" xlink:href="#e"/><linearGradient id="n" x1="-53.69" y1="145.47" x2="-52.49" y2="145.47" gradientTransform="matrix(13.3, 0, 0, -31.29, -645.18, 4736.91)" xlink:href="#a"/><linearGradient id="o" x1="-84.36" y1="147.48" x2="-84.02" y2="147.48" gradientTransform="matrix(10.47, 0, 0, -18.67, -467.99, 2923.19)" xlink:href="#e"/><linearGradient id="p" x1="35.92" y1="143.27" x2="35.28" y2="143.27" gradientTransform="matrix(51.64, 0, 0, -120.8, -3190.78, 17425.65)" xlink:href="#a"/><linearGradient id="q" x1="35.73" y1="143.27" x2="35.02" y2="143.27" gradientTransform="matrix(51.65, 0, 0, -121.05, -3182.75, 17457.65)" xlink:href="#a"/><linearGradient id="r" x1="-55.72" y1="152.23" x2="-57.11" y2="152.23" gradientTransform="matrix(12.49, 0, 0, -9.56, -646.3, 1514.62)" xlink:href="#a"/><linearGradient id="s" x1="-26.26" y1="146.35" x2="-25.71" y2="146.35" gradientTransform="matrix(17.32, 0, 0, -24.14, -899.25, 3743.65)" gradientUnits="userSpaceOnUse"><stop offset="0.04" stop-color="#bfbfbf"/><stop offset="0.4" stop-color="#a8a8a8"/><stop offset="0.64" stop-color="#959595"/><stop offset="1" stop-color="#afafaf"/></linearGradient><linearGradient id="t" x1="56.76" y1="180.23" x2="56.76" y2="181.2" gradientTransform="matrix(7.44, 0, 0, -11.82, -264.34, 1940.13)" xlink:href="#e"/><linearGradient id="u" x1="46.26" y1="350.86" x2="46.26" y2="356.31" gradientTransform="matrix(3.38, 0, 0, -2.13, 0.84, 556.6)" xlink:href="#e"/><linearGradient id="v" x1="39.09" y1="279.74" x2="39.09" y2="280.65" gradientTransform="matrix(2.46, 0, 0, -3.32, 49.22, 733.55)" gradientUnits="userSpaceOnUse"><stop offset="0.04" stop-color="#9f9f99"/><stop offset="0.4" stop-color="#8e8888"/><stop offset="0.64" stop-color="#767676"/><stop offset="1" stop-color="#958f84"/></linearGradient><linearGradient id="w" x1="35.99" y1="203.78" x2="35.93" y2="202.33" gradientTransform="matrix(2.08, 0, 0, -5.08, 106.41, 1043.95)" gradientUnits="userSpaceOnUse"><stop offset="0" stop-color="#efefef"/><stop offset="0.98" stop-color="#22130a"/><stop offset="1" stop-color="#22130a"/></linearGradient><linearGradient id="x" x1="-76.52" y1="133.34" x2="-75.54" y2="133.44" gradientTransform="matrix(10.08, 0, 0, -18.76, -502.19, 2776.27)" gradientUnits="userSpaceOnUse"><stop offset="0.05" stop-color="#244662"/><stop offset="1" stop-color="#2f5b7c"/></linearGradient><linearGradient id="y" x1="-689.98" y1="133.58" x2="-684.62" y2="133.69" gradientTransform="matrix(1.86, 0, 0, -18.62, 33.35, 2757.34)" gradientUnits="userSpaceOnUse"><stop offset="0.05" stop-color="#294d6b"/><stop offset="1" stop-color="#336284"/></linearGradient><linearGradient id="z" x1="-474.2" y1="133.47" x2="-470.38" y2="133.57" gradientTransform="matrix(2.6, 0, 0, -18.63, -15.92, 2757.48)" xlink:href="#x"/><linearGradient id="aa" x1="-439.76" y1="133.48" x2="-436.29" y2="133.58" gradientTransform="matrix(2.8, 0, 0, -18.58, -21.11, 2750.54)" gradientUnits="userSpaceOnUse"><stop offset="0.05" stop-color="#284c69"/><stop offset="1" stop-color="#326082"/></linearGradient><linearGradient id="ab" x1="-658.33" y1="133.69" x2="-653.2" y2="133.8" gradientTransform="matrix(1.94, 0, 0, -18.62, 30.23, 2757.25)" gradientUnits="userSpaceOnUse"><stop offset="0.05" stop-color="#2b5474"/><stop offset="1" stop-color="#36688d"/></linearGradient><linearGradient id="ac" x1="-31.14" y1="153.42" x2="-30.15" y2="153.42" gradientTransform="matrix(14.59, 0, 0, -8.52, -797.16, 1326.88)" xlink:href="#x"/><linearGradient id="ad" x1="-34.34" y1="232.47" x2="-33.32" y2="232.47" gradientTransform="matrix(14.12, 0, 0, -1.03, -766.61, 256.82)" xlink:href="#x"/><linearGradient id="ae" x1="27.41" y1="144.74" x2="28.41" y2="144.74" gradientTransform="matrix(37.32, 0, 0, -41.52, -2285.67, 6050.92)" xlink:href="#x"/><linearGradient id="af" x1="62.93" y1="125.32" x2="62.95" y2="125.8" gradientTransform="matrix(37.32, 0, 0, -41.52, -2285.51, 6050.99)" xlink:href="#x"/></defs><title>compass-widget</title><path d="M6.31,224.06.14,236.56l6.18-17.14Z" transform="translate(0 0)" style="fill:#b3b2b2"/><path d="M6.17,223.51.64,234.72,0,236.49,6.17,224Z" transform="translate(0 0)" style="fill:#b3b2b2;opacity:0.5;isolation:isolate"/><path d="M5.59,225.17,6.17,224l0-4.64-1.87,5.19A2.87,2.87,0,0,0,5.59,225.17Z" transform="translate(0 0)" style="fill:#b3b2b2;opacity:0.5;isolation:isolate"/><path d="M7.08,223.51a.86.86,0,0,1-1.15.39l-2.65-1.28c-3.62-1.75,4.09-24.72,6.19-29L77.33,56.11l10,4.83Z" transform="translate(0 0)" style="fill:#c6c6c6"/><path d="M86.13,60.37,5.53,223.71l.4.19a.86.86,0,0,0,1.15-.39L87.3,60.93Z" transform="translate(0 0)" style="fill:url(#a)"/><path d="M3.63,215.9A139.48,139.48,0,0,1,8.42,199c.24-.66.53-1.56.77-2.23,0-.05,69.14-140.21,69.14-140.21l-1-.49L9.47,193.64c-2.06,4.17-9.49,26.3-6.4,28.85C2.46,221.11,3.59,216.06,3.63,215.9Z" transform="translate(0 0)" style="opacity:0.5;isolation:isolate;fill:url(#b)"/><path d="M84.68,66.25l2.62-5.31-10-4.83-2.62,5.32A23.76,23.76,0,0,1,84.68,66.25Z" transform="translate(0 0)" style="opacity:0.20000000298023224;isolation:isolate;fill:url(#c)"/><path d="M7.18,199.32s-.25,2.54,3.5,4.37a5.41,5.41,0,0,0,7.17-2Z" transform="translate(0 0)" style="fill:url(#d)"/><ellipse cx="13.49" cy="196.65" rx="6.79" ry="6.85" transform="translate(-183.28 208.31) rotate(-89.47)" style="fill:url(#e)"/><path d="M15.73,197.73a2.5,2.5,0,0,1-3.34,1.14,2.46,2.46,0,0,1-1.16-3.29v0a2.51,2.51,0,0,1,3.34-1.14,2.48,2.48,0,0,1,1.17,3.29Z" transform="translate(0 0)" style="fill:#c6c6c6"/><path d="M15.63,198a2.6,2.6,0,0,1-3.39,1.21,2.53,2.53,0,0,1,2.24-4.53h0a2.47,2.47,0,0,1,1.16,3.29Z" transform="translate(0 0)" style="fill:#c6c6c6"/><path d="M170.25,198.2a14.38,14.38,0,0,1-4.08,2.2,16.51,16.51,0,0,1-4.62,1.37,44,44,0,0,1,8.7-3.57Z" transform="translate(0 0)" style="fill:url(#f)"/><path d="M175.51,218.41l1.7,4.05a33.33,33.33,0,0,1,2.33,6.94c.16,1,.67,4.93.37,5-.9.34-5.55-9.77-5.92-10.65l-1.7-4a1.71,1.71,0,0,1,.93-2.25h0A1.76,1.76,0,0,1,175.51,218.41Z" transform="translate(0 0)" style="fill:url(#g)"/><path d="M179.19,229.87a12.67,12.67,0,0,0,.1,2.46,4.17,4.17,0,0,0,.61,2.11h0c.31-.11-.21-4.06-.37-5,0-.21-.08-.43-.13-.65A5.41,5.41,0,0,0,179.19,229.87Z" transform="translate(0 0)" style="opacity:0.5;isolation:isolate;fill:url(#h)"/><path d="M177.59,223.49c-.18-.5-.32-.87-.38-1l-1.7-4.05a1.76,1.76,0,0,0-2.28-.93h0a1.72,1.72,0,0,0-.95,2.24v0l1.7,4c.06.15.24.5.48,1A6.23,6.23,0,0,0,177.59,223.49Z" transform="translate(0 0)" style="fill:url(#i)"/><path d="M177.44,223.07a8.38,8.38,0,0,1-3,1.18A1.48,1.48,0,0,1,173,224l-1.93-2.09,6.75-2.77.14,2.82A1.46,1.46,0,0,1,177.44,223.07Z" transform="translate(0 0)" style="fill:url(#j)"/><path d="M177.89,219.55l0-.46-6.76,2.77.25.28A12.31,12.31,0,0,0,177.89,219.55Z" transform="translate(0 0)" style="fill:url(#k)"/><path d="M167.74,200l-3.16,1.3-16.76-40L151,160Z" transform="translate(0 0)" style="fill:url(#l)"/><path d="M164.33,200.65l.25.6,3.16-1.3-.26-.62A8.92,8.92,0,0,1,164.33,200.65Z" transform="translate(0 0)" style="opacity:0.5;isolation:isolate;fill:url(#m)"/><path d="M154.33,168.92,167.4,200.1l.23-.09-13.08-31.2Z" transform="translate(0 0)" style="opacity:0.5;isolation:isolate;fill:url(#n)"/><path d="M158.3,177.42,151,160l-3.17,1.3,7.28,17.38A15.33,15.33,0,0,0,158.3,177.42Z" transform="translate(0 0)" style="opacity:0.5;isolation:isolate;fill:url(#o)"/><path d="M161.34,174.52a5.49,5.49,0,0,1-1.14.78,30,30,0,0,1-3.32,1.51l-9.7-22.43a.31.31,0,0,0-.41-.11.32.32,0,0,0-.14.33l9,22.74a26.62,26.62,0,0,1-3.27,1.2,6,6,0,0,1-1.4.26L100.68,58.46l10.25-4.21Z" transform="translate(0 0)" style="fill:#c6c6c6"/><path d="M101.8,58l-1.12.45L150.92,178.8a6.79,6.79,0,0,0,1.4-.27Z" transform="translate(0 0)" style="opacity:0.5;isolation:isolate;fill:url(#p)"/><path d="M109.68,54.76,160.2,175.3a6.52,6.52,0,0,0,1.14-.77L110.94,54.25Z" transform="translate(0 0)" style="fill:url(#q)"/><path d="M113.17,59.6l-2.24-5.35-10.25,4.21,2.24,5.35A29.8,29.8,0,0,1,113.17,59.6Z" transform="translate(0 0)" style="opacity:0.20000000298023224;isolation:isolate;fill:url(#r)"/><path d="M178.87,218.77a22.39,22.39,0,0,1-8.7,3.57l-8.62-20.57c6-1.55,8.7-3.57,8.7-3.57Z" transform="translate(0 0)" style="fill:url(#s)"/><path d="M158.7,168.23l3-1.23-4.44-10.59-3,1.23Z" transform="translate(0 0)" style="fill:url(#t)"/><path d="M158.79,160.06l-.38-.9-3,1.23.38.9Z" transform="translate(0 0)" style="opacity:0.5;isolation:isolate;fill:url(#u)"/><path d="M145.35,169.13l1.29-.53-1.16-2.79-1.3.53Z" transform="translate(0 0)" style="fill:url(#v)"/><path d="M178.9,228.08a2.73,2.73,0,0,1,0,.57.53.53,0,0,1-.06.24.22.22,0,0,1-.2.13c-.65-1.47-1.21-3-1.78-4.47a.13.13,0,0,1,0-.06.11.11,0,0,1,.06-.07,4.14,4.14,0,0,0,.7-.48,18.29,18.29,0,0,1,1,2.68A6.6,6.6,0,0,1,178.9,228.08Z" transform="translate(0 0)" style="fill:url(#w)"/><path d="M98.37,18.57l-9.72.19L88.29,1.09a.47.47,0,0,1,.34-.46L90.42.12l.17,0L95.5,0h.14l2,.44A.49.49,0,0,1,98,.91Z" transform="translate(0 0)" style="fill:url(#x)"/><rect x="91.12" y="0.07" width="1.86" height="18.62" transform="translate(-0.17 1.9) rotate(-1.18)" style="fill:url(#y)"/><path d="M90.38.14,88.65.63a.48.48,0,0,0-.36.48l.36,17.65,2.24,0L90.51.23a.1.1,0,0,0-.1-.1Z" transform="translate(0 0)" style="fill:url(#z)"/><path d="M95.58.17,96,18.62l2.41-.05L98,.89a.45.45,0,0,0-.36-.43L95.74,0a.13.13,0,0,0-.16.1Z" transform="translate(0 0)" style="fill:url(#aa)"/><rect x="93.4" y="0.02" width="1.94" height="18.62" transform="translate(-0.17 1.89) rotate(-1.15)" style="fill:url(#ab)"/><path d="M100.24,24.25l-13.33.27a.55.55,0,0,1-.57-.55l-.14-6.6c0-.31.25-.49.55-.57,6.11-1.63,13.33-.27,13.33-.27a.56.56,0,0,1,.57.55l.14,6.6A.56.56,0,0,1,100.24,24.25Z" transform="translate(0 0)" style="fill:url(#ac)"/><path d="M88.42,16.46a33.48,33.48,0,0,1,4.24-.33,53.48,53.48,0,0,1,7.79.53.58.58,0,0,0-.37-.13s-7.22-1.36-13.33.27a.91.91,0,0,0-.42.23A8.41,8.41,0,0,1,88.42,16.46Z" transform="translate(0 0)" style="fill:url(#ad)"/><path d="M76.1,24.32a45.23,45.23,0,0,1,35.06-.71,1.65,1.65,0,0,1,1.15,1.56l-1.63,34.54a2,2,0,0,1-2.15,1.66l-28.09.56a2,2,0,0,1-2.22-1.57L75,25.94A1.67,1.67,0,0,1,76.1,24.32Z" transform="translate(0 0)" style="fill:url(#ae)"/><path d="M76.17,24.32a45.25,45.25,0,0,1,35.07-.71,1.65,1.65,0,0,1,1.15,1.56l-1.63,34.54a2,2,0,0,1-2.15,1.65l-28.09.57a2,2,0,0,1-2.22-1.57L75.08,25.94A1.68,1.68,0,0,1,76.17,24.32Z" transform="translate(0 0)" style="fill:url(#af)"/></svg>