<svg id="Group_526" data-name="Group 526" xmlns="http://www.w3.org/2000/svg" width="557.333" height="42.179" viewBox="0 0 557.333 42.179">
  <g id="Group_325" data-name="Group 325" transform="translate(-34.643 -210.955)">
    <rect id="Rectangle_200" data-name="Rectangle 200" width="557.333" height="42.179" rx="7.036" transform="translate(34.643 210.955)" fill="#d6ae57"/>
    <g id="Group_310" data-name="Group 310">
      <g id="Group_287" data-name="Group 287">
        <path id="Path_932" data-name="Path 932" d="M48.009,225.507c0,1.921-.791,2.981-2.181,2.981-1.225,0-2.056-1.034-2.075-2.9,0-1.9.907-2.938,2.181-2.938C47.256,222.647,48.009,223.708,48.009,225.507Zm-3.406.087c0,1.469.5,2.3,1.273,2.3.869,0,1.284-.912,1.284-2.355,0-1.391-.4-2.3-1.274-2.3C45.143,223.238,44.6,224.055,44.6,225.594Z"/>
        <path id="Path_933" data-name="Path 933" d="M63.078,223.455h-.019l-1.091.531L61.8,223.4l1.371-.66H63.9v5.65h-.821Z"/>
        <path id="Path_934" data-name="Path 934" d="M79.305,228.393v-.47l.666-.582c1.6-1.374,2.325-2.1,2.335-2.955,0-.574-.309-1.1-1.245-1.1a2.265,2.265,0,0,0-1.332.479l-.27-.539a2.938,2.938,0,0,1,1.776-.574,1.685,1.685,0,0,1,1.92,1.643c0,1.043-.839,1.886-2.161,3.034l-.5.417v.017H83.31v.635Z"/>
        <path id="Path_935" data-name="Path 935" d="M97.086,227.515a3.079,3.079,0,0,0,1.39.356c1.091,0,1.428-.626,1.419-1.1-.01-.791-.8-1.13-1.622-1.13H97.8v-.574h.472c.618,0,1.4-.287,1.4-.956,0-.452-.319-.852-1.1-.852a2.474,2.474,0,0,0-1.255.374l-.222-.556a3.212,3.212,0,0,1,1.641-.435c1.235,0,1.795.661,1.795,1.347a1.435,1.435,0,0,1-1.159,1.33v.018a1.532,1.532,0,0,1,1.4,1.451c0,.9-.782,1.7-2.287,1.7a3.47,3.47,0,0,1-1.631-.382Z"/>
        <path id="Path_936" data-name="Path 936" d="M116.658,228.393v-1.539h-2.914v-.5l2.8-3.607h.916v3.511h.879v.6h-.879v1.539Zm0-2.139v-1.886c0-.3.01-.591.029-.887h-.029c-.193.331-.347.574-.521.835l-1.534,1.921v.017Z"/>
        <path id="Path_937" data-name="Path 937" d="M136.093,223.386H133.7l-.241,1.451a3.777,3.777,0,0,1,.511-.034,2.879,2.879,0,0,1,1.351.3,1.589,1.589,0,0,1,.9,1.451,2.094,2.094,0,0,1-2.336,1.93,3.348,3.348,0,0,1-1.563-.347l.212-.583a3.053,3.053,0,0,0,1.342.313,1.334,1.334,0,0,0,1.486-1.226c-.01-.73-.55-1.251-1.8-1.251a6.981,6.981,0,0,0-.868.061l.4-2.712h3Z"/>
        <path id="Path_938" data-name="Path 938" d="M153.2,223.281a3.364,3.364,0,0,0-.637.036,2.418,2.418,0,0,0-2.181,2.007h.029a1.948,1.948,0,0,1,1.515-.652,1.766,1.766,0,0,1,1.892,1.826,1.986,1.986,0,0,1-2.085,1.99,2.174,2.174,0,0,1-2.22-2.408,3.364,3.364,0,0,1,1.062-2.546,3.588,3.588,0,0,1,2.007-.835,4.479,4.479,0,0,1,.618-.043Zm-.241,3.26a1.2,1.2,0,0,0-1.293-1.295,1.417,1.417,0,0,0-1.216.695.6.6,0,0,0-.1.339c.019.931.492,1.617,1.38,1.617A1.228,1.228,0,0,0,152.96,226.541Z"/>
        <path id="Path_939" data-name="Path 939" d="M172.131,222.743v.5l-2.731,5.146h-.879l2.722-5v-.018h-3.069v-.634Z"/>
        <path id="Path_940" data-name="Path 940" d="M184.8,226.958a1.641,1.641,0,0,1,1.244-1.512l-.009-.026a1.409,1.409,0,0,1-.994-1.269c0-.9.839-1.5,1.94-1.5,1.216,0,1.823.687,1.823,1.391a1.442,1.442,0,0,1-1.032,1.321v.026a1.6,1.6,0,0,1,1.264,1.46c0,.982-.936,1.643-2.133,1.643C185.6,228.488,184.8,227.784,184.8,226.958Zm3.377-.034c0-.687-.53-1.017-1.38-1.235-.733.191-1.129.626-1.129,1.165-.029.574.454,1.078,1.255,1.078C187.689,227.932,188.181,227.506,188.181,226.924Zm-2.335-2.825c0,.565.473.869,1.2,1.043.541-.165.956-.513.956-1.026a.929.929,0,0,0-1.062-.921C186.232,223.2,185.846,223.612,185.846,224.1Z"/>
        <path id="Path_941" data-name="Path 941" d="M203.769,227.823a3.971,3.971,0,0,0,.685-.026,2.482,2.482,0,0,0,1.313-.548,2.4,2.4,0,0,0,.83-1.5h-.029a1.931,1.931,0,0,1-1.477.608,1.726,1.726,0,0,1-1.853-1.73,2.041,2.041,0,0,1,2.143-2.008c1.283,0,2.075.939,2.075,2.382a3.385,3.385,0,0,1-1.081,2.651,3.3,3.3,0,0,1-1.824.756,4.317,4.317,0,0,1-.782.044Zm.309-3.251a1.14,1.14,0,0,0,1.206,1.2,1.446,1.446,0,0,0,1.235-.591.465.465,0,0,0,.078-.279c0-.964-.4-1.7-1.284-1.7A1.26,1.26,0,0,0,204.078,224.572Z"/>
        <path id="Path_942" data-name="Path 942" d="M220.37,223.455h-.019l-1.091.531-.164-.583,1.37-.66h.724v5.65h-.82Z"/>
        <path id="Path_943" data-name="Path 943" d="M227.649,225.507c0,1.921-.792,2.981-2.181,2.981-1.226,0-2.056-1.034-2.075-2.9,0-1.9.907-2.938,2.181-2.938C226.9,222.647,227.649,223.708,227.649,225.507Zm-3.407.087c0,1.469.5,2.3,1.274,2.3.869,0,1.284-.912,1.284-2.355,0-1.391-.4-2.3-1.274-2.3C224.783,223.238,224.242,224.055,224.242,225.594Z"/>
        <path id="Path_944" data-name="Path 944" d="M238.3,223.455h-.019l-1.091.531-.163-.583,1.37-.66h.724v5.65H238.3Z"/>
        <path id="Path_945" data-name="Path 945" d="M243.258,223.455h-.02l-1.09.531-.165-.583,1.371-.66h.724v5.65h-.82Z"/>
        <path id="Path_946" data-name="Path 946" d="M257.389,223.455h-.019l-1.091.531-.164-.583,1.37-.66h.724v5.65h-.82Z"/>
        <path id="Path_947" data-name="Path 947" d="M260.5,228.393v-.47l.666-.582c1.6-1.374,2.326-2.1,2.335-2.955,0-.574-.309-1.1-1.245-1.1a2.259,2.259,0,0,0-1.331.479l-.271-.539a2.938,2.938,0,0,1,1.776-.574,1.686,1.686,0,0,1,1.921,1.643c0,1.043-.84,1.886-2.162,3.034l-.5.417v.017H264.5v.635Z"/>
        <path id="Path_948" data-name="Path 948" d="M275.575,223.455h-.019l-1.091.531-.164-.583,1.37-.66h.725v5.65h-.821Z"/>
        <path id="Path_949" data-name="Path 949" d="M278.888,227.515a3.07,3.07,0,0,0,1.389.356c1.091,0,1.429-.626,1.419-1.1-.01-.791-.8-1.13-1.621-1.13H279.6v-.574h.473c.617,0,1.4-.287,1.4-.956,0-.452-.318-.852-1.1-.852a2.467,2.467,0,0,0-1.254.374l-.222-.556a3.208,3.208,0,0,1,1.64-.435c1.235,0,1.8.661,1.8,1.347a1.434,1.434,0,0,1-1.158,1.33v.018a1.532,1.532,0,0,1,1.4,1.451c0,.9-.782,1.7-2.287,1.7a3.47,3.47,0,0,1-1.631-.382Z"/>
        <path id="Path_950" data-name="Path 950" d="M293,223.455h-.019l-1.091.531-.164-.583,1.371-.66h.724v5.65H293Z"/>
        <path id="Path_951" data-name="Path 951" d="M298.731,228.393v-1.539h-2.914v-.5l2.8-3.607h.916v3.511h.878v.6h-.878v1.539Zm0-2.139v-1.886c0-.3.01-.591.029-.887h-.029c-.193.331-.347.574-.521.835l-1.534,1.921v.017Z"/>
        <path id="Path_952" data-name="Path 952" d="M311.487,223.455h-.019l-1.091.531-.164-.583,1.37-.66h.724v5.65h-.82Z"/>
        <path id="Path_953" data-name="Path 953" d="M318.341,223.386h-2.393l-.241,1.451a3.776,3.776,0,0,1,.511-.034,2.879,2.879,0,0,1,1.351.3,1.589,1.589,0,0,1,.9,1.451,2.094,2.094,0,0,1-2.336,1.93,3.348,3.348,0,0,1-1.563-.347l.212-.583a3.052,3.052,0,0,0,1.341.313,1.334,1.334,0,0,0,1.487-1.226c-.01-.73-.55-1.251-1.8-1.251a7.015,7.015,0,0,0-.869.061l.406-2.712h3Z"/>
        <path id="Path_954" data-name="Path 954" d="M328.712,223.455h-.019l-1.091.531-.164-.583,1.37-.66h.724v5.65h-.82Z"/>
        <path id="Path_955" data-name="Path 955" d="M335.4,223.281a3.364,3.364,0,0,0-.637.036,2.418,2.418,0,0,0-2.181,2.007h.029a1.948,1.948,0,0,1,1.515-.652,1.766,1.766,0,0,1,1.892,1.826,1.985,1.985,0,0,1-2.085,1.99,2.174,2.174,0,0,1-2.22-2.408,3.364,3.364,0,0,1,1.062-2.546,3.588,3.588,0,0,1,2.007-.835,4.478,4.478,0,0,1,.618-.043Zm-.241,3.26a1.2,1.2,0,0,0-1.293-1.295,1.417,1.417,0,0,0-1.216.695.6.6,0,0,0-.1.339c.019.931.492,1.617,1.38,1.617A1.228,1.228,0,0,0,335.161,226.541Z"/>
        <path id="Path_956" data-name="Path 956" d="M347.259,223.455h-.019l-1.091.531-.164-.583,1.37-.66h.724v5.65h-.82Z"/>
        <path id="Path_957" data-name="Path 957" d="M354.442,222.743v.5l-2.731,5.146h-.879l2.722-5v-.018h-3.069v-.634Z"/>
        <path id="Path_958" data-name="Path 958" d="M365.193,223.455h-.019l-1.091.531-.164-.583,1.371-.66h.723v5.65h-.82Z"/>
        <path id="Path_959" data-name="Path 959" d="M368.226,226.958a1.641,1.641,0,0,1,1.246-1.512l-.011-.026a1.411,1.411,0,0,1-.994-1.269c0-.9.84-1.5,1.941-1.5,1.215,0,1.823.687,1.823,1.391a1.442,1.442,0,0,1-1.032,1.321v.026a1.6,1.6,0,0,1,1.264,1.46c0,.982-.936,1.643-2.132,1.643C369.018,228.488,368.226,227.784,368.226,226.958Zm3.378-.034c0-.687-.531-1.017-1.38-1.235-.733.191-1.129.626-1.129,1.165-.029.574.454,1.078,1.254,1.078C371.112,227.932,371.6,227.506,371.6,226.924Zm-2.335-2.825c0,.565.473.869,1.2,1.043.54-.165.954-.513.954-1.026a.928.928,0,0,0-1.06-.921C369.655,223.2,369.269,223.612,369.269,224.1Z"/>
        <path id="Path_960" data-name="Path 960" d="M383.036,223.455h-.019l-1.091.531-.164-.583,1.37-.66h.724v5.65h-.82Z"/>
        <path id="Path_961" data-name="Path 961" d="M386.638,227.854a3.889,3.889,0,0,0,.685-.027,2.481,2.481,0,0,0,1.312-.547,2.4,2.4,0,0,0,.83-1.5h-.028a1.93,1.93,0,0,1-1.477.609,1.726,1.726,0,0,1-1.853-1.73,2.041,2.041,0,0,1,2.142-2.008c1.284,0,2.075.939,2.075,2.382a3.382,3.382,0,0,1-1.081,2.651,3.3,3.3,0,0,1-1.823.756,4.414,4.414,0,0,1-.782.044Zm.308-3.251a1.14,1.14,0,0,0,1.207,1.2,1.447,1.447,0,0,0,1.235-.591.459.459,0,0,0,.077-.278c0-.965-.395-1.7-1.283-1.7A1.261,1.261,0,0,0,386.946,224.6Z"/>
        <path id="Path_962" data-name="Path 962" d="M397.135,228.393v-.47l.666-.582c1.6-1.374,2.325-2.1,2.335-2.955,0-.574-.309-1.1-1.245-1.1a2.259,2.259,0,0,0-1.332.479l-.27-.539a2.936,2.936,0,0,1,1.776-.574,1.685,1.685,0,0,1,1.92,1.643c0,1.043-.84,1.886-2.161,3.034l-.5.417v.017h2.818v.635Z"/>
        <path id="Path_963" data-name="Path 963" d="M406.256,225.507c0,1.921-.791,2.981-2.18,2.981-1.226,0-2.056-1.034-2.075-2.9,0-1.9.907-2.938,2.181-2.938C405.5,222.647,406.256,223.708,406.256,225.507Zm-3.406.087c0,1.469.5,2.3,1.274,2.3.868,0,1.283-.912,1.283-2.355,0-1.391-.4-2.3-1.274-2.3C403.391,223.238,402.85,224.055,402.85,225.594Z"/>
      </g>
      <g id="Group_309" data-name="Group 309">
        <g id="Group_288" data-name="Group 288">
          <path id="Path_964" data-name="Path 964" d="M45.1,212.173h.667v7.564H45.1Z"/>
          <path id="Path_965" data-name="Path 965" d="M46.891,212.173h.666v4.177h-.666Z"/>
          <path id="Path_966" data-name="Path 966" d="M48.679,212.173h.667v4.177h-.667Z"/>
          <path id="Path_967" data-name="Path 967" d="M50.468,212.173h.667v4.177h-.667Z"/>
          <path id="Path_968" data-name="Path 968" d="M52.256,212.173h.667v4.177h-.667Z"/>
          <path id="Path_969" data-name="Path 969" d="M54.045,212.173h.667v6.246h-.667Z"/>
          <path id="Path_970" data-name="Path 970" d="M55.833,212.173H56.5v4.177h-.667Z"/>
          <path id="Path_971" data-name="Path 971" d="M57.622,212.173h.667v4.177h-.667Z"/>
          <path id="Path_972" data-name="Path 972" d="M59.411,212.173h.667v4.177h-.667Z"/>
          <path id="Path_973" data-name="Path 973" d="M61.2,212.173h.667v4.177H61.2Z"/>
        </g>
        <g id="Group_289" data-name="Group 289">
          <path id="Path_974" data-name="Path 974" d="M62.967,212.173h.667v7.564h-.667Z"/>
          <path id="Path_975" data-name="Path 975" d="M64.756,212.173h.667v4.177h-.667Z"/>
          <path id="Path_976" data-name="Path 976" d="M66.545,212.173h.667v4.177h-.667Z"/>
          <path id="Path_977" data-name="Path 977" d="M68.333,212.173H69v4.177h-.667Z"/>
          <path id="Path_978" data-name="Path 978" d="M70.122,212.173h.666v4.177h-.666Z"/>
          <path id="Path_979" data-name="Path 979" d="M71.91,212.173h.667v6.246H71.91Z"/>
          <path id="Path_980" data-name="Path 980" d="M73.7,212.173h.666v4.177H73.7Z"/>
          <path id="Path_981" data-name="Path 981" d="M75.487,212.173h.667v4.177h-.667Z"/>
          <path id="Path_982" data-name="Path 982" d="M77.276,212.173h.667v4.177h-.667Z"/>
          <path id="Path_983" data-name="Path 983" d="M79.065,212.173h.666v4.177h-.666Z"/>
        </g>
        <g id="Group_290" data-name="Group 290">
          <path id="Path_984" data-name="Path 984" d="M80.833,212.173H81.5v7.564h-.666Z"/>
          <path id="Path_985" data-name="Path 985" d="M82.621,212.173h.667v4.177h-.667Z"/>
          <path id="Path_986" data-name="Path 986" d="M84.41,212.173h.667v4.177H84.41Z"/>
          <path id="Path_987" data-name="Path 987" d="M86.2,212.173h.667v4.177H86.2Z"/>
          <path id="Path_988" data-name="Path 988" d="M87.987,212.173h.667v4.177h-.667Z"/>
          <path id="Path_989" data-name="Path 989" d="M89.776,212.173h.666v6.246h-.666Z"/>
          <path id="Path_990" data-name="Path 990" d="M91.564,212.173h.667v4.177h-.667Z"/>
          <path id="Path_991" data-name="Path 991" d="M93.353,212.173h.666v4.177h-.666Z"/>
          <path id="Path_992" data-name="Path 992" d="M95.141,212.173h.667v4.177h-.667Z"/>
          <path id="Path_993" data-name="Path 993" d="M96.93,212.173H97.6v4.177H96.93Z"/>
        </g>
        <g id="Group_291" data-name="Group 291">
          <path id="Path_994" data-name="Path 994" d="M98.7,212.173h.667v7.564H98.7Z"/>
          <path id="Path_995" data-name="Path 995" d="M100.487,212.173h.666v4.177h-.666Z"/>
          <path id="Path_996" data-name="Path 996" d="M102.275,212.173h.667v4.177h-.667Z"/>
          <path id="Path_997" data-name="Path 997" d="M104.064,212.173h.666v4.177h-.666Z"/>
          <path id="Path_998" data-name="Path 998" d="M105.852,212.173h.667v4.177h-.667Z"/>
          <path id="Path_999" data-name="Path 999" d="M107.641,212.173h.667v6.246h-.667Z"/>
          <path id="Path_1000" data-name="Path 1000" d="M109.429,212.173h.667v4.177h-.667Z"/>
          <path id="Path_1001" data-name="Path 1001" d="M111.218,212.173h.667v4.177h-.667Z"/>
          <path id="Path_1002" data-name="Path 1002" d="M113.007,212.173h.666v4.177h-.666Z"/>
          <path id="Path_1003" data-name="Path 1003" d="M114.795,212.173h.667v4.177h-.667Z"/>
        </g>
        <g id="Group_292" data-name="Group 292">
          <path id="Path_1004" data-name="Path 1004" d="M116.563,212.173h.667v7.564h-.667Z"/>
          <path id="Path_1005" data-name="Path 1005" d="M118.352,212.173h.667v4.177h-.667Z"/>
          <path id="Path_1006" data-name="Path 1006" d="M120.14,212.173h.667v4.177h-.667Z"/>
          <path id="Path_1007" data-name="Path 1007" d="M121.929,212.173h.667v4.177h-.667Z"/>
          <path id="Path_1008" data-name="Path 1008" d="M123.717,212.173h.667v4.177h-.667Z"/>
          <path id="Path_1009" data-name="Path 1009" d="M125.506,212.173h.667v6.246h-.667Z"/>
          <path id="Path_1010" data-name="Path 1010" d="M127.295,212.173h.666v4.177h-.666Z"/>
          <path id="Path_1011" data-name="Path 1011" d="M129.083,212.173h.667v4.177h-.667Z"/>
          <path id="Path_1012" data-name="Path 1012" d="M130.872,212.173h.667v4.177h-.667Z"/>
          <path id="Path_1013" data-name="Path 1013" d="M132.66,212.173h.667v4.177h-.667Z"/>
        </g>
        <g id="Group_293" data-name="Group 293">
          <path id="Path_1014" data-name="Path 1014" d="M134.428,212.173h.667v7.564h-.667Z"/>
          <path id="Path_1015" data-name="Path 1015" d="M136.217,212.173h.667v4.177h-.667Z"/>
          <path id="Path_1016" data-name="Path 1016" d="M138.006,212.173h.667v4.177h-.667Z"/>
          <path id="Path_1017" data-name="Path 1017" d="M139.794,212.173h.667v4.177h-.667Z"/>
          <path id="Path_1018" data-name="Path 1018" d="M141.583,212.173h.667v4.177h-.667Z"/>
          <path id="Path_1019" data-name="Path 1019" d="M143.371,212.173h.667v6.246h-.667Z"/>
          <path id="Path_1020" data-name="Path 1020" d="M145.16,212.173h.667v4.177h-.667Z"/>
          <path id="Path_1021" data-name="Path 1021" d="M146.948,212.173h.667v4.177h-.667Z"/>
          <path id="Path_1022" data-name="Path 1022" d="M148.737,212.173h.667v4.177h-.667Z"/>
          <path id="Path_1023" data-name="Path 1023" d="M150.526,212.173h.666v4.177h-.666Z"/>
        </g>
        <g id="Group_294" data-name="Group 294">
          <path id="Path_1024" data-name="Path 1024" d="M152.294,212.173h.666v7.564h-.666Z"/>
          <path id="Path_1025" data-name="Path 1025" d="M154.082,212.173h.667v4.177h-.667Z"/>
          <path id="Path_1026" data-name="Path 1026" d="M155.871,212.173h.667v4.177h-.667Z"/>
          <path id="Path_1027" data-name="Path 1027" d="M157.659,212.173h.667v4.177h-.667Z"/>
          <path id="Path_1028" data-name="Path 1028" d="M159.448,212.173h.667v4.177h-.667Z"/>
          <path id="Path_1029" data-name="Path 1029" d="M161.237,212.173h.666v6.246h-.666Z"/>
          <path id="Path_1030" data-name="Path 1030" d="M163.025,212.173h.667v4.177h-.667Z"/>
          <path id="Path_1031" data-name="Path 1031" d="M164.814,212.173h.666v4.177h-.666Z"/>
          <path id="Path_1032" data-name="Path 1032" d="M166.6,212.173h.667v4.177H166.6Z"/>
          <path id="Path_1033" data-name="Path 1033" d="M168.391,212.173h.667v4.177h-.667Z"/>
        </g>
        <g id="Group_295" data-name="Group 295">
          <path id="Path_1034" data-name="Path 1034" d="M170.159,212.173h.667v7.564h-.667Z"/>
          <path id="Path_1035" data-name="Path 1035" d="M171.948,212.173h.666v4.177h-.666Z"/>
          <path id="Path_1036" data-name="Path 1036" d="M173.736,212.173h.667v4.177h-.667Z"/>
          <path id="Path_1037" data-name="Path 1037" d="M175.525,212.173h.666v4.177h-.666Z"/>
          <path id="Path_1038" data-name="Path 1038" d="M177.313,212.173h.667v4.177h-.667Z"/>
          <path id="Path_1039" data-name="Path 1039" d="M179.1,212.173h.667v6.246H179.1Z"/>
          <path id="Path_1040" data-name="Path 1040" d="M180.89,212.173h.667v4.177h-.667Z"/>
          <path id="Path_1041" data-name="Path 1041" d="M182.679,212.173h.667v4.177h-.667Z"/>
          <path id="Path_1042" data-name="Path 1042" d="M184.468,212.173h.666v4.177h-.666Z"/>
          <path id="Path_1043" data-name="Path 1043" d="M186.256,212.173h.667v4.177h-.667Z"/>
        </g>
        <g id="Group_296" data-name="Group 296">
          <path id="Path_1044" data-name="Path 1044" d="M188.024,212.173h.667v7.564h-.667Z"/>
          <path id="Path_1045" data-name="Path 1045" d="M189.813,212.173h.667v4.177h-.667Z"/>
          <path id="Path_1046" data-name="Path 1046" d="M191.6,212.173h.666v4.177H191.6Z"/>
          <path id="Path_1047" data-name="Path 1047" d="M193.39,212.173h.667v4.177h-.667Z"/>
          <path id="Path_1048" data-name="Path 1048" d="M195.179,212.173h.666v4.177h-.666Z"/>
          <path id="Path_1049" data-name="Path 1049" d="M196.967,212.173h.667v6.246h-.667Z"/>
          <path id="Path_1050" data-name="Path 1050" d="M198.756,212.173h.666v4.177h-.666Z"/>
          <path id="Path_1051" data-name="Path 1051" d="M200.544,212.173h.667v4.177h-.667Z"/>
          <path id="Path_1052" data-name="Path 1052" d="M202.333,212.173H203v4.177h-.667Z"/>
          <path id="Path_1053" data-name="Path 1053" d="M204.122,212.173h.666v4.177h-.666Z"/>
        </g>
        <g id="Group_297" data-name="Group 297">
          <path id="Path_1054" data-name="Path 1054" d="M205.89,212.173h.666v7.564h-.666Z"/>
          <path id="Path_1055" data-name="Path 1055" d="M207.678,212.173h.667v4.177h-.667Z"/>
          <path id="Path_1056" data-name="Path 1056" d="M209.467,212.173h.667v4.177h-.667Z"/>
          <path id="Path_1057" data-name="Path 1057" d="M211.255,212.173h.667v4.177h-.667Z"/>
          <path id="Path_1058" data-name="Path 1058" d="M213.044,212.173h.667v4.177h-.667Z"/>
          <path id="Path_1059" data-name="Path 1059" d="M214.833,212.173h.666v6.246h-.666Z"/>
          <path id="Path_1060" data-name="Path 1060" d="M216.621,212.173h.667v4.177h-.667Z"/>
          <path id="Path_1061" data-name="Path 1061" d="M218.41,212.173h.666v4.177h-.666Z"/>
          <path id="Path_1062" data-name="Path 1062" d="M220.2,212.173h.667v4.177H220.2Z"/>
          <path id="Path_1063" data-name="Path 1063" d="M221.987,212.173h.667v4.177h-.667Z"/>
        </g>
        <g id="Group_298" data-name="Group 298">
          <path id="Path_1064" data-name="Path 1064" d="M223.755,212.173h.667v7.564h-.667Z"/>
          <path id="Path_1065" data-name="Path 1065" d="M225.543,212.173h.667v4.177h-.667Z"/>
          <path id="Path_1066" data-name="Path 1066" d="M227.332,212.173H228v4.177h-.667Z"/>
          <path id="Path_1067" data-name="Path 1067" d="M229.12,212.173h.667v4.177h-.667Z"/>
          <path id="Path_1068" data-name="Path 1068" d="M230.909,212.173h.667v4.177h-.667Z"/>
          <path id="Path_1069" data-name="Path 1069" d="M232.7,212.173h.667v6.246H232.7Z"/>
          <path id="Path_1070" data-name="Path 1070" d="M234.486,212.173h.667v4.177h-.667Z"/>
          <path id="Path_1071" data-name="Path 1071" d="M236.275,212.173h.667v4.177h-.667Z"/>
          <path id="Path_1072" data-name="Path 1072" d="M238.063,212.173h.667v4.177h-.667Z"/>
          <path id="Path_1073" data-name="Path 1073" d="M239.852,212.173h.667v4.177h-.667Z"/>
        </g>
        <g id="Group_299" data-name="Group 299">
          <path id="Path_1074" data-name="Path 1074" d="M241.62,212.173h.667v7.564h-.667Z"/>
          <path id="Path_1075" data-name="Path 1075" d="M243.409,212.173h.666v4.177h-.666Z"/>
          <path id="Path_1076" data-name="Path 1076" d="M245.2,212.173h.667v4.177H245.2Z"/>
          <path id="Path_1077" data-name="Path 1077" d="M246.986,212.173h.667v4.177h-.667Z"/>
          <path id="Path_1078" data-name="Path 1078" d="M248.774,212.173h.667v4.177h-.667Z"/>
          <path id="Path_1079" data-name="Path 1079" d="M250.563,212.173h.667v6.246h-.667Z"/>
          <path id="Path_1080" data-name="Path 1080" d="M252.351,212.173h.667v4.177h-.667Z"/>
          <path id="Path_1081" data-name="Path 1081" d="M254.14,212.173h.667v4.177h-.667Z"/>
          <path id="Path_1082" data-name="Path 1082" d="M255.929,212.173h.666v4.177h-.666Z"/>
          <path id="Path_1083" data-name="Path 1083" d="M257.717,212.173h.667v4.177h-.667Z"/>
        </g>
        <g id="Group_300" data-name="Group 300">
          <path id="Path_1084" data-name="Path 1084" d="M259.485,212.173h.667v7.564h-.667Z"/>
          <path id="Path_1085" data-name="Path 1085" d="M261.274,212.173h.667v4.177h-.667Z"/>
          <path id="Path_1086" data-name="Path 1086" d="M263.063,212.173h.666v4.177h-.666Z"/>
          <path id="Path_1087" data-name="Path 1087" d="M264.851,212.173h.667v4.177h-.667Z"/>
          <path id="Path_1088" data-name="Path 1088" d="M266.64,212.173h.666v4.177h-.666Z"/>
          <path id="Path_1089" data-name="Path 1089" d="M268.428,212.173h.667v6.246h-.667Z"/>
          <path id="Path_1090" data-name="Path 1090" d="M270.217,212.173h.666v4.177h-.666Z"/>
          <path id="Path_1091" data-name="Path 1091" d="M272.005,212.173h.667v4.177h-.667Z"/>
          <path id="Path_1092" data-name="Path 1092" d="M273.794,212.173h.667v4.177h-.667Z"/>
          <path id="Path_1093" data-name="Path 1093" d="M275.583,212.173h.666v4.177h-.666Z"/>
        </g>
        <g id="Group_301" data-name="Group 301">
          <path id="Path_1094" data-name="Path 1094" d="M277.351,212.173h.666v7.564h-.666Z"/>
          <path id="Path_1095" data-name="Path 1095" d="M279.139,212.173h.667v4.177h-.667Z"/>
          <path id="Path_1096" data-name="Path 1096" d="M280.928,212.173h.667v4.177h-.667Z"/>
          <path id="Path_1097" data-name="Path 1097" d="M282.716,212.173h.667v4.177h-.667Z"/>
          <path id="Path_1098" data-name="Path 1098" d="M284.505,212.173h.667v4.177h-.667Z"/>
          <path id="Path_1099" data-name="Path 1099" d="M286.294,212.173h.666v6.246h-.666Z"/>
          <path id="Path_1100" data-name="Path 1100" d="M288.082,212.173h.667v4.177h-.667Z"/>
          <path id="Path_1101" data-name="Path 1101" d="M289.871,212.173h.666v4.177h-.666Z"/>
          <path id="Path_1102" data-name="Path 1102" d="M291.659,212.173h.667v4.177h-.667Z"/>
          <path id="Path_1103" data-name="Path 1103" d="M293.448,212.173h.667v4.177h-.667Z"/>
        </g>
        <g id="Group_302" data-name="Group 302">
          <path id="Path_1104" data-name="Path 1104" d="M295.216,212.173h.667v7.564h-.667Z"/>
          <path id="Path_1105" data-name="Path 1105" d="M297.005,212.173h.666v4.177h-.666Z"/>
          <path id="Path_1106" data-name="Path 1106" d="M298.793,212.173h.667v4.177h-.667Z"/>
          <path id="Path_1107" data-name="Path 1107" d="M300.582,212.173h.666v4.177h-.666Z"/>
          <path id="Path_1108" data-name="Path 1108" d="M302.37,212.173h.667v4.177h-.667Z"/>
          <path id="Path_1109" data-name="Path 1109" d="M304.159,212.173h.667v6.246h-.667Z"/>
          <path id="Path_1110" data-name="Path 1110" d="M305.947,212.173h.667v4.177h-.667Z"/>
          <path id="Path_1111" data-name="Path 1111" d="M307.736,212.173h.667v4.177h-.667Z"/>
          <path id="Path_1112" data-name="Path 1112" d="M309.525,212.173h.666v4.177h-.666Z"/>
          <path id="Path_1113" data-name="Path 1113" d="M311.313,212.173h.667v4.177h-.667Z"/>
        </g>
        <g id="Group_303" data-name="Group 303">
          <path id="Path_1114" data-name="Path 1114" d="M313.081,212.173h.667v7.564h-.667Z"/>
          <path id="Path_1115" data-name="Path 1115" d="M314.87,212.173h.667v4.177h-.667Z"/>
          <path id="Path_1116" data-name="Path 1116" d="M316.659,212.173h.666v4.177h-.666Z"/>
          <path id="Path_1117" data-name="Path 1117" d="M318.447,212.173h.667v4.177h-.667Z"/>
          <path id="Path_1118" data-name="Path 1118" d="M320.236,212.173h.666v4.177h-.666Z"/>
          <path id="Path_1119" data-name="Path 1119" d="M322.024,212.173h.667v6.246h-.667Z"/>
          <path id="Path_1120" data-name="Path 1120" d="M323.813,212.173h.666v4.177h-.666Z"/>
          <path id="Path_1121" data-name="Path 1121" d="M325.6,212.173h.667v4.177H325.6Z"/>
          <path id="Path_1122" data-name="Path 1122" d="M327.39,212.173h.667v4.177h-.667Z"/>
          <path id="Path_1123" data-name="Path 1123" d="M329.179,212.173h.666v4.177h-.666Z"/>
        </g>
        <g id="Group_304" data-name="Group 304">
          <path id="Path_1124" data-name="Path 1124" d="M330.946,212.173h.667v7.564h-.667Z"/>
          <path id="Path_1125" data-name="Path 1125" d="M332.735,212.173h.667v4.177h-.667Z"/>
          <path id="Path_1126" data-name="Path 1126" d="M334.524,212.173h.667v4.177h-.667Z"/>
          <path id="Path_1127" data-name="Path 1127" d="M336.312,212.173h.667v4.177h-.667Z"/>
          <path id="Path_1128" data-name="Path 1128" d="M338.1,212.173h.667v4.177H338.1Z"/>
          <path id="Path_1129" data-name="Path 1129" d="M339.889,212.173h.667v6.246h-.667Z"/>
          <path id="Path_1130" data-name="Path 1130" d="M341.678,212.173h.667v4.177h-.667Z"/>
          <path id="Path_1131" data-name="Path 1131" d="M343.466,212.173h.667v4.177h-.667Z"/>
          <path id="Path_1132" data-name="Path 1132" d="M345.255,212.173h.667v4.177h-.667Z"/>
          <path id="Path_1133" data-name="Path 1133" d="M347.044,212.173h.667v4.177h-.667Z"/>
        </g>
        <g id="Group_305" data-name="Group 305">
          <path id="Path_1134" data-name="Path 1134" d="M348.812,212.173h.666v7.564h-.666Z"/>
          <path id="Path_1135" data-name="Path 1135" d="M350.6,212.173h.667v4.177H350.6Z"/>
          <path id="Path_1136" data-name="Path 1136" d="M352.389,212.173h.667v4.177h-.667Z"/>
          <path id="Path_1137" data-name="Path 1137" d="M354.177,212.173h.667v4.177h-.667Z"/>
          <path id="Path_1138" data-name="Path 1138" d="M355.966,212.173h.667v4.177h-.667Z"/>
          <path id="Path_1139" data-name="Path 1139" d="M357.755,212.173h.666v6.246h-.666Z"/>
          <path id="Path_1140" data-name="Path 1140" d="M359.543,212.173h.667v4.177h-.667Z"/>
          <path id="Path_1141" data-name="Path 1141" d="M361.332,212.173H362v4.177h-.666Z"/>
          <path id="Path_1142" data-name="Path 1142" d="M363.12,212.173h.667v4.177h-.667Z"/>
          <path id="Path_1143" data-name="Path 1143" d="M364.909,212.173h.667v4.177h-.667Z"/>
        </g>
        <g id="Group_306" data-name="Group 306">
          <path id="Path_1144" data-name="Path 1144" d="M366.677,212.173h.667v7.564h-.667Z"/>
          <path id="Path_1145" data-name="Path 1145" d="M368.466,212.173h.666v4.177h-.666Z"/>
          <path id="Path_1146" data-name="Path 1146" d="M370.254,212.173h.667v4.177h-.667Z"/>
          <path id="Path_1147" data-name="Path 1147" d="M372.043,212.173h.666v4.177h-.666Z"/>
          <path id="Path_1148" data-name="Path 1148" d="M373.831,212.173h.667v4.177h-.667Z"/>
          <path id="Path_1149" data-name="Path 1149" d="M375.62,212.173h.667v6.246h-.667Z"/>
          <path id="Path_1150" data-name="Path 1150" d="M377.408,212.173h.667v4.177h-.667Z"/>
          <path id="Path_1151" data-name="Path 1151" d="M379.2,212.173h.667v4.177H379.2Z"/>
          <path id="Path_1152" data-name="Path 1152" d="M380.986,212.173h.666v4.177h-.666Z"/>
          <path id="Path_1153" data-name="Path 1153" d="M382.774,212.173h.667v4.177h-.667Z"/>
        </g>
        <g id="Group_307" data-name="Group 307">
          <path id="Path_1154" data-name="Path 1154" d="M384.542,212.173h.667v7.564h-.667Z"/>
          <path id="Path_1155" data-name="Path 1155" d="M386.331,212.173H387v4.177h-.667Z"/>
          <path id="Path_1156" data-name="Path 1156" d="M388.12,212.173h.666v4.177h-.666Z"/>
          <path id="Path_1157" data-name="Path 1157" d="M389.908,212.173h.667v4.177h-.667Z"/>
          <path id="Path_1158" data-name="Path 1158" d="M391.7,212.173h.666v4.177H391.7Z"/>
          <path id="Path_1159" data-name="Path 1159" d="M393.485,212.173h.667v6.246h-.667Z"/>
          <path id="Path_1160" data-name="Path 1160" d="M395.274,212.173h.666v4.177h-.666Z"/>
          <path id="Path_1161" data-name="Path 1161" d="M397.062,212.173h.667v4.177h-.667Z"/>
          <path id="Path_1162" data-name="Path 1162" d="M398.851,212.173h.667v4.177h-.667Z"/>
          <path id="Path_1163" data-name="Path 1163" d="M400.64,212.173h.666v4.177h-.666Z"/>
        </g>
        <g id="Group_308" data-name="Group 308">
          <path id="Path_1164" data-name="Path 1164" d="M402.408,212.173h.666v7.564h-.666Z"/>
        </g>
      </g>
    </g>
    <g id="Group_324" data-name="Group 324">
      <g id="Group_311" data-name="Group 311">
        <path id="Path_1165" data-name="Path 1165" d="M420.349,223.455h-.019l-1.091.531-.164-.583,1.371-.66h.724v5.65h-.821Z"/>
        <path id="Path_1166" data-name="Path 1166" d="M436.576,228.393v-.47l.666-.582c1.6-1.374,2.325-2.1,2.335-2.955,0-.574-.309-1.1-1.245-1.1a2.265,2.265,0,0,0-1.332.479l-.27-.539a2.938,2.938,0,0,1,1.776-.574,1.685,1.685,0,0,1,1.92,1.643c0,1.043-.839,1.886-2.161,3.034l-.5.417v.017h2.818v.635Z"/>
        <path id="Path_1167" data-name="Path 1167" d="M414.576,228.393v-.47l.666-.582c1.6-1.374,2.325-2.1,2.335-2.955,0-.574-.309-1.1-1.245-1.1a2.265,2.265,0,0,0-1.332.479l-.27-.539a2.938,2.938,0,0,1,1.776-.574,1.685,1.685,0,0,1,1.92,1.643c0,1.043-.839,1.886-2.161,3.034l-.5.417v.017h2.818v.635Z"/>
        <path id="Path_1168" data-name="Path 1168" d="M432.013,228.393v-.47l.666-.582c1.6-1.374,2.326-2.1,2.335-2.955,0-.574-.308-1.1-1.244-1.1a2.259,2.259,0,0,0-1.332.479l-.271-.539a2.94,2.94,0,0,1,1.776-.574,1.685,1.685,0,0,1,1.921,1.643c0,1.043-.84,1.886-2.162,3.034l-.5.417v.017h2.818v.635Z"/>
        <path id="Path_1169" data-name="Path 1169" d="M449.263,228.393v-.47l.666-.582c1.6-1.374,2.326-2.1,2.335-2.955,0-.574-.308-1.1-1.244-1.1a2.259,2.259,0,0,0-1.332.479l-.271-.539a2.94,2.94,0,0,1,1.776-.574,1.685,1.685,0,0,1,1.921,1.643c0,1.043-.84,1.886-2.162,3.034l-.5.417v.017h2.818v.635Z"/>
        <path id="Path_1170" data-name="Path 1170" d="M466.513,228.393v-.47l.666-.582c1.6-1.374,2.326-2.1,2.335-2.955,0-.574-.308-1.1-1.244-1.1a2.259,2.259,0,0,0-1.332.479l-.271-.539a2.94,2.94,0,0,1,1.776-.574,1.685,1.685,0,0,1,1.921,1.643c0,1.043-.84,1.886-2.162,3.034l-.5.417v.017h2.818v.635Z"/>
        <path id="Path_1171" data-name="Path 1171" d="M484.451,228.393v-.47l.666-.582c1.6-1.374,2.325-2.1,2.335-2.955,0-.574-.309-1.1-1.245-1.1a2.265,2.265,0,0,0-1.332.479l-.27-.539a2.938,2.938,0,0,1,1.776-.574,1.685,1.685,0,0,1,1.92,1.643c0,1.043-.839,1.886-2.161,3.034l-.5.417v.017h2.818v.635Z"/>
        <path id="Path_1172" data-name="Path 1172" d="M502.076,228.393v-.47l.666-.582c1.6-1.374,2.325-2.1,2.335-2.955,0-.574-.309-1.1-1.245-1.1a2.265,2.265,0,0,0-1.332.479l-.27-.539a2.938,2.938,0,0,1,1.776-.574,1.685,1.685,0,0,1,1.92,1.643c0,1.043-.839,1.886-2.161,3.034l-.5.417v.017h2.818v.635Z"/>
        <path id="Path_1173" data-name="Path 1173" d="M520.388,228.393v-.47l.666-.582c1.6-1.374,2.326-2.1,2.335-2.955,0-.574-.308-1.1-1.244-1.1a2.259,2.259,0,0,0-1.332.479l-.271-.539a2.94,2.94,0,0,1,1.776-.574,1.685,1.685,0,0,1,1.921,1.643c0,1.043-.84,1.886-2.162,3.034l-.5.417v.017h2.818v.635Z"/>
        <path id="Path_1174" data-name="Path 1174" d="M537.451,228.393v-.47l.666-.582c1.6-1.374,2.325-2.1,2.335-2.955,0-.574-.309-1.1-1.245-1.1a2.265,2.265,0,0,0-1.332.479l-.27-.539a2.938,2.938,0,0,1,1.776-.574,1.685,1.685,0,0,1,1.92,1.643c0,1.043-.839,1.886-2.161,3.034l-.5.417v.017h2.818v.635Z"/>
        <path id="Path_1175" data-name="Path 1175" d="M555.826,228.393v-.47l.666-.582c1.6-1.374,2.325-2.1,2.335-2.955,0-.574-.309-1.1-1.245-1.1a2.265,2.265,0,0,0-1.332.479l-.27-.539a2.938,2.938,0,0,1,1.776-.574,1.685,1.685,0,0,1,1.92,1.643c0,1.043-.839,1.886-2.161,3.034l-.5.417v.017h2.818v.635Z"/>
        <path id="Path_1176" data-name="Path 1176" d="M454.357,227.515a3.079,3.079,0,0,0,1.39.356c1.091,0,1.428-.626,1.419-1.1-.01-.791-.8-1.13-1.622-1.13h-.472v-.574h.472c.618,0,1.4-.287,1.4-.956,0-.452-.319-.852-1.1-.852a2.474,2.474,0,0,0-1.255.374l-.222-.556a3.212,3.212,0,0,1,1.641-.435c1.235,0,1.8.661,1.8,1.347a1.434,1.434,0,0,1-1.158,1.33v.018a1.532,1.532,0,0,1,1.4,1.451c0,.9-.782,1.7-2.287,1.7a3.47,3.47,0,0,1-1.631-.382Z"/>
        <path id="Path_1177" data-name="Path 1177" d="M473.929,228.393v-1.539h-2.914v-.5l2.8-3.607h.916v3.511h.879v.6h-.879v1.539Zm0-2.139v-1.886c0-.3.01-.591.029-.887h-.029c-.193.331-.347.574-.521.835l-1.534,1.921v.017Z"/>
        <path id="Path_1178" data-name="Path 1178" d="M493.364,223.386H490.97l-.241,1.451a3.788,3.788,0,0,1,.511-.034,2.886,2.886,0,0,1,1.352.3,1.59,1.59,0,0,1,.9,1.451,2.094,2.094,0,0,1-2.335,1.93,3.349,3.349,0,0,1-1.564-.347l.212-.583a3.053,3.053,0,0,0,1.342.313,1.334,1.334,0,0,0,1.486-1.226c-.01-.73-.55-1.251-1.8-1.251a6.981,6.981,0,0,0-.868.061l.4-2.712h3Z"/>
        <path id="Path_1179" data-name="Path 1179" d="M510.472,223.281a3.364,3.364,0,0,0-.637.036,2.418,2.418,0,0,0-2.181,2.007h.029a1.948,1.948,0,0,1,1.515-.652,1.766,1.766,0,0,1,1.892,1.826,1.985,1.985,0,0,1-2.085,1.99,2.174,2.174,0,0,1-2.22-2.408,3.364,3.364,0,0,1,1.062-2.546,3.588,3.588,0,0,1,2.007-.835,4.478,4.478,0,0,1,.618-.043Zm-.241,3.26a1.2,1.2,0,0,0-1.293-1.295,1.417,1.417,0,0,0-1.216.695.6.6,0,0,0-.1.339c.019.931.492,1.617,1.38,1.617A1.228,1.228,0,0,0,510.231,226.541Z"/>
        <path id="Path_1180" data-name="Path 1180" d="M529.4,222.743v.5l-2.731,5.146h-.879l2.722-5v-.018h-3.069v-.634Z"/>
        <path id="Path_1181" data-name="Path 1181" d="M542.075,226.958a1.641,1.641,0,0,1,1.244-1.512l-.009-.026a1.409,1.409,0,0,1-.994-1.269c0-.9.84-1.5,1.94-1.5,1.216,0,1.824.687,1.824,1.391a1.443,1.443,0,0,1-1.033,1.321v.026a1.6,1.6,0,0,1,1.264,1.46c0,.982-.936,1.643-2.133,1.643C542.866,228.488,542.075,227.784,542.075,226.958Zm3.377-.034c0-.687-.53-1.017-1.38-1.235-.733.191-1.129.626-1.129,1.165-.029.574.454,1.078,1.255,1.078C544.96,227.932,545.452,227.506,545.452,226.924Zm-2.335-2.825c0,.565.473.869,1.2,1.043.541-.165.956-.513.956-1.026a.929.929,0,0,0-1.062-.921C543.5,223.2,543.117,223.612,543.117,224.1Z"/>
        <path id="Path_1182" data-name="Path 1182" d="M561.04,227.823a3.971,3.971,0,0,0,.685-.026,2.482,2.482,0,0,0,1.313-.548,2.4,2.4,0,0,0,.83-1.5h-.029a1.929,1.929,0,0,1-1.477.608,1.726,1.726,0,0,1-1.853-1.73,2.041,2.041,0,0,1,2.143-2.008c1.284,0,2.075.939,2.075,2.382a3.382,3.382,0,0,1-1.081,2.651,3.294,3.294,0,0,1-1.824.756,4.317,4.317,0,0,1-.782.044Zm.309-3.251a1.14,1.14,0,0,0,1.206,1.2,1.448,1.448,0,0,0,1.236-.591.472.472,0,0,0,.077-.279c0-.964-.4-1.7-1.284-1.7A1.26,1.26,0,0,0,561.349,224.572Z"/>
        <path id="Path_1183" data-name="Path 1183" d="M584.92,225.507c0,1.921-.791,2.981-2.181,2.981-1.226,0-2.056-1.034-2.075-2.9,0-1.9.907-2.938,2.181-2.938C584.167,222.647,584.92,223.708,584.92,225.507Zm-3.407.087c0,1.469.5,2.3,1.274,2.3.869,0,1.284-.912,1.284-2.355,0-1.391-.4-2.3-1.274-2.3C582.054,223.238,581.513,224.055,581.513,225.594Z"/>
        <path id="Path_1184" data-name="Path 1184" d="M576.346,227.515a3.075,3.075,0,0,0,1.39.356c1.091,0,1.428-.626,1.419-1.1-.01-.791-.8-1.13-1.622-1.13h-.472v-.574h.472c.618,0,1.4-.287,1.4-.956,0-.452-.319-.852-1.1-.852a2.474,2.474,0,0,0-1.255.374l-.222-.556a3.211,3.211,0,0,1,1.64-.435c1.236,0,1.8.661,1.8,1.347a1.435,1.435,0,0,1-1.159,1.33v.018a1.532,1.532,0,0,1,1.4,1.451c0,.9-.782,1.7-2.287,1.7a3.466,3.466,0,0,1-1.631-.382Z"/>
      </g>
      <g id="Group_323" data-name="Group 323">
        <g id="Group_312" data-name="Group 312">
          <path id="Path_1185" data-name="Path 1185" d="M404.162,212.173h.667v4.177h-.667Z"/>
          <path id="Path_1186" data-name="Path 1186" d="M405.95,212.173h.667v4.177h-.667Z"/>
          <path id="Path_1187" data-name="Path 1187" d="M407.739,212.173h.667v4.177h-.667Z"/>
          <path id="Path_1188" data-name="Path 1188" d="M409.527,212.173h.667v4.177h-.667Z"/>
          <path id="Path_1189" data-name="Path 1189" d="M411.316,212.173h.667v6.246h-.667Z"/>
          <path id="Path_1190" data-name="Path 1190" d="M413.1,212.173h.667v4.177H413.1Z"/>
          <path id="Path_1191" data-name="Path 1191" d="M414.893,212.173h.667v4.177h-.667Z"/>
          <path id="Path_1192" data-name="Path 1192" d="M416.682,212.173h.667v4.177h-.667Z"/>
          <path id="Path_1193" data-name="Path 1193" d="M418.47,212.173h.667v4.177h-.667Z"/>
        </g>
        <g id="Group_313" data-name="Group 313">
          <path id="Path_1194" data-name="Path 1194" d="M420.238,212.173h.667v7.564h-.667Z"/>
          <path id="Path_1195" data-name="Path 1195" d="M422.027,212.173h.667v4.177h-.667Z"/>
          <path id="Path_1196" data-name="Path 1196" d="M423.816,212.173h.667v4.177h-.667Z"/>
          <path id="Path_1197" data-name="Path 1197" d="M425.6,212.173h.667v4.177H425.6Z"/>
          <path id="Path_1198" data-name="Path 1198" d="M427.393,212.173h.667v4.177h-.667Z"/>
          <path id="Path_1199" data-name="Path 1199" d="M429.181,212.173h.667v6.246h-.667Z"/>
          <path id="Path_1200" data-name="Path 1200" d="M430.97,212.173h.667v4.177h-.667Z"/>
          <path id="Path_1201" data-name="Path 1201" d="M432.758,212.173h.667v4.177h-.667Z"/>
          <path id="Path_1202" data-name="Path 1202" d="M434.547,212.173h.667v4.177h-.667Z"/>
          <path id="Path_1203" data-name="Path 1203" d="M436.336,212.173H437v4.177h-.666Z"/>
        </g>
        <g id="Group_314" data-name="Group 314">
          <path id="Path_1204" data-name="Path 1204" d="M438.1,212.173h.666v7.564H438.1Z"/>
          <path id="Path_1205" data-name="Path 1205" d="M439.892,212.173h.667v4.177h-.667Z"/>
          <path id="Path_1206" data-name="Path 1206" d="M441.681,212.173h.667v4.177h-.667Z"/>
          <path id="Path_1207" data-name="Path 1207" d="M443.469,212.173h.667v4.177h-.667Z"/>
          <path id="Path_1208" data-name="Path 1208" d="M445.258,212.173h.667v4.177h-.667Z"/>
          <path id="Path_1209" data-name="Path 1209" d="M447.047,212.173h.666v6.246h-.666Z"/>
          <path id="Path_1210" data-name="Path 1210" d="M448.835,212.173h.667v4.177h-.667Z"/>
          <path id="Path_1211" data-name="Path 1211" d="M450.624,212.173h.666v4.177h-.666Z"/>
          <path id="Path_1212" data-name="Path 1212" d="M452.412,212.173h.667v4.177h-.667Z"/>
          <path id="Path_1213" data-name="Path 1213" d="M454.2,212.173h.667v4.177H454.2Z"/>
        </g>
        <g id="Group_315" data-name="Group 315">
          <path id="Path_1214" data-name="Path 1214" d="M455.969,212.173h.667v7.564h-.667Z"/>
          <path id="Path_1215" data-name="Path 1215" d="M457.758,212.173h.666v4.177h-.666Z"/>
          <path id="Path_1216" data-name="Path 1216" d="M459.546,212.173h.667v4.177h-.667Z"/>
          <path id="Path_1217" data-name="Path 1217" d="M461.335,212.173H462v4.177h-.666Z"/>
          <path id="Path_1218" data-name="Path 1218" d="M463.123,212.173h.667v4.177h-.667Z"/>
          <path id="Path_1219" data-name="Path 1219" d="M464.912,212.173h.667v6.246h-.667Z"/>
          <path id="Path_1220" data-name="Path 1220" d="M466.7,212.173h.667v4.177H466.7Z"/>
          <path id="Path_1221" data-name="Path 1221" d="M468.489,212.173h.667v4.177h-.667Z"/>
          <path id="Path_1222" data-name="Path 1222" d="M470.278,212.173h.666v4.177h-.666Z"/>
          <path id="Path_1223" data-name="Path 1223" d="M472.066,212.173h.667v4.177h-.667Z"/>
        </g>
        <g id="Group_316" data-name="Group 316">
          <path id="Path_1224" data-name="Path 1224" d="M473.834,212.173h.667v7.564h-.667Z"/>
          <path id="Path_1225" data-name="Path 1225" d="M475.623,212.173h.667v4.177h-.667Z"/>
          <path id="Path_1226" data-name="Path 1226" d="M477.412,212.173h.666v4.177h-.666Z"/>
          <path id="Path_1227" data-name="Path 1227" d="M479.2,212.173h.667v4.177H479.2Z"/>
          <path id="Path_1228" data-name="Path 1228" d="M480.989,212.173h.666v4.177h-.666Z"/>
          <path id="Path_1229" data-name="Path 1229" d="M482.777,212.173h.667v6.246h-.667Z"/>
          <path id="Path_1230" data-name="Path 1230" d="M484.566,212.173h.666v4.177h-.666Z"/>
          <path id="Path_1231" data-name="Path 1231" d="M486.354,212.173h.667v4.177h-.667Z"/>
          <path id="Path_1232" data-name="Path 1232" d="M488.143,212.173h.667v4.177h-.667Z"/>
          <path id="Path_1233" data-name="Path 1233" d="M489.932,212.173h.666v4.177h-.666Z"/>
        </g>
        <g id="Group_317" data-name="Group 317">
          <path id="Path_1234" data-name="Path 1234" d="M491.7,212.173h.666v7.564H491.7Z"/>
          <path id="Path_1235" data-name="Path 1235" d="M493.488,212.173h.667v4.177h-.667Z"/>
          <path id="Path_1236" data-name="Path 1236" d="M495.277,212.173h.667v4.177h-.667Z"/>
          <path id="Path_1237" data-name="Path 1237" d="M497.065,212.173h.667v4.177h-.667Z"/>
          <path id="Path_1238" data-name="Path 1238" d="M498.854,212.173h.667v4.177h-.667Z"/>
          <path id="Path_1239" data-name="Path 1239" d="M500.643,212.173h.666v6.246h-.666Z"/>
          <path id="Path_1240" data-name="Path 1240" d="M502.431,212.173h.667v4.177h-.667Z"/>
          <path id="Path_1241" data-name="Path 1241" d="M504.22,212.173h.666v4.177h-.666Z"/>
          <path id="Path_1242" data-name="Path 1242" d="M506.008,212.173h.667v4.177h-.667Z"/>
          <path id="Path_1243" data-name="Path 1243" d="M507.8,212.173h.667v4.177H507.8Z"/>
        </g>
        <g id="Group_318" data-name="Group 318">
          <path id="Path_1244" data-name="Path 1244" d="M509.565,212.173h.667v7.564h-.667Z"/>
          <path id="Path_1245" data-name="Path 1245" d="M511.353,212.173h.667v4.177h-.667Z"/>
          <path id="Path_1246" data-name="Path 1246" d="M513.142,212.173h.667v4.177h-.667Z"/>
          <path id="Path_1247" data-name="Path 1247" d="M514.93,212.173h.667v4.177h-.667Z"/>
          <path id="Path_1248" data-name="Path 1248" d="M516.719,212.173h.667v4.177h-.667Z"/>
          <path id="Path_1249" data-name="Path 1249" d="M518.508,212.173h.667v6.246h-.667Z"/>
          <path id="Path_1250" data-name="Path 1250" d="M520.3,212.173h.667v4.177H520.3Z"/>
          <path id="Path_1251" data-name="Path 1251" d="M522.085,212.173h.667v4.177h-.667Z"/>
          <path id="Path_1252" data-name="Path 1252" d="M523.873,212.173h.667v4.177h-.667Z"/>
          <path id="Path_1253" data-name="Path 1253" d="M525.662,212.173h.667v4.177h-.667Z"/>
        </g>
        <g id="Group_319" data-name="Group 319">
          <path id="Path_1254" data-name="Path 1254" d="M527.43,212.173h.667v7.564h-.667Z"/>
          <path id="Path_1255" data-name="Path 1255" d="M529.219,212.173h.666v4.177h-.666Z"/>
          <path id="Path_1256" data-name="Path 1256" d="M531.007,212.173h.667v4.177h-.667Z"/>
          <path id="Path_1257" data-name="Path 1257" d="M532.8,212.173h.667v4.177H532.8Z"/>
          <path id="Path_1258" data-name="Path 1258" d="M534.584,212.173h.667v4.177h-.667Z"/>
          <path id="Path_1259" data-name="Path 1259" d="M536.373,212.173h.667v6.246h-.667Z"/>
          <path id="Path_1260" data-name="Path 1260" d="M538.161,212.173h.667v4.177h-.667Z"/>
          <path id="Path_1261" data-name="Path 1261" d="M539.95,212.173h.667v4.177h-.667Z"/>
          <path id="Path_1262" data-name="Path 1262" d="M541.739,212.173h.666v4.177h-.666Z"/>
          <path id="Path_1263" data-name="Path 1263" d="M543.527,212.173h.667v4.177h-.667Z"/>
        </g>
        <g id="Group_320" data-name="Group 320">
          <path id="Path_1264" data-name="Path 1264" d="M545.295,212.173h.667v7.564h-.667Z"/>
          <path id="Path_1265" data-name="Path 1265" d="M547.084,212.173h.667v4.177h-.667Z"/>
          <path id="Path_1266" data-name="Path 1266" d="M548.873,212.173h.666v4.177h-.666Z"/>
          <path id="Path_1267" data-name="Path 1267" d="M550.661,212.173h.667v4.177h-.667Z"/>
          <path id="Path_1268" data-name="Path 1268" d="M552.45,212.173h.666v4.177h-.666Z"/>
          <path id="Path_1269" data-name="Path 1269" d="M554.238,212.173h.667v6.246h-.667Z"/>
          <path id="Path_1270" data-name="Path 1270" d="M556.027,212.173h.666v4.177h-.666Z"/>
          <path id="Path_1271" data-name="Path 1271" d="M557.815,212.173h.667v4.177h-.667Z"/>
          <path id="Path_1272" data-name="Path 1272" d="M559.6,212.173h.667v4.177H559.6Z"/>
          <path id="Path_1273" data-name="Path 1273" d="M561.393,212.173h.666v4.177h-.666Z"/>
        </g>
        <g id="Group_321" data-name="Group 321">
          <path id="Path_1274" data-name="Path 1274" d="M563.161,212.173h.666v7.564h-.666Z"/>
          <path id="Path_1275" data-name="Path 1275" d="M564.949,212.173h.667v4.177h-.667Z"/>
          <path id="Path_1276" data-name="Path 1276" d="M566.738,212.173h.667v4.177h-.667Z"/>
          <path id="Path_1277" data-name="Path 1277" d="M568.526,212.173h.667v4.177h-.667Z"/>
          <path id="Path_1278" data-name="Path 1278" d="M570.315,212.173h.667v4.177h-.667Z"/>
          <path id="Path_1279" data-name="Path 1279" d="M572.1,212.173h.666v6.246H572.1Z"/>
          <path id="Path_1280" data-name="Path 1280" d="M573.892,212.173h.667v4.177h-.667Z"/>
          <path id="Path_1281" data-name="Path 1281" d="M575.681,212.173h.666v4.177h-.666Z"/>
          <path id="Path_1282" data-name="Path 1282" d="M577.469,212.173h.667v4.177h-.667Z"/>
          <path id="Path_1283" data-name="Path 1283" d="M579.258,212.173h.667v4.177h-.667Z"/>
        </g>
        <g id="Group_322" data-name="Group 322">
          <path id="Path_1284" data-name="Path 1284" d="M581.026,212.173h.667v7.564h-.667Z"/>
        </g>
      </g>
    </g>
  </g>
</svg>
