<svg id="Group_525" data-name="Group 525" xmlns="http://www.w3.org/2000/svg" width="295.939" height="42.178" viewBox="0 0 295.939 42.178">
  <g id="Group_286" data-name="Group 286" transform="translate(-253.782 -365.389)">
    <rect id="Rectangle_199" data-name="Rectangle 199" width="295.939" height="42.178" rx="5.127" transform="translate(253.782 365.389)" fill="#d6ae57"/>
    <g id="Group_285" data-name="Group 285">
      <g id="Group_267" data-name="Group 267">
        <path id="Path_759" data-name="Path 759" d="M269.85,379.941c0,1.921-.792,2.981-2.181,2.981-1.226,0-2.056-1.034-2.075-2.9,0-1.9.907-2.938,2.181-2.938C269.1,377.081,269.85,378.142,269.85,379.941Zm-3.407.087c0,1.469.5,2.3,1.274,2.3.869,0,1.284-.912,1.284-2.355,0-1.391-.4-2.3-1.274-2.3C266.983,377.672,266.443,378.489,266.443,380.028Z"/>
        <path id="Path_760" data-name="Path 760" d="M284.919,377.889H284.9l-1.091.531-.164-.583,1.37-.66h.724v5.65h-.82Z"/>
        <path id="Path_761" data-name="Path 761" d="M301.145,382.827v-.469l.666-.583c1.6-1.373,2.326-2.1,2.336-2.955,0-.574-.309-1.1-1.245-1.1a2.259,2.259,0,0,0-1.332.478l-.27-.539a2.942,2.942,0,0,1,1.775-.574A1.686,1.686,0,0,1,305,378.724c0,1.043-.84,1.886-2.162,3.034l-.5.417v.017h2.818v.635Z"/>
        <path id="Path_762" data-name="Path 762" d="M318.927,381.949a3.071,3.071,0,0,0,1.39.356c1.09,0,1.428-.625,1.419-1.1-.01-.791-.8-1.13-1.622-1.13h-.473v-.574h.473c.618,0,1.4-.286,1.4-.956,0-.452-.319-.852-1.1-.852a2.47,2.47,0,0,0-1.254.374l-.222-.556a3.211,3.211,0,0,1,1.64-.435c1.236,0,1.8.661,1.8,1.347a1.434,1.434,0,0,1-1.158,1.33v.018a1.532,1.532,0,0,1,1.4,1.451c0,.9-.782,1.7-2.287,1.7a3.463,3.463,0,0,1-1.631-.382Z"/>
        <path id="Path_763" data-name="Path 763" d="M338.5,382.827v-1.539h-2.915v-.5l2.8-3.607h.917v3.512h.878v.6H339.3v1.539Zm0-2.138V378.8c0-.3.01-.591.029-.886H338.5c-.193.33-.347.573-.521.834l-1.535,1.921v.018Z"/>
        <path id="Path_764" data-name="Path 764" d="M357.933,377.82H355.54l-.242,1.452a3.621,3.621,0,0,1,.512-.035,2.894,2.894,0,0,1,1.351.3,1.59,1.59,0,0,1,.9,1.452,2.094,2.094,0,0,1-2.336,1.929,3.336,3.336,0,0,1-1.563-.347l.212-.583a3.048,3.048,0,0,0,1.341.313,1.335,1.335,0,0,0,1.487-1.225c-.01-.73-.55-1.252-1.805-1.252a7.217,7.217,0,0,0-.869.061l.406-2.712h3Z"/>
        <path id="Path_765" data-name="Path 765" d="M375.042,377.716a3.355,3.355,0,0,0-.637.035,2.417,2.417,0,0,0-2.181,2.007h.028a1.952,1.952,0,0,1,1.516-.652,1.766,1.766,0,0,1,1.891,1.826,1.985,1.985,0,0,1-2.084,1.99,2.173,2.173,0,0,1-2.22-2.407,3.365,3.365,0,0,1,1.062-2.547,3.58,3.58,0,0,1,2.007-.834,4.34,4.34,0,0,1,.618-.044Zm-.242,3.259a1.2,1.2,0,0,0-1.293-1.3,1.419,1.419,0,0,0-1.216.7.6.6,0,0,0-.1.339c.019.931.492,1.617,1.38,1.617A1.227,1.227,0,0,0,374.8,380.975Z"/>
        <path id="Path_766" data-name="Path 766" d="M393.971,377.177v.5l-2.731,5.146h-.878l2.721-5v-.018h-3.068v-.634Z"/>
        <path id="Path_767" data-name="Path 767" d="M406.644,381.393a1.643,1.643,0,0,1,1.245-1.513l-.009-.026a1.409,1.409,0,0,1-.994-1.269c0-.895.839-1.5,1.939-1.5,1.216,0,1.824.687,1.824,1.391a1.442,1.442,0,0,1-1.032,1.321v.026a1.6,1.6,0,0,1,1.264,1.461c0,.982-.936,1.642-2.133,1.642C407.436,382.922,406.644,382.218,406.644,381.393Zm3.378-.035c0-.687-.531-1.017-1.38-1.235-.734.192-1.129.627-1.129,1.165-.029.574.453,1.078,1.255,1.078C409.53,382.366,410.022,381.94,410.022,381.358Zm-2.335-2.825c0,.565.472.869,1.2,1.043.541-.165.956-.513.956-1.026a.929.929,0,0,0-1.062-.921C408.073,377.629,407.687,378.046,407.687,378.533Z"/>
        <path id="Path_768" data-name="Path 768" d="M425.61,382.257a3.874,3.874,0,0,0,.685-.026,2.486,2.486,0,0,0,1.312-.547,2.4,2.4,0,0,0,.831-1.5h-.03a1.928,1.928,0,0,1-1.476.608,1.726,1.726,0,0,1-1.853-1.73,2.041,2.041,0,0,1,2.143-2.007c1.283,0,2.074.938,2.074,2.381a3.385,3.385,0,0,1-1.08,2.651,3.305,3.305,0,0,1-1.824.757,4.4,4.4,0,0,1-.782.043Zm.309-3.251a1.14,1.14,0,0,0,1.206,1.2,1.445,1.445,0,0,0,1.235-.591.47.47,0,0,0,.078-.278c0-.965-.4-1.7-1.284-1.7A1.26,1.26,0,0,0,425.919,379.006Z"/>
        <path id="Path_769" data-name="Path 769" d="M442.211,377.889h-.02l-1.09.531-.164-.583,1.37-.66h.724v5.65h-.82Z"/>
        <path id="Path_770" data-name="Path 770" d="M449.489,379.941c0,1.921-.791,2.981-2.181,2.981-1.225,0-2.055-1.034-2.074-2.9,0-1.9.907-2.938,2.181-2.938C448.737,377.081,449.489,378.142,449.489,379.941Zm-3.406.087c0,1.469.5,2.3,1.274,2.3.868,0,1.283-.912,1.283-2.355,0-1.391-.4-2.3-1.273-2.3C446.623,377.672,446.083,378.489,446.083,380.028Z"/>
        <path id="Path_771" data-name="Path 771" d="M460.145,377.889h-.019l-1.091.531-.164-.583,1.37-.66h.724v5.65h-.82Z"/>
        <path id="Path_772" data-name="Path 772" d="M465.1,377.889h-.019l-1.091.531-.164-.583,1.371-.66h.724v5.65H465.1Z"/>
        <path id="Path_773" data-name="Path 773" d="M479.23,377.889h-.02l-1.09.531-.164-.583,1.37-.66h.724v5.65h-.82Z"/>
        <path id="Path_774" data-name="Path 774" d="M482.34,382.827v-.469l.665-.583c1.6-1.373,2.326-2.1,2.336-2.955,0-.574-.309-1.1-1.245-1.1a2.264,2.264,0,0,0-1.332.478l-.27-.539a2.942,2.942,0,0,1,1.776-.574,1.685,1.685,0,0,1,1.92,1.643c0,1.043-.839,1.886-2.161,3.034l-.5.417v.017h2.818v.635Z"/>
        <path id="Path_775" data-name="Path 775" d="M497.416,377.889H497.4l-1.091.531-.164-.583,1.37-.66h.724v5.65h-.82Z"/>
        <path id="Path_776" data-name="Path 776" d="M500.728,381.949a3.079,3.079,0,0,0,1.39.356c1.091,0,1.428-.625,1.419-1.1-.01-.791-.8-1.13-1.622-1.13h-.472v-.574h.472c.618,0,1.4-.286,1.4-.956,0-.452-.319-.852-1.1-.852a2.474,2.474,0,0,0-1.255.374l-.222-.556a3.212,3.212,0,0,1,1.641-.435c1.235,0,1.8.661,1.8,1.347a1.434,1.434,0,0,1-1.159,1.33v.018a1.532,1.532,0,0,1,1.4,1.451c0,.9-.782,1.7-2.287,1.7a3.466,3.466,0,0,1-1.631-.382Z"/>
        <path id="Path_777" data-name="Path 777" d="M514.837,377.889h-.019l-1.091.531-.164-.583,1.37-.66h.725v5.65h-.821Z"/>
        <path id="Path_778" data-name="Path 778" d="M520.572,382.827v-1.539h-2.915v-.5l2.8-3.607h.917v3.512h.878v.6h-.878v1.539Zm0-2.138V378.8c0-.3.01-.591.029-.886h-.029c-.193.33-.347.573-.521.834l-1.534,1.921v.018Z"/>
        <path id="Path_779" data-name="Path 779" d="M533.327,377.889h-.019l-1.09.531-.164-.583,1.37-.66h.724v5.65h-.821Z"/>
        <path id="Path_780" data-name="Path 780" d="M540.182,377.82h-2.394l-.241,1.452a3.621,3.621,0,0,1,.512-.035,2.894,2.894,0,0,1,1.351.3,1.589,1.589,0,0,1,.9,1.452,2.093,2.093,0,0,1-2.335,1.929,3.336,3.336,0,0,1-1.563-.347l.212-.583a3.049,3.049,0,0,0,1.341.313,1.334,1.334,0,0,0,1.486-1.225c-.009-.73-.55-1.252-1.8-1.252a7.216,7.216,0,0,0-.869.061l.406-2.712h3Z"/>
      </g>
      <g id="Group_284" data-name="Group 284">
        <g id="Group_268" data-name="Group 268">
          <path id="Path_781" data-name="Path 781" d="M266.943,366.608h.667v7.563h-.667Z"/>
          <path id="Path_782" data-name="Path 782" d="M268.731,366.608h.667v4.176h-.667Z"/>
          <path id="Path_783" data-name="Path 783" d="M270.52,366.608h.667v4.176h-.667Z"/>
          <path id="Path_784" data-name="Path 784" d="M272.308,366.608h.667v4.176h-.667Z"/>
          <path id="Path_785" data-name="Path 785" d="M274.1,366.608h.667v4.176H274.1Z"/>
          <path id="Path_786" data-name="Path 786" d="M275.886,366.608h.666v6.245h-.666Z"/>
          <path id="Path_787" data-name="Path 787" d="M277.674,366.608h.667v4.176h-.667Z"/>
          <path id="Path_788" data-name="Path 788" d="M279.463,366.608h.666v4.176h-.666Z"/>
          <path id="Path_789" data-name="Path 789" d="M281.251,366.608h.667v4.176h-.667Z"/>
          <path id="Path_790" data-name="Path 790" d="M283.04,366.608h.667v4.176h-.667Z"/>
        </g>
        <g id="Group_269" data-name="Group 269">
          <path id="Path_791" data-name="Path 791" d="M284.808,366.608h.667v7.563h-.667Z"/>
          <path id="Path_792" data-name="Path 792" d="M286.6,366.608h.666v4.176H286.6Z"/>
          <path id="Path_793" data-name="Path 793" d="M288.385,366.608h.667v4.176h-.667Z"/>
          <path id="Path_794" data-name="Path 794" d="M290.174,366.608h.666v4.176h-.666Z"/>
          <path id="Path_795" data-name="Path 795" d="M291.962,366.608h.667v4.176h-.667Z"/>
          <path id="Path_796" data-name="Path 796" d="M293.751,366.608h.667v6.245h-.667Z"/>
          <path id="Path_797" data-name="Path 797" d="M295.539,366.608h.667v4.176h-.667Z"/>
          <path id="Path_798" data-name="Path 798" d="M297.328,366.608h.667v4.176h-.667Z"/>
          <path id="Path_799" data-name="Path 799" d="M299.117,366.608h.666v4.176h-.666Z"/>
          <path id="Path_800" data-name="Path 800" d="M300.9,366.608h.667v4.176H300.9Z"/>
        </g>
        <g id="Group_270" data-name="Group 270">
          <path id="Path_801" data-name="Path 801" d="M302.673,366.608h.667v7.563h-.667Z"/>
          <path id="Path_802" data-name="Path 802" d="M304.462,366.608h.667v4.176h-.667Z"/>
          <path id="Path_803" data-name="Path 803" d="M306.251,366.608h.666v4.176h-.666Z"/>
          <path id="Path_804" data-name="Path 804" d="M308.039,366.608h.667v4.176h-.667Z"/>
          <path id="Path_805" data-name="Path 805" d="M309.828,366.608h.666v4.176h-.666Z"/>
          <path id="Path_806" data-name="Path 806" d="M311.616,366.608h.667v6.245h-.667Z"/>
          <path id="Path_807" data-name="Path 807" d="M313.4,366.608h.666v4.176H313.4Z"/>
          <path id="Path_808" data-name="Path 808" d="M315.193,366.608h.667v4.176h-.667Z"/>
          <path id="Path_809" data-name="Path 809" d="M316.982,366.608h.667v4.176h-.667Z"/>
          <path id="Path_810" data-name="Path 810" d="M318.771,366.608h.666v4.176h-.666Z"/>
        </g>
        <g id="Group_271" data-name="Group 271">
          <path id="Path_811" data-name="Path 811" d="M320.539,366.608h.666v7.563h-.666Z"/>
          <path id="Path_812" data-name="Path 812" d="M322.327,366.608h.667v4.176h-.667Z"/>
          <path id="Path_813" data-name="Path 813" d="M324.116,366.608h.667v4.176h-.667Z"/>
          <path id="Path_814" data-name="Path 814" d="M325.9,366.608h.667v4.176H325.9Z"/>
          <path id="Path_815" data-name="Path 815" d="M327.693,366.608h.667v4.176h-.667Z"/>
          <path id="Path_816" data-name="Path 816" d="M329.482,366.608h.666v6.245h-.666Z"/>
          <path id="Path_817" data-name="Path 817" d="M331.27,366.608h.667v4.176h-.667Z"/>
          <path id="Path_818" data-name="Path 818" d="M333.059,366.608h.666v4.176h-.666Z"/>
          <path id="Path_819" data-name="Path 819" d="M334.847,366.608h.667v4.176h-.667Z"/>
          <path id="Path_820" data-name="Path 820" d="M336.636,366.608h.667v4.176h-.667Z"/>
        </g>
        <g id="Group_272" data-name="Group 272">
          <path id="Path_821" data-name="Path 821" d="M338.4,366.608h.667v7.563H338.4Z"/>
          <path id="Path_822" data-name="Path 822" d="M340.193,366.608h.666v4.176h-.666Z"/>
          <path id="Path_823" data-name="Path 823" d="M341.981,366.608h.667v4.176h-.667Z"/>
          <path id="Path_824" data-name="Path 824" d="M343.77,366.608h.666v4.176h-.666Z"/>
          <path id="Path_825" data-name="Path 825" d="M345.558,366.608h.667v4.176h-.667Z"/>
          <path id="Path_826" data-name="Path 826" d="M347.347,366.608h.667v6.245h-.667Z"/>
          <path id="Path_827" data-name="Path 827" d="M349.135,366.608h.667v4.176h-.667Z"/>
          <path id="Path_828" data-name="Path 828" d="M350.924,366.608h.667v4.176h-.667Z"/>
          <path id="Path_829" data-name="Path 829" d="M352.713,366.608h.666v4.176h-.666Z"/>
          <path id="Path_830" data-name="Path 830" d="M354.5,366.608h.667v4.176H354.5Z"/>
        </g>
        <g id="Group_273" data-name="Group 273">
          <path id="Path_831" data-name="Path 831" d="M356.269,366.608h.667v7.563h-.667Z"/>
          <path id="Path_832" data-name="Path 832" d="M358.058,366.608h.667v4.176h-.667Z"/>
          <path id="Path_833" data-name="Path 833" d="M359.846,366.608h.667v4.176h-.667Z"/>
          <path id="Path_834" data-name="Path 834" d="M361.635,366.608h.667v4.176h-.667Z"/>
          <path id="Path_835" data-name="Path 835" d="M363.423,366.608h.667v4.176h-.667Z"/>
          <path id="Path_836" data-name="Path 836" d="M365.212,366.608h.667v6.245h-.667Z"/>
          <path id="Path_837" data-name="Path 837" d="M367,366.608h.667v4.176H367Z"/>
          <path id="Path_838" data-name="Path 838" d="M368.789,366.608h.667v4.176h-.667Z"/>
          <path id="Path_839" data-name="Path 839" d="M370.578,366.608h.667v4.176h-.667Z"/>
          <path id="Path_840" data-name="Path 840" d="M372.366,366.608h.667v4.176h-.667Z"/>
        </g>
        <g id="Group_274" data-name="Group 274">
          <path id="Path_841" data-name="Path 841" d="M374.134,366.608h.667v7.563h-.667Z"/>
          <path id="Path_842" data-name="Path 842" d="M375.923,366.608h.667v4.176h-.667Z"/>
          <path id="Path_843" data-name="Path 843" d="M377.712,366.608h.666v4.176h-.666Z"/>
          <path id="Path_844" data-name="Path 844" d="M379.5,366.608h.667v4.176H379.5Z"/>
          <path id="Path_845" data-name="Path 845" d="M381.289,366.608h.666v4.176h-.666Z"/>
          <path id="Path_846" data-name="Path 846" d="M383.077,366.608h.667v6.245h-.667Z"/>
          <path id="Path_847" data-name="Path 847" d="M384.866,366.608h.666v4.176h-.666Z"/>
          <path id="Path_848" data-name="Path 848" d="M386.654,366.608h.667v4.176h-.667Z"/>
          <path id="Path_849" data-name="Path 849" d="M388.443,366.608h.667v4.176h-.667Z"/>
          <path id="Path_850" data-name="Path 850" d="M390.232,366.608h.666v4.176h-.666Z"/>
        </g>
        <g id="Group_275" data-name="Group 275">
          <path id="Path_851" data-name="Path 851" d="M392,366.608h.666v7.563H392Z"/>
          <path id="Path_852" data-name="Path 852" d="M393.788,366.608h.667v4.176h-.667Z"/>
          <path id="Path_853" data-name="Path 853" d="M395.577,366.608h.667v4.176h-.667Z"/>
          <path id="Path_854" data-name="Path 854" d="M397.365,366.608h.667v4.176h-.667Z"/>
          <path id="Path_855" data-name="Path 855" d="M399.154,366.608h.667v4.176h-.667Z"/>
          <path id="Path_856" data-name="Path 856" d="M400.943,366.608h.666v6.245h-.666Z"/>
          <path id="Path_857" data-name="Path 857" d="M402.731,366.608h.667v4.176h-.667Z"/>
          <path id="Path_858" data-name="Path 858" d="M404.52,366.608h.666v4.176h-.666Z"/>
          <path id="Path_859" data-name="Path 859" d="M406.308,366.608h.667v4.176h-.667Z"/>
          <path id="Path_860" data-name="Path 860" d="M408.1,366.608h.667v4.176H408.1Z"/>
        </g>
        <g id="Group_276" data-name="Group 276">
          <path id="Path_861" data-name="Path 861" d="M409.865,366.608h.667v7.563h-.667Z"/>
          <path id="Path_862" data-name="Path 862" d="M411.654,366.608h.666v4.176h-.666Z"/>
          <path id="Path_863" data-name="Path 863" d="M413.442,366.608h.667v4.176h-.667Z"/>
          <path id="Path_864" data-name="Path 864" d="M415.231,366.608h.666v4.176h-.666Z"/>
          <path id="Path_865" data-name="Path 865" d="M417.019,366.608h.667v4.176h-.667Z"/>
          <path id="Path_866" data-name="Path 866" d="M418.808,366.608h.667v6.245h-.667Z"/>
          <path id="Path_867" data-name="Path 867" d="M420.6,366.608h.667v4.176H420.6Z"/>
          <path id="Path_868" data-name="Path 868" d="M422.385,366.608h.667v4.176h-.667Z"/>
          <path id="Path_869" data-name="Path 869" d="M424.174,366.608h.666v4.176h-.666Z"/>
          <path id="Path_870" data-name="Path 870" d="M425.962,366.608h.667v4.176h-.667Z"/>
        </g>
        <g id="Group_277" data-name="Group 277">
          <path id="Path_871" data-name="Path 871" d="M427.73,366.608h.667v7.563h-.667Z"/>
          <path id="Path_872" data-name="Path 872" d="M429.519,366.608h.667v4.176h-.667Z"/>
          <path id="Path_873" data-name="Path 873" d="M431.308,366.608h.666v4.176h-.666Z"/>
          <path id="Path_874" data-name="Path 874" d="M433.1,366.608h.667v4.176H433.1Z"/>
          <path id="Path_875" data-name="Path 875" d="M434.885,366.608h.666v4.176h-.666Z"/>
          <path id="Path_876" data-name="Path 876" d="M436.673,366.608h.667v6.245h-.667Z"/>
          <path id="Path_877" data-name="Path 877" d="M438.462,366.608h.666v4.176h-.666Z"/>
          <path id="Path_878" data-name="Path 878" d="M440.25,366.608h.667v4.176h-.667Z"/>
          <path id="Path_879" data-name="Path 879" d="M442.039,366.608h.667v4.176h-.667Z"/>
          <path id="Path_880" data-name="Path 880" d="M443.828,366.608h.666v4.176h-.666Z"/>
        </g>
        <g id="Group_278" data-name="Group 278">
          <path id="Path_881" data-name="Path 881" d="M445.6,366.608h.666v7.563H445.6Z"/>
          <path id="Path_882" data-name="Path 882" d="M447.384,366.608h.667v4.176h-.667Z"/>
          <path id="Path_883" data-name="Path 883" d="M449.173,366.608h.667v4.176h-.667Z"/>
          <path id="Path_884" data-name="Path 884" d="M450.961,366.608h.667v4.176h-.667Z"/>
          <path id="Path_885" data-name="Path 885" d="M452.75,366.608h.667v4.176h-.667Z"/>
          <path id="Path_886" data-name="Path 886" d="M454.539,366.608h.666v6.245h-.666Z"/>
          <path id="Path_887" data-name="Path 887" d="M456.327,366.608h.667v4.176h-.667Z"/>
          <path id="Path_888" data-name="Path 888" d="M458.116,366.608h.666v4.176h-.666Z"/>
          <path id="Path_889" data-name="Path 889" d="M459.9,366.608h.667v4.176H459.9Z"/>
          <path id="Path_890" data-name="Path 890" d="M461.693,366.608h.667v4.176h-.667Z"/>
        </g>
        <g id="Group_279" data-name="Group 279">
          <path id="Path_891" data-name="Path 891" d="M463.461,366.608h.667v7.563h-.667Z"/>
          <path id="Path_892" data-name="Path 892" d="M465.249,366.608h.667v4.176h-.667Z"/>
          <path id="Path_893" data-name="Path 893" d="M467.038,366.608h.667v4.176h-.667Z"/>
          <path id="Path_894" data-name="Path 894" d="M468.826,366.608h.667v4.176h-.667Z"/>
          <path id="Path_895" data-name="Path 895" d="M470.615,366.608h.667v4.176h-.667Z"/>
          <path id="Path_896" data-name="Path 896" d="M472.4,366.608h.667v6.245H472.4Z"/>
          <path id="Path_897" data-name="Path 897" d="M474.192,366.608h.667v4.176h-.667Z"/>
          <path id="Path_898" data-name="Path 898" d="M475.981,366.608h.667v4.176h-.667Z"/>
          <path id="Path_899" data-name="Path 899" d="M477.769,366.608h.667v4.176h-.667Z"/>
          <path id="Path_900" data-name="Path 900" d="M479.558,366.608h.667v4.176h-.667Z"/>
        </g>
        <g id="Group_280" data-name="Group 280">
          <path id="Path_901" data-name="Path 901" d="M481.326,366.608h.667v7.563h-.667Z"/>
          <path id="Path_902" data-name="Path 902" d="M483.115,366.608h.666v4.176h-.666Z"/>
          <path id="Path_903" data-name="Path 903" d="M484.9,366.608h.667v4.176H484.9Z"/>
          <path id="Path_904" data-name="Path 904" d="M486.692,366.608h.666v4.176h-.666Z"/>
          <path id="Path_905" data-name="Path 905" d="M488.48,366.608h.667v4.176h-.667Z"/>
          <path id="Path_906" data-name="Path 906" d="M490.269,366.608h.667v6.245h-.667Z"/>
          <path id="Path_907" data-name="Path 907" d="M492.057,366.608h.667v4.176h-.667Z"/>
          <path id="Path_908" data-name="Path 908" d="M493.846,366.608h.667v4.176h-.667Z"/>
          <path id="Path_909" data-name="Path 909" d="M495.635,366.608h.666v4.176h-.666Z"/>
          <path id="Path_910" data-name="Path 910" d="M497.423,366.608h.667v4.176h-.667Z"/>
        </g>
        <g id="Group_281" data-name="Group 281">
          <path id="Path_911" data-name="Path 911" d="M499.191,366.608h.667v7.563h-.667Z"/>
          <path id="Path_912" data-name="Path 912" d="M500.98,366.608h.667v4.176h-.667Z"/>
          <path id="Path_913" data-name="Path 913" d="M502.769,366.608h.666v4.176h-.666Z"/>
          <path id="Path_914" data-name="Path 914" d="M504.557,366.608h.667v4.176h-.667Z"/>
          <path id="Path_915" data-name="Path 915" d="M506.346,366.608h.666v4.176h-.666Z"/>
          <path id="Path_916" data-name="Path 916" d="M508.134,366.608h.667v6.245h-.667Z"/>
          <path id="Path_917" data-name="Path 917" d="M509.923,366.608h.666v4.176h-.666Z"/>
          <path id="Path_918" data-name="Path 918" d="M511.711,366.608h.667v4.176h-.667Z"/>
          <path id="Path_919" data-name="Path 919" d="M513.5,366.608h.667v4.176H513.5Z"/>
          <path id="Path_920" data-name="Path 920" d="M515.289,366.608h.666v4.176h-.666Z"/>
        </g>
        <g id="Group_282" data-name="Group 282">
          <path id="Path_921" data-name="Path 921" d="M517.057,366.608h.666v7.563h-.666Z"/>
          <path id="Path_922" data-name="Path 922" d="M518.845,366.608h.667v4.176h-.667Z"/>
          <path id="Path_923" data-name="Path 923" d="M520.634,366.608h.667v4.176h-.667Z"/>
          <path id="Path_924" data-name="Path 924" d="M522.422,366.608h.667v4.176h-.667Z"/>
          <path id="Path_925" data-name="Path 925" d="M524.211,366.608h.667v4.176h-.667Z"/>
          <path id="Path_926" data-name="Path 926" d="M526,366.608h.666v6.245H526Z"/>
          <path id="Path_927" data-name="Path 927" d="M527.788,366.608h.667v4.176h-.667Z"/>
          <path id="Path_928" data-name="Path 928" d="M529.577,366.608h.666v4.176h-.666Z"/>
          <path id="Path_929" data-name="Path 929" d="M531.365,366.608h.667v4.176h-.667Z"/>
          <path id="Path_930" data-name="Path 930" d="M533.154,366.608h.667v4.176h-.667Z"/>
        </g>
        <g id="Group_283" data-name="Group 283">
          <path id="Path_931" data-name="Path 931" d="M534.922,366.608h.667v7.563h-.667Z"/>
        </g>
      </g>
    </g>
  </g>
</svg>
